<svg xmlns="http://www.w3.org/2000/svg" width="400" height="280" viewBox="0 0 400 280" fill="none"><path d="M327.413 189.844C299.137 255.927 224.499 284.313 166.018 279.473C150.051 278.152 117.924 275.492 92.8394 251.773C44.666 206.22 52.0851 111.005 98.2013 54.9464C104.14 47.7269 145.247 -0.640527 209.306 0.00643072C256.207 0.480799 289.125 26.9707 293.128 30.2711C298.186 34.4405 309.338 44.3468 319.389 60.0645C343.006 96.9936 345.082 148.547 327.413 189.844Z" fill="url(#paint0_linear)"></path><path d="M117.591 118.532C117.591 118.532 118.197 93.0386 106.454 86.2158C94.7106 79.393 72.3828 75.1267 71.546 38.5206C71.0565 17.0892 70.5255 7.71995 70.1702 3.63332C70.032 2.03965 71.4481 0.752797 73.0208 1.04953C84.1423 3.14482 120.273 11.7672 127.848 36.4253C136.827 65.6575 117.591 118.532 117.591 118.532Z" fill="#002857"></path><path d="M81.6209 11.2342C93.8295 22.1214 107.946 41.3889 115.471 60.6573C116.437 63.8325 119.262 70.5857 120.489 82.5842C121.585 92.5914 121.04 103.165 119.711 110.165C119.628 110.607 119.201 110.898 118.757 110.814C117.996 110.67 118.097 109.851 118.104 109.878C119.622 97.9184 118.992 83.0334 115.515 69.6027C111.073 53.1118 101.165 37.1226 90.9164 23.5617L89.8616 22.2264C81.9217 12.0305 80.2501 11.9558 80.992 11.2453C81.1687 11.0767 81.4432 11.0757 81.6209 11.2342Z" fill="#637C99"></path><path d="M104.389 167.957C105.695 169.151 95.6101 144.412 99.8384 111.429C101.831 95.8867 107.248 77.2692 100.886 67.6214C95.5919 59.5915 70.5256 56.3456 62.2647 55.4816C61.2321 55.3736 60.5407 56.5151 61.116 57.3781C63.9514 61.6363 69.815 71.4386 69.7131 79.5583C69.5788 90.2609 77.1432 99.3072 85.067 103.476C92.9897 107.644 97.1908 110.668 97.3513 125.336C97.5098 140.003 100.678 164.565 104.389 167.957Z" fill="#637C99"></path><path d="M72.069 62.8898C81.9499 66.2366 91.3524 73.9436 94.2958 84.0971L94.5714 85.064C95.1982 87.3268 97.9448 102.911 98.3798 115.291C98.3849 115.446 98.2648 115.575 98.1103 115.581C97.8479 115.59 97.8055 115.292 97.8217 115.322C97.0828 108.184 95.708 99.0054 94.4977 92.0887C93.2329 84.5573 92.3043 79.4362 86.2671 73.0241C79.5032 66.0418 71.8903 63.2985 71.9125 63.3097C71.7974 63.2632 71.7429 63.132 71.7894 63.017C71.8338 62.9079 71.9579 62.8524 72.069 62.8898Z" fill="url(#paint1_linear)"></path><path d="M106.842 34.3211L247.624 38.0514C255.391 38.2573 261.633 44.5129 261.823 52.2794L266.806 256.641C266.955 262.719 262.041 267.711 255.961 267.661L94.5299 266.318C88.8167 266.271 84.2542 261.548 84.4056 255.837L89.8483 50.4355C90.0916 41.2943 97.6994 34.0798 106.842 34.3211Z" fill="url(#paint2_linear)"></path><path d="M118.214 263.425C118.209 263.425 118.205 263.425 118.201 263.425L100.153 262.713C94.1453 262.476 89.386 257.394 89.5455 251.384L90.2672 224.128C90.2723 223.945 90.4217 223.801 90.6034 223.801C90.6064 223.801 90.6094 223.801 90.6125 223.801C90.7982 223.806 90.9445 223.96 90.9395 224.146L90.2178 251.402C90.0684 257.046 94.537 261.819 100.178 262.042L118.226 262.753C118.412 262.761 118.557 262.917 118.549 263.103C118.543 263.282 118.394 263.425 118.214 263.425Z" fill="#637C99"></path><path d="M90.8284 216.029C90.8254 216.029 90.8224 216.029 90.8194 216.029C90.6336 216.024 90.4873 215.87 90.4923 215.684L90.6094 211.271C90.6145 211.085 90.781 210.933 90.9546 210.944C91.1403 210.949 91.2867 211.103 91.2817 211.289L91.1646 215.702C91.1595 215.885 91.0091 216.029 90.8284 216.029Z" fill="#637C99"></path><path d="M107.319 32.6789C126.475 35.7945 192.372 45.6089 247.141 42.8616C249.64 42.7365 251.752 44.6824 251.819 47.1814L257.283 252.467C257.357 255.282 255.147 257.628 252.333 257.72C229.308 258.471 134.495 261.221 100.82 256.791C98.7714 256.521 97.2573 254.75 97.2997 252.683L101.738 37.3297C101.799 34.4047 104.431 32.2085 107.319 32.6789Z" fill="url(#paint3_linear)"></path><path d="M112.647 43.4077C130.51 46.3135 191.958 55.4648 243.031 52.9032C245.36 52.7861 247.331 54.6008 247.393 56.9313L252.488 248.361C252.558 250.986 250.496 253.174 247.872 253.26C226.401 253.961 137.988 256.525 106.586 252.393C104.675 252.142 103.263 250.49 103.303 248.563L107.442 47.7457C107.499 45.0165 109.953 42.9697 112.647 43.4077Z" fill="#637C99"></path><path d="M186.702 8.5911C181.71 4.91929 177.287 4.87185 174.15 5.70755C171.288 6.47057 169.376 9.16236 169.567 12.1176L170.521 26.8038L186.457 28.6448C186.458 28.6448 196.491 15.7934 186.702 8.5911ZM179.364 20.2242C177.165 20.1657 175.429 18.3358 175.487 16.1366C175.546 13.9373 177.376 12.2013 179.575 12.2599C181.775 12.3184 183.511 14.1483 183.453 16.3475C183.394 18.5468 181.564 20.2828 179.364 20.2242Z" fill="url(#paint4_linear)"></path><path d="M171.999 21.0336C171.723 20.9246 171.52 20.6642 171.5 20.3493L171.349 18.0108C171.321 17.5748 171.651 17.1983 172.087 17.17C172.523 17.1408 172.9 17.4708 172.927 17.9088L173.079 20.2474C173.107 20.6834 172.777 21.0598 172.341 21.0881C172.221 21.0952 172.105 21.076 171.999 21.0336ZM171.702 16.4504C171.427 16.3414 171.224 16.081 171.203 15.7661L171.088 13.9908C170.894 10.9831 172.856 8.2398 175.756 7.46668C177.74 6.93781 179.773 6.90753 181.797 7.37887C182.216 7.48283 182.487 7.90269 182.389 8.32962C182.29 8.75555 181.865 9.01998 181.439 8.92107C179.671 8.50928 177.897 8.53552 176.165 8.99677C173.992 9.57509 172.523 11.633 172.669 13.8898L172.784 15.6662C172.812 16.1022 172.482 16.4787 172.046 16.5069C171.924 16.512 171.807 16.4928 171.702 16.4504Z" fill="#637C99"></path><path d="M148.47 35.6937L148.665 28.3279C148.732 25.7855 150.893 23.8042 153.433 23.9586L204.175 27.0441C206.427 27.1813 208.206 29.0081 208.281 31.2629L208.518 38.3512L148.47 35.6937Z" fill="url(#paint5_linear)"></path><path d="M165.474 26.6707L167.658 26.7282L165.474 26.6707Z" fill="#637C99"></path><path d="M150.999 33.8041C150.699 33.685 150.49 33.3892 150.5 33.0471L150.579 30.0677C150.611 28.8444 151.118 27.7069 152.006 26.8642C152.894 26.0214 154.057 25.5753 155.281 25.6076L163.311 25.8206C163.746 25.8337 164.092 26.195 164.081 26.633C164.07 27.0701 163.706 27.4142 163.269 27.4031L155.239 27.1902C153.586 27.1468 152.205 28.4558 152.16 30.109L152.082 33.0885C152.07 33.5255 151.706 33.8697 151.269 33.8586C151.174 33.8565 151.082 33.8374 150.999 33.8041Z" fill="#637C99"></path><path d="M132.628 32.5769L221.44 34.9275C224.634 35.0123 227.303 37.3822 227.764 40.5433L227.828 40.9793C228.333 44.4412 225.596 47.5235 222.098 47.4307L130.981 45.0165C128.888 44.9609 127.266 43.1664 127.422 41.0792L127.726 37.0067C127.917 34.4582 130.074 32.5093 132.628 32.5769Z" fill="url(#paint6_linear)"></path><path opacity="0.57" d="M242.465 228.752C242.45 230.267 241.416 231.5 240.154 231.505L116.041 231.978C114.653 231.983 113.529 230.698 113.531 229.107V228.866C113.533 227.275 114.661 225.983 116.05 225.981L240.209 225.783C241.471 225.781 242.482 227.008 242.467 228.524L242.465 228.752Z" fill="white"></path><path opacity="0.57" d="M242.465 241.646C242.45 243.161 241.416 244.393 240.154 244.399L116.041 244.872C114.653 244.877 113.529 243.592 113.531 242V241.76C113.533 240.169 114.661 238.877 116.05 238.875L240.209 238.677C241.471 238.675 242.482 239.902 242.467 241.418L242.465 241.646Z" fill="white"></path><path opacity="0.57" d="M242.94 136.025C242.925 137.54 241.891 138.773 240.63 138.778L116.517 139.251C115.129 139.256 114.004 137.971 114.006 136.38V136.139C114.008 134.548 115.137 133.256 116.526 133.254L240.684 133.056C241.947 133.054 242.957 134.281 242.942 135.797L242.94 136.025Z" fill="white"></path><path opacity="0.57" d="M242.94 148.919C242.925 150.434 241.891 151.667 240.63 151.672L116.517 152.145C115.129 152.15 114.004 150.865 114.006 149.274V149.033C114.008 147.442 115.137 146.15 116.526 146.148L240.684 145.95C241.947 145.948 242.957 147.175 242.942 148.691L242.94 148.919Z" fill="white"></path><path opacity="0.57" d="M240.294 180.989C240.278 182.504 239.787 183.742 239.194 183.754L180.902 184.868C180.25 184.88 179.729 183.602 179.738 182.01L179.739 181.77C179.748 180.178 180.285 178.88 180.937 178.871L239.25 178.032C239.842 178.024 240.311 179.245 240.297 180.761L240.294 180.989Z" fill="white"></path><path opacity="0.57" d="M240.393 193.744C240.378 195.259 239.887 196.496 239.294 196.509L181.002 197.623C180.35 197.635 179.829 196.356 179.838 194.765L179.839 194.524C179.848 192.933 180.385 191.635 181.037 191.626L239.35 190.787C239.942 190.779 240.411 192 240.397 193.516L240.393 193.744Z" fill="white"></path><path opacity="0.57" d="M240.327 205.643C240.312 207.157 239.82 208.395 239.228 208.407L180.935 209.521C180.283 209.533 179.762 208.255 179.771 206.663L179.772 206.423C179.781 204.831 180.318 203.533 180.97 203.524L239.283 202.685C239.876 202.677 240.344 203.898 240.33 205.414L240.327 205.643Z" fill="white"></path><g opacity="0.57"><path opacity="0.57" d="M143.224 101.766H137.484V117.812H143.224V101.766Z" fill="white"></path><path opacity="0.57" d="M152.816 81.001H147.076V117.812H152.816V81.001Z" fill="white"></path><path opacity="0.57" d="M162.407 108.969H156.667V117.812H162.407V108.969Z" fill="white"></path><path opacity="0.57" d="M172 85.9221H166.259V117.812H172V85.9221Z" fill="white"></path><path opacity="0.57" d="M181.591 91.4432H175.851V117.812H181.591V91.4432Z" fill="white"></path><path opacity="0.57" d="M191.183 97.4453H185.443V117.812H191.183V97.4453Z" fill="white"></path><path opacity="0.57" d="M200.775 73.5585H195.034V117.812H200.775V73.5585Z" fill="white"></path><path opacity="0.57" d="M210.367 78.2395H204.626V117.812H210.367V78.2395Z" fill="white"></path><path opacity="0.57" d="M219.958 85.3218H214.218V117.812H219.958V85.3218Z" fill="white"></path><path opacity="0.57" d="M229.55 109.789H223.81V117.812H229.55V109.789Z" fill="white"></path><path opacity="0.57" d="M239.142 94.2046H233.401V117.812H239.142V94.2046Z" fill="white"></path></g><path opacity="0.57" d="M170.046 214.712H116.625C115.677 214.712 114.909 213.944 114.909 212.996V167.464C114.909 166.516 115.677 165.748 116.625 165.748H170.046C170.994 165.748 171.762 166.516 171.762 167.464V212.996C171.762 213.943 170.994 214.712 170.046 214.712Z" fill="white"></path><path opacity="0.57" d="M130.632 118.475H114.692C114.122 118.475 113.661 118.014 113.661 117.444V71.2702C113.661 70.701 114.122 70.2397 114.692 70.2397H130.632C131.201 70.2397 131.663 70.701 131.663 71.2702V117.444C131.664 118.014 131.201 118.475 130.632 118.475Z" fill="white"></path><path d="M204.169 145.768C203.539 168.272 201.495 245.896 202.47 273.404C202.573 276.317 205.213 278.657 208.505 278.752C224.786 279.223 284.473 280.419 311.104 279.43C316.65 279.224 321.061 275.247 321.176 270.333C321.729 246.713 322.951 180.277 320.049 149.843C319.701 146.196 316.467 143.292 312.354 142.928C294.623 141.358 234.68 137.519 211.672 138.841C207.523 139.08 204.272 142.088 204.169 145.768Z" fill="url(#paint7_linear)"></path><path d="M208.845 155.691V174.761C208.845 178.419 211.809 181.383 215.467 181.383H306.595C310.252 181.383 313.217 178.419 313.217 174.761V155.691C313.217 152.034 310.253 149.069 306.595 149.069H215.468C211.81 149.069 208.845 152.033 208.845 155.691Z" fill="#002857"></path><path opacity="0.2" d="M308.569 155.582C307.763 154.749 306.659 154.271 305.5 154.252L220.232 152.898C217.952 152.862 216.029 154.586 215.817 156.855L214.045 175.771C213.9 177.32 216.448 178.624 219.697 178.663L303.528 179.679C306.772 179.718 309.453 178.481 309.48 176.933L309.796 158.693C309.816 157.533 309.374 156.414 308.569 155.582Z" fill="white"></path><path d="M231.627 200.719C231.627 204.084 228.899 206.811 225.534 206.811H218.117C214.752 206.811 212.024 204.084 212.024 200.719C212.024 197.354 214.752 194.627 218.117 194.627H225.534C228.899 194.627 231.627 197.355 231.627 200.719Z" fill="url(#paint8_linear)"></path><path d="M259.176 200.719C259.176 204.084 256.449 206.811 253.083 206.811H245.666C242.301 206.811 239.574 204.084 239.574 200.719C239.574 197.354 242.301 194.627 245.666 194.627H253.083C256.449 194.627 259.176 197.355 259.176 200.719Z" fill="url(#paint9_linear)"></path><path d="M285.667 200.719C285.667 204.084 282.94 206.811 279.574 206.811H272.157C268.792 206.811 266.064 204.084 266.064 200.719C266.064 197.354 268.792 194.627 272.157 194.627H279.574C282.94 194.627 285.667 197.355 285.667 200.719Z" fill="url(#paint10_linear)"></path><path d="M312.52 201.614C312.52 205.033 309.748 207.804 306.328 207.804H299.159C295.74 207.804 292.968 205.033 292.968 201.614C292.968 198.194 295.74 195.422 299.159 195.422H306.328C309.748 195.423 312.52 198.195 312.52 201.614Z" fill="url(#paint11_linear)"></path><path d="M231.627 219.791C231.627 223.156 228.899 225.883 225.534 225.883H218.117C214.752 225.883 212.024 223.156 212.024 219.791C212.024 216.426 214.752 213.699 218.117 213.699H225.534C228.899 213.699 231.627 216.426 231.627 219.791Z" fill="url(#paint12_linear)"></path><path d="M259.176 219.791C259.176 223.156 256.449 225.883 253.083 225.883H245.666C242.301 225.883 239.574 223.156 239.574 219.791C239.574 216.426 242.301 213.699 245.666 213.699H253.083C256.449 213.699 259.176 216.426 259.176 219.791Z" fill="url(#paint13_linear)"></path><path d="M285.667 219.791C285.667 223.156 282.94 225.883 279.574 225.883H272.157C268.792 225.883 266.064 223.156 266.064 219.791C266.064 216.426 268.792 213.699 272.157 213.699H279.574C282.94 213.699 285.667 216.426 285.667 219.791Z" fill="url(#paint14_linear)"></path><path d="M313.217 219.791C313.217 223.156 310.49 225.883 307.125 225.883H299.708C296.342 225.883 293.615 223.156 293.615 219.791C293.615 216.426 296.342 213.699 299.708 213.699H307.125C310.489 213.699 313.217 216.426 313.217 219.791Z" fill="url(#paint15_linear)"></path><path d="M231.627 236.68C231.627 240.045 228.899 242.772 225.534 242.772H218.117C214.752 242.772 212.024 240.045 212.024 236.68C212.024 233.315 214.752 230.588 218.117 230.588H225.534C228.899 230.588 231.627 233.316 231.627 236.68Z" fill="url(#paint16_linear)"></path><path d="M259.176 236.68C259.176 240.045 256.449 242.772 253.083 242.772H245.666C242.301 242.772 239.574 240.045 239.574 236.68C239.574 233.315 242.301 230.588 245.666 230.588H253.083C256.449 230.588 259.176 233.316 259.176 236.68Z" fill="url(#paint17_linear)"></path><path d="M285.667 236.68C285.667 240.045 282.94 242.772 279.574 242.772H272.157C268.792 242.772 266.064 240.045 266.064 236.68C266.064 233.315 268.792 230.588 272.157 230.588H279.574C282.94 230.588 285.667 233.316 285.667 236.68Z" fill="url(#paint18_linear)"></path><path opacity="0.63" d="M231.627 255.222C231.627 258.587 228.899 261.314 225.534 261.314H218.117C214.752 261.314 212.024 258.587 212.024 255.222C212.024 251.857 214.752 249.13 218.117 249.13H225.534C228.899 249.13 231.627 251.857 231.627 255.222Z" fill="url(#paint19_linear)"></path><path opacity="0.63" d="M259.176 255.222C259.176 258.587 256.449 261.314 253.083 261.314H245.666C242.301 261.314 239.574 258.587 239.574 255.222C239.574 251.857 242.301 249.13 245.666 249.13H253.083C256.449 249.13 259.176 251.857 259.176 255.222Z" fill="url(#paint20_linear)"></path><path opacity="0.63" d="M285.667 255.222C285.667 258.587 282.94 261.314 279.574 261.314H272.157C268.792 261.314 266.064 258.587 266.064 255.222C266.064 251.857 268.792 249.13 272.157 249.13H279.574C282.94 249.13 285.667 251.857 285.667 255.222Z" fill="url(#paint21_linear)"></path><path d="M310.568 254.725C310.568 258.984 307.114 262.436 302.856 262.436H302.385C298.126 262.436 294.674 258.983 294.674 254.725V239.951C294.674 235.692 298.127 232.24 302.385 232.24H302.856C307.115 232.24 310.568 235.693 310.568 239.951V254.725Z" fill="#002857"></path><path d="M304.359 142.769C317.674 142.769 328.468 131.976 328.468 118.662C328.468 105.348 317.674 94.5554 304.359 94.5554C291.043 94.5554 280.249 105.348 280.249 118.662C280.249 131.976 291.043 142.769 304.359 142.769Z" fill="url(#paint22_linear)"></path><path d="M304.359 141.967C317.231 141.967 327.666 131.533 327.666 118.663C327.666 105.792 317.231 95.3579 304.359 95.3579C291.487 95.3579 281.052 105.792 281.052 118.663C281.052 131.533 291.487 141.967 304.359 141.967Z" fill="url(#paint23_linear)"></path><path opacity="0.74" d="M285.139 109.317C285.088 109.317 285.036 109.306 284.987 109.281C284.822 109.197 284.755 108.996 284.839 108.829C288.581 101.417 296.06 96.8124 304.359 96.8124C305.682 96.8124 307.008 96.9315 308.3 97.1666C308.483 97.1999 308.604 97.3746 308.571 97.5582C308.538 97.7409 308.362 97.861 308.18 97.8287C306.928 97.6006 305.643 97.4856 304.359 97.4856C296.316 97.4856 289.067 101.949 285.44 109.133C285.38 109.25 285.262 109.317 285.139 109.317Z" fill="white"></path><path opacity="0.78" d="M304.866 138.895C315.761 138.895 324.593 130.064 324.593 119.17C324.593 108.277 315.761 99.4457 304.866 99.4457C293.972 99.4457 285.14 108.277 285.14 119.17C285.14 130.064 293.972 138.895 304.866 138.895Z" fill="white"></path><path d="M302.93 133.833V131.688C300.694 131.598 298.48 131.07 296.908 130.382C296.347 130.136 296.061 129.507 296.222 128.915L296.767 126.917C296.967 126.183 297.764 125.804 298.466 126.098C300.025 126.752 301.95 127.269 304.026 127.269C306.181 127.269 307.788 126.538 307.788 125.041C307.788 123.69 306.546 122.887 303.551 122.083C299.277 120.914 296.21 119.052 296.21 115.291C296.21 111.894 298.694 109.301 303.003 108.607V106.461C303.003 105.771 303.563 105.211 304.254 105.211H305.514C306.205 105.211 306.765 105.771 306.765 106.461V108.388C308.835 108.471 310.342 108.825 311.539 109.245C312.151 109.46 312.486 110.12 312.316 110.747L311.814 112.596C311.621 113.308 310.859 113.699 310.168 113.438C309.067 113.022 307.51 112.588 305.486 112.588C302.929 112.588 302.199 113.646 302.199 114.596C302.199 115.765 303.733 116.568 307.056 117.591C311.804 119.015 313.776 120.987 313.776 124.53C313.776 127.78 311.366 130.702 306.69 131.432V133.833C306.69 134.524 306.13 135.084 305.44 135.084H304.179C303.491 135.084 302.93 134.525 302.93 133.833Z" fill="url(#paint24_linear)"></path><path d="M278.671 142.769C291.986 142.769 302.78 131.976 302.78 118.662C302.78 105.348 291.986 94.5554 278.671 94.5554C265.355 94.5554 254.561 105.348 254.561 118.662C254.561 131.976 265.355 142.769 278.671 142.769Z" fill="url(#paint25_linear)"></path><path d="M278.671 141.967C291.543 141.967 301.978 131.533 301.978 118.663C301.978 105.792 291.543 95.3579 278.671 95.3579C265.799 95.3579 255.364 105.792 255.364 118.663C255.364 131.533 265.799 141.967 278.671 141.967Z" fill="url(#paint26_linear)"></path><path opacity="0.74" d="M259.452 109.317C259.401 109.317 259.349 109.306 259.3 109.281C259.135 109.197 259.068 108.996 259.152 108.829C262.894 101.417 270.374 96.8124 278.672 96.8124C279.995 96.8124 281.321 96.9315 282.613 97.1666C282.796 97.1999 282.917 97.3746 282.884 97.5582C282.851 97.7409 282.675 97.861 282.493 97.8287C281.241 97.6006 279.955 97.4856 278.672 97.4856C270.629 97.4856 263.38 101.949 259.753 109.133C259.693 109.25 259.574 109.317 259.452 109.317Z" fill="white"></path><path opacity="0.78" d="M279.178 138.895C290.073 138.895 298.905 130.064 298.905 119.17C298.905 108.277 290.073 99.4457 279.178 99.4457C268.284 99.4457 259.452 108.277 259.452 119.17C259.452 130.064 268.284 138.895 279.178 138.895Z" fill="white"></path><path d="M277.242 133.833V131.688C275.005 131.598 272.792 131.07 271.22 130.382C270.659 130.136 270.373 129.507 270.534 128.915L271.079 126.917C271.279 126.183 272.076 125.804 272.778 126.098C274.337 126.752 276.262 127.269 278.338 127.269C280.493 127.269 282.1 126.538 282.1 125.041C282.1 123.69 280.858 122.887 277.863 122.083C273.589 120.914 270.522 119.052 270.522 115.291C270.522 111.894 273.006 109.301 277.315 108.607V106.461C277.315 105.771 277.875 105.211 278.566 105.211H279.826C280.517 105.211 281.077 105.771 281.077 106.461V108.388C283.147 108.471 284.654 108.825 285.85 109.245C286.463 109.46 286.798 110.12 286.628 110.747L286.126 112.596C285.933 113.308 285.171 113.699 284.48 113.438C283.378 113.022 281.822 112.588 279.798 112.588C277.241 112.588 276.511 113.646 276.511 114.596C276.511 115.765 278.045 116.568 281.368 117.591C286.116 119.015 288.088 120.987 288.088 124.53C288.088 127.78 285.678 130.702 281.002 131.432V133.833C281.002 134.524 280.442 135.084 279.752 135.084H278.491C277.803 135.084 277.242 134.525 277.242 133.833Z" fill="url(#paint27_linear)"></path><path d="M252.984 142.769C266.299 142.769 277.093 131.976 277.093 118.662C277.093 105.348 266.299 94.5554 252.984 94.5554C239.668 94.5554 228.874 105.348 228.874 118.662C228.874 131.976 239.668 142.769 252.984 142.769Z" fill="url(#paint28_linear)"></path><path d="M252.984 141.967C265.856 141.967 276.29 131.533 276.29 118.663C276.29 105.792 265.856 95.3579 252.984 95.3579C240.111 95.3579 229.677 105.792 229.677 118.663C229.677 131.533 240.111 141.967 252.984 141.967Z" fill="url(#paint29_linear)"></path><path opacity="0.74" d="M233.764 109.317C233.713 109.317 233.661 109.306 233.612 109.281C233.447 109.197 233.38 108.996 233.464 108.829C237.206 101.417 244.684 96.8124 252.984 96.8124C254.307 96.8124 255.633 96.9315 256.925 97.1666C257.108 97.1999 257.229 97.3746 257.196 97.5582C257.162 97.7409 256.988 97.861 256.805 97.8287C255.552 97.6006 254.267 97.4856 252.984 97.4856C244.941 97.4856 237.691 101.949 234.064 109.133C234.005 109.25 233.887 109.317 233.764 109.317Z" fill="white"></path><path opacity="0.78" d="M253.491 138.895C264.386 138.895 273.218 130.064 273.218 119.17C273.218 108.277 264.386 99.4457 253.491 99.4457C242.597 99.4457 233.765 108.277 233.765 119.17C233.765 130.064 242.597 138.895 253.491 138.895Z" fill="white"></path><path d="M251.555 133.833V131.688C249.317 131.598 247.105 131.07 245.533 130.382C244.972 130.136 244.686 129.507 244.847 128.915L245.392 126.917C245.592 126.183 246.389 125.804 247.091 126.098C248.65 126.752 250.575 127.269 252.65 127.269C254.805 127.269 256.412 126.538 256.412 125.041C256.412 123.69 255.171 122.887 252.176 122.083C247.902 120.914 244.835 119.052 244.835 115.291C244.835 111.894 247.319 109.301 251.628 108.607V106.461C251.628 105.771 252.188 105.211 252.878 105.211H254.139C254.83 105.211 255.39 105.771 255.39 106.461V108.388C257.46 108.471 258.967 108.825 260.163 109.245C260.776 109.46 261.111 110.12 260.941 110.747L260.439 112.596C260.245 113.308 259.484 113.699 258.793 113.438C257.691 113.022 256.135 112.588 254.111 112.588C251.554 112.588 250.823 113.646 250.823 114.596C250.823 115.765 252.358 116.568 255.681 117.591C260.429 119.015 262.401 120.987 262.401 124.53C262.401 127.78 259.991 130.702 255.315 131.432V133.833C255.315 134.524 254.755 135.084 254.065 135.084H252.804C252.115 135.084 251.555 134.525 251.555 133.833Z" fill="url(#paint30_linear)"></path><path d="M219.79 142.768C237.25 142.768 251.405 128.615 251.405 111.156C251.405 93.6973 237.25 79.5441 219.79 79.5441C202.329 79.5441 188.174 93.6973 188.174 111.156C188.174 128.615 202.329 142.768 219.79 142.768Z" fill="url(#paint31_linear)"></path><path d="M219.79 141.717C236.669 141.717 250.353 128.034 250.353 111.156C250.353 94.2782 236.669 80.5958 219.79 80.5958C202.91 80.5958 189.226 94.2782 189.226 111.156C189.226 128.034 202.91 141.717 219.79 141.717Z" fill="url(#paint32_linear)"></path><path opacity="0.74" d="M194.587 98.7976C194.537 98.7976 194.484 98.7865 194.436 98.7612C194.27 98.6775 194.204 98.4756 194.287 98.3091C199.176 88.6249 208.949 82.6085 219.79 82.6085C221.52 82.6085 223.253 82.764 224.94 83.0718C225.122 83.1051 225.243 83.2797 225.21 83.4634C225.177 83.6461 225.004 83.7672 224.818 83.7339C223.171 83.4341 221.479 83.2817 219.789 83.2817C209.202 83.2817 199.66 89.1558 194.886 98.6129C194.828 98.73 194.709 98.7976 194.587 98.7976Z" fill="white"></path><path opacity="0.78" d="M238.746 130.112C248.848 120.011 248.848 103.634 238.746 93.5325C228.643 83.4312 212.264 83.4312 202.162 93.5325C192.06 103.634 192.06 120.011 202.162 130.113C212.264 140.214 228.643 140.214 238.746 130.112Z" fill="white"></path><path d="M217.917 131.051V128.238C214.983 128.12 212.082 127.428 210.021 126.526C209.285 126.204 208.909 125.378 209.121 124.603L209.836 121.982C210.098 121.02 211.144 120.522 212.064 120.908C214.109 121.765 216.632 122.443 219.355 122.443C222.181 122.443 224.288 121.485 224.288 119.521C224.288 117.749 222.659 116.696 218.732 115.643C213.128 114.109 209.104 111.667 209.104 106.734C209.104 102.28 212.362 98.8801 218.013 97.9708V95.1559C218.013 94.2505 218.747 93.5157 219.653 93.5157H221.307C222.212 93.5157 222.947 94.2495 222.947 95.1559V97.6831C225.662 97.7921 227.638 98.2564 229.206 98.8075C230.01 99.0901 230.449 99.955 230.226 100.778L229.569 103.202C229.315 104.137 228.316 104.649 227.41 104.306C225.965 103.76 223.924 103.192 221.27 103.192C217.917 103.192 216.96 104.581 216.96 105.826C216.96 107.358 218.972 108.412 223.331 109.753C229.558 111.62 232.144 114.207 232.144 118.852C232.144 123.114 228.982 126.946 222.852 127.903V131.052C222.852 131.958 222.118 132.693 221.212 132.693H219.559C218.651 132.692 217.917 131.957 217.917 131.051Z" fill="url(#paint33_linear)"></path><path d="M132.986 269.43C132.986 269.43 132.393 272.782 132.104 276.099C131.991 277.396 132.99 278.522 134.291 278.576C138.709 278.76 148.161 279.118 151.553 278.967C152.062 278.943 152.396 278.422 152.207 277.948C152.048 277.551 151.743 277.23 151.355 277.051L135.743 269.877L132.986 269.43Z" fill="url(#paint34_linear)"></path><path d="M132.5 267.46L132.976 271.469C132.976 271.469 135.71 272.742 137.579 271.309L136.446 266.842L132.5 267.46Z" fill="url(#paint35_linear)"></path><path d="M132.857 192.093C132.652 193.14 131.754 244.336 137.227 267.278C137.316 267.652 137.126 268.038 136.77 268.183C135.93 268.526 134.285 269.023 132.312 269.089C131.702 269.109 131.154 268.712 130.982 268.126C129.417 262.803 121.922 236.133 120.944 210.656C119.85 182.189 120.944 209.688 120.944 209.688L121.585 192.09L132.857 192.093Z" fill="url(#paint36_linear)"></path><path d="M115.027 271.178C115.027 271.178 114.084 272.869 113.171 277.366C113.007 278.178 113.574 278.954 114.399 279.036C115.857 279.18 118.104 279.364 119.903 279.352C120.733 279.346 121.38 278.624 121.28 277.801C121.081 276.16 120.459 273.467 118.541 271.369L115.027 271.178Z" fill="url(#paint37_linear)"></path><path d="M114.199 266.022L115.31 272.085C115.31 272.085 116.41 272.903 118.584 272.31L118.053 265.787L114.199 266.022Z" fill="url(#paint38_linear)"></path><path d="M111.196 193.664C106.72 220.675 112.167 260.424 114.004 268.204C114.116 268.68 114.501 269.044 114.984 269.125C115.804 269.261 117.155 269.372 118.485 268.986C118.943 268.852 119.265 268.439 119.284 267.961C119.531 261.671 119.088 223.059 123.258 207.798C123.469 207.025 123.942 206.351 124.596 205.886L132.691 200.132L133.312 190.83L111.196 193.664Z" fill="url(#paint39_linear)"></path><path d="M139.717 142.484C126.304 142.262 111.503 146.005 111.503 146.005C107.505 169.334 110.803 196.242 110.803 196.242C121.188 198.965 132.903 194.576 132.903 194.576C134.629 184.825 142.682 157.384 142.682 157.384C149.236 156.57 154.635 154.68 159.082 152.18C155.69 148.249 154.091 143.248 153.397 140.29C148.655 141.765 143.855 142.552 139.717 142.484Z" fill="url(#paint40_linear)"></path><path d="M179.34 122.728C178.023 121.136 176.354 121.889 176.354 121.889C174.38 130.227 164.03 136.987 153.397 140.291C154.091 143.248 155.69 148.25 159.082 152.181C176.729 142.258 179.34 122.728 179.34 122.728Z" fill="url(#paint41_linear)"></path><path d="M179.02 123.133C179.159 123.571 177.562 124.238 176.621 122.445C176.588 121.586 176.066 117.905 176.579 117.206C179.313 113.479 184.614 108.806 184.614 108.806C185.511 109.69 184.772 110.558 184.772 110.558L182.2 113.236C182.738 114.208 183.394 115.029 183.702 116.205C183.935 117.095 183.793 118.047 183.343 118.857C182.891 119.671 182.276 120.727 181.693 121.555C180.592 123.12 179.02 123.133 179.02 123.133Z" fill="url(#paint42_linear)"></path><path d="M181.076 114.975L178.733 116.962L177.997 118.94L180.086 121.258C180.086 121.258 180.789 117.334 181.311 116.484C181.832 115.634 181.563 115.224 181.076 114.975Z" fill="url(#paint43_linear)"></path><path d="M116.648 158.993L111.503 146.005C111.503 146.005 98.9733 154.518 96.9131 165.31C99.2801 165.485 103.588 166.1 107.805 168.229C108.732 163.134 116.648 158.993 116.648 158.993Z" fill="url(#paint44_linear)"></path><path d="M127.598 171.214C127.598 171.214 113.531 179.163 108.784 172.376C107.798 170.966 107.562 169.566 107.805 168.231C103.589 166.102 99.2811 165.486 96.9131 165.312C96.2923 168.566 96.6204 172.026 98.5321 175.524C106.847 190.732 129.459 174.683 129.459 174.683L127.598 171.214Z" fill="url(#paint45_linear)"></path><path d="M125.907 181.271L133.584 154.462C133.671 154.157 133.931 153.936 134.246 153.899C135.637 153.736 139.667 153.281 144.321 152.887C149.928 152.413 156.437 152.029 160.327 152.355C160.88 152.402 161.215 152.987 160.968 153.484C158.756 157.959 149.657 176.162 145.101 182.124C144.949 182.322 144.716 182.437 144.468 182.435L126.655 182.27C126.136 182.266 125.765 181.768 125.907 181.271Z" fill="url(#paint46_linear)"></path><path d="M145.118 150.563L150.684 149.635C150.98 149.586 151.223 149.87 151.129 150.154L150.578 151.824C150.529 151.969 150.403 152.074 150.252 152.094L144.895 152.81C144.618 152.847 144.389 152.595 144.453 152.322L144.794 150.865C144.831 150.709 144.958 150.589 145.118 150.563Z" fill="url(#paint47_linear)"></path><path d="M140.95 155.275L141.408 152.887C141.455 152.648 141.653 152.466 141.895 152.442L153.137 151.302C153.516 151.263 153.819 151.609 153.73 151.98L153.015 154.956C152.958 155.194 152.751 155.366 152.507 155.378L141.52 155.931C141.162 155.948 140.882 155.626 140.95 155.275Z" fill="url(#paint48_linear)"></path><path d="M127.762 174.793C127.762 174.793 126.693 170.396 127.124 168.836C127.555 167.276 128.391 165.27 131.178 165.716C133.964 166.163 137.251 167.335 137.251 167.335C137.251 167.335 137.085 169.367 134.967 168.712L136.28 169.728C136.28 169.728 136.093 171.355 134.304 170.486L135.525 171.834C135.525 171.834 134.757 173.17 133.441 172.313C132.125 171.455 131.494 175.323 127.762 174.793Z" fill="url(#paint49_linear)"></path><path d="M126.13 131.595L121.862 143.936C121.792 144.141 121.875 144.367 122.065 144.472C123.229 145.115 127.42 146.974 132.472 143.772C132.998 143.438 133.356 142.894 133.436 142.276L134.818 131.594H126.13V131.595Z" fill="url(#paint50_linear)"></path><path d="M135.417 120.166C135.417 120.166 140.104 128.987 139.503 132.551C138.903 136.115 133.094 135.859 128.022 132.965L124.478 123.439L135.417 120.166Z" fill="url(#paint51_linear)"></path><path d="M128.246 128.287C128.452 128.196 128.528 127.944 128.404 127.755C128.029 127.182 127.325 126.011 127.1 124.987C127.1 124.987 126.257 124.447 129.245 123.732C132.232 123.017 136.686 121.907 137.623 119.365C138.535 116.886 136.137 110.653 132.31 115.619C132.165 115.808 131.879 115.812 131.734 115.623C131.107 114.807 129.458 113.112 127.168 114.14C125.025 115.101 124.783 116.671 124.813 117.462C124.821 117.695 124.613 117.876 124.385 117.833C123.302 117.626 120.701 117.449 119.488 120.116C118.489 122.312 119.138 123.555 119.729 124.164C119.921 124.361 119.837 124.686 119.574 124.766C118.862 124.984 117.943 125.587 118.035 127.255C118.162 129.562 120.74 129.358 121.475 129.253C121.595 129.236 121.716 129.277 121.798 129.367C122.427 130.063 125.263 133.021 128.332 133.377C128.598 133.408 128.804 133.146 128.717 132.892L127.389 129.032C127.327 128.852 127.413 128.655 127.586 128.579L128.246 128.287Z" fill="url(#paint52_linear)"></path><path d="M128.78 128.835C128.78 128.835 125.443 126.546 125.198 128.474C124.954 130.401 128.203 131.266 129.812 130.548L128.78 128.835Z" fill="url(#paint53_linear)"></path><defs><linearGradient id="paint0_linear" x1="356.089" y1="316.403" x2="150.332" y2="94.2946" gradientUnits="userSpaceOnUse"><stop stop-color="#A6B4C4"></stop><stop offset="1" stop-color="#C9D2DC"></stop></linearGradient><linearGradient id="paint1_linear" x1="74.6282" y1="68.7729" x2="171.25" y2="202.652" gradientUnits="userSpaceOnUse"><stop stop-color="#A6B4C4"></stop><stop offset="1" stop-color="#C9D2DC"></stop></linearGradient><linearGradient id="paint2_linear" x1="242.019" y1="58.9063" x2="41.0556" y2="355.849" gradientUnits="userSpaceOnUse"><stop stop-color="#002857"></stop><stop offset="1" stop-color="#143964"></stop></linearGradient><linearGradient id="paint3_linear" x1="276.652" y1="4.39027" x2="-15.9252" y2="428.164" gradientUnits="userSpaceOnUse"><stop stop-color="#1C6E9C"></stop><stop offset="1" stop-color="#035E91"></stop></linearGradient><linearGradient id="paint4_linear" x1="202.966" y1="-12.0042" x2="135.961" y2="71.4611" gradientUnits="userSpaceOnUse"><stop stop-color="#002857"></stop><stop offset="1" stop-color="#143964"></stop></linearGradient><linearGradient id="paint5_linear" x1="209.926" y1="-6.41727" x2="142.921" y2="77.0485" gradientUnits="userSpaceOnUse"><stop stop-color="#002857"></stop><stop offset="1" stop-color="#143964"></stop></linearGradient><linearGradient id="paint6_linear" x1="201.628" y1="-1.42384" x2="154.746" y2="79.4881" gradientUnits="userSpaceOnUse"><stop stop-color="#002857"></stop><stop offset="1" stop-color="#143964"></stop></linearGradient><linearGradient id="paint7_linear" x1="202.211" y1="209.19" x2="321.908" y2="209.19" gradientUnits="userSpaceOnUse"><stop stop-color="#002857"></stop><stop offset="1" stop-color="#143964"></stop></linearGradient><linearGradient id="paint8_linear" x1="191.619" y1="229.798" x2="271.873" y2="152.527" gradientUnits="userSpaceOnUse"><stop stop-color="#1C6E9C"></stop><stop offset="1" stop-color="#035E91"></stop></linearGradient><linearGradient id="paint9_linear" x1="204.87" y1="243.561" x2="285.125" y2="166.29" gradientUnits="userSpaceOnUse"><stop stop-color="#1C6E9C"></stop><stop offset="1" stop-color="#035E91"></stop></linearGradient><linearGradient id="paint10_linear" x1="217.613" y1="256.796" x2="297.867" y2="179.525" gradientUnits="userSpaceOnUse"><stop stop-color="#1C6E9C"></stop><stop offset="1" stop-color="#035E91"></stop></linearGradient><linearGradient id="paint11_linear" x1="365.456" y1="132.393" x2="313.671" y2="189.565" gradientUnits="userSpaceOnUse"><stop stop-color="#FBAF36"></stop><stop offset="1" stop-color="#456284"></stop></linearGradient><linearGradient id="paint12_linear" x1="201.148" y1="239.695" x2="281.402" y2="162.424" gradientUnits="userSpaceOnUse"><stop stop-color="#1C6E9C"></stop><stop offset="1" stop-color="#035E91"></stop></linearGradient><linearGradient id="paint13_linear" x1="214.4" y1="253.459" x2="294.654" y2="176.188" gradientUnits="userSpaceOnUse"><stop stop-color="#1C6E9C"></stop><stop offset="1" stop-color="#035E91"></stop></linearGradient><linearGradient id="paint14_linear" x1="227.143" y1="266.693" x2="307.397" y2="189.422" gradientUnits="userSpaceOnUse"><stop stop-color="#1C6E9C"></stop><stop offset="1" stop-color="#035E91"></stop></linearGradient><linearGradient id="paint15_linear" x1="240.395" y1="280.457" x2="320.649" y2="203.186" gradientUnits="userSpaceOnUse"><stop stop-color="#1C6E9C"></stop><stop offset="1" stop-color="#035E91"></stop></linearGradient><linearGradient id="paint16_linear" x1="209.588" y1="248.461" x2="289.842" y2="171.19" gradientUnits="userSpaceOnUse"><stop stop-color="#1C6E9C"></stop><stop offset="1" stop-color="#035E91"></stop></linearGradient><linearGradient id="paint17_linear" x1="222.84" y1="262.225" x2="303.094" y2="184.953" gradientUnits="userSpaceOnUse"><stop stop-color="#1C6E9C"></stop><stop offset="1" stop-color="#035E91"></stop></linearGradient><linearGradient id="paint18_linear" x1="235.582" y1="275.459" x2="315.837" y2="198.188" gradientUnits="userSpaceOnUse"><stop stop-color="#1C6E9C"></stop><stop offset="1" stop-color="#035E91"></stop></linearGradient><linearGradient id="paint19_linear" x1="218.853" y1="258.084" x2="299.107" y2="180.813" gradientUnits="userSpaceOnUse"><stop stop-color="#1C6E9C"></stop><stop offset="1" stop-color="#035E91"></stop></linearGradient><linearGradient id="paint20_linear" x1="232.105" y1="271.847" x2="312.359" y2="194.576" gradientUnits="userSpaceOnUse"><stop stop-color="#1C6E9C"></stop><stop offset="1" stop-color="#035E91"></stop></linearGradient><linearGradient id="paint21_linear" x1="244.847" y1="285.082" x2="325.102" y2="207.81" gradientUnits="userSpaceOnUse"><stop stop-color="#1C6E9C"></stop><stop offset="1" stop-color="#035E91"></stop></linearGradient><linearGradient id="paint22_linear" x1="271.367" y1="156.951" x2="303.701" y2="119.417" gradientUnits="userSpaceOnUse"><stop stop-color="#002857"></stop><stop offset="1" stop-color="#264870"></stop></linearGradient><linearGradient id="paint23_linear" x1="321.978" y1="92.0463" x2="226.368" y2="236.501" gradientUnits="userSpaceOnUse"><stop stop-color="#FBAF36"></stop><stop offset="1" stop-color="#456284"></stop></linearGradient><linearGradient id="paint24_linear" x1="319.126" y1="96.1852" x2="268.215" y2="181.664" gradientUnits="userSpaceOnUse"><stop stop-color="#FBAF36"></stop><stop offset="1" stop-color="#456284"></stop></linearGradient><linearGradient id="paint25_linear" x1="245.68" y1="156.951" x2="278.014" y2="119.417" gradientUnits="userSpaceOnUse"><stop stop-color="#002857"></stop><stop offset="1" stop-color="#264870"></stop></linearGradient><linearGradient id="paint26_linear" x1="296.291" y1="92.0463" x2="200.68" y2="236.501" gradientUnits="userSpaceOnUse"><stop stop-color="#FBAF36"></stop><stop offset="1" stop-color="#456284"></stop></linearGradient><linearGradient id="paint27_linear" x1="293.438" y1="96.1852" x2="242.528" y2="181.663" gradientUnits="userSpaceOnUse"><stop stop-color="#FBAF36"></stop><stop offset="1" stop-color="#456284"></stop></linearGradient><linearGradient id="paint28_linear" x1="219.992" y1="156.951" x2="252.326" y2="119.417" gradientUnits="userSpaceOnUse"><stop stop-color="#002857"></stop><stop offset="1" stop-color="#264870"></stop></linearGradient><linearGradient id="paint29_linear" x1="270.603" y1="92.0463" x2="174.992" y2="236.501" gradientUnits="userSpaceOnUse"><stop stop-color="#FBAF36"></stop><stop offset="1" stop-color="#456284"></stop></linearGradient><linearGradient id="paint30_linear" x1="267.75" y1="96.1852" x2="216.84" y2="181.664" gradientUnits="userSpaceOnUse"><stop stop-color="#FBAF36"></stop><stop offset="1" stop-color="#456284"></stop></linearGradient><linearGradient id="paint31_linear" x1="176.527" y1="161.367" x2="218.928" y2="112.146" gradientUnits="userSpaceOnUse"><stop stop-color="#002857"></stop><stop offset="1" stop-color="#264870"></stop></linearGradient><linearGradient id="paint32_linear" x1="242.895" y1="76.2542" x2="117.517" y2="265.683" gradientUnits="userSpaceOnUse"><stop stop-color="#FBAF36"></stop><stop offset="1" stop-color="#456284"></stop></linearGradient><linearGradient id="paint33_linear" x1="239.154" y1="81.6815" x2="172.394" y2="193.773" gradientUnits="userSpaceOnUse"><stop stop-color="#FBAF36"></stop><stop offset="1" stop-color="#456284"></stop></linearGradient><linearGradient id="paint34_linear" x1="151.057" y1="264.798" x2="93.8927" y2="326.983" gradientUnits="userSpaceOnUse"><stop stop-color="#002857"></stop><stop offset="1" stop-color="#143964"></stop></linearGradient><linearGradient id="paint35_linear" x1="132.5" y1="269.416" x2="137.579" y2="269.416" gradientUnits="userSpaceOnUse"><stop stop-color="#FCCD80"></stop><stop offset="1" stop-color="#FBAF36"></stop></linearGradient><linearGradient id="paint36_linear" x1="112.335" y1="263.673" x2="144.279" y2="200.452" gradientUnits="userSpaceOnUse"><stop stop-color="#002857"></stop><stop offset="1" stop-color="#143964"></stop></linearGradient><linearGradient id="paint37_linear" x1="138.232" y1="253.008" x2="81.0672" y2="315.193" gradientUnits="userSpaceOnUse"><stop stop-color="#002857"></stop><stop offset="1" stop-color="#143964"></stop></linearGradient><linearGradient id="paint38_linear" x1="114.199" y1="269.156" x2="118.583" y2="269.156" gradientUnits="userSpaceOnUse"><stop stop-color="#FCCD80"></stop><stop offset="1" stop-color="#FBAF36"></stop></linearGradient><linearGradient id="paint39_linear" x1="101.465" y1="258.181" x2="133.409" y2="194.96" gradientUnits="userSpaceOnUse"><stop stop-color="#002857"></stop><stop offset="1" stop-color="#143964"></stop></linearGradient><linearGradient id="paint40_linear" x1="84.7642" y1="226.444" x2="119.063" y2="174.991" gradientUnits="userSpaceOnUse"><stop stop-color="#FBAF36"></stop><stop offset="1" stop-color="#456284"></stop></linearGradient><linearGradient id="paint41_linear" x1="138.681" y1="155.939" x2="187.608" y2="124.159" gradientUnits="userSpaceOnUse"><stop stop-color="#FCCD80"></stop><stop offset="1" stop-color="#FBAF36"></stop></linearGradient><linearGradient id="paint42_linear" x1="141.464" y1="137.594" x2="188.881" y2="112.37" gradientUnits="userSpaceOnUse"><stop stop-color="#FCCD80"></stop><stop offset="1" stop-color="#FBAF36"></stop></linearGradient><linearGradient id="paint43_linear" x1="176.115" y1="125.756" x2="182.863" y2="112.142" gradientUnits="userSpaceOnUse"><stop stop-color="#FCCD80"></stop><stop offset="1" stop-color="#FBAF36"></stop></linearGradient><linearGradient id="paint44_linear" x1="69.6694" y1="216.382" x2="103.968" y2="164.929" gradientUnits="userSpaceOnUse"><stop stop-color="#FBAF36"></stop><stop offset="1" stop-color="#456284"></stop></linearGradient><linearGradient id="paint45_linear" x1="96.6272" y1="173.69" x2="129.459" y2="173.69" gradientUnits="userSpaceOnUse"><stop stop-color="#FCCD80"></stop><stop offset="1" stop-color="#FBAF36"></stop></linearGradient><linearGradient id="paint46_linear" x1="139.392" y1="150.35" x2="157.441" y2="225.564" gradientUnits="userSpaceOnUse"><stop stop-color="#002857"></stop><stop offset="1" stop-color="#143964"></stop></linearGradient><linearGradient id="paint47_linear" x1="-660.469" y1="1296.11" x2="-647.248" y2="1277.38" gradientUnits="userSpaceOnUse"><stop stop-color="#BDD0FB"></stop><stop offset="1" stop-color="#005C90"></stop></linearGradient><linearGradient id="paint48_linear" x1="-659.572" y1="1296.74" x2="-646.351" y2="1278.01" gradientUnits="userSpaceOnUse"><stop stop-color="#BDD0FB"></stop><stop offset="1" stop-color="#005C90"></stop></linearGradient><linearGradient id="paint49_linear" x1="127.021" y1="170.248" x2="137.25" y2="170.248" gradientUnits="userSpaceOnUse"><stop stop-color="#FCCD80"></stop><stop offset="1" stop-color="#FBAF36"></stop></linearGradient><linearGradient id="paint50_linear" x1="118.778" y1="162.103" x2="130.883" y2="134.528" gradientUnits="userSpaceOnUse"><stop stop-color="#FCCD80"></stop><stop offset="1" stop-color="#FBAF36"></stop></linearGradient><linearGradient id="paint51_linear" x1="137.905" y1="130.338" x2="123.634" y2="121.632" gradientUnits="userSpaceOnUse"><stop stop-color="#FCCD80"></stop><stop offset="1" stop-color="#FBAF36"></stop></linearGradient><linearGradient id="paint52_linear" x1="116.078" y1="112.458" x2="134.515" y2="127.022" gradientUnits="userSpaceOnUse"><stop stop-color="#002857"></stop><stop offset="1" stop-color="#143964"></stop></linearGradient><linearGradient id="paint53_linear" x1="134.157" y1="133.584" x2="121.316" y2="125.751" gradientUnits="userSpaceOnUse"><stop stop-color="#FCCD80"></stop><stop offset="1" stop-color="#FBAF36"></stop></linearGradient></defs></svg>