<svg xmlns="http://www.w3.org/2000/svg" width="400" height="280" viewBox="0 0 400 280" fill="none"><path d="M39 134.348C39 87.6099 98.5982 -12.2681 183.36 1.24569C244.274 10.958 218.972 78.4208 331.947 103.552C419.921 123.124 394.701 248.304 271.155 255.098C134.104 262.627 39 221.971 39 134.348Z" fill="#9EADBF"></path><path d="M331.906 166.216C292.623 198.418 319.087 253.684 334.571 248.574C348.396 244.012 314.967 171.513 265.579 177.236C184.268 186.662 161.36 224.252 105.956 209.553C50.1595 194.748 39.3271 132.803 93.4887 97.4447C147.462 62.2172 61.6213 1.9323 54.8685 21.3814C51.0179 32.4753 93.6277 59.6992 124.032 33.7998C154.436 7.9003 194.699 4.58112 219.986 51.7037C245.272 98.8264 296.875 70.9239 329.829 64.4409C362.776 57.966 416.333 97.0114 331.906 166.216Z" stroke="#005C90" stroke-width="0.25" stroke-miterlimit="10"></path><path d="M294.561 141.853C326.343 141.853 352.107 116.089 352.107 84.307C352.107 52.5252 326.343 26.7609 294.561 26.7609C262.779 26.7609 237.015 52.5252 237.015 84.307C237.015 116.089 262.779 141.853 294.561 141.853Z" fill="white"></path><path d="M355.133 96.5762C362.662 65.7001 343.735 34.5665 312.859 27.0374C281.983 19.5083 250.85 38.4347 243.32 69.3108C235.791 100.187 254.718 131.32 285.594 138.85C316.47 146.379 347.603 127.452 355.133 96.5762Z" fill="#9EADBF"></path><path d="M294.561 141.853C326.343 141.853 352.107 116.089 352.107 84.307C352.107 52.5252 326.343 26.7609 294.561 26.7609C262.779 26.7609 237.015 52.5252 237.015 84.307C237.015 116.089 262.779 141.853 294.561 141.853Z" stroke="#005C90" stroke-width="0.25" stroke-miterlimit="10"></path><path d="M284.432 141.845H274.916L275.668 120.99H283.966L284.432 141.845Z" fill="#FBAF36"></path><path d="M278.938 85.6234L269.021 119.821L272.43 123.205L269.021 127.318L287.081 129.337L278.938 85.6234Z" fill="#6BA0BF"></path><path d="M284.432 142.597H312.514L322.202 81.4541L306.619 80.473L289.116 81.4541L278.938 85.6235L284.432 142.597Z" fill="#6BA0BF"></path><path d="M293.858 90.5612L306.62 80.4729L301.951 65.0133L288.397 66.7955L293.858 90.5612Z" fill="#FBAF36"></path><path d="M291.185 78.9197L297.422 71.1368L288.397 66.7957L291.185 78.9197Z" fill="#FCCD80"></path><path d="M279.216 58.5711C278.586 65.6836 280.924 74.3985 288.037 75.028C295.149 75.6575 303.75 67.1961 304.379 60.0917C305.009 52.9792 307.633 41.1576 297.994 40.3074C283.982 39.0647 279.845 51.4585 279.216 58.5711Z" fill="#FBAF36"></path><path d="M292.1 52.2517C292.1 52.2517 292.419 54.7125 295.272 56.2167" stroke="#002857" stroke-miterlimit="10"></path><path d="M281.341 52.685C281.341 52.685 283.181 53.29 284.742 52.2517" stroke="#002857" stroke-miterlimit="10"></path><path d="M283.688 65.0133C283.688 65.0133 286.999 65.3403 291.912 65.0133C291.912 65.0133 289.41 68.0791 285.715 67.7684C284.857 67.703 283.688 65.0133 283.688 65.0133Z" fill="white"></path><path d="M291.912 60.0836C292.463 60.0836 292.909 59.2747 292.909 58.2768C292.909 57.279 292.463 56.4701 291.912 56.4701C291.361 56.4701 290.915 57.279 290.915 58.2768C290.915 59.2747 291.361 60.0836 291.912 60.0836Z" fill="#002857"></path><path d="M282.96 58.9636C283.511 58.9636 283.957 58.1547 283.957 57.1569C283.957 56.159 283.511 55.3501 282.96 55.3501C282.409 55.3501 281.963 56.159 281.963 57.1569C281.963 58.1547 282.409 58.9636 282.96 58.9636Z" fill="#002857"></path><path d="M286.124 58.2767C286.124 58.2767 285.363 61.3098 281.791 61.0727C281.791 61.0727 286.312 66.8527 286.124 58.2767Z" fill="#641CFF"></path><path d="M306.619 62.9776C315.449 52.4151 318.817 50.1342 306.619 41.6727C306.619 41.6727 305.426 33.6363 294.937 36.2279C278.766 40.2175 281.742 41.6727 281.21 50.4857C281.21 50.4857 289.925 51.6057 296.964 47.4935C296.964 47.4935 297.21 52.4478 300.104 54.974L299.605 60.2716L306.619 62.9776Z" fill="#002857"></path><path d="M306.619 41.6728C306.619 41.6728 307.682 39.4573 306.619 37.1519" stroke="#002857" stroke-miterlimit="10"></path><path d="M305.9 42.8909C305.9 42.8909 309.742 41.1823 310.061 39.4082" stroke="#002857" stroke-miterlimit="10"></path><path d="M300.513 60.6067C299.474 63.3618 300.357 66.2477 302.499 67.057C304.633 67.8664 307.216 66.2886 308.255 63.5416C309.293 60.7866 308.41 57.9007 306.268 57.0913C304.126 56.282 301.551 57.8598 300.513 60.6067Z" fill="#FBAF36"></path><path d="M309.146 81.4539L305.9 73.2622L287.8 77.4807L292.909 92.8994L309.146 81.4539Z" fill="#6BA0BF"></path><path d="M288.397 79.2793L298.534 78.7316L289.116 81.4539L288.397 79.2793Z" fill="#A6C6D8"></path><path d="M322.202 81.454L324.499 126.704L310.258 134.169L309.146 81.454H322.202Z" fill="#6BA0BF"></path><path d="M304.282 74.0306L299.54 72.5509C298.976 72.3792 298.665 71.7742 298.837 71.2183L302.622 59.0861C302.794 58.522 303.399 58.2113 303.955 58.383L308.696 59.8628C309.26 60.0344 309.571 60.6394 309.399 61.2035L305.614 73.3357C305.442 73.8916 304.846 74.2023 304.282 74.0306Z" fill="#002857"></path><path d="M305.573 74.431L300.586 72.8777C300.022 72.706 299.712 72.101 299.883 71.5369L303.669 59.4047C303.84 58.8406 304.445 58.5299 305.009 58.7016L309.996 60.2549C310.56 60.4266 310.871 61.0316 310.699 61.5875L306.914 73.7197C306.734 74.292 306.138 74.6026 305.573 74.431Z" fill="#B5D0DF"></path><path d="M305.998 60.9827C305.876 61.3751 305.451 61.5959 305.058 61.4732C304.666 61.3506 304.445 60.9255 304.568 60.5331C304.69 60.1407 305.115 59.9199 305.508 60.0426C305.9 60.1652 306.121 60.5821 305.998 60.9827Z" fill="#002857"></path><path d="M321.638 124.767L307.936 73.7284L305.859 74.6686C305.859 74.6686 303.913 114.106 312.8 129.157L321.638 124.767Z" fill="#FBAF36"></path><path d="M307.936 73.7284L312.007 64.8009C312.007 64.8009 301.297 67.3353 305.859 74.6767L307.936 73.7284Z" fill="#FBAF36"></path><path d="M312.007 64.7927L307.233 60.6233C307.233 60.6233 305.557 63.4111 311.149 65.3323L312.007 64.7927Z" fill="#FBAF36"></path><path d="M305.843 68.2588L308.549 66.4848L305.72 62.9775C305.72 62.9775 304.714 64.7925 307.298 66.6401L305.843 68.2588Z" fill="#FBAF36"></path><path d="M311.149 65.3321L306.121 61.3507C306.121 61.3507 304.674 63.8851 310.372 65.6509L311.149 65.3321Z" fill="#FBAF36"></path><path d="M284.432 142.597L278.938 85.6234L287.8 142.597H284.432Z" fill="#A6C6D8"></path><path d="M181.643 237.031H135.87V243.751H181.643V237.031Z" fill="#005C90"></path><path d="M199.13 276.73H193.432L166.584 201.95H172.282L199.13 276.73Z" fill="#005C90"></path><path d="M153.16 276.73H158.859L165.571 201.95H159.872L153.16 276.73Z" fill="#005C90"></path><path d="M119.601 276.73H125.307L152.147 201.95H146.448L119.601 276.73Z" fill="#005C90"></path><path d="M174.138 149.039H126.819C125.814 149.039 124.996 149.857 124.996 150.862V199.71C124.996 201.312 126.296 202.612 127.898 202.612H178.569V153.47C178.569 151.026 176.591 149.039 174.138 149.039Z" fill="#6BA0BF"></path><path d="M193.228 209.749H148.312V202.612H193.228C195.198 202.612 196.792 204.206 196.792 206.177C196.8 208.155 195.198 209.749 193.228 209.749Z" fill="#6BA0BF"></path><path d="M128.847 194.953V152.065C128.847 150.398 127.498 149.049 125.83 149.049C124.162 149.049 122.813 150.398 122.813 152.065V195.517C122.813 203.382 129.19 209.751 137.047 209.751H147.503C149.473 209.751 151.067 208.156 151.067 206.186C151.067 204.216 149.473 202.622 147.503 202.622H136.515C132.281 202.622 128.847 199.188 128.847 194.953Z" fill="#A6C6D8"></path><path d="M177.294 201.95H153.226C141.968 201.95 133.965 190.987 137.39 180.261L141.363 167.826L176.664 163.559L177.294 201.95Z" fill="#335379"></path><path d="M180.883 117.18L191.028 153.332H180.883L170.214 135.256L180.883 117.18Z" fill="#CFE0EA"></path><path d="M190.562 151.672L216.584 156.708L215.881 158.874C215.881 158.874 192.786 164.376 180.883 153.332L190.562 151.672Z" fill="#FCCD80"></path><path d="M216.584 156.7L227.776 155.686L224.678 158.482C222.217 160.698 218.53 160.861 215.881 158.874L216.584 156.7Z" fill="#FCCD80"></path><path d="M227.785 155.686L229.82 160.256C229.82 160.256 226.869 160.927 226.918 156.463L227.785 155.686Z" fill="#FCCD80"></path><path d="M225.307 156.283L227.147 161.114C227.147 161.106 223.738 161.491 225.307 156.283Z" fill="#FCCD80"></path><path d="M227.785 155.686L231.586 158.695C231.586 158.695 229.019 160.052 227.515 156.275L227.785 155.686Z" fill="#FCCD80"></path><path d="M222.373 158.932H175.103V162.292H222.373V158.932Z" fill="white"></path><path d="M180.883 117.18L169.658 112.651H156.398L139.45 117.687L147.07 149.882L140.121 167.254H172.936L170.418 149.072L170.525 148.754C171.13 146.922 172.479 145.467 174.204 144.592C177.138 143.113 178.839 141.126 179.076 139.009C179.182 138.068 179.101 136.989 178.888 135.845C177.931 130.686 178.193 125.372 179.828 120.377L180.883 117.18Z" fill="white"></path><path d="M174.8 145.582C176.632 144.658 178.259 142.655 178.765 140.259C178.765 140.259 174.743 143.873 160.788 142.573C144.691 141.077 154.73 152.972 148.983 167.254H172.945L170.427 149.072L170.533 148.754C171.138 146.93 173.084 146.448 174.8 145.582Z" fill="#CFE0EA"></path><path d="M167.614 121.522L156.398 112.651L162.341 100.625H172.421L167.614 121.522Z" fill="#FCCD80"></path><path d="M169.969 111.286L164.483 104.443L172.421 100.625L169.969 111.286Z" fill="#FCCD80"></path><path d="M161.777 75.9359C161.777 75.9359 164.409 73.7694 167.704 73.7694C170.582 73.7694 177.964 76.8025 180.711 83.7433C183.458 90.676 184.496 96.5459 181.749 104.411L169.625 100.634L161.777 75.9359Z" fill="#002857"></path><path d="M180.49 93.3982C181.046 99.6523 178.986 107.313 172.732 107.86C166.478 108.416 157.15 100.977 156.602 94.7308C156.054 88.4848 155.507 78.094 163.984 77.3419C176.305 76.2464 179.934 87.1441 180.49 93.3982Z" fill="#FCCD80"></path><path d="M175.553 88.3623C175.553 88.3623 177.294 87.4548 178.7 88.6729" stroke="#002857" stroke-miterlimit="10"></path><path d="M155.809 93.7499C155.809 93.7499 170.517 93.5782 173.762 80.743C173.762 80.743 176.002 81.1272 179.084 84.5935C179.084 84.5935 177.605 77.0068 165.35 77.0068C152.85 76.9987 155.809 93.7499 155.809 93.7499Z" fill="#002857"></path><path d="M173.533 79.7783C173.533 79.7783 175.953 89.7767 160.265 93.1123" stroke="#002857" stroke-miterlimit="10"></path><path d="M161.777 91.4198C161.777 91.4198 159.357 99.0637 163.003 106.323C163.003 106.323 151.051 107.885 143.17 99.0637C142.974 91.1009 146.955 83.3671 151.959 78.2248C156.144 73.9246 168.031 72.5184 171.048 80.7346C171.048 80.7428 162.856 80.4975 161.777 91.4198Z" fill="#002857"></path><path d="M182.918 104.942C182.918 104.942 188.494 89.3433 176.321 78.8871" stroke="#002857" stroke-miterlimit="10"></path><path d="M141.944 97.911C141.944 97.911 143.162 73.7692 163.886 75.5433" stroke="#002857" stroke-miterlimit="10"></path><path d="M176.558 99.0638C176.558 99.0638 173.648 99.35 169.331 99.0638C169.331 99.0638 171.53 101.762 174.784 101.484C175.528 101.427 176.558 99.0638 176.558 99.0638Z" fill="white"></path><path d="M169.331 94.7309C169.819 94.7309 170.214 94.0171 170.214 93.1367C170.214 92.2562 169.819 91.5425 169.331 91.5425C168.843 91.5425 168.448 92.2562 168.448 93.1367C168.448 94.0171 168.843 94.7309 169.331 94.7309Z" fill="#002857"></path><path d="M178.079 92.1557C178.079 93.0305 177.686 93.7499 177.196 93.7499C176.713 93.7499 176.313 93.0387 176.313 92.1557C176.313 91.281 176.705 90.5697 177.196 90.5697C177.678 90.5697 178.079 91.281 178.079 92.1557Z" fill="#002857"></path><path d="M174.416 93.1367C174.416 93.1367 175.087 95.8019 178.226 95.5975C178.226 95.5975 174.253 100.683 174.416 93.1367Z" fill="#641CFF"></path><path d="M161.818 95.1887C162.734 97.6086 161.949 100.143 160.069 100.854C158.188 101.565 155.924 100.184 155.008 97.764C154.092 95.3441 154.877 92.8097 156.758 92.0984C158.638 91.3872 160.902 92.7688 161.818 95.1887Z" fill="#FCCD80"></path><path d="M158.041 83.6125H156.267V93.1041H158.041V83.6125Z" fill="#035E91"></path><path d="M156.856 83.6125H155.082V93.1041H156.856V83.6125Z" fill="#294A72"></path><path d="M159.046 85.7544V81.1598C159.046 79.1977 160.207 77.2438 161.891 76.2301C162.774 75.6987 165.26 74.1454 165.26 74.1454C165.26 74.1454 160.943 74.1536 159.022 74.8893L158.515 75.0855C156.488 75.8622 155.147 77.8161 155.147 79.9907V85.7625H159.046V85.7544Z" fill="#035E91"></path><path d="M157.869 85.7543V81.1598C157.869 79.1977 158.965 77.3991 160.714 76.4916L165.268 74.1453L163.878 74.0309C161.826 73.8592 159.766 74.1535 157.845 74.8893L157.338 75.0855C155.31 75.8621 153.97 77.816 153.97 79.9907V85.7625H157.869V85.7543Z" fill="#294A72"></path><path d="M161.777 95.295C161.777 98.0665 159.529 100.315 156.757 100.315C153.986 100.315 151.738 98.0665 151.738 95.295C151.738 92.5236 153.986 90.2754 156.757 90.2754C159.529 90.2754 161.777 92.5236 161.777 95.295Z" fill="#294A72"></path><path d="M160.788 95.2952C160.788 98.0666 158.54 100.315 155.768 100.315C152.997 100.315 150.749 98.0666 150.749 95.2952C150.749 92.5237 152.997 90.2755 155.768 90.2755C158.54 90.2755 160.788 92.5237 160.788 95.2952Z" fill="#CFE0EA"></path><path d="M158.924 95.295C158.924 97.0363 157.518 98.4425 155.777 98.4425C154.035 98.4425 152.629 97.0363 152.629 95.295C152.629 93.5536 154.035 92.1475 155.777 92.1475C157.51 92.1475 158.924 93.5536 158.924 95.295Z" fill="#294A72"></path><path d="M157.199 95.2949C157.199 96.0879 156.561 96.7256 155.768 96.7256C154.975 96.7256 154.338 96.0879 154.338 95.2949C154.338 94.5019 154.975 93.8643 155.768 93.8643C156.561 93.8643 157.199 94.5101 157.199 95.2949Z" fill="#CFE0EA"></path><path d="M173.623 105.343L161.679 103.969L155.441 95.5403L156.103 95.0498L162.121 103.201L173.721 104.533L173.623 105.343Z" fill="#CFE0EA"></path><path d="M173.885 105.759H170.95C170.655 105.759 170.427 105.522 170.427 105.236V104.084C170.427 103.789 170.664 103.56 170.95 103.56H173.885C174.179 103.56 174.408 103.797 174.408 104.084V105.236C174.416 105.522 174.179 105.759 173.885 105.759Z" fill="#294A72"></path><path d="M147.928 137.079L145.639 143.824L144.282 139.164L147.928 137.079Z" fill="#CFE0EA"></path><path d="M139.458 117.687L124.996 153.765H136.94L147.928 137.079L139.458 117.687Z" fill="white"></path><path d="M203.152 162.292H192.794C192.794 159.43 195.116 157.109 197.977 157.109C200.839 157.109 203.152 159.43 203.152 162.292Z" fill="#335379"></path><path d="M138.649 151.173L188.936 156.708L188.233 158.874C188.233 158.874 148.991 172.282 125.005 153.765L138.649 151.173Z" fill="#FDD390"></path><path d="M188.936 156.7L200.128 155.686L197.029 158.482C194.568 160.698 190.881 160.861 188.232 158.874L188.936 156.7Z" fill="#FDD390"></path><path d="M200.127 155.686L202.163 160.256C202.163 160.256 199.212 160.927 199.261 156.463L200.127 155.686Z" fill="#FDD390"></path><path d="M197.65 156.283L199.49 161.114C199.498 161.106 196.089 161.491 197.65 156.283Z" fill="#FDD390"></path><path d="M200.127 155.686L203.929 158.695C203.929 158.695 201.362 160.052 199.858 156.275L200.127 155.686Z" fill="#FDD390"></path><path d="M246.71 147.633H200.651C197.765 147.633 195.476 145.213 195.639 142.327L197.438 112.414C197.585 109.757 199.784 107.672 202.449 107.672H248.509C251.395 107.672 253.684 110.092 253.52 112.978L251.722 142.892C251.575 145.549 249.376 147.633 246.71 147.633Z" fill="#005C90"></path><path d="M249.596 147.633H203.537C200.651 147.633 198.362 145.213 198.525 142.327L200.324 112.414C200.471 109.757 202.67 107.672 205.335 107.672H251.395C254.281 107.672 256.57 110.092 256.406 112.978L254.608 142.892C254.461 145.549 252.262 147.633 249.596 147.633Z" fill="#002857"></path><path d="M233.605 136.327H219.233L225.267 158.392C225.463 159.12 224.923 159.831 224.171 159.831H210.15V162.349H226.329H235.927C238.331 162.349 240.08 160.06 239.451 157.738L233.605 136.327ZM232.502 154.419C230.703 154.419 229.248 152.964 229.248 151.165C229.248 149.367 230.703 147.911 232.502 147.911C234.3 147.911 235.756 149.367 235.756 151.165C235.756 152.964 234.292 154.419 232.502 154.419Z" fill="#005C90"></path><path d="M231.014 127.669H222.781C220.819 127.669 219.225 129.263 219.225 131.225V136.327H234.562V131.225C234.57 129.263 232.976 127.669 231.014 127.669Z" fill="#005C90"></path><path d="M233.376 127.669H225.144C223.182 127.669 221.588 129.263 221.588 131.225V136.327H236.925V131.225C236.933 129.263 235.339 127.669 233.376 127.669Z" fill="#002857"></path><path d="M242.754 157.534L236.974 136.319H221.588L222.454 139.499H222.446L227.874 159.422C228.259 160.845 227.245 162.235 225.798 162.341H226.313H228.676H235.854H239.075C241.593 162.341 243.416 159.962 242.754 157.534ZM233.679 154.419C231.88 154.419 230.425 152.964 230.425 151.165C230.425 149.367 231.88 147.911 233.679 147.911C235.478 147.911 236.933 149.367 236.933 151.165C236.933 152.964 235.478 154.419 233.679 154.419Z" fill="#002857"></path><path d="M233.376 127.669H225.144C223.182 127.669 221.588 129.263 221.588 131.225V136.327H236.925V131.225C236.933 129.263 235.339 127.669 233.376 127.669Z" fill="#002857"></path><path d="M242.754 157.534L236.974 136.319H221.588L222.454 139.499H222.446L227.874 159.422C228.259 160.845 227.245 162.235 225.798 162.341H226.313H228.676H235.854H239.075C241.593 162.341 243.416 159.962 242.754 157.534ZM233.679 154.419C231.88 154.419 230.425 152.964 230.425 151.165C230.425 149.367 231.88 147.911 233.679 147.911C235.478 147.911 236.933 149.367 236.933 151.165C236.933 152.964 235.478 154.419 233.679 154.419Z" fill="#002857"></path><path d="M242.754 157.534L236.974 136.319H236.925V131.217C236.925 129.255 235.33 127.661 233.368 127.661H225.136" stroke="#9EADBF" stroke-miterlimit="10" stroke-linecap="round" stroke-linejoin="round"></path><path d="M236.982 136.327L242.762 157.542C243.424 159.962 241.601 162.349 239.091 162.349" stroke="#9EADBF" stroke-miterlimit="10" stroke-linecap="round" stroke-linejoin="round"></path><path d="M204.648 134.349C204.64 134.349 204.632 134.349 204.624 134.349C204.427 134.34 204.272 134.169 204.28 133.964L205.27 116.281C205.278 116.085 205.449 115.921 205.654 115.938C205.85 115.946 206.005 116.118 205.997 116.322L205.008 134.005C205 134.201 204.836 134.349 204.648 134.349Z" fill="#8AB4CC"></path><path d="M207.003 134.348C206.995 134.348 206.986 134.348 206.978 134.348C206.782 134.34 206.627 134.169 206.635 133.964L207.624 116.281C207.632 116.085 207.804 115.921 208.008 115.938C208.204 115.946 208.36 116.117 208.352 116.322L207.362 134.005C207.354 134.201 207.199 134.348 207.003 134.348Z" fill="#8AB4CC"></path><path d="M209.365 134.348C209.357 134.348 209.349 134.348 209.349 134.348C209.153 134.34 208.998 134.169 209.006 133.964L209.995 116.281C210.003 116.085 210.167 115.921 210.379 115.938C210.575 115.946 210.731 116.117 210.723 116.322L209.733 134.005C209.709 134.201 209.553 134.348 209.365 134.348Z" fill="#8AB4CC"></path><path d="M211.72 134.348C211.712 134.348 211.704 134.348 211.695 134.348C211.499 134.34 211.344 134.169 211.352 133.964L212.341 116.281C212.349 116.085 212.521 115.921 212.726 115.938C212.922 115.946 213.077 116.117 213.069 116.322L212.08 134.005C212.072 134.201 211.908 134.348 211.72 134.348Z" fill="#8AB4CC"></path><path d="M214.074 134.348C214.066 134.348 214.058 134.348 214.05 134.348C213.854 134.34 213.698 134.169 213.706 133.964L214.696 116.281C214.704 116.085 214.875 115.921 215.08 115.938C215.276 115.946 215.431 116.117 215.423 116.322L214.434 134.005C214.426 134.201 214.262 134.348 214.074 134.348Z" fill="#8AB4CC"></path><path d="M241.421 134.349C241.413 134.349 241.405 134.349 241.405 134.349C241.208 134.34 241.053 134.169 241.061 133.964L242.051 116.281C242.059 116.085 242.23 115.921 242.435 115.938C242.631 115.946 242.786 116.118 242.778 116.322L241.789 134.005C241.773 134.201 241.609 134.349 241.421 134.349Z" fill="#8AB4CC"></path><path d="M243.776 134.348C243.767 134.348 243.759 134.348 243.751 134.348C243.555 134.34 243.4 134.169 243.408 133.964L244.397 116.281C244.405 116.085 244.577 115.921 244.781 115.938C244.977 115.946 245.133 116.117 245.125 116.322L244.135 134.005C244.127 134.201 243.964 134.348 243.776 134.348Z" fill="#8AB4CC"></path><path d="M246.13 134.348C246.122 134.348 246.114 134.348 246.106 134.348C245.909 134.34 245.754 134.169 245.762 133.964L246.751 116.281C246.76 116.085 246.931 115.921 247.136 115.938C247.332 115.946 247.487 116.117 247.479 116.322L246.49 134.005C246.482 134.201 246.326 134.348 246.13 134.348Z" fill="#8AB4CC"></path><path d="M248.493 134.348C248.485 134.348 248.476 134.348 248.476 134.348C248.28 134.34 248.125 134.169 248.133 133.964L249.122 116.281C249.131 116.085 249.302 115.921 249.507 115.938C249.703 115.946 249.858 116.117 249.85 116.322L248.861 134.005C248.844 134.201 248.681 134.348 248.493 134.348Z" fill="#8AB4CC"></path><path d="M250.847 134.348C250.839 134.348 250.831 134.348 250.831 134.348C250.635 134.34 250.479 134.169 250.488 133.964L251.477 116.281C251.485 116.085 251.665 115.921 251.861 115.938C252.057 115.946 252.213 116.117 252.204 116.322L251.215 134.005C251.199 134.201 251.035 134.348 250.847 134.348Z" fill="#8AB4CC"></path><path d="M200.078 176.296H183.981L176.043 262.276H178.528C197.201 212.317 202.564 189.843 204.101 181.087C204.55 178.593 202.621 176.296 200.078 176.296Z" fill="#335379"></path><path d="M176.345 259.006C176.345 259.006 194.176 213.052 189.581 182.002C189.287 180.024 183.981 176.296 183.981 176.296L176.345 259.006Z" fill="#002857"></path><path d="M184.496 176.296H170.827L138.739 259.006L140.75 262.284C163.878 226.738 184.995 195.189 189.369 183.294C190.611 179.901 188.11 176.296 184.496 176.296Z" fill="#335379"></path><path d="M165.57 190.652C157.755 192.565 149.53 189.851 147.928 184.954C146.105 179.403 150.748 176.304 150.748 176.304L147.323 167.107L141.355 167.826L137.382 180.261C133.956 190.987 141.96 201.95 153.217 201.95H160.878L138.739 259.006C171.947 206.161 165.57 190.652 165.57 190.652Z" fill="#002857"></path><path d="M140.979 169.02H176.713L176.869 176.296H138.649L140.979 169.02Z" fill="#005C90"></path><path d="M178.537 262.276V272.528L184.946 273.223H176.574L176.043 266.952L173.092 263.077L176.346 259.006L178.537 262.276Z" fill="#FDD390"></path><path d="M184.946 273.223L183.949 276.73H177.326C176.19 276.73 175.266 275.806 175.266 274.67V267.762L171.882 263.363L176.354 259.006L176.574 273.223H184.946V273.223Z" fill="#B5D0DF"></path><path d="M171.882 263.363V276.73L174.204 264.843L171.882 263.363Z" fill="#B5D0DF"></path><path d="M140.922 262.276V272.528L147.339 273.223H138.959L138.436 266.952L135.477 263.077L138.739 259.006L140.922 262.276Z" fill="#FDD390"></path><path d="M147.339 273.223L146.341 276.73H139.719C138.583 276.73 137.659 275.806 137.659 274.67V267.762L134.275 263.363L138.746 259.006L138.967 273.223H147.339V273.223Z" fill="#B5D0DF"></path><path d="M134.267 263.363V276.73L136.597 264.843L134.267 263.363Z" fill="#B5D0DF"></path><path d="M132.714 276.73H111.785C108.474 276.73 105.784 274.041 105.784 270.73V169.02H138.714V270.73C138.714 274.049 136.033 276.73 132.714 276.73Z" fill="#B5D0DF"></path><path d="M128.013 276.73H107.084C103.773 276.73 101.083 274.04 101.083 270.729V169.02H134.014V270.729C134.014 274.049 131.332 276.73 128.013 276.73Z" fill="#002857"></path><path d="M260.273 276.73H239.344C236.033 276.73 233.344 274.041 233.344 270.73V169.02H266.274V270.73C266.266 274.049 263.584 276.73 260.273 276.73Z" fill="#B5D0DF"></path><path d="M255.573 276.73H234.644C231.333 276.73 228.643 274.041 228.643 270.73V169.02H261.573V270.73C261.573 274.049 258.884 276.73 255.573 276.73Z" fill="#002857"></path><path d="M91.2811 172.658H258.32C260.421 172.658 262.121 170.958 262.121 168.857V166.093C262.121 163.992 260.421 162.292 258.32 162.292H91.2811C89.1801 162.292 87.4796 163.992 87.4796 166.093V168.857C87.4796 170.958 89.1801 172.658 91.2811 172.658Z" fill="#002857"></path><path d="M166.944 172.658H283.5C285.601 172.658 287.301 170.958 287.301 168.857V166.093C287.301 163.992 285.601 162.292 283.5 162.292H166.944C164.843 162.292 163.142 163.992 163.142 166.093V168.857C163.134 170.958 164.843 172.658 166.944 172.658Z" fill="#B5D0DF"></path><path d="M134.022 172.658H101.092V178.724H134.022V172.658Z" fill="#005C90"></path><path d="M261.573 172.658H228.643V178.724H261.573V172.658Z" fill="#005C90"></path><path d="M272.545 62.5034L264.141 55.7751H210.919C207.371 55.7751 204.501 52.8974 204.501 49.3575V40.5526C204.501 37.0046 207.379 34.135 210.919 34.135H266.127C269.675 34.135 272.545 37.0127 272.545 40.5526V62.5034V62.5034Z" fill="white" stroke="#005C90" stroke-width="0.25" stroke-miterlimit="10"></path><path d="M212.088 39.49H249.359" stroke="#005C90" stroke-width="0.25" stroke-miterlimit="10"></path><path d="M212.088 44.4359H249.359" stroke="#005C90" stroke-width="0.25" stroke-miterlimit="10"></path><path d="M212.088 49.3903H249.359" stroke="#005C90" stroke-width="0.25" stroke-miterlimit="10"></path><path d="M189.908 92.605L198.313 85.8767H251.534C255.082 85.8767 257.952 82.999 257.952 79.459V70.6542C257.952 67.1061 255.074 64.2366 251.534 64.2366H196.326C192.778 64.2366 189.908 67.1143 189.908 70.6542V92.605V92.605Z" fill="white" stroke="#005C90" stroke-width="0.25" stroke-miterlimit="10"></path><path d="M250.357 69.5833H213.085" stroke="#005C90" stroke-width="0.25" stroke-miterlimit="10"></path><path d="M250.357 74.5376H213.085" stroke="#005C90" stroke-width="0.25" stroke-miterlimit="10"></path><path d="M250.357 79.4919H213.085" stroke="#005C90" stroke-width="0.25" stroke-miterlimit="10"></path><path d="M322.43 53.1508L322.643 53.1017C326.052 55.1456 328.268 55.0475 329.388 53.3061L329.42 53.2571C330.369 51.7855 329.895 50.0278 327.998 48.8179C326.338 47.7551 324.499 47.6079 322.373 48.1393L321.752 44.7629C324.393 44.0108 327.131 44.0925 329.968 45.9156C333.655 48.2783 334.832 51.9408 332.723 55.2273L332.69 55.2764C330.565 58.5956 327.205 58.5547 323.959 57.1812L322.341 59.1188L320.207 57.7535L322.43 53.1508ZM318.032 59.4703L321.556 61.7349L319.226 65.3647L315.702 63.1002L318.032 59.4703Z" fill="#002857"></path><path d="M95.2871 202.187C90.5454 202.187 86.6948 206.03 86.6948 210.779V266.265C86.6948 267.508 87.7004 268.514 88.943 268.514H101.631C102.874 268.514 103.879 267.508 103.879 266.265V210.779C103.871 206.038 100.029 202.187 95.2871 202.187Z" fill="#B5D0DF"></path><path d="M102.882 236.148H97.2246C94.8864 236.148 92.9897 234.251 92.9897 231.913C92.9897 229.575 94.8864 227.678 97.2246 227.678H102.882C106.029 227.678 108.588 225.119 108.588 221.972V216.044C108.588 213.706 110.485 211.81 112.823 211.81C115.161 211.81 117.058 213.706 117.058 216.044V221.972C117.058 229.787 110.706 236.148 102.882 236.148Z" fill="#B5D0DF"></path><path d="M93.9137 247.307H87.9866C80.171 247.307 73.8105 240.946 73.8105 233.131V227.473C73.8105 225.135 75.7072 223.239 78.0454 223.239C80.3835 223.239 82.2802 225.135 82.2802 227.473V233.131C82.2802 236.278 84.8391 238.837 87.9866 238.837H93.9137C96.2518 238.837 98.1485 240.734 98.1485 243.072C98.1485 245.41 96.2518 247.307 93.9137 247.307Z" fill="#B5D0DF"></path><path d="M91.0932 211.826H90.3901V214.769H91.0932V211.826Z" fill="#9EADBF"></path><path d="M100.094 207.411H99.3912V210.354H100.094V207.411Z" fill="#9EADBF"></path><path d="M95.0828 224.53H94.3798V227.473H95.0828V224.53Z" fill="#9EADBF"></path><path d="M97.5844 215.611H96.8813V218.554H97.5844V215.611Z" fill="#9EADBF"></path><path d="M101.435 240.816H100.732V243.759H101.435V240.816Z" fill="#9EADBF"></path><path d="M111.057 214.573H110.354V217.516H111.057V214.573Z" fill="#9EADBF"></path><path d="M91.0932 233.875H90.3901V236.818H91.0932V233.875Z" fill="#9EADBF"></path><path d="M91.8291 246.456H91.126V249.399H91.8291V246.456Z" fill="#9EADBF"></path><path d="M98.4592 233.204H97.7561V236.147H98.4592V233.204Z" fill="#9EADBF"></path><path d="M76.9908 233.801H76.2877V236.744H76.9908V233.801Z" fill="#9EADBF"></path><path d="M80.3753 228.307H79.6722V231.25H80.3753V228.307Z" fill="#9EADBF"></path><path d="M81.9288 236.744H81.2257V239.687H81.9288V236.744Z" fill="#9EADBF"></path><path d="M102.056 221.971H101.353V224.914H102.056V221.971Z" fill="#9EADBF"></path><path d="M112.529 226.002H111.826V228.945H112.529V226.002Z" fill="#9EADBF"></path><path d="M109.839 252.212H81.0293C80.2527 252.212 79.6477 252.899 79.754 253.667L82.738 276.01C83.0405 278.291 84.9944 280 87.2916 280H104.076C106.414 280 108.384 278.242 108.646 275.912L111.123 253.643C111.204 252.882 110.608 252.212 109.839 252.212Z" fill="#9EADBF"></path><path d="M109.782 265.685L110.281 261.156H80.7596L81.3646 265.685H109.782Z" fill="#005C90"></path><path d="M81.3074 144.224C85.2536 144.224 88.4526 141.025 88.4526 137.079C88.4526 133.133 85.2536 129.934 81.3074 129.934C77.3611 129.934 74.1621 133.133 74.1621 137.079C74.1621 141.025 77.3611 144.224 81.3074 144.224Z" fill="#9EADBF" stroke="#005C90" stroke-width="0.25" stroke-miterlimit="10"></path><path d="M311.32 154.912C311.954 151.018 309.31 147.346 305.415 146.713C301.52 146.079 297.849 148.723 297.215 152.617C296.582 156.512 299.225 160.184 303.12 160.817C307.015 161.451 310.686 158.807 311.32 154.912Z" fill="#9EADBF" stroke="#005C90" stroke-width="0.25" stroke-miterlimit="10"></path><path d="M299.679 199.113C299.679 201.084 298.076 202.686 296.106 202.686C294.136 202.686 292.533 201.084 292.533 199.113C292.533 197.143 294.136 195.541 296.106 195.541C298.076 195.541 299.679 197.135 299.679 199.113Z" fill="#9EADBF" stroke="#005C90" stroke-width="0.25" stroke-miterlimit="10"></path><path d="M345.076 87.61L342.329 98.9246L333.77 90.3651L345.076 87.61Z" fill="#9EADBF" stroke="#005C90" stroke-width="0.25" stroke-miterlimit="10"></path><path d="M154.305 55.7097L144.364 61.7676V49.6599L154.305 55.7097Z" fill="#9EADBF" stroke="#005C90" stroke-width="0.25" stroke-miterlimit="10"></path><path d="M345.788 195.541L335.838 201.59V189.483L345.788 195.541Z" fill="#9EADBF" stroke="#005C90" stroke-width="0.25" stroke-miterlimit="10"></path><path d="M356.701 173.459H309.505C306.619 173.459 304.281 171.121 304.281 168.235V158.899C304.281 156.013 306.619 153.675 309.505 153.675H356.701C359.587 153.675 361.926 156.013 361.926 158.899V168.235C361.926 171.113 359.587 173.459 356.701 173.459Z" fill="white" stroke="#005C90" stroke-width="0.25" stroke-miterlimit="10"></path><path d="M351.739 158.613H314.468" stroke="#005C90" stroke-width="0.25" stroke-miterlimit="10"></path><path d="M351.739 163.559H314.468" stroke="#005C90" stroke-width="0.25" stroke-miterlimit="10"></path><path d="M351.739 168.513H314.468" stroke="#005C90" stroke-width="0.25" stroke-miterlimit="10"></path><path d="M123.696 110.01H76.5003C73.6144 110.01 71.2762 107.672 71.2762 104.786V95.45C71.2762 92.5641 73.6144 90.226 76.5003 90.226H123.696C126.582 90.226 128.921 92.5641 128.921 95.45V104.786C128.921 107.672 126.582 110.01 123.696 110.01Z" fill="white" stroke="#005C90" stroke-width="0.25" stroke-miterlimit="10"></path><path d="M118.734 95.1639H81.4625" stroke="#005C90" stroke-width="0.25" stroke-miterlimit="10"></path><path d="M118.734 100.118H81.4625" stroke="#005C90" stroke-width="0.25" stroke-miterlimit="10"></path><path d="M118.734 105.072H81.4625" stroke="#005C90" stroke-width="0.25" stroke-miterlimit="10"></path></svg>