<svg xmlns="http://www.w3.org/2000/svg" width="400" height="280" viewBox="0 0 400 280" fill="none"><path d="M317.578 193.124C291.935 253.464 223.629 287.266 164.395 278.148C154.756 276.664 128.331 272.244 104.936 251.394C59.8981 211.255 50.2671 131.774 86.5976 75.7619C113.04 34.9944 160.44 11.8857 205.48 13.0414C215.182 13.2908 252.362 14.825 285.037 41.7513C289.836 45.7066 300.422 55.1042 309.962 70.0134C332.364 105.024 334.29 153.8 317.578 193.124Z" fill="url(#paint0_linear)"></path><path d="M157.973 100.987C157.796 100.973 157.628 100.875 157.534 100.708C157.176 100.078 156.799 99.4496 156.414 98.84C156.251 98.5829 156.328 98.2419 156.586 98.0792C156.843 97.9174 157.184 97.9935 157.347 98.2506C157.742 98.8747 158.128 99.519 158.495 100.164C158.645 100.429 158.551 100.766 158.286 100.916C158.187 100.972 158.078 100.994 157.973 100.987Z" fill="#005C90"></path><path d="M114.137 170.18C113.302 170.128 112.446 170.032 111.613 169.925C111.31 169.885 111.097 169.609 111.136 169.308C111.175 169.005 111.453 168.8 111.753 168.831C112.567 168.936 113.41 169.018 114.217 169.08C114.816 169.125 115.429 169.157 116.04 169.178C116.352 169.167 116.583 169.443 116.573 169.748C116.563 170.052 116.308 170.291 116.003 170.28C115.379 170.259 114.75 170.225 114.137 170.18ZM123.044 169.975C122.786 169.956 122.57 169.756 122.538 169.491C122.502 169.188 122.718 168.914 123.021 168.877C124.395 168.713 125.784 168.483 127.146 168.194L127.265 168.169C127.561 168.106 127.855 168.296 127.919 168.594C127.983 168.891 127.792 169.185 127.494 169.248L127.376 169.273C125.98 169.569 124.56 169.804 123.152 169.972C123.114 169.977 123.078 169.977 123.044 169.975ZM134.115 167.259C133.908 167.244 133.719 167.112 133.64 166.905C133.532 166.621 133.675 166.302 133.96 166.194C135.3 165.685 136.626 165.109 137.905 164.481C138.177 164.347 138.509 164.459 138.643 164.732C138.778 165.005 138.665 165.336 138.391 165.471C137.083 166.114 135.724 166.704 134.353 167.224C134.274 167.254 134.194 167.265 134.115 167.259ZM144.189 161.932C144.03 161.921 143.876 161.84 143.777 161.698C143.603 161.449 143.664 161.105 143.913 160.931C145.082 160.113 146.227 159.23 147.315 158.305C147.547 158.107 147.895 158.136 148.093 158.367C148.29 158.599 148.262 158.947 148.03 159.145C146.916 160.092 145.743 160.997 144.546 161.835C144.438 161.91 144.312 161.942 144.189 161.932ZM152.651 154.303C152.536 154.294 152.424 154.25 152.331 154.17C152.1 153.971 152.075 153.622 152.275 153.392C153.209 152.314 154.104 151.179 154.936 150.015C155.112 149.768 155.457 149.71 155.706 149.887C155.953 150.065 156.011 150.409 155.834 150.657C154.983 151.847 154.065 153.01 153.108 154.113C152.991 154.251 152.819 154.316 152.651 154.303ZM159.008 144.846C158.938 144.841 158.867 144.822 158.8 144.788C158.528 144.65 158.419 144.318 158.557 144.046C159.204 142.772 159.796 141.453 160.321 140.126C160.432 139.842 160.753 139.705 161.037 139.816C161.32 139.927 161.46 140.248 161.348 140.531C160.812 141.89 160.204 143.24 159.543 144.545C159.438 144.749 159.223 144.861 159.008 144.846ZM162.878 134.13C162.851 134.128 162.824 134.124 162.796 134.118C162.5 134.051 162.313 133.755 162.38 133.458C162.696 132.064 162.95 130.64 163.133 129.226C163.172 128.923 163.45 128.701 163.75 128.75C164.052 128.789 164.266 129.066 164.226 129.367C164.038 130.816 163.779 132.274 163.456 133.702C163.396 133.971 163.146 134.149 162.878 134.13ZM164.005 122.788C163.725 122.766 163.502 122.537 163.495 122.252C163.459 120.826 163.355 119.383 163.186 117.965C163.15 117.662 163.366 117.388 163.668 117.351C163.972 117.315 164.246 117.531 164.282 117.834C164.456 119.287 164.563 120.764 164.599 122.224C164.607 122.529 164.366 122.782 164.062 122.79C164.041 122.79 164.023 122.789 164.005 122.788ZM162.33 111.515C162.104 111.499 161.903 111.343 161.839 111.111C161.458 109.73 161.009 108.356 160.504 107.026C160.396 106.742 160.539 106.423 160.824 106.315C161.108 106.208 161.427 106.35 161.536 106.636C162.052 107.998 162.513 109.405 162.903 110.819C162.984 111.112 162.812 111.416 162.518 111.497C162.455 111.514 162.392 111.52 162.33 111.515Z" fill="#005C90"></path><path d="M104.697 168.483C104.66 168.48 104.622 168.473 104.584 168.463C103.874 168.257 103.158 168.031 102.456 167.792C102.168 167.693 102.014 167.38 102.112 167.091C102.21 166.803 102.524 166.646 102.812 166.748C103.499 166.982 104.198 167.202 104.891 167.403C105.184 167.488 105.352 167.794 105.267 168.086C105.194 168.341 104.952 168.502 104.697 168.483Z" fill="#005C90"></path><path d="M76.3635 145.285C76.1795 145.272 76.006 145.166 75.9145 144.99C75.5762 144.338 75.2466 143.664 74.9344 142.986C74.8072 142.709 74.9286 142.382 75.2052 142.255C75.4827 142.128 75.8094 142.249 75.9366 142.525C76.2412 143.188 76.563 143.847 76.8936 144.483C77.0343 144.754 76.9283 145.086 76.6575 145.227C76.564 145.274 76.4618 145.292 76.3635 145.285Z" fill="#005C90"></path><path d="M72.9742 136.787C72.7507 136.771 72.5512 136.618 72.4857 136.391C72.1734 135.307 71.8959 134.197 71.6607 133.091C71.5962 132.787 71.5345 132.483 71.4767 132.179C71.4189 131.88 71.6155 131.591 71.9142 131.534C72.2149 131.475 72.503 131.673 72.5608 131.971C72.6177 132.268 72.6784 132.565 72.741 132.863C72.9704 133.943 73.2421 135.027 73.5467 136.085C73.6315 136.378 73.4619 136.683 73.1689 136.768C73.1024 136.787 73.0378 136.792 72.9742 136.787ZM71.1741 125.721C70.8985 125.701 70.6759 125.476 70.6653 125.194C70.6065 123.756 70.6152 122.299 70.6903 120.863C70.7057 120.559 70.9659 120.326 71.2695 120.341C71.5625 120.361 71.8082 120.617 71.7918 120.921C71.7186 122.324 71.7109 123.747 71.7677 125.15C71.7802 125.454 71.5432 125.711 71.2387 125.723C71.2165 125.724 71.1953 125.723 71.1741 125.721ZM72.0867 114.546C72.0636 114.544 72.0395 114.541 72.0154 114.536C71.7166 114.474 71.5249 114.182 71.5865 113.884C71.8766 112.475 72.237 111.063 72.6572 109.688C72.7458 109.396 73.0561 109.233 73.3462 109.321C73.6372 109.41 73.802 109.718 73.7134 110.01C73.3038 111.353 72.9521 112.731 72.6678 114.107C72.6109 114.382 72.3594 114.566 72.0867 114.546ZM75.6658 103.92C75.5993 103.915 75.5328 103.898 75.4692 103.867C75.1945 103.736 75.0779 103.407 75.209 103.132C75.8296 101.834 76.5177 100.55 77.2539 99.3147C77.41 99.0527 77.7483 98.966 78.0104 99.123C78.2725 99.279 78.3583 99.6171 78.2012 99.879C77.4823 101.085 76.8097 102.34 76.2045 103.607C76.1033 103.819 75.8855 103.936 75.6658 103.92ZM81.6801 94.4589C81.5712 94.4512 81.4632 94.4108 81.3717 94.3356C81.1356 94.143 81.1009 93.7954 81.2946 93.5604C82.2053 92.449 83.1795 91.3665 84.1904 90.3408C84.4044 90.1242 84.7532 90.1213 84.9701 90.3351C85.1869 90.5489 85.1898 90.8975 84.9758 91.1151C83.989 92.1158 83.0369 93.1732 82.1475 94.2586C82.0308 94.4021 81.8535 94.4714 81.6801 94.4589ZM89.7826 86.7091C89.6294 86.6976 89.481 86.6225 89.3818 86.4896C89.1996 86.2449 89.2488 85.9002 89.4935 85.7172C90.6442 84.8572 91.8497 84.0395 93.0774 83.2883C93.3376 83.1294 93.6769 83.2113 93.8359 83.4703C93.9949 83.7294 93.9139 84.0694 93.6537 84.2283C92.4549 84.9621 91.2773 85.7605 90.1537 86.6003C90.0428 86.6841 89.9108 86.7188 89.7826 86.7091ZM99.5119 81.1378C99.3115 81.1224 99.1274 80.9991 99.0436 80.8017C98.925 80.5214 99.0571 80.1979 99.3375 80.0794C100.663 79.5218 102.031 79.0191 103.403 78.5857C103.694 78.4932 104.004 78.655 104.095 78.9459C104.188 79.2358 104.026 79.5459 103.736 79.6373C102.395 80.0601 101.06 80.5513 99.7654 81.0964C99.6834 81.1311 99.5967 81.1436 99.5119 81.1378ZM110.298 78.0627C110.05 78.0444 109.837 77.8566 109.795 77.5995C109.747 77.299 109.952 77.0159 110.253 76.9687C111.674 76.7414 113.124 76.5777 114.559 76.4824C114.86 76.4641 115.125 76.6923 115.146 76.9957C115.166 77.3 114.936 77.5619 114.632 77.5822C113.23 77.6756 111.815 77.8355 110.426 78.057C110.383 78.0637 110.34 78.0656 110.298 78.0627ZM125.755 78.2033C125.735 78.2024 125.717 78.1995 125.698 78.1966C124.312 77.9481 122.901 77.7623 121.503 77.6448C121.199 77.6188 120.974 77.353 121 77.0486C121.025 76.7472 121.289 76.5228 121.591 76.545C121.593 76.545 121.595 76.545 121.596 76.545C123.028 76.6663 124.474 76.856 125.893 77.1103C126.193 77.1642 126.393 77.4512 126.34 77.7507C126.289 78.031 126.033 78.2236 125.755 78.2033Z" fill="#005C90"></path><path d="M134.583 80.7081C134.529 80.7043 134.474 80.6917 134.421 80.6715C133.751 80.4067 133.063 80.1534 132.376 79.9203C132.088 79.8221 131.934 79.5091 132.032 79.2211C132.13 78.9332 132.445 78.7752 132.732 78.8773C133.435 79.1162 134.14 79.3752 134.827 79.6468C135.11 79.7585 135.249 80.0792 135.137 80.3624C135.046 80.5916 134.818 80.7254 134.583 80.7081Z" fill="#005C90"></path><path d="M134.761 92.0813C134.567 91.9455 134.306 91.9483 134.115 92.088L128.636 96.0847C125.692 94.9165 122.541 94.2087 119.286 94.0363L115.98 88.1221C115.864 87.915 115.629 87.8033 115.395 87.8457L107.387 89.2797C107.153 89.3221 106.972 89.507 106.935 89.742L105.889 96.4353C102.896 97.7258 100.186 99.4824 97.8322 101.6L91.3062 99.7521C91.0778 99.6875 90.8331 99.7742 90.6972 99.9697L86.0484 106.643C85.9125 106.838 85.9154 107.097 86.0552 107.289L90.0544 112.764C88.8855 115.706 88.1772 118.855 88.0047 122.109L82.0867 125.412C81.8796 125.528 81.7678 125.763 81.8102 125.997L83.2451 134C83.2865 134.234 83.4725 134.415 83.7076 134.451L90.4052 135.496C91.6965 138.487 93.4542 141.196 95.5734 143.548L93.7241 150.07C93.6595 150.298 93.7472 150.543 93.9419 150.679L100.619 155.325C100.815 155.461 101.074 155.458 101.266 155.317L106.744 151.32C109.688 152.488 112.84 153.196 116.095 153.369L119.4 159.283C119.516 159.49 119.751 159.602 119.985 159.559L127.993 158.125C128.227 158.084 128.409 157.898 128.445 157.663L129.491 150.97C132.484 149.679 135.194 147.922 137.548 145.805L144.074 147.653C144.303 147.717 144.547 147.631 144.683 147.435L149.332 140.762C149.468 140.568 149.465 140.308 149.324 140.116L145.325 134.641C146.494 131.699 147.202 128.55 147.375 125.296L153.293 121.993C153.5 121.877 153.612 121.643 153.569 121.408L152.134 113.405C152.093 113.171 151.907 112.99 151.672 112.953L144.974 111.908C143.683 108.917 141.924 106.208 139.806 103.856L141.655 97.3338C141.72 97.1056 141.633 96.8609 141.438 96.7251L134.761 92.0813Z" fill="#005C90"></path><path d="M117.102 131.731C116.341 131.675 115.582 131.508 114.848 131.232C112.836 130.473 111.24 128.976 110.354 127.017C109.469 125.058 109.398 122.872 110.158 120.861C110.917 118.85 112.415 117.256 114.375 116.371C116.334 115.486 118.522 115.416 120.534 116.175C122.547 116.934 124.142 118.431 125.028 120.389C125.914 122.348 125.984 124.534 125.225 126.545C124.465 128.556 122.968 130.151 121.008 131.036C119.763 131.598 118.426 131.831 117.102 131.731ZM118.158 117.324C117.106 117.245 116.044 117.431 115.056 117.878C111.842 119.329 110.409 123.124 111.862 126.335C112.566 127.891 113.834 129.08 115.433 129.683C117.031 130.286 118.769 130.231 120.326 129.527C121.884 128.824 123.073 127.557 123.676 125.96C124.279 124.362 124.223 122.626 123.52 121.069C122.815 119.514 121.548 118.325 119.949 117.722C119.365 117.501 118.763 117.369 118.158 117.324Z" fill="#639CBB"></path><path d="M116.045 144.248C112.44 143.979 108.959 142.751 105.915 140.633C101.43 137.513 98.4287 132.834 97.465 127.458C97.1557 125.732 97.068 123.998 97.1952 122.293C97.4641 118.692 98.6928 115.213 100.812 112.172C103.934 107.69 108.616 104.691 113.995 103.727C114.136 103.702 114.276 103.678 114.417 103.657C115.574 103.474 116.743 103.39 117.905 103.407C118.049 103.409 118.195 103.413 118.339 103.417L118.282 105.069C116.954 105.023 115.611 105.119 114.288 105.355C109.607 106.193 105.501 108.708 102.641 112.469C102.48 112.681 102.323 112.897 102.171 113.115C100.223 115.911 99.0937 119.108 98.846 122.419C98.7284 123.987 98.8094 125.578 99.0937 127.166C99.9793 132.106 102.737 136.407 106.859 139.275C110.981 142.144 115.974 143.235 120.918 142.35C129.534 140.807 135.734 133.594 136.356 125.247C136.471 123.707 136.396 122.129 136.111 120.54C135.51 117.186 134.014 114.065 131.786 111.511L133.033 110.424C135.459 113.202 137.086 116.6 137.741 120.247C138.051 121.976 138.132 123.693 138.008 125.369C137.33 134.45 130.585 142.299 121.21 143.978C119.483 144.287 117.75 144.375 116.045 144.248Z" fill="#639CBB"></path><path d="M217.95 79.5948C217.703 79.5765 217.471 79.433 217.349 79.1952C216.915 78.3448 216.438 77.5059 215.93 76.7018C215.713 76.3589 215.815 75.9063 216.158 75.6886C216.501 75.4729 216.955 75.575 217.172 75.9169C217.705 76.7586 218.205 77.6379 218.659 78.5287C218.843 78.8908 218.698 79.3319 218.337 79.5168C218.214 79.5794 218.08 79.6045 217.95 79.5948Z" fill="#005C90"></path><path d="M191.866 125.676C191.508 125.649 191.215 125.364 191.188 124.996C191.159 124.591 191.464 124.24 191.868 124.211C193.291 124.109 194.726 123.906 196.136 123.607C196.633 123.502 197.124 123.384 197.611 123.257C198.004 123.153 198.405 123.388 198.508 123.781C198.611 124.173 198.376 124.575 197.984 124.678C197.476 124.812 196.961 124.933 196.441 125.044C194.966 125.358 193.462 125.571 191.974 125.677C191.937 125.678 191.9 125.678 191.866 125.676ZM206.599 120.856C206.375 120.84 206.161 120.721 206.032 120.516C205.815 120.173 205.917 119.72 206.261 119.503C207.897 118.471 209.447 117.275 210.864 115.951C211.16 115.673 211.625 115.689 211.903 115.985C212.181 116.281 212.164 116.746 211.869 117.023C210.384 118.41 208.762 119.662 207.046 120.746C206.908 120.832 206.751 120.868 206.599 120.856ZM217.285 109.638C217.18 109.63 217.076 109.6 216.978 109.544C216.625 109.345 216.501 108.897 216.7 108.544C217.657 106.855 218.458 105.07 219.083 103.237C219.214 102.854 219.629 102.646 220.016 102.779C220.4 102.91 220.605 103.326 220.474 103.71C219.82 105.629 218.981 107.499 217.979 109.267C217.835 109.523 217.56 109.658 217.285 109.638ZM221.402 94.7025C221.016 94.6736 220.714 94.3471 220.723 93.9551C220.763 92.0232 220.621 90.0711 220.298 88.1546C220.23 87.754 220.5 87.3755 220.901 87.309C221.3 87.2378 221.681 87.5113 221.748 87.9109C222.086 89.9189 222.236 91.9626 222.193 93.986C222.185 94.3914 221.849 94.7131 221.444 94.7054C221.428 94.7044 221.415 94.7034 221.402 94.7025Z" fill="#005C90"></path><path d="M182.209 124.876C182.17 124.873 182.13 124.867 182.09 124.858C181.118 124.624 180.147 124.341 179.205 124.018C178.82 123.886 178.616 123.469 178.747 123.085C178.878 122.702 179.296 122.498 179.68 122.628C180.58 122.937 181.506 123.206 182.435 123.43C182.829 123.525 183.072 123.922 182.977 124.316C182.892 124.67 182.561 124.902 182.209 124.876Z" fill="#005C90"></path><path d="M161.444 108.641C161.199 108.623 160.968 108.482 160.846 108.247C160.388 107.364 159.964 106.445 159.587 105.517C159.435 105.141 159.616 104.713 159.992 104.56C160.368 104.408 160.797 104.589 160.949 104.966C161.308 105.851 161.713 106.728 162.151 107.571C162.338 107.931 162.197 108.374 161.837 108.561C161.711 108.626 161.575 108.651 161.444 108.641Z" fill="#005C90"></path><path d="M157.99 96.7424C157.637 96.7164 157.345 96.4381 157.313 96.0741C157.161 94.3386 157.149 92.5781 157.278 90.8417C157.298 90.5875 157.319 90.3342 157.345 90.0819C157.385 89.6783 157.755 89.4087 158.149 89.4231C158.552 89.4636 158.847 89.8238 158.807 90.2263C158.783 90.4671 158.762 90.7079 158.744 90.9506C158.621 92.608 158.631 94.2885 158.777 95.946C158.813 96.3495 158.514 96.7058 158.109 96.7415C158.069 96.7453 158.028 96.7453 157.99 96.7424ZM160.361 81.6897C160.283 81.6839 160.206 81.6656 160.13 81.6339C159.756 81.4769 159.581 81.0454 159.739 80.6718C160.514 78.8352 161.466 77.0593 162.565 75.3922C162.789 75.0542 163.244 74.9608 163.583 75.1842C163.922 75.4076 164.015 75.8632 163.792 76.2012C162.741 77.7922 161.834 79.4891 161.093 81.2429C160.967 81.5404 160.667 81.7119 160.361 81.6897ZM169.473 69.4732C169.28 69.4588 169.093 69.3683 168.96 69.2074C168.702 68.8944 168.747 68.4312 169.06 68.1741C170.601 66.9067 172.27 65.776 174.02 64.813C174.376 64.6184 174.822 64.7475 175.019 65.1028C175.214 65.4582 175.085 65.9041 174.729 66.1006C173.058 67.0203 171.465 68.0989 169.993 69.3085C169.842 69.4328 169.655 69.4867 169.473 69.4732ZM183.232 62.9148C182.913 62.8907 182.636 62.6595 182.567 62.3311C182.485 61.9344 182.742 61.5453 183.139 61.4634C185.103 61.0589 187.106 60.8345 189.093 60.796C189.508 60.7719 189.834 61.109 189.843 61.5154C189.851 61.9209 189.529 62.256 189.123 62.2637C187.225 62.3013 185.311 62.516 183.435 62.9022C183.367 62.9167 183.299 62.9196 183.232 62.9148Z" fill="#005C90"></path><path d="M201.272 64.4642C201.2 64.4584 201.128 64.443 201.056 64.4151C200.17 64.0645 199.256 63.7525 198.342 63.4867C197.952 63.373 197.728 62.9657 197.841 62.5766C197.954 62.1875 198.362 61.9622 198.752 62.0768C199.71 62.3551 200.667 62.6816 201.596 63.0494C201.974 63.1987 202.159 63.6254 202.009 64.0019C201.889 64.3082 201.584 64.4873 201.272 64.4642Z" fill="#005C90"></path><path d="M201.42 71.8886C201.287 71.7961 201.109 71.798 200.978 71.8934L197.23 74.6275C195.216 73.8282 193.061 73.3438 190.834 73.2263L188.573 69.1804C188.494 69.0389 188.333 68.9628 188.173 68.9907L182.694 69.9711C182.534 70 182.41 70.1271 182.385 70.287L181.67 74.8654C179.622 75.7485 177.769 76.9504 176.158 78.3989L171.693 77.1353C171.537 77.091 171.369 77.1508 171.277 77.2846L168.097 81.8495C168.004 81.9834 168.006 82.1606 168.101 82.2916L170.837 86.037C170.037 88.0498 169.553 90.2041 169.435 92.4298L165.387 94.6891C165.245 94.7681 165.169 94.9289 165.197 95.0888L166.178 100.564C166.207 100.724 166.334 100.848 166.494 100.873L171.075 101.588C171.959 103.634 173.162 105.486 174.611 107.096L173.346 111.558C173.301 111.714 173.361 111.882 173.495 111.974L178.063 115.152C178.197 115.246 178.374 115.243 178.505 115.148L182.253 112.413C184.267 113.213 186.423 113.697 188.65 113.815L190.911 117.86C190.99 118.002 191.151 118.078 191.311 118.049L196.789 117.069C196.949 117.04 197.073 116.913 197.098 116.753L197.813 112.175C199.861 111.291 201.714 110.089 203.326 108.641L207.789 109.906C207.946 109.95 208.113 109.89 208.207 109.756L211.387 105.191C211.479 105.058 211.477 104.88 211.382 104.749L208.646 101.004C209.446 98.9911 209.931 96.8368 210.048 94.6111L214.097 92.3518C214.238 92.2728 214.314 92.112 214.286 91.9521L213.305 86.4771C213.276 86.3172 213.148 86.193 212.988 86.1679L208.407 85.4533C207.523 83.4068 206.321 81.5548 204.871 79.9446L206.136 75.4827C206.18 75.3267 206.12 75.1591 205.986 75.0657L201.42 71.8886Z" fill="#005C90"></path><path d="M189.302 99.5431C187.165 99.3832 185.177 98.0927 184.234 96.0086C182.861 92.974 184.215 89.3885 187.252 88.0161C190.288 86.6447 193.876 87.9988 195.248 91.0325C196.621 94.0671 195.267 97.6526 192.231 99.0249C191.281 99.4535 190.277 99.6163 189.302 99.5431ZM188.16 90.0232C186.231 90.8947 185.37 93.1724 186.243 95.1004C187.115 97.0275 189.394 97.8885 191.323 97.016C193.252 96.1444 194.112 93.8668 193.241 91.9387C192.369 90.0126 190.091 89.1516 188.16 90.0232Z" fill="#639CBB"></path><path d="M188.576 108.108C186.015 107.918 183.542 107.045 181.38 105.541C178.194 103.324 176.063 100.001 175.378 96.1828C175.158 94.9559 175.096 93.7251 175.186 92.5145C175.378 89.9566 176.25 87.4864 177.755 85.3252C179.973 82.1414 183.299 80.0111 187.119 79.3273C188.14 79.1443 189.178 79.0701 190.205 79.1067L190.127 81.3083C189.257 81.2775 188.375 81.3401 187.509 81.4951C184.409 82.0508 181.693 83.7275 179.816 86.2353C179.788 86.2729 179.76 86.3105 179.732 86.348C179.675 86.426 179.619 86.504 179.564 86.583C178.287 88.4167 177.547 90.5123 177.385 92.6821C177.308 93.7087 177.361 94.7536 177.547 95.7938C178.128 99.0335 179.936 101.852 182.638 103.732C185.342 105.614 188.614 106.331 191.855 105.748C195.097 105.168 197.917 103.362 199.799 100.66C201.075 98.8264 201.816 96.7308 201.977 94.561C202.054 93.5344 202.001 92.4895 201.816 91.4494C201.421 89.2507 200.441 87.2032 198.98 85.5304L200.642 84.0819C202.365 86.0552 203.521 88.4677 203.986 91.0603C204.205 92.2872 204.268 93.518 204.177 94.7286C203.986 97.2865 203.114 99.7568 201.608 101.918C199.391 105.102 196.065 107.232 192.244 107.916C191.019 108.137 189.787 108.199 188.576 108.108Z" fill="#639CBB"></path><path d="M169.802 226.985C150.7 222.776 165.091 194.457 165.768 193.361L131.537 205.373C131.537 205.373 128.48 221.837 149.782 236.987C155.172 240.82 160.624 242.472 165.765 242.809C165.415 236.202 167.373 230.918 169.802 226.985Z" fill="url(#paint1_linear)"></path><path d="M208.684 228.288C203.071 221.433 193.758 224.043 193.758 224.043C182.66 227.498 174.997 228.129 169.802 226.985C167.373 230.918 165.414 236.202 165.765 242.81C176.889 243.539 186.547 238.091 190.914 235.128C192.485 234.061 194.632 234.409 195.744 235.949C196.874 237.513 197.84 239.49 197.113 241.074C195.676 244.198 199.175 246.316 199.799 245.212C200.422 244.109 200.839 236.631 200.839 236.631C200.839 236.631 206.257 246.417 208.385 250.19C210.513 253.964 215.073 252.092 215.073 252.092C215.073 252.092 214.297 235.143 208.684 228.288Z" fill="url(#paint2_linear)"></path><path d="M93.6094 155.049C93.6094 155.049 117.645 136.127 180.684 163.042C180.684 163.042 187.502 170.557 185.179 179.716C182.856 188.875 150.026 239.834 150.184 262.688C150.184 262.688 126.463 278.925 93.3848 266.711C93.3858 266.711 78.497 207.356 93.6094 155.049Z" fill="url(#paint3_linear)"></path><path d="M144.609 129.465L135.984 149.664C135.127 151.669 135.496 154 136.97 155.607C139.951 158.854 145.996 163.08 155.569 159.432C158.417 158.347 160.48 155.83 160.977 152.825L164.647 130.688L144.609 129.465Z" fill="url(#paint4_linear)"></path><path d="M93.0226 230.859C86.0658 218.915 109.648 180.782 109.648 180.782L93.6085 155.049C93.6085 155.049 37.9862 221.44 66.5254 253.266C70.6162 257.828 75.0693 260.558 79.693 261.898C80.8485 245.272 87.7012 235.786 93.0226 230.859Z" fill="url(#paint5_linear)"></path><path d="M92.4482 230.843C92.108 230.943 91.7312 230.804 91.5442 230.483C84.4304 218.272 107.209 181.17 108.181 179.597C108.41 179.228 108.895 179.111 109.267 179.34C109.638 179.57 109.752 180.056 109.524 180.426C109.289 180.802 86.2672 218.291 92.9078 229.69C93.1266 230.067 92.9994 230.549 92.6226 230.769C92.5667 230.801 92.5079 230.826 92.4482 230.843Z" fill="url(#paint6_linear)"></path><path d="M148.946 229.543C144.677 230.726 140.707 232.846 136.42 233.938C131.658 235.149 126.952 236.572 122.156 237.651C114.697 239.33 104.883 241.253 98.3315 236.13C97.7793 235.697 93.3367 230.679 93.0235 230.859C81.1289 237.726 78.8161 253.775 78.8161 261.561C100.503 273.413 134.609 250.336 143.797 243.591C145.308 242.482 147.179 242.001 149.037 242.256C152.793 242.771 159.269 243.462 162.685 242.696C167.68 241.574 176.149 258.877 183.957 252.828C183.956 252.828 174.834 222.37 148.946 229.543Z" fill="url(#paint7_linear)"></path><path d="M172.56 100.916C172.56 100.916 178.007 118.544 177.514 127.423C177.02 136.301 178.285 142.239 167.877 142.878C157.469 143.516 149.436 137.475 145.759 128.167C145.759 128.167 139.97 113.81 142.227 108.445C144.483 103.081 172.56 100.916 172.56 100.916Z" fill="url(#paint8_linear)"></path><path d="M149.952 122.236L151.242 122.379C151.242 122.379 147.141 110.886 152.027 109.491C156.913 108.097 175.843 106.388 180.569 100.27C185.125 94.3722 182.603 85.8163 177.722 82.957C177.414 82.7759 177.013 82.8857 176.811 83.1823L176.296 83.9393C175.943 84.4574 175.137 84.2831 175.031 83.6658C174.93 83.0793 174.178 82.8703 173.809 83.3374C172.368 85.1643 168.702 87.9861 159.641 88.6342C146.785 89.553 137.889 93.7202 136.714 102.397C136.639 102.947 136.016 103.185 135.577 102.846C134.71 102.176 133.251 101.744 131.076 103.194C127.293 105.715 127.867 113.412 134.756 120.46C135.084 120.795 135.019 121.356 134.599 121.566C133.125 122.308 130.839 124.207 135.832 127.635C140.939 131.142 144.189 131.184 145.437 131.009C145.772 130.962 146.026 130.689 146.042 130.35L146.426 122.587C146.446 122.186 146.8 121.884 147.199 121.928L149.952 122.236Z" fill="url(#paint9_linear)"></path><path d="M150.089 123.884C150.089 123.884 148.495 112.834 143.341 115.308C138.187 117.782 144.498 127.619 148.326 128.453L150.089 123.884Z" fill="url(#paint10_linear)"></path><path d="M133.173 263.026C133.24 263.028 133.307 263.029 133.375 263.027L220.892 261.674C223.056 261.641 224.775 259.95 224.733 257.898C224.69 255.844 222.895 254.174 220.738 254.242L133.22 255.595C131.057 255.628 129.338 257.319 129.38 259.371C129.421 261.36 131.101 262.959 133.173 263.026Z" fill="url(#paint11_linear)"></path><path d="M167.239 134.977C151.646 136.298 138.889 124.096 138.799 123.913V121.164C138.885 121.339 152.328 134.9 167.149 133.643L167.239 134.977Z" fill="url(#paint12_linear)"></path><path d="M173.595 134.302C173.595 135.339 172.847 136.18 171.922 136.18H167.461C166.536 136.18 165.788 135.339 165.788 134.302C165.788 133.265 166.536 132.424 167.461 132.424H171.922C172.847 132.424 173.595 133.265 173.595 134.302Z" fill="url(#paint13_linear)"></path><path d="M146.765 107.326C146.765 107.326 143.204 88.3376 165.169 88.2317C165.474 88.2298 165.524 87.7945 165.228 87.7261C159.211 86.3402 141.745 84.288 141.482 107.075C144.829 108.279 146.765 107.326 146.765 107.326Z" fill="url(#paint14_linear)"></path><path d="M142.739 105.01C134.167 106.748 135.222 117.582 135.222 117.582C134.604 125.443 136.9 129.341 139.843 131.198C141.853 132.466 144.383 132.584 146.505 131.514C148.627 130.444 150.033 128.339 150.208 125.97C150.366 123.83 150.547 121.797 150.706 121.075C151.091 119.324 151.312 103.271 142.739 105.01Z" fill="url(#paint15_linear)"></path><path d="M143.527 107.749C141.747 107.44 139.992 108.385 139.277 110.042C134.154 121.902 140.444 129.617 143.532 129.779C146.786 129.949 146.72 114.301 146.029 110.289C145.74 108.607 144.672 107.947 143.527 107.749Z" fill="url(#paint16_linear)"></path><path d="M62.9606 266.017C62.8141 264.937 63.0136 263.82 63.5031 262.971C63.9927 262.123 64.7212 261.631 65.4902 261.631H325.941C326.952 261.631 327.894 262.368 328.438 263.588C328.983 264.807 329.056 266.339 328.632 267.653L325.809 276.394C325.163 278.397 323.762 279.678 322.222 279.678H67.2769C65.8429 279.678 64.6113 278.224 64.3386 276.209L62.9606 266.017Z" fill="url(#paint17_linear)"></path><path d="M322.221 280H67.276C65.6821 280 64.3117 278.423 64.0188 276.252L62.6407 266.06C62.4846 264.906 62.6976 263.721 63.2237 262.809C63.774 261.855 64.5999 261.307 65.4903 261.307H325.942C327.089 261.307 328.133 262.109 328.733 263.455C329.312 264.751 329.39 266.356 328.94 267.75L326.117 276.492C325.428 278.623 323.899 280 322.221 280ZM63.2796 265.973L64.6577 276.165C64.9073 278.013 66.0087 279.355 67.276 279.355H322.221C323.613 279.355 324.901 278.154 325.501 276.295L328.324 267.553C328.727 266.307 328.658 264.873 328.143 263.719C327.648 262.614 326.825 261.954 325.94 261.954H65.4884C64.835 261.954 64.2125 262.384 63.7807 263.133C63.3249 263.923 63.1428 264.958 63.2796 265.973Z" fill="#005C90"></path><path d="M200.684 162.3C199.213 174.313 192.595 223.123 190.701 237.069C190.435 239.031 191.993 240.756 193.972 240.699L306.242 237.488C307.712 237.446 308.964 236.413 309.283 234.979L326.747 156.377C327.209 154.299 325.553 152.356 323.427 152.481L203.681 159.49C202.133 159.58 200.873 160.762 200.684 162.3Z" fill="white" stroke="url(#paint18_linear)" stroke-width="5" stroke-miterlimit="10"></path><path d="M245.812 211.591L229.219 258.657L267.802 259.475L271.015 211.875C271.165 209.641 269.312 207.786 267.077 207.935L249.059 209.13C247.581 209.228 246.304 210.196 245.812 211.591Z" fill="url(#paint19_linear)"></path><path d="M268.103 259.804L267.794 259.797L228.767 258.971L245.508 211.485C246.043 209.966 247.428 208.915 249.037 208.808L267.054 207.613C268.216 207.538 269.348 207.963 270.168 208.783C270.988 209.604 271.414 210.739 271.336 211.897L268.103 259.804ZM229.672 258.345L267.501 259.146L270.693 211.853C270.759 210.881 270.401 209.927 269.712 209.239C269.023 208.549 268.071 208.193 267.098 208.257L249.08 209.452C247.73 209.541 246.567 210.423 246.117 211.699L229.672 258.345Z" fill="#005C90"></path><path d="M213.579 259.329C213.154 260.624 214.119 261.956 215.483 261.956H275.906C277.012 261.956 277.909 261.06 277.909 259.954V257.364C277.909 256.225 276.959 255.315 275.819 255.363L215.397 257.953C214.563 257.988 213.839 258.536 213.579 259.329Z" fill="url(#paint20_linear)"></path><path d="M275.904 262.277H215.481C214.727 262.277 214.04 261.926 213.597 261.316C213.155 260.705 213.036 259.943 213.272 259.227C213.571 258.312 214.42 257.67 215.382 257.629L275.804 255.039C276.444 255.011 277.051 255.241 277.514 255.684C277.977 256.127 278.231 256.723 278.231 257.363V259.953C278.231 261.234 277.187 262.277 275.904 262.277ZM275.907 255.682C275.882 255.682 275.857 255.683 275.832 255.684L215.41 258.273C214.714 258.303 214.101 258.767 213.885 259.428C213.714 259.946 213.801 260.496 214.121 260.937C214.441 261.378 214.937 261.631 215.482 261.631H275.905C276.832 261.631 277.586 260.878 277.586 259.951V257.361C277.586 256.899 277.402 256.467 277.068 256.148C276.751 255.846 276.341 255.682 275.907 255.682Z" fill="#005C90"></path><path d="M198.988 211.956L198.191 211.856L203.707 168.381C204.049 165.683 206.268 163.608 208.982 163.444L312.463 157.199L312.511 157.999L209.031 164.245C206.7 164.385 204.796 166.166 204.503 168.48L198.988 211.956Z" fill="#005C90"></path><path d="M196.613 224.255L195.425 233.667L196.221 233.767L197.409 224.355L196.613 224.255Z" fill="#005C90"></path><path d="M234.819 46.8325V71.0372C234.819 73.9129 237.079 76.2811 239.954 76.4159L270.242 77.8384C273.314 77.9828 275.884 75.5328 275.884 72.4587V46.8325C275.884 43.8585 273.471 41.447 270.495 41.447H240.206C237.232 41.447 234.819 43.8585 234.819 46.8325Z" fill="url(#paint21_linear)"></path><path d="M246.379 53.3465L245.196 48.9781L241.746 47.1001L241.287 47.9409L244.374 49.606L248.054 63.0889L248.167 63.4895H263.179C264.641 63.4895 265.988 62.772 266.781 61.5441L267.453 60.6562C268.178 59.5342 268.655 58.2456 268.655 56.9099V53.3456H246.379V53.3465ZM267.569 56.9108C267.569 58.0598 267.207 59.1779 266.582 60.1419L265.987 61.1416C265.373 62.0931 264.313 62.7653 263.179 62.7653H248.904L248.122 59.8838L246.641 54.4338H267.568V56.9108H267.569Z" fill="white"></path><path d="M266.633 68.3809C266.633 68.6467 266.417 68.924 266.15 68.924H248.536C248.269 68.924 247.996 68.507 247.996 68.2422V59.9416C247.996 59.8501 248.05 59.8693 248.094 59.7961L248.905 62.7662H249.083V67.8377H266.15C266.416 67.8367 266.633 68.1141 266.633 68.3809Z" fill="white"></path><path d="M257.497 53.829H256.854V62.8645H257.497V53.829Z" fill="white"></path><path d="M251.818 53.829H251.175V62.8645H251.818V53.829Z" fill="white"></path><path d="M263.043 53.829H262.4V62.8645H263.043V53.829Z" fill="white"></path><path d="M267.799 56.4872H246.887V57.0622H267.799V56.4872Z" fill="white"></path><path d="M267.275 59.6326H247.799V60.2075H267.275V59.6326Z" fill="white"></path><path d="M250.791 69.5435C249.645 69.5435 248.715 70.4728 248.715 71.6189C248.715 72.7649 249.645 73.6943 250.791 73.6943C251.938 73.6943 252.868 72.7649 252.868 71.6189C252.868 70.4728 251.938 69.5435 250.791 69.5435ZM250.791 72.8718C250.1 72.8718 249.538 72.3113 249.538 71.6189C249.538 70.9274 250.099 70.3659 250.791 70.3659C251.483 70.3659 252.045 70.9264 252.045 71.6189C252.045 72.3113 251.484 72.8718 250.791 72.8718Z" fill="white"></path><path d="M263.698 69.5435C262.551 69.5435 261.621 70.4728 261.621 71.6189C261.621 72.7649 262.551 73.6943 263.698 73.6943C264.845 73.6943 265.775 72.7649 265.775 71.6189C265.775 70.4728 264.845 69.5435 263.698 69.5435ZM263.698 72.8718C263.006 72.8718 262.444 72.3113 262.444 71.6189C262.444 70.9274 263.005 70.3659 263.698 70.3659C264.39 70.3659 264.952 70.9264 264.952 71.6189C264.951 72.3113 264.39 72.8718 263.698 72.8718Z" fill="white"></path><path d="M243.886 47.938C243.886 48.4764 243.449 48.9126 242.911 48.9126H239.664C239.125 48.9126 238.688 48.4764 238.688 47.938C238.688 47.3996 239.124 46.9624 239.664 46.9624H242.911C243.449 46.9624 243.886 47.3996 243.886 47.938Z" fill="white"></path><path d="M169.161 18.8497V44.8139C169.161 47.8986 171.587 50.4392 174.671 50.5837L207.16 52.1091C210.455 52.2642 213.212 49.636 213.212 46.3385V18.8497C213.212 15.6591 210.625 13.0732 207.432 13.0732H174.943C171.749 13.0723 169.161 15.6591 169.161 18.8497Z" fill="url(#paint22_linear)"></path><path d="M202.433 44.3419H180.043C178.366 44.3419 177 42.9773 177 41.3006V24.9381C177 23.2614 178.365 21.8967 180.043 21.8967H202.433C204.111 21.8967 205.477 23.2614 205.477 24.9381V41.3015C205.477 42.9782 204.111 44.3419 202.433 44.3419ZM180.043 23.9009C179.471 23.9009 179.005 24.366 179.005 24.9381V41.3015C179.005 41.8736 179.471 42.3387 180.043 42.3387H202.433C203.006 42.3387 203.471 41.8736 203.471 41.3015V24.9381C203.471 24.366 203.006 23.9009 202.433 23.9009H180.043Z" fill="white"></path><path d="M191.258 33.4803C191.054 33.4803 190.851 33.4186 190.677 33.2954L178.131 24.4034C177.679 24.0836 177.573 23.4576 177.893 23.006C178.214 22.5543 178.84 22.4484 179.292 22.7681L191.258 31.2479L203.067 22.8654C203.518 22.5447 204.145 22.6506 204.466 23.1023C204.787 23.554 204.681 24.179 204.229 24.4997L191.839 33.2944C191.665 33.4186 191.462 33.4803 191.258 33.4803Z" fill="white"></path><path d="M178.867 43.6428L178.577 41.6598L178.712 42.6527L177.872 42.1067C178.104 41.733 182.63 33.8243 185.614 28.5987C185.888 28.1181 186.5 27.9496 186.982 28.225C187.463 28.4995 187.63 29.1111 187.356 29.5916C187.356 29.5916 185.42 32.9797 183.481 36.3687C182.511 38.0637 181.54 39.7587 180.809 41.03C179.352 43.5667 179.352 43.5667 178.867 43.6428Z" fill="white"></path><path d="M203.573 43.642C203.089 43.5649 203.089 43.5649 201.633 41.0311C200.903 39.7589 199.932 38.0649 198.962 36.3699C197.022 32.9809 195.087 29.5928 195.087 29.5928C194.813 29.1122 194.98 28.4997 195.461 28.2262C195.942 27.9517 196.554 28.1193 196.829 28.5999C199.813 33.8245 204.338 41.7332 204.571 42.1069L203.73 42.6529L203.573 43.642Z" fill="white"></path><path d="M272.426 99.4263V122.264C272.426 124.977 274.559 127.213 277.271 127.34L305.848 128.681C308.747 128.817 311.17 126.506 311.17 123.606V99.4263C311.17 96.62 308.894 94.3452 306.086 94.3452H277.51C274.703 94.3462 272.426 96.6209 272.426 99.4263Z" fill="url(#paint23_linear)"></path><path d="M279.739 126.87C279.324 126.87 278.945 126.744 278.657 126.48L277.83 125.722C277.429 125.355 277.264 124.79 277.362 124.135C277.455 123.514 277.777 122.878 278.269 122.342L278.82 121.741C278.858 121.699 278.899 121.658 278.939 121.617L289.247 111.317C289.346 111.218 289.507 111.218 289.605 111.317C289.705 111.416 289.705 111.577 289.605 111.675L279.299 121.975C279.263 122.011 279.228 122.048 279.195 122.084L278.643 122.685C278.219 123.147 277.943 123.689 277.865 124.21C277.792 124.694 277.901 125.099 278.174 125.348L279.001 126.106C279.582 126.639 280.779 126.32 281.615 125.41L282.167 124.809C282.2 124.771 282.234 124.734 282.266 124.695L290.497 114.911C290.586 114.804 290.747 114.79 290.854 114.881C290.961 114.971 290.976 115.131 290.885 115.238L282.654 125.022C282.618 125.066 282.579 125.109 282.54 125.152L281.988 125.753C281.323 126.475 280.473 126.87 279.739 126.87ZM279.989 125.254C279.707 125.254 279.455 125.169 279.261 124.992C278.688 124.466 278.881 123.355 279.7 122.462C280.075 122.053 280.526 121.755 280.971 121.621C281.461 121.473 281.892 121.539 282.184 121.807C282.476 122.075 282.579 122.497 282.474 122.999C282.379 123.454 282.12 123.929 281.746 124.337C281.202 124.927 280.54 125.254 279.989 125.254ZM281.459 122.052C281.33 122.052 281.205 122.08 281.117 122.106C280.759 122.214 280.389 122.462 280.075 122.805C279.479 123.454 279.259 124.301 279.605 124.617C279.913 124.898 280.713 124.712 281.372 123.993C281.686 123.651 281.901 123.261 281.978 122.894C282.016 122.709 282.05 122.371 281.842 122.18C281.734 122.082 281.594 122.052 281.459 122.052ZM294.293 111.045C294.235 111.045 294.177 111.025 294.13 110.985C294.023 110.894 294.008 110.735 294.099 110.628L297.068 107.098L297.254 107.212C299.567 108.619 302.34 108.234 304.157 106.255C305.332 104.974 305.904 103.27 305.725 101.579C305.701 101.351 305.555 101.172 305.334 101.1C305.16 101.042 304.905 101.054 304.718 101.259L301.518 104.745C301.239 105.05 300.827 105.209 300.416 105.174L298.695 105.025C298.089 104.973 297.594 104.519 297.489 103.921L297.193 102.22C297.123 101.814 297.247 101.389 297.526 101.086L300.725 97.5993C300.913 97.3942 300.903 97.1409 300.83 96.9714C300.739 96.7585 300.548 96.6285 300.319 96.6247C298.621 96.5929 296.968 97.3075 295.792 98.5884C293.976 100.567 293.832 103.362 295.434 105.544L295.563 105.719L291.716 109.563C291.616 109.663 291.456 109.663 291.357 109.563C291.259 109.464 291.258 109.303 291.357 109.205L294.899 105.666C293.285 103.311 293.483 100.355 295.418 98.2455C296.692 96.8577 298.479 96.0796 300.329 96.1171C300.757 96.1248 301.128 96.3762 301.297 96.7711C301.469 97.1727 301.394 97.6205 301.099 97.9412L297.9 101.427C297.726 101.616 297.649 101.88 297.693 102.132L297.989 103.833C298.054 104.205 298.362 104.487 298.738 104.52L300.459 104.668C300.715 104.69 300.971 104.59 301.144 104.401L304.344 100.915C304.638 100.594 305.078 100.481 305.493 100.618C305.902 100.752 306.184 101.1 306.229 101.525C306.423 103.36 305.804 105.209 304.531 106.597C302.595 108.706 299.665 109.158 297.179 107.754L294.487 110.952C294.437 111.014 294.366 111.045 294.293 111.045Z" fill="white"></path><path d="M302.02 127.001C301.952 127.001 301.885 126.998 301.816 126.992C301.173 126.938 300.595 126.633 300.188 126.134L290.623 114.432C290.21 113.926 290.271 113.193 290.764 112.764L292.65 111.119C293.142 110.689 293.876 110.728 294.322 111.206L304.626 122.263C305.066 122.734 305.289 123.348 305.256 123.991C305.222 124.635 304.937 125.222 304.451 125.646L303.563 126.419C303.131 126.799 302.588 127.001 302.02 127.001ZM293.095 111.629L291.209 113.274C290.993 113.462 290.966 113.783 291.147 114.004L300.712 125.707C301.003 126.062 301.415 126.28 301.873 126.318C302.332 126.356 302.774 126.212 303.12 125.91L304.008 125.136C304.354 124.834 304.558 124.415 304.582 123.957C304.606 123.498 304.446 123.06 304.133 122.724L293.828 111.667C293.633 111.459 293.311 111.442 293.095 111.629Z" fill="white"></path><path d="M291.225 112.974L282.924 103.271C282.793 103.267 282.672 103.225 282.571 103.148L280.081 101.24C280.013 101.187 279.959 101.121 279.919 101.045L278.816 98.8628C278.681 98.5951 278.763 98.2542 279.016 98.0336L279.638 97.4914C279.891 97.2709 280.24 97.2352 280.487 97.4047L282.504 98.7954C282.57 98.8416 282.626 98.9004 282.669 98.9697L284.28 101.639C284.365 101.78 284.386 101.949 284.343 102.116L292.895 111.717L291.225 112.974ZM283.129 102.73L291.3 112.282L292.149 111.644L283.741 102.205L283.828 102.048C283.858 101.993 283.865 101.936 283.845 101.903L282.234 99.2336C282.229 99.2259 282.224 99.2201 282.216 99.2143L280.199 97.8237C280.154 97.7919 280.053 97.8025 279.971 97.8747L279.35 98.4169C279.268 98.4882 279.244 98.5854 279.269 98.6346L280.372 100.817C280.377 100.826 280.383 100.832 280.391 100.839L282.88 102.748C282.902 102.765 282.941 102.77 282.984 102.761L283.129 102.73Z" fill="white"></path><path d="M99.3723 35.3018V62.6095C99.3723 65.8541 101.923 68.5266 105.166 68.6787L139.337 70.2832C142.802 70.446 145.702 67.682 145.702 64.214V35.3018C145.702 31.9465 142.98 29.2258 139.622 29.2258H105.452C102.095 29.2258 99.3723 31.9455 99.3723 35.3018Z" fill="url(#paint24_linear)"></path><path d="M123.803 52.1592C123.799 54.5861 123.634 57.0179 123.208 59.4101C123.1 60.0082 122.974 60.6024 122.825 61.1918C122.676 61.7802 122.503 62.3639 122.291 62.9349C122.078 63.5041 121.831 64.0656 121.495 64.5779C121.327 64.8322 121.135 65.0768 120.898 65.2771C120.779 65.3773 120.649 65.4649 120.506 65.5294C120.364 65.594 120.208 65.6344 120.05 65.6373C119.892 65.6421 119.734 65.6113 119.588 65.5526C119.443 65.4948 119.309 65.41 119.188 65.3137C118.946 65.1192 118.75 64.8784 118.578 64.6261C118.237 64.1166 117.986 63.5571 117.771 62.9889C117.557 62.4187 117.382 61.8361 117.231 61.2477C117.081 60.6592 116.954 60.065 116.845 59.467C116.629 58.2718 116.48 57.0651 116.38 55.8555C116.281 54.6459 116.231 53.4314 116.225 52.217C116.222 51.6103 116.238 51.0035 116.26 50.3968C116.282 49.7901 116.315 49.1843 116.36 48.5785C116.449 47.368 116.583 46.1603 116.782 44.9622C116.882 44.3632 116.998 43.7671 117.137 43.1767C117.277 42.5864 117.44 41.9998 117.642 41.4268C117.744 41.1408 117.855 40.8567 117.982 40.5803C118.108 40.3039 118.25 40.0333 118.416 39.7771C118.583 39.5219 118.775 39.2792 119.014 39.0847C119.133 38.9883 119.264 38.9046 119.409 38.8477C119.552 38.79 119.708 38.7611 119.863 38.7668C120.018 38.7717 120.17 38.8102 120.311 38.8718C120.452 38.9344 120.582 39.0192 120.7 39.1155C120.938 39.309 121.135 39.5469 121.31 39.7964C121.658 40.2981 121.919 40.8519 122.147 41.4143C122.372 41.9787 122.558 42.5584 122.72 43.143C122.881 43.7285 123.018 44.3208 123.136 44.916C123.606 47.2996 123.795 49.7313 123.803 52.1592ZM123.624 52.1592C123.626 50.9506 123.581 49.741 123.48 48.5352C123.382 47.3304 123.232 46.1285 123.009 44.941C122.898 44.3468 122.768 43.7565 122.614 43.1719C122.459 42.5883 122.281 42.0104 122.063 41.447C121.844 40.8856 121.59 40.3347 121.252 39.8358C121.083 39.5883 120.892 39.3533 120.663 39.1627C120.548 39.0673 120.424 38.9845 120.289 38.9229C120.154 38.8622 120.009 38.8227 119.862 38.8188C119.714 38.814 119.567 38.8439 119.431 38.8997C119.294 38.9556 119.169 39.0375 119.054 39.1318C118.825 39.3225 118.64 39.5623 118.479 39.8156C118.318 40.0689 118.181 40.3376 118.059 40.613C117.936 40.8885 117.829 41.1706 117.732 41.4557C117.537 42.0268 117.382 42.6114 117.249 43.2008C117.116 43.7902 117.007 44.3854 116.915 44.9825C116.73 46.1776 116.609 47.3824 116.534 48.5891C116.457 49.7959 116.431 51.0064 116.433 52.2151C116.43 53.4237 116.471 54.6333 116.56 55.8391C116.651 57.0448 116.789 58.2477 116.996 59.4381C117.1 60.0332 117.22 60.6255 117.366 61.212C117.511 61.7976 117.68 62.3783 117.887 62.9446C118.096 63.5089 118.34 64.0637 118.67 64.5645C118.835 64.812 119.024 65.0479 119.254 65.2338C119.368 65.3262 119.493 65.4062 119.628 65.4611C119.762 65.516 119.906 65.5468 120.05 65.542C120.194 65.5381 120.336 65.5006 120.468 65.4389C120.6 65.3782 120.722 65.2935 120.834 65.1982C121.059 65.0055 121.243 64.7667 121.407 64.5173C121.73 64.0136 121.971 63.4569 122.177 62.8916C122.383 62.3244 122.549 61.7436 122.693 61.1571C122.837 60.5706 122.956 59.9783 123.059 59.3832C123.264 58.1919 123.401 56.989 123.492 55.7842C123.582 54.5775 123.624 53.3679 123.624 52.1592Z" fill="white"></path><path d="M120.016 65.9917C119.832 65.9917 119.638 65.9532 119.457 65.88C119.291 65.8135 119.131 65.7191 118.969 65.5901C118.728 65.3956 118.511 65.1529 118.287 64.8245C117.977 64.3612 117.708 63.8181 117.441 63.1131C117.24 62.5757 117.059 61.994 116.89 61.3343C116.744 60.7671 116.616 60.1757 116.499 59.5295C116.29 58.3835 116.137 57.1912 116.029 55.8834C115.932 54.6949 115.879 53.4622 115.873 52.2179C115.87 51.5679 115.889 50.9255 115.908 50.3833C115.931 49.7669 115.965 49.1506 116.009 48.5516C116.106 47.237 116.245 46.0437 116.435 44.9035C116.543 44.2534 116.661 43.6621 116.795 43.0939C116.953 42.4294 117.122 41.8457 117.311 41.3083C117.426 40.9838 117.54 40.6968 117.662 40.432C117.809 40.1093 117.96 39.832 118.12 39.5835C118.339 39.2503 118.551 39.0047 118.79 38.8102C118.949 38.6811 119.113 38.5829 119.278 38.5183C119.468 38.4423 119.674 38.4057 119.874 38.4124C120.066 38.4182 120.261 38.4635 120.452 38.5472C120.612 38.6175 120.765 38.7138 120.921 38.84C121.159 39.0345 121.374 39.2724 121.597 39.5922C121.914 40.0496 122.192 40.586 122.472 41.2814C122.686 41.8168 122.877 42.3947 123.058 43.0486C123.215 43.6178 123.353 44.2062 123.48 44.8476C123.925 47.1118 124.144 49.5031 124.152 52.1582V52.1592C124.148 54.8307 123.952 57.223 123.551 59.4717C123.434 60.118 123.307 60.7083 123.163 61.2785C122.996 61.9382 122.818 62.5199 122.619 63.0582C122.354 63.7651 122.09 64.3092 121.787 64.7725C121.567 65.1038 121.356 65.3493 121.123 65.5477C120.966 65.6797 120.812 65.7789 120.65 65.853C120.453 65.9426 120.252 65.9888 120.055 65.9917C120.043 65.9907 120.029 65.9917 120.016 65.9917ZM119.832 39.1723C119.743 39.1723 119.652 39.1906 119.565 39.2272C119.472 39.2657 119.375 39.3254 119.279 39.4053C119.105 39.5498 118.945 39.7405 118.776 40.0063C118.638 40.2239 118.509 40.4695 118.381 40.7575C118.272 41.0021 118.169 41.2679 118.065 41.5713C117.891 42.0827 117.736 42.6412 117.591 43.2797C117.467 43.8316 117.359 44.4065 117.261 45.0383C117.087 46.1564 116.964 47.3256 116.883 48.6122C116.813 49.712 116.78 50.8908 116.783 52.216C116.78 53.4391 116.822 54.6487 116.908 55.815C117.004 57.0949 117.145 58.2602 117.34 59.3793C117.449 60.0053 117.568 60.5773 117.705 61.1282C117.862 61.761 118.029 62.3157 118.216 62.8232C118.455 63.4694 118.692 63.9606 118.962 64.3699C119.135 64.629 119.299 64.8177 119.473 64.9603C119.57 65.0383 119.666 65.097 119.757 65.1346C119.854 65.1741 119.945 65.1885 120.035 65.1895C120.127 65.1866 120.221 65.1635 120.318 65.1182C120.41 65.0758 120.506 65.0123 120.602 64.9294C120.774 64.7811 120.935 64.5885 121.108 64.3237C121.372 63.9124 121.606 63.4184 121.843 62.7702C122.027 62.2608 122.192 61.7051 122.347 61.0733C122.481 60.5253 122.6 59.9523 122.708 59.3234C122.9 58.2149 123.04 57.0487 123.137 55.7582C123.226 54.5948 123.271 53.3842 123.27 52.1602V52.1592C123.272 50.939 123.225 49.7303 123.128 48.565C123.023 47.2832 122.87 46.1189 122.661 45.0065C122.546 44.3863 122.417 43.8162 122.272 43.2624C122.105 42.6355 121.93 42.0836 121.733 41.5751C121.484 40.9356 121.238 40.4454 120.96 40.0352C120.782 39.7751 120.615 39.5835 120.437 39.4352C120.338 39.3533 120.239 39.2888 120.142 39.2445C120.041 39.1992 119.944 39.1742 119.852 39.1723C119.845 39.1723 119.839 39.1723 119.832 39.1723Z" fill="white"></path><path d="M129.905 52.159C129.896 53.7221 129.697 55.2851 129.28 56.7923C128.856 58.2957 128.216 59.7422 127.348 61.0414C126.913 61.6895 126.421 62.3001 125.872 62.8548C125.323 63.4086 124.715 63.9055 124.056 64.3216C123.396 64.7366 122.682 65.0689 121.936 65.2943C121.19 65.5206 120.411 65.6381 119.631 65.639C118.852 65.639 118.073 65.5215 117.326 65.2962C116.579 65.0718 115.866 64.7395 115.205 64.3254C114.545 63.9094 113.936 63.4124 113.386 62.8596C112.836 62.3059 112.342 61.6953 111.908 61.0471C111.037 59.748 110.397 58.3015 109.971 56.7971C109.761 56.044 109.604 55.2755 109.501 54.5002C109.398 53.725 109.347 52.943 109.343 52.161C109.347 51.3789 109.399 50.5969 109.502 49.8217C109.606 49.0464 109.762 48.2788 109.973 47.5248C110.399 46.0214 111.041 44.5749 111.912 43.2777C112.348 42.6295 112.84 42.0199 113.392 41.4671C113.942 40.9143 114.55 40.4183 115.21 40.0032C115.871 39.5901 116.584 39.2607 117.33 39.0363C118.075 38.811 118.853 38.6935 119.631 38.6925C120.41 38.6944 121.188 38.8119 121.932 39.0382C122.677 39.2636 123.39 39.593 124.05 40.0071C124.709 40.4222 125.316 40.9191 125.865 41.4719C126.415 42.0247 126.907 42.6353 127.342 43.2825C128.211 44.5797 128.851 46.0253 129.277 47.5277C129.694 49.0329 129.896 50.596 129.905 52.159ZM129.7 52.159C129.698 50.6143 129.506 49.0676 129.1 47.5758C128.691 46.0869 128.076 44.6491 127.229 43.3566C126.806 42.7104 126.325 42.1018 125.786 41.549C125.248 40.9962 124.653 40.4963 124.002 40.0812C123.35 39.6681 122.647 39.3358 121.91 39.1105C121.172 38.8851 120.402 38.7676 119.631 38.7647C118.86 38.7676 118.091 38.887 117.354 39.1124C116.617 39.3378 115.915 39.671 115.263 40.0841C114.614 40.5002 114.019 41 113.481 41.5528C112.944 42.1066 112.464 42.7152 112.042 43.3605C111.196 44.6529 110.583 46.0898 110.176 47.5787C109.973 48.3241 109.827 49.083 109.727 49.8486C109.628 50.6143 109.578 51.3857 109.576 52.1581C109.578 52.9304 109.629 53.7019 109.729 54.4675C109.829 55.2331 109.975 55.992 110.179 56.7365C110.586 58.2244 111.201 59.6603 112.047 60.9518C112.469 61.5971 112.949 62.2047 113.487 62.7575C114.025 63.3094 114.618 63.8092 115.268 64.2233C115.918 64.6355 116.621 64.9668 117.357 65.1922C118.092 65.4185 118.861 65.5379 119.631 65.5418C120.401 65.5389 121.17 65.4195 121.906 65.1941C122.642 64.9697 123.345 64.6394 123.997 64.2272C124.647 63.8131 125.242 63.3142 125.781 62.7624C126.319 62.2096 126.8 61.6019 127.223 60.9566C128.07 59.6652 128.687 58.2283 129.097 56.7403C129.503 55.2505 129.696 53.7038 129.7 52.159Z" fill="white"></path><path d="M119.632 65.9914C118.821 65.9914 118.012 65.871 117.225 65.6341C116.465 65.4059 115.722 65.0659 115.018 64.6239C114.354 64.2049 113.72 63.6955 113.136 63.108C112.586 62.5542 112.073 61.9273 111.615 61.2435C110.751 59.954 110.083 58.4901 109.631 56.8924C109.419 56.1306 109.258 55.3409 109.152 54.5454C109.048 53.7663 108.995 52.964 108.991 52.1608C108.995 51.3528 109.049 50.5506 109.154 49.7724C109.26 48.976 109.421 48.1872 109.634 47.4274C110.088 45.8287 110.757 44.3658 111.621 43.0782C112.079 42.3954 112.592 41.7694 113.143 41.2147C113.728 40.6272 114.36 40.1177 115.024 39.7017C115.723 39.2645 116.465 38.9264 117.229 38.6953C118.014 38.4584 118.821 38.337 119.632 38.3361C120.443 38.337 121.251 38.4593 122.035 38.6972C122.798 38.9283 123.539 39.2664 124.238 39.7046C124.901 40.1225 125.533 40.632 126.117 41.2195C126.667 41.7742 127.179 42.4002 127.636 43.083C128.499 44.3716 129.166 45.8345 129.617 47.4293C130.033 48.9298 130.249 50.5188 130.259 52.156V52.1599C130.25 53.7961 130.035 55.3861 129.62 56.8856C129.169 58.4834 128.504 59.9463 127.641 61.2368C127.183 61.9205 126.672 62.5484 126.122 63.1022C125.539 63.6897 124.907 64.2001 124.243 64.619C123.539 65.0611 122.797 65.401 122.037 65.6303C121.252 65.8691 120.443 65.9904 119.632 65.9914ZM119.63 39.1181C118.899 39.121 118.167 39.2327 117.456 39.4503C116.768 39.6603 116.094 39.9742 115.45 40.3835C114.855 40.7649 114.275 41.2416 113.732 41.8002C113.225 42.3212 112.756 42.9125 112.335 43.5559C111.542 44.7684 110.93 46.1533 110.514 47.673C110.323 48.375 110.176 49.1233 110.075 49.8957C109.978 50.6353 109.929 51.3971 109.927 52.1599C109.929 52.9226 109.979 53.6844 110.077 54.4231C110.177 55.1935 110.325 55.9409 110.517 56.6449C110.933 58.1636 111.546 59.5475 112.34 60.7591C112.761 61.4014 113.231 61.9908 113.738 62.5128C114.282 63.0714 114.859 63.5471 115.456 63.9276C116.095 64.332 116.768 64.645 117.458 64.856C118.168 65.0736 118.899 65.1863 119.632 65.1901C120.361 65.1872 121.092 65.0755 121.802 64.8579C122.493 64.647 123.168 64.334 123.807 63.9295C124.403 63.551 124.981 63.0743 125.527 62.5157C126.034 61.9947 126.505 61.4053 126.928 60.7629C127.722 59.5524 128.337 58.1665 128.756 56.6468C129.144 55.2243 129.343 53.7143 129.346 52.158C129.344 50.6026 129.146 49.0925 128.759 47.6682C128.341 46.1475 127.727 44.7616 126.933 43.5491C126.512 42.9068 126.041 42.3164 125.533 41.7944C124.99 41.2368 124.41 40.7601 123.812 40.3778C123.169 39.9704 122.494 39.6574 121.807 39.4474C121.095 39.2317 120.363 39.12 119.63 39.1181Z" fill="white"></path><path d="M107.642 46.8247L110.728 46.7997L113.814 46.7852L119.984 46.7737L126.154 46.7862L129.24 46.8016L132.326 46.8286C132.331 46.8286 132.335 46.8324 132.335 46.8382C132.335 46.8382 132.331 46.8469 132.326 46.8469L129.24 46.8738L126.154 46.8893L119.984 46.9018L113.814 46.8902L110.728 46.8758L107.642 46.8507C107.635 46.8507 107.629 46.8449 107.629 46.8449C107.629 46.8315 107.635 46.8257 107.642 46.8247Z" fill="white"></path><path d="M119.984 47.2562L110.726 47.2312L107.493 47.2042L107.276 46.9885V46.8306L107.285 46.4848L107.639 46.4713L113.811 46.4319L119.983 46.4213L129.241 46.4492L132.678 46.479L132.686 47.1927L132.325 47.2013L126.156 47.2437L119.984 47.2562Z" fill="white"></path><path d="M111.221 41.6406C111.952 41.6291 112.681 41.6243 113.412 41.6156L115.602 41.6012C116.333 41.5954 117.062 41.5954 117.793 41.5935L119.983 41.5896L124.364 41.6021L126.554 41.6175C127.285 41.6272 128.014 41.632 128.745 41.6445C128.75 41.6445 128.754 41.6483 128.754 41.6483C128.754 41.658 128.75 41.6618 128.745 41.6618C128.014 41.6743 127.285 41.6792 126.554 41.6888L124.364 41.7042L119.983 41.7167L117.793 41.7129C117.062 41.7109 116.333 41.7119 115.602 41.7052L113.412 41.6907C112.681 41.6821 111.952 41.6772 111.221 41.6657C111.214 41.6657 111.208 41.6599 111.208 41.6522C111.208 41.6464 111.215 41.6406 111.221 41.6406Z" fill="white"></path><path d="M119.985 42.072L117.225 42.0662C116.683 42.0653 116.142 42.0643 115.6 42.0605L112.679 42.0383C112.192 42.0335 111.704 42.0287 111.217 42.021L110.87 42.0152L110.856 41.2996L111.217 41.2861C111.689 41.2784 112.16 41.2736 112.632 41.2688L115.601 41.2467C116.115 41.2428 116.63 41.2418 117.144 41.2409L119.984 41.2351L127.356 41.2717C127.822 41.2765 128.287 41.2813 128.753 41.29L129.112 41.2958L129.096 42.0065L128.747 42.0152C128.265 42.0239 127.777 42.0287 127.29 42.0335L124.368 42.0576L119.985 42.072Z" fill="white"></path><path d="M106.57 52.0099L109.923 51.9849L113.277 51.9704L119.984 51.9589L126.691 51.9714L130.045 51.9868L133.398 52.0138C133.403 52.0138 133.407 52.0176 133.407 52.0224C133.407 52.0224 133.403 52.0311 133.398 52.0311L130.045 52.0581L126.691 52.0735L119.984 52.086L113.277 52.0744L109.923 52.06L106.57 52.0349C106.562 52.0349 106.556 52.0292 106.556 52.0215C106.556 52.0157 106.562 52.0099 106.57 52.0099Z" fill="white"></path><path d="M119.984 52.4413L109.921 52.4153L106.217 52.3874L106.204 51.6689L106.567 51.6564L113.275 51.6169L119.983 51.6053L130.046 51.6333L133.548 51.6612L133.761 51.8789L133.747 52.3768L133.398 52.3864L126.692 52.4288L119.984 52.4413Z" fill="white"></path><path d="M107.643 57.1951L110.729 57.17L113.815 57.1556L119.985 57.144L126.155 57.1566L129.241 57.172L132.327 57.1989C132.332 57.1989 132.336 57.2028 132.336 57.2028C132.336 57.2124 132.332 57.2172 132.327 57.2172L129.241 57.2442L126.155 57.2596L119.985 57.2721L113.815 57.2606L110.729 57.2461L107.643 57.2211C107.636 57.2211 107.63 57.2153 107.63 57.2076C107.63 57.2009 107.636 57.1951 107.643 57.1951Z" fill="white"></path><path d="M119.984 57.6254L110.726 57.5994L107.493 57.5734L107.277 57.3577L107.276 57.1997L107.284 56.854L107.639 56.8405L113.811 56.801L119.983 56.7894L129.241 56.8174L132.678 56.8482L132.686 57.5609L132.325 57.5705L126.156 57.6129L119.984 57.6254Z" fill="white"></path><path d="M129.187 62.44H111.663C111.637 62.44 111.616 62.4188 111.616 62.3928C111.616 62.3668 111.637 62.3456 111.663 62.3456H129.187C129.213 62.3456 129.235 62.3668 129.235 62.3928C129.235 62.4188 129.213 62.44 129.187 62.44Z" fill="white"></path><path d="M129.187 62.7935H111.663C111.442 62.7935 111.263 62.6134 111.263 62.3928C111.263 62.1713 111.442 61.9922 111.663 61.9922H129.186C129.407 61.9922 129.586 62.1723 129.586 62.3928C129.587 62.6134 129.408 62.7935 129.187 62.7935Z" fill="white"></path><path d="M119.982 66.2689C112.036 66.2689 105.572 59.879 105.572 52.0242C105.572 44.1695 112.036 37.7795 119.982 37.7795C127.929 37.7795 134.393 44.1695 134.393 52.0242C134.393 59.879 127.929 66.2689 119.982 66.2689ZM119.982 39.044C112.734 39.044 106.836 44.8667 106.836 52.0242C106.836 59.1817 112.734 65.0044 119.982 65.0044C127.231 65.0044 133.128 59.1817 133.128 52.0242C133.129 44.8667 127.231 39.044 119.982 39.044Z" fill="white"></path><path d="M133.836 40.4992H129.698V39.4283L131.07 37.4868C131.447 36.9523 131.705 36.5555 131.846 36.2974C131.987 36.0393 132.091 35.7908 132.157 35.5539C132.224 35.317 132.258 35.0714 132.258 34.8181C132.258 34.5225 132.192 34.301 132.06 34.1536C131.928 34.0063 131.757 33.9321 131.545 33.9321C131.359 33.9321 131.185 33.9812 131.023 34.0795C130.861 34.1777 130.665 34.3559 130.432 34.612L129.63 33.7684C129.999 33.3495 130.342 33.0634 130.659 32.9084C130.976 32.7533 131.319 32.6763 131.688 32.6763C132.311 32.6763 132.797 32.8593 133.147 33.2252C133.497 33.5912 133.672 34.0987 133.672 34.7497C133.672 35.0454 133.641 35.3247 133.577 35.5886C133.513 35.8525 133.418 36.1173 133.29 36.3821C133.162 36.6479 133.001 36.9234 132.807 37.2104C132.613 37.4974 132.114 38.1542 131.308 39.1808V39.2232H133.836V40.4992Z" fill="white"></path><path d="M139.157 38.8796H138.375V40.4985H137.024V38.8796H134.506V37.7143L136.839 32.7872H138.375V37.6931H139.157V38.8796V38.8796ZM137.025 37.6931V36.0684L137.051 35.3509L137.088 34.6652H137.045C136.922 35.0485 136.788 35.3952 136.644 35.7044L135.715 37.6931H137.025Z" fill="white"></path><defs><linearGradient id="paint0_linear" x1="351.297" y1="283.229" x2="152.997" y2="109.607" gradientUnits="userSpaceOnUse"><stop stop-color="#002857"></stop><stop offset="1" stop-color="#69809C"></stop></linearGradient><linearGradient id="paint1_linear" x1="184.942" y1="323.506" x2="165.603" y2="258.962" gradientUnits="userSpaceOnUse"><stop stop-color="#1A3E68"></stop><stop offset="1" stop-color="#002857"></stop></linearGradient><linearGradient id="paint2_linear" x1="168.148" y1="228.955" x2="217.647" y2="243.05" gradientUnits="userSpaceOnUse"><stop stop-color="#FCCD80"></stop><stop offset="1" stop-color="#FBAF36"></stop></linearGradient><linearGradient id="paint3_linear" x1="162.851" y1="155.652" x2="75.6801" y2="269.066" gradientUnits="userSpaceOnUse"><stop stop-color="#1A3E68"></stop><stop offset="1" stop-color="#002857"></stop></linearGradient><linearGradient id="paint4_linear" x1="114.982" y1="192.139" x2="156.252" y2="137.294" gradientUnits="userSpaceOnUse"><stop stop-color="#FCCD80"></stop><stop offset="1" stop-color="#FBAF36"></stop></linearGradient><linearGradient id="paint5_linear" x1="140.484" y1="138.46" x2="53.3128" y2="251.875" gradientUnits="userSpaceOnUse"><stop stop-color="#1A3E68"></stop><stop offset="1" stop-color="#002857"></stop></linearGradient><linearGradient id="paint6_linear" x1="148.621" y1="177.335" x2="102.386" y2="204.018" gradientUnits="userSpaceOnUse"><stop stop-color="white"></stop><stop offset="1" stop-color="white"></stop></linearGradient><linearGradient id="paint7_linear" x1="136.959" y1="240.357" x2="22.1367" y2="475.835" gradientUnits="userSpaceOnUse"><stop stop-color="#FCCD80"></stop><stop offset="1" stop-color="#FBAF36"></stop></linearGradient><linearGradient id="paint8_linear" x1="172.443" y1="115.886" x2="127.022" y2="143.254" gradientUnits="userSpaceOnUse"><stop stop-color="#FCCD80"></stop><stop offset="1" stop-color="#FBAF36"></stop></linearGradient><linearGradient id="paint9_linear" x1="145.854" y1="87.3367" x2="178.287" y2="140.359" gradientUnits="userSpaceOnUse"><stop stop-color="white"></stop><stop offset="1" stop-color="white"></stop></linearGradient><linearGradient id="paint10_linear" x1="168.008" y1="108.526" x2="122.587" y2="135.893" gradientUnits="userSpaceOnUse"><stop stop-color="#FCCD80"></stop><stop offset="1" stop-color="#FBAF36"></stop></linearGradient><linearGradient id="paint11_linear" x1="117.892" y1="241.179" x2="187.184" y2="263.665" gradientUnits="userSpaceOnUse"><stop stop-color="white"></stop><stop offset="1" stop-color="white"></stop></linearGradient><linearGradient id="paint12_linear" x1="165.705" y1="111" x2="132.819" y2="155.306" gradientUnits="userSpaceOnUse"><stop stop-color="#1A3E68"></stop><stop offset="1" stop-color="#002857"></stop></linearGradient><linearGradient id="paint13_linear" x1="178.574" y1="122.693" x2="159.014" y2="148.288" gradientUnits="userSpaceOnUse"><stop stop-color="#1A3E68"></stop><stop offset="1" stop-color="#002857"></stop></linearGradient><linearGradient id="paint14_linear" x1="200.469" y1="79.9842" x2="60.7913" y2="128.429" gradientUnits="userSpaceOnUse"><stop stop-color="#1A3E68"></stop><stop offset="1" stop-color="#002857"></stop></linearGradient><linearGradient id="paint15_linear" x1="158.584" y1="94.6831" x2="142.465" y2="120.06" gradientUnits="userSpaceOnUse"><stop stop-color="#1A3E68"></stop><stop offset="1" stop-color="#002857"></stop></linearGradient><linearGradient id="paint16_linear" x1="143.44" y1="119.708" x2="114.644" y2="61.8639" gradientUnits="userSpaceOnUse"><stop stop-color="#1A3E68"></stop><stop offset="1" stop-color="#002857"></stop></linearGradient><linearGradient id="paint17_linear" x1="194.054" y1="306.393" x2="197.782" y2="224.322" gradientUnits="userSpaceOnUse"><stop stop-color="white"></stop><stop offset="1" stop-color="white"></stop></linearGradient><linearGradient id="paint18_linear" x1="238.706" y1="145.374" x2="279.041" y2="248.58" gradientUnits="userSpaceOnUse"><stop stop-color="#1A3E68"></stop><stop offset="1" stop-color="#002857"></stop></linearGradient><linearGradient id="paint19_linear" x1="243.645" y1="195.186" x2="259.68" y2="293.861" gradientUnits="userSpaceOnUse"><stop stop-color="white"></stop><stop offset="1" stop-color="white"></stop></linearGradient><linearGradient id="paint20_linear" x1="236.419" y1="252.584" x2="283.762" y2="283.63" gradientUnits="userSpaceOnUse"><stop stop-color="white"></stop><stop offset="1" stop-color="white"></stop></linearGradient><linearGradient id="paint21_linear" x1="267.605" y1="36.7709" x2="40.3179" y2="461.63" gradientUnits="userSpaceOnUse"><stop stop-color="#FBAF36"></stop><stop offset="1" stop-color="#FBAF36"></stop></linearGradient><linearGradient id="paint22_linear" x1="206.468" y1="4.06473" x2="-20.8179" y2="428.923" gradientUnits="userSpaceOnUse"><stop stop-color="#FBAF36"></stop><stop offset="1" stop-color="#FBAF36"></stop></linearGradient><linearGradient id="paint23_linear" x1="317.53" y1="63.4794" x2="90.2436" y2="488.338" gradientUnits="userSpaceOnUse"><stop stop-color="#FBAF36"></stop><stop offset="1" stop-color="#FBAF36"></stop></linearGradient><linearGradient id="paint24_linear" x1="160.255" y1="-20.6576" x2="-67.0306" y2="404.2" gradientUnits="userSpaceOnUse"><stop stop-color="#FBAF36"></stop><stop offset="1" stop-color="#FBAF36"></stop></linearGradient></defs></svg>