<svg xmlns="http://www.w3.org/2000/svg" width="400" height="280" viewBox="0 0 400 280" fill="none"><g clip-path="url(#clip0)"><path d="M269.936 55.5691H82.2966V236.745H269.936V55.5691Z" fill="url(#paint0_linear)"></path><path d="M314.819 170.609C314.819 170.609 304.624 142.516 281.069 149.904C281.069 149.904 300.944 153.102 311.133 169.8C321.328 186.497 314.819 170.609 314.819 170.609Z" fill="url(#paint1_linear)"></path><path d="M310.81 170.609C310.81 170.609 321.006 142.516 344.561 149.904C344.561 149.904 324.691 153.102 314.496 169.8C304.301 186.497 310.81 170.609 310.81 170.609Z" fill="url(#paint2_linear)"></path><path d="M335.631 148.702C335.631 148.702 351.616 147.053 336.246 172.376L344.561 173.353C344.561 173.353 374.073 147.414 335.631 148.702Z" fill="url(#paint3_linear)"></path><path d="M317.617 170.683L314.819 171.953L314.068 172.295C314.068 172.295 303.048 169.19 309.234 166.526C310.717 165.885 311.971 165.798 313.026 166.022C316.345 166.75 317.617 170.683 317.617 170.683Z" fill="url(#paint4_linear)"></path><path d="M314.819 171.953L314.068 172.295C314.068 172.295 303.048 169.19 309.234 166.526C310.717 165.885 311.971 165.798 313.026 166.022C313.032 166.022 313.038 166.028 313.044 166.028C313.044 166.028 308.198 167.696 314.819 171.953Z" fill="url(#paint5_linear)"></path><path d="M354.563 169.115H268.72V236.739H354.563V169.115Z" fill="url(#paint6_linear)"></path><path d="M357.616 169.115H265.68V189.416H357.616V169.115Z" fill="url(#paint7_linear)"></path><path d="M320.881 169.115H302.415V236.739H320.881V169.115Z" fill="url(#paint8_linear)"></path><path d="M366.471 191.681C366.471 191.681 359 188.955 354.88 185.9C353.657 184.991 352.727 184.058 352.373 183.149C352.063 182.359 352.199 181.593 352.956 180.902C352.956 180.902 353.459 180.697 354.719 181.226C356.593 182.004 360.148 184.394 366.248 191.426C366.322 191.507 366.397 191.594 366.471 191.681Z" fill="url(#paint9_linear)"></path><path d="M366.471 191.681L366.049 193.772C366.049 193.772 351.138 197.506 346.404 192.633C346.335 192.565 346.267 192.49 346.205 192.416C345.795 191.943 345.529 191.445 345.38 190.947C344.039 186.323 352.962 180.909 352.962 180.909C352.758 181.17 352.814 181.531 353.062 181.96C353.304 182.377 353.732 182.863 354.284 183.385C357.79 186.709 366.471 191.681 366.471 191.681Z" fill="url(#paint10_linear)"></path><path d="M354.278 183.379C354.278 183.379 351.206 184.649 350.282 186.64C349.351 188.632 348.836 190.324 347.552 190.934C346.956 191.221 346.503 191.831 346.193 192.409C345.783 191.936 345.516 191.438 345.367 190.941C345.473 190.144 345.764 189.273 346.428 188.482C348.333 186.217 350.269 184.586 350.505 183.765C350.685 183.143 352.274 182.321 353.049 181.954C353.298 182.371 353.726 182.856 354.278 183.379Z" fill="url(#paint11_linear)"></path><path d="M371.013 191.681C371.013 191.681 378.485 188.955 382.605 185.9C383.827 184.991 384.758 184.058 385.112 183.149C385.422 182.359 385.285 181.593 384.528 180.902C384.528 180.902 384.032 180.697 382.766 181.226C380.892 182.004 377.337 184.394 371.237 191.426C371.162 191.507 371.088 191.594 371.013 191.681Z" fill="url(#paint12_linear)"></path><path d="M371.013 191.681L371.442 193.772C371.442 193.772 386.353 197.506 391.087 192.633C391.156 192.565 391.224 192.49 391.286 192.416C391.695 191.943 391.962 191.445 392.111 190.947C393.452 186.323 384.528 180.909 384.528 180.909C384.733 181.17 384.677 181.531 384.429 181.96C384.187 182.377 383.759 182.863 383.207 183.385C379.695 186.709 371.013 191.681 371.013 191.681Z" fill="url(#paint13_linear)"></path><path d="M365.9 191.681C365.9 191.681 366.595 190.891 367.086 191.202C367.576 191.513 368.271 190.611 369.015 190.972C369.76 191.333 369.841 190.331 370.741 190.885C371.64 191.438 372.18 193.243 371.51 194.152C370.84 195.054 370.48 193.971 370.145 194.152C369.81 194.332 369.189 195.141 368.159 194.519C367.129 193.897 365.609 195.085 365.714 194.307C365.826 193.523 365.466 193.169 365.9 191.681Z" fill="url(#paint14_linear)"></path><path d="M396.064 193.691H341.421V236.739H396.064V193.691Z" fill="url(#paint15_linear)"></path><path d="M398 193.691H339.479V208.628H398V193.691Z" fill="url(#paint16_linear)"></path><path d="M374.619 193.691H362.866V236.739H374.619V193.691Z" fill="url(#paint17_linear)"></path><path d="M50.6127 118.917C60.0757 125.526 69.3525 129.957 74.3353 127.256C74.6269 127.095 74.9062 126.914 75.1668 126.709C78.015 124.45 79.0202 119.172 77.109 109.607C72.0269 84.1469 56.0795 80.0955 41.1746 72.4345C26.4558 64.873 32.0653 48.8042 32.2142 48.3934C11.8797 84.5266 34.5722 107.709 50.6127 118.917Z" fill="url(#paint18_linear)"></path><path d="M74.3415 127.257C74.6331 127.095 74.9123 126.914 75.173 126.709C73.2928 121.761 69.1477 112.183 63.4947 106.999C60.8265 104.554 57.7239 102.344 54.4475 99.998C48.2485 95.5732 41.8385 90.9928 37.5072 84.2404L36.7006 84.7569C41.1373 91.6649 47.6218 96.2951 53.9015 100.776C57.1592 103.097 60.2308 105.294 62.8494 107.703C68.3596 112.762 72.5109 122.433 74.3415 127.257Z" fill="url(#paint19_linear)"></path><path d="M22.8505 144.931C35.9001 147.078 44.3206 136.735 59.3373 155.772C72.3 172.208 90.6426 154.042 95.4207 148.765C96.1777 147.924 96.5935 147.414 96.5935 147.414C96.5935 147.414 96.308 147.489 95.8054 147.601C92.5477 148.31 80.2055 150.32 77.3014 140.911C73.9506 130.045 64.3573 115.264 51.68 119.16C39.0089 123.062 36.2662 113.49 26.9087 106.284C17.5513 99.0831 3 112.395 3 112.395C3 112.395 9.80093 142.79 22.8505 144.931Z" fill="url(#paint20_linear)"></path><path d="M63.7305 141.334C66.2064 145.653 68.7754 150.121 74.5897 152.573C82.5262 155.909 90.6302 152.001 95.4206 148.771C96.1777 147.931 96.5934 147.42 96.5934 147.42C96.5934 147.42 96.308 147.495 95.8054 147.607C91.288 150.825 82.9605 155.293 74.8751 151.889C69.2904 149.543 66.7835 145.18 64.3635 140.967C61.5649 136.094 58.6795 131.053 51.0719 129.31C47.7086 128.539 44.7301 128.787 41.8447 129.024C37.6934 129.366 33.7655 129.696 29.4715 126.703L29.0495 127.306C33.5607 130.449 37.6127 130.107 41.9006 129.758C44.7301 129.522 47.6528 129.279 50.9043 130.026C58.2017 131.706 60.8886 136.386 63.7305 141.334Z" fill="url(#paint21_linear)"></path><path d="M266.015 84.066C267.417 109.931 287.876 108.642 289.495 108.505C289.564 108.499 289.601 108.493 289.601 108.493C289.154 107.97 288.732 107.447 288.354 106.906C278.103 92.6668 289.781 73.1875 289.588 58.8612C289.39 43.9997 276.185 40.7449 276.185 40.7449C285.896 48.9411 264.563 57.1373 266.015 84.066Z" fill="url(#paint22_linear)"></path><path d="M277.991 97.098C280.771 102.064 285.152 105.836 289.495 108.505C289.564 108.499 289.601 108.493 289.601 108.493C289.154 107.97 288.732 107.448 288.354 106.906C284.618 104.379 281.013 101.012 278.624 96.737C275.552 91.2417 275.031 85.1677 277.073 78.6829C283.545 58.1208 279.871 54.8472 279.716 54.7103L279.493 54.9966L279.257 55.2704C279.257 55.2704 279.263 55.2767 279.269 55.2767C279.462 55.482 282.477 59.1352 276.39 78.4589C274.274 85.1553 274.82 91.4222 277.991 97.098Z" fill="url(#paint23_linear)"></path><path d="M307.242 109.912C299.113 119.963 290.501 127.617 284.302 126.267C283.935 126.186 283.582 126.074 283.241 125.937C279.48 124.394 276.768 119.029 275.856 108.144C273.442 79.1806 289.34 69.8579 303.004 56.9817C316.501 44.2673 311.927 28.7274 311.642 28.3353C344.697 60.8651 321.024 92.8659 307.242 109.912Z" fill="url(#paint24_linear)"></path><path d="M284.302 126.267C283.936 126.186 283.582 126.074 283.241 125.937C283.731 120.031 285.226 108.443 289.7 101.106C291.816 97.6455 294.466 94.3035 297.264 90.7624C302.564 84.0722 308.043 77.1518 310.612 68.5386L311.642 68.8435C309.005 77.6559 303.463 84.651 298.102 91.4283C295.322 94.9383 292.691 98.2554 290.619 101.666C286.25 108.816 284.779 120.51 284.302 126.267Z" fill="url(#paint25_linear)"></path><path d="M282.98 229.7H69.2594C62.5702 229.7 57.1468 224.261 57.1468 217.558V93.7062C57.1468 86.9974 62.5702 81.5581 69.2594 81.5581H282.98C289.669 81.5581 295.086 86.9974 295.086 93.7062V217.558C295.086 224.261 289.663 229.7 282.98 229.7Z" fill="url(#paint26_linear)"></path><path d="M254.405 132.609C243.602 132.609 234.815 123.796 234.815 112.961C234.815 102.126 243.602 93.3141 254.405 93.3141C265.208 93.3141 273.995 102.126 273.995 112.961C274.001 123.79 265.208 132.609 254.405 132.609ZM254.405 96.1955C245.19 96.1955 237.694 103.713 237.694 112.955C237.694 122.197 245.19 129.715 254.405 129.715C263.62 129.715 271.115 122.197 271.115 112.955C271.115 103.713 263.62 96.1955 254.405 96.1955Z" fill="#FDD088"></path><path d="M83.7921 195.82C82.7186 195.82 81.7195 195.633 80.795 195.266C79.8766 194.899 79.0761 194.395 78.3997 193.766C77.7234 193.138 77.1835 192.397 76.7864 191.551C76.3892 190.704 76.1907 189.789 76.1907 188.8C76.1907 187.848 76.3892 186.939 76.7864 186.074C77.1835 185.215 77.7234 184.475 78.3997 183.858C79.0761 183.242 79.8766 182.751 80.795 182.377C81.7195 182.01 82.7124 181.823 83.7921 181.823C84.8346 181.823 85.8274 182.01 86.7644 182.377C87.7014 182.744 88.508 183.242 89.1844 183.858C89.8608 184.475 90.4006 185.215 90.7978 186.074C91.1949 186.939 91.3935 187.848 91.3935 188.8C91.3935 189.783 91.1949 190.704 90.7978 191.551C90.4006 192.397 89.8608 193.138 89.1844 193.766C88.508 194.401 87.7014 194.899 86.7644 195.266C85.8212 195.633 84.8346 195.82 83.7921 195.82ZM78.7658 212.909L91.7534 197.712L103.729 181.911L106.54 184.406L93.9624 199.33L81.5706 215.405L78.7658 212.909ZM83.7921 192.721C84.2513 192.721 84.6732 192.615 85.0579 192.397C85.4427 192.179 85.7902 191.899 86.0942 191.544C86.3983 191.19 86.6403 190.773 86.8078 190.3C86.9754 189.82 87.0622 189.323 87.0622 188.8C87.0622 187.723 86.7396 186.808 86.0942 186.049C85.4489 185.296 84.6794 184.916 83.7921 184.916C83.3329 184.916 82.9109 185.022 82.5262 185.24C82.1415 185.458 81.794 185.738 81.4899 186.093C81.1797 186.447 80.9439 186.852 80.7763 187.319C80.6088 187.779 80.5219 188.271 80.5219 188.8C80.5219 189.876 80.8446 190.804 81.4899 191.575C82.1291 192.335 82.8985 192.721 83.7921 192.721ZM101.57 215.548C100.497 215.548 99.4975 215.361 98.5729 214.994C97.6546 214.627 96.8541 214.129 96.1777 213.513C95.5013 212.897 94.9615 212.169 94.5643 211.322C94.1672 210.476 93.9687 209.561 93.9687 208.572C93.9687 207.588 94.1672 206.673 94.5643 205.821C94.9615 204.974 95.5013 204.234 96.1777 203.605C96.8541 202.977 97.6546 202.473 98.5729 202.105C99.4975 201.738 100.49 201.552 101.57 201.552C102.644 201.552 103.643 201.738 104.567 202.105C105.486 202.473 106.298 202.977 106.987 203.605C107.682 204.24 108.216 204.974 108.601 205.821C108.985 206.667 109.178 207.582 109.178 208.572C109.178 209.561 108.985 210.476 108.601 211.322C108.216 212.169 107.682 212.903 106.987 213.513C106.298 214.129 105.492 214.621 104.567 214.994C103.643 215.361 102.644 215.548 101.57 215.548ZM101.57 212.449C102.029 212.449 102.451 212.343 102.836 212.125C103.221 211.914 103.568 211.627 103.872 211.273C104.176 210.918 104.418 210.513 104.586 210.047C104.753 209.586 104.84 209.094 104.84 208.565C104.84 208.011 104.747 207.495 104.561 207.016C104.375 206.537 104.139 206.126 103.847 205.771C103.556 205.416 103.208 205.142 102.811 204.937C102.414 204.738 101.998 204.638 101.564 204.638C101.105 204.638 100.683 204.744 100.298 204.962C99.9133 205.18 99.5658 205.46 99.2617 205.815C98.9514 206.169 98.7156 206.586 98.5481 207.059C98.3806 207.538 98.2937 208.036 98.2937 208.559C98.2937 209.636 98.6164 210.557 99.2617 211.31C99.9133 212.075 100.683 212.449 101.57 212.449Z" fill="#FCCC7E"></path><path d="M197.286 100.757H71.0714V109.812H197.286V100.757Z" fill="url(#paint27_linear)"></path><path d="M197.286 93.3079H71.0714V95.6541H197.286V93.3079Z" fill="url(#paint28_linear)"></path><path d="M135.624 114.822H71.0714V123.877H135.624V114.822Z" fill="url(#paint29_linear)"></path><path opacity="0.95" d="M216.261 243.137H135.972C130.871 243.137 126.732 238.986 126.732 233.87V128.62C126.732 123.498 130.871 119.353 135.972 119.353H216.255C221.356 119.353 225.495 123.504 225.495 128.62V233.87C225.501 238.986 221.362 243.137 216.261 243.137Z" fill="url(#paint30_linear)"></path><path d="M201.114 221.753C195.114 221.753 190.23 216.855 190.23 210.837C190.23 204.819 195.114 199.921 201.114 199.921C207.115 199.921 211.998 204.819 211.998 210.837C211.998 216.855 207.121 221.753 201.114 221.753ZM201.114 202.031C196.274 202.031 192.334 205.983 192.334 210.837C192.334 215.691 196.274 219.643 201.114 219.643C205.954 219.643 209.889 215.691 209.889 210.837C209.895 205.983 205.954 202.031 201.114 202.031Z" fill="#FCC56E"></path><path d="M200.426 215.131L195.48 210.177L196.969 208.684L200.426 212.144L205.266 207.29L206.755 208.783L200.426 215.131Z" fill="#FCC56E"></path><path d="M234.505 206.032H231.346V220.633H234.505V206.032Z" fill="#FDD088"></path><path d="M237.595 206.032H236.013V220.633H237.595V206.032Z" fill="#FDD088"></path><path d="M241.988 206.032H239.103V220.633H241.988V206.032Z" fill="#FDD088"></path><path d="M245.277 206.032H243.546V220.633H245.277V206.032Z" fill="#FDD088"></path><path d="M247.294 206.089H246.487V220.689H247.294V206.089Z" fill="#FDD088"></path><path d="M251.228 206.032H248.466V220.633H251.228V206.032Z" fill="#FDD088"></path><path d="M254.436 206.032H252.345V220.633H254.436V206.032Z" fill="#FDD088"></path><path d="M256.477 206.032H255.435V220.633H256.477V206.032Z" fill="#FDD088"></path><path d="M260.635 206.032H257.669V220.633H260.635V206.032Z" fill="#FDD088"></path><path d="M263.595 206.032H261.38V220.633H263.595V206.032Z" fill="#FDD088"></path><path d="M265.655 206.032H264.55V220.633H265.655V206.032Z" fill="#FDD088"></path><path d="M268.069 206.032H266.542V220.633H268.069V206.032Z" fill="#FDD088"></path><path d="M273.995 206.101H269.148V220.701H273.995V206.101Z" fill="#FDD088"></path><path d="M76.6188 43.9313V70.7728C76.6188 70.7728 81.9553 78.3343 88.3219 70.7728H100.025C100.025 70.7728 105.361 78.3343 111.728 70.7728H123.437C123.437 70.7728 128.774 78.3343 135.14 70.7728H146.843C146.843 70.7728 152.18 78.3343 158.553 70.7728H170.256C170.256 70.7728 175.592 78.3343 181.965 70.7728H193.668C193.668 70.7728 199.005 78.3343 205.371 70.7728H217.074C217.074 70.7728 222.411 78.3343 228.783 70.7728H240.487C240.487 70.7728 245.823 78.3343 252.19 70.7728H263.899C263.899 70.7728 269.235 78.3343 275.608 70.7728V43.9313H76.6188Z" fill="url(#paint31_linear)"></path><path d="M88.3219 70.7728C88.3219 70.7728 93.6584 78.3343 100.025 70.7728V43.9313H88.3219V70.7728Z" fill="#197AA5"></path><path d="M111.734 70.7728C111.734 70.7728 117.071 78.3343 123.443 70.7728V43.9313H111.734V70.7728Z" fill="#197AA5"></path><path d="M135.147 70.7728C135.147 70.7728 140.483 78.3343 146.85 70.7728V43.9313H135.147V70.7728V70.7728Z" fill="#197AA5"></path><path d="M158.559 70.7728C158.559 70.7728 163.895 78.3343 170.262 70.7728V43.9313H158.559V70.7728Z" fill="#197AA5"></path><path d="M181.971 70.7728C181.971 70.7728 187.308 78.3343 193.674 70.7728V43.9313H181.971V70.7728Z" fill="#197AA5"></path><path d="M205.384 70.7728C205.384 70.7728 210.72 78.3343 217.087 70.7728V43.9313H205.384V70.7728Z" fill="#197AA5"></path><path d="M228.796 70.7728C228.796 70.7728 234.132 78.3343 240.499 70.7728V43.9313H228.796V70.7728Z" fill="#197AA5"></path><path d="M252.202 43.9313V70.7728C252.202 70.7728 257.538 78.3343 263.911 70.7728V43.9313H252.202Z" fill="#197AA5"></path><path d="M194.543 137.762L192.892 145.049H150.629V146.705L156.71 175.021V175.849H160.154L161.029 179.514H162.288C161.109 179.95 160.265 181.089 160.265 182.421C160.265 184.132 161.649 185.52 163.355 185.52C165.062 185.52 166.446 184.132 166.446 182.421C166.446 181.089 165.602 179.956 164.423 179.514H181.791C180.612 179.95 179.768 181.089 179.768 182.421C179.768 184.132 181.152 185.52 182.859 185.52C184.565 185.52 185.949 184.132 185.949 182.421C185.949 181.089 185.105 179.956 183.926 179.514H185.297V178.208H162.065L161.5 175.849H187.723V175.021L192.7 151.845L195.592 139.075H213.314V137.768H194.543V137.762ZM165.143 182.415C165.143 183.404 164.342 184.207 163.355 184.207C162.369 184.207 161.568 183.404 161.568 182.415C161.568 181.425 162.369 180.622 163.355 180.622C164.342 180.628 165.143 181.431 165.143 182.415ZM184.639 182.415C184.639 183.404 183.839 184.207 182.852 184.207C181.866 184.207 181.065 183.404 181.065 182.415C181.065 181.425 181.866 180.622 182.852 180.622C183.839 180.628 184.639 181.431 184.639 182.415ZM166.688 156.413H177.739L177.162 164.472H167.265L166.688 156.413ZM165.813 164.479H155.928L154.197 156.419H165.236L165.813 164.479ZM177.857 154.764H166.564L165.987 146.705H178.428L177.857 154.764ZM179.886 146.705H192.315L190.584 154.764H179.309L179.886 146.705ZM177.044 166.128L176.467 174.187H167.96L167.383 166.128H177.044ZM178.496 166.128H188.145L186.414 174.187H177.919L178.496 166.128ZM188.499 164.479H178.614L179.191 156.419H190.23L188.536 164.323L188.499 164.479ZM164.541 146.705L165.118 154.764H153.843L152.112 146.705H164.541ZM156.288 166.128H165.937L166.514 174.187H158.019L156.288 166.128Z" fill="#FCC56E"></path><path d="M181.071 229.047H171.168V230.31H181.071V229.047Z" fill="#FCC56E"></path><path d="M181.071 126.423H171.168V127.686H181.071V126.423Z" fill="#FCC56E"></path><path d="M165.825 205.261H141.346V208.54H165.825V205.261Z" fill="#FCC56E"></path><path d="M177.584 213.133H141.346V216.413H177.584V213.133Z" fill="#FCC56E"></path><path d="M273.995 152.044H236.013V164.566H273.995V152.044Z" fill="#FCCC7E"></path><path d="M273.995 168.02H236.013V175.463H273.995V168.02Z" fill="#FCCC7E"></path><path d="M253.232 208.385C253.232 208.385 252.736 209.2 252.674 209.872C252.624 210.401 252.183 211.192 251.991 211.627C251.799 212.063 251.184 214.042 251.159 214.552C251.147 214.764 251.619 216.083 251.55 216.513C251.482 216.936 251.24 217.776 251.619 217.832C251.997 217.888 252.425 217.197 252.425 217.197C252.425 217.197 252.388 217.589 252.711 217.739C253.338 218.025 253.666 217.77 253.666 217.77C253.666 217.77 253.896 218.199 254.188 218.255C254.821 218.38 255.137 218.124 255.137 218.124C255.137 218.124 255.416 218.367 255.857 218.355C256.422 218.342 256.657 217.857 256.657 217.857C256.657 217.857 257.371 218 257.576 217.67C257.78 217.334 257.743 216.979 257.83 216.681C257.917 216.376 257.855 213.65 256.924 211.683C256 209.717 257.16 207.8 257.16 207.8L253.232 208.385Z" fill="#FDDDAB"></path><path d="M252.326 216.942C252.326 216.942 252.264 214.49 252.903 213.967C253.548 213.445 253.623 214.328 253.623 214.328C253.623 214.328 253.536 213.457 254.237 213.339C254.938 213.22 254.969 214.26 254.969 214.26C254.969 214.26 255.087 213.588 255.826 213.725C256.564 213.861 256.39 214.727 256.39 214.727C256.39 214.727 257.098 213.88 257.551 214.695C258.32 216.065 257.582 217.676 257.582 217.676C257.582 217.676 257.365 218.044 256.664 217.863C256.664 217.863 256.192 218.809 255.143 218.131C255.143 218.131 254.07 218.722 253.673 217.77C253.666 217.77 252.481 218.336 252.326 216.942Z" fill="#FDD79B"></path><path d="M244.942 173.092C244.942 173.092 249.124 187.07 250.539 192.229C250.98 193.847 252.053 209.287 252.245 209.91C252.438 210.532 257.737 211.385 257.737 211.385C257.737 211.385 257.092 192.067 257.036 191.009C256.974 189.957 251.184 168.381 249.496 167.609C248.231 167.03 247.567 167.509 245.978 168.692C243.744 170.36 244.942 173.092 244.942 173.092Z" fill="#0D335F"></path><path d="M248.336 268.54C248.336 268.54 248.721 271.191 248.764 271.59C248.814 271.988 253.002 271.353 253.002 271.353L253.344 268.192C253.35 268.198 248.864 268.161 248.336 268.54Z" fill="#24466F"></path><path d="M248.721 271.254C248.721 271.254 247.393 272.853 246.108 273.55C244.824 274.247 242.801 274.521 242.044 275.243C241.498 275.766 240.046 278.006 245.382 277.963C250.719 277.919 253.294 278.28 253.865 277.421C254.436 276.562 253.04 271.073 253.04 271.073C253.04 271.073 251.774 271.528 248.721 271.254Z" fill="#002857"></path><path d="M218.297 268.54C218.297 268.54 218.681 271.191 218.725 271.59C218.774 271.988 222.963 271.353 222.963 271.353L223.304 268.192C223.304 268.198 218.818 268.161 218.297 268.54Z" fill="#24466F"></path><path d="M218.681 271.254C218.681 271.254 217.353 272.853 216.069 273.55C214.784 274.247 210.056 274.82 209.299 275.542C208.753 276.065 207.841 278.156 215.349 277.963C220.686 277.826 223.261 278.28 223.832 277.421C224.403 276.562 223.006 271.073 223.006 271.073C223.006 271.073 221.803 271.559 218.681 271.254Z" fill="#002857"></path><path d="M244.867 200.35C244.867 200.35 248.808 206.63 248.51 212.299C248.218 217.975 249.937 224.174 250.533 230.098C251.191 236.708 253.896 252.353 253.989 255.888C254.088 259.423 253.567 270.712 253.567 270.712L248.162 270.837C248.162 270.837 243.62 243.485 242.447 240.697C241.275 237.909 235.442 218.013 235.243 215.778C235.051 213.544 244.867 200.35 244.867 200.35Z" fill="#002857"></path><path d="M224.129 201.203C224.129 201.203 221.157 216.755 220.766 220.228C220.375 223.701 220.115 237.037 219.916 239.209C219.718 241.381 218.086 267.551 217.564 270.843H224.477C224.477 270.843 229.782 251.775 229.782 242.744C229.782 233.72 233.878 223.128 236.528 217.172C239.171 211.217 245.227 211.08 246.853 200.033C246.847 200.027 226.326 197.699 224.129 201.203Z" fill="#002857"></path><path d="M238.29 147.57C238.29 147.57 233.003 145.591 230.564 149.623C228.126 153.662 228.361 161.74 231.024 162.736C233.692 163.732 237.694 163.209 239.059 160.682C240.424 158.156 241.653 154.503 241.597 152.063C241.541 149.63 239.68 148.273 238.29 147.57Z" fill="#FDDDAB"></path><path d="M231.601 162.923C231.601 162.923 231.818 164.354 231.458 165.057C231.092 165.761 238.308 165.779 238.308 165.779C238.308 165.779 238.892 161.946 240.003 158.703C241.113 155.467 231.601 162.923 231.601 162.923Z" fill="#FDDDAB"></path><path d="M240.003 158.71C240.003 158.71 239.506 159.531 237.471 159.214C235.435 158.896 232.96 156.183 232.109 155.884C231.259 155.585 231.253 155.088 231.253 155.088L230.719 155.866L229.82 155.922C229.82 155.922 230.639 153.494 229.404 152.505C228.163 151.515 230.695 144.651 237.21 146.935C237.21 146.935 242.218 148.316 242.038 151.173C241.852 154.03 241.126 157.284 240.003 158.71Z" fill="#0D335F"></path><path d="M231.03 164.977C231.03 164.977 231.055 163.632 231.663 163.502C232.271 163.371 238.389 162.78 239.134 163.078V164.647C239.134 164.647 237.694 165.537 231.03 164.977Z" fill="#FEEBCD"></path><path d="M231.39 154.048C231.501 153.569 232.718 152.2 233.183 153.669C233.648 155.137 232.482 157.104 231.83 156.936C231.179 156.762 231.104 155.262 231.39 154.048Z" fill="#FDDDAB"></path><path d="M206.769 180.902C206.769 180.902 206.775 180.902 206.782 180.902C206.73 180.922 206.723 180.922 206.769 180.902Z" fill="#0D335F"></path><path d="M239.798 148.049C239.798 148.049 246.537 148.578 240.002 158.71L239.798 148.049Z" fill="#0D335F"></path><path d="M193.848 150.103C194.065 149.424 194.791 149.225 194.791 149.225C195.095 148.765 195.871 148.528 195.871 148.528C195.883 148.497 195.902 148.466 195.914 148.435C195.437 147.918 194.047 146.954 193.966 146.773C193.867 146.549 193.891 146.524 194.164 146.381C194.388 146.257 196.659 147.738 197.416 148.242C197.602 148.36 197.751 148.472 197.782 148.497C197.993 148.671 198.415 148.802 198.775 149.182C198.812 149.219 198.849 149.269 198.893 149.312C199.265 149.791 200.153 153.65 200.153 153.65L198.576 154.359L197.056 155.654C197.056 155.654 195.281 154.179 194.828 153.718C194.369 153.252 194.164 152.717 194.04 152.486C194.009 152.43 193.953 152.349 193.891 152.262C193.687 151.982 193.37 151.609 193.37 151.609C193.215 151.391 193.122 150.849 193.122 150.849C193.134 150.389 193.848 150.103 193.848 150.103Z" fill="#FDDEAD"></path><path d="M220.915 167.018C225.11 166.464 231.03 164.977 231.03 164.977L239.134 164.647C239.134 164.647 246.568 166.29 249.503 167.615C249.782 167.74 249.782 174.268 250.545 175.98L248.119 181.12C248.119 181.12 246.717 191.295 246.425 195.826C246.295 197.905 249.317 215.312 249.317 215.312C249.317 215.312 246.071 216.27 240.542 216.88C235.013 217.49 221.194 216.656 221.108 216.002C221.021 215.349 223.782 191.607 223.906 190.381C224.092 188.495 223.255 178.469 223.255 178.469C221.976 177.473 210.77 172.258 207.71 169.538C206.891 168.81 203.435 165.437 202.455 164.273C198.98 160.147 196.125 156.612 195.778 155.847C195.387 155.411 199.557 153.14 199.935 153.009C200.264 152.897 204.968 159.008 206.773 160.975C207.58 161.852 210.937 164.298 210.937 164.298C210.937 164.298 218.297 167.167 220.915 167.018Z" fill="#0D335F"></path><path d="M89.687 163.788C89.687 163.788 90.6612 161.958 90.8226 161.685C90.9777 161.411 91.772 161.019 92.7214 160.651C93.6708 160.284 95.1166 160.21 95.2593 160.315C95.402 160.415 95.5944 160.452 95.7433 160.875C95.8984 161.299 95.7433 161.747 95.7433 161.747C95.7433 161.747 96.1404 162.201 95.9729 162.736C95.9729 162.736 96.4011 163.141 96.1094 163.72C96.1094 163.72 96.519 164.149 96.2708 164.547C96.2708 164.547 95.4765 164.939 95.2283 165.17C94.9739 165.4 93.2736 166.103 91.53 166.52C91.53 166.52 89.7553 166.358 89.687 163.788Z" fill="#FDDDAB"></path><path d="M92.529 163.041C92.529 163.041 92.4359 164.081 92.2622 164.354C92.0884 164.634 94.2541 165.524 94.2541 165.524C94.2541 165.524 93.7825 163.184 92.529 163.041Z" fill="#FDD088"></path><path d="M117.269 189.715L91.4059 193.094L87.025 169.339L114.061 164.703L117.269 189.715Z" fill="#FCBE5C"></path><path d="M104.176 167.03C104.089 164.541 103.208 161.56 101.278 159.967C99.8512 158.791 98.1137 158.542 96.3204 158.828C92.1195 159.506 91.8402 163.906 92.6965 167.006L104.176 167.03ZM93.1247 166.452C92.4049 163.153 93.0502 159.93 96.4073 159.382C98.0392 159.114 99.634 159.338 100.918 160.396C102.594 161.778 103.394 164.336 103.587 166.47L93.1247 166.452Z" fill="#052C5A"></path><path d="M105.225 167.03C105.138 164.541 104.027 161.56 102.097 159.967C100.67 158.791 98.9328 158.542 97.1395 158.828C92.9386 159.506 93.4163 163.906 94.2727 167.006L105.225 167.03ZM94.707 166.452C93.9872 163.153 93.8693 159.93 97.2264 159.382C98.8583 159.114 100.453 159.338 101.738 160.396C103.413 161.778 104.598 164.336 104.784 166.47L94.707 166.452Z" fill="#052C5A"></path><path d="M113.279 193.523L83.0909 191.19L85.5171 166.669L113.565 165.842L113.279 193.523Z" fill="#426083"></path><path d="M28.9689 179.95C28.9689 179.95 29.2171 177.89 29.2419 177.573C29.2667 177.255 28.8448 176.484 28.2801 175.637C27.7154 174.791 26.5736 173.901 26.3999 173.901C26.2261 173.901 26.0462 173.82 25.6801 174.081C25.314 174.343 25.1588 174.778 25.1588 174.778C25.1588 174.778 24.5507 174.903 24.3832 175.438C24.3832 175.438 23.8309 175.55 23.7379 176.191C23.7379 176.191 23.167 176.309 23.1422 176.782C23.1422 176.782 23.5641 177.56 23.6386 177.89C23.713 178.226 24.7059 179.782 25.8911 181.126C25.8911 181.126 27.4362 182.016 28.9689 179.95Z" fill="#FDDDAB"></path><path d="M32.3011 182.794C32.5493 180.89 32.3073 178.444 31.0352 176.957C30.1975 175.98 29.0557 175.569 27.7961 175.544C26.0586 175.5 24.4452 175.986 23.26 177.274C21.6405 179.035 21.2061 181.985 21.4481 184.338L32.3011 182.794ZM21.9321 183.728C21.8328 181.674 22.2424 179.166 23.651 177.635C24.7183 176.478 26.1951 176.036 27.7837 176.073C28.9006 176.098 29.9058 176.459 30.6257 177.299C31.6992 178.55 31.9598 180.691 31.8171 182.321L21.9321 183.728Z" fill="#052C5A"></path><path d="M9.86298 210.762L11.8424 185.209L16.2668 210.408L13.2076 209.872L9.86298 210.762Z" fill="#476486"></path><path d="M16.2668 210.408L42.5211 205.777L38.2271 181.251L11.7742 185.022L16.2668 210.408Z" fill="#617A97"></path><path d="M44.3579 188.283C44.786 189.534 44.3827 191.115 43.8366 192.304L44.3082 192.335C44.8667 191.065 45.2328 189.466 44.7736 188.14L44.3579 188.283Z" fill="#052C5A"></path><path d="M25.0161 211.385L46.5297 214.198L50.1908 194.413L27.6968 190.555L25.0161 211.385Z" fill="#FCBE5C"></path><path d="M20.6291 210.762L27.6844 190.574L25.0162 211.26L22.7264 210.408L20.6291 210.762Z" fill="#FBAF36"></path><path d="M44.8481 187.717C45.6113 189.235 45.239 191.295 45.1025 191.899L45.543 192.061C45.6858 191.451 46.1946 188.924 45.0714 187.169L44.8481 187.717Z" fill="#052C5A"></path><path d="M22.7264 213.787L27.5168 191.974L28.3297 214.428L25.7235 213.426L22.7264 213.787Z" fill="#005C90"></path><path d="M25.8911 181.126C25.8911 181.126 27.5044 182.564 28.3297 182.589C29.1612 182.614 29.5832 180.33 29.5832 180.33L28.8696 178.93L25.8911 181.126Z" fill="#FDDDAB"></path><path d="M88.5949 165.082C88.5949 165.082 89.4016 164.317 89.7553 163.657C90.109 162.998 91.7161 166.483 91.7161 166.483C91.7161 166.483 89.718 166.564 88.8369 167.186C87.9496 167.808 88.5949 165.082 88.5949 165.082Z" fill="#FDDDAB"></path><path d="M95.0049 160.402C95.0049 160.402 92.6221 161.392 92.7338 161.796C92.8455 162.201 93.131 162.282 93.131 162.282L92.3367 163.134C92.3367 163.134 92.1257 164 93.1248 163.975C93.1248 163.975 92.8455 164.759 93.8073 164.622C93.8073 164.622 93.857 165.226 94.3099 165.238C94.7691 165.25 96.2708 164.553 96.2708 164.553C96.2708 164.553 96.5252 164.261 96.1467 163.726C96.1467 163.726 96.4569 163.191 96.0474 162.724C96.0474 162.724 96.2274 162.257 95.7868 161.753C95.7868 161.753 96.1095 160.676 95.2531 160.322C95.2531 160.315 95.1042 160.359 95.0049 160.402Z" fill="#FDD79B"></path><path d="M90.8908 161.641C90.8908 161.641 92.6531 161.784 93.5839 162.288C93.7949 162.4 93.9748 162.549 93.95 162.786C93.9252 163.022 93.5467 163.29 92.7834 163.265C92.014 163.24 91.0149 163.564 91.0149 163.564C91.0149 163.564 90.2331 163.315 90.8908 161.641Z" fill="#FDDDAB"></path><path d="M27.0701 177.704C27.0701 177.704 26.555 178.606 26.5364 178.936C26.5178 179.266 24.2343 178.749 24.2343 178.749C24.2343 178.749 25.9593 177.1 27.0701 177.704Z" fill="#FDD088"></path><path d="M26.555 174.119C26.555 174.119 27.9326 176.303 27.6099 176.565C27.2873 176.832 27.008 176.733 27.008 176.733L27.1694 177.89C27.1694 177.89 26.8467 178.718 26.04 178.12C26.04 178.12 25.8166 178.923 25.1092 178.257C25.1092 178.257 24.7245 178.724 24.346 178.469C23.9613 178.22 23.136 176.776 23.136 176.776C23.136 176.776 23.0987 176.39 23.7131 176.166C23.7131 176.166 23.7627 175.544 24.3708 175.401C24.3708 175.401 24.4887 174.909 25.1403 174.76C25.1403 174.76 25.494 173.689 26.3999 173.901C26.3999 173.901 26.4992 174.025 26.555 174.119Z" fill="#FDD79B"></path><path d="M29.2109 177.505C29.2109 177.505 27.6844 176.602 26.6419 176.484C26.4061 176.453 26.1703 176.471 26.0586 176.683C25.9407 176.888 26.1021 177.324 26.7412 177.747C27.3803 178.17 28.0133 179.011 28.0133 179.011C28.0133 179.011 28.7951 179.253 29.2109 177.505Z" fill="#FDDDAB"></path><path d="M57.4695 272.897C56.2346 273.27 55.8685 275.368 54.8198 275.984C53.7712 276.6 48.6581 277.035 48.4781 275.43C48.292 273.824 50.6251 272.387 51.6676 271.584C52.7163 270.781 55.0681 268.142 55.5459 267.09C55.5459 267.09 55.9678 267.763 57.2213 267.557C58.4747 267.352 58.6795 267.016 58.6795 267.016C58.6299 268.26 59.0642 269.144 59.1883 269.623C59.6289 271.291 58.7043 272.523 57.4695 272.897Z" fill="#476486"></path><path d="M65.8217 273.183C64.8723 274.054 64.6924 275.436 63.6437 276.052C63.3396 276.233 62.7439 276.413 62.0427 276.538C60.7645 276.768 59.1387 276.818 58.3444 276.351C58.0714 276.195 57.8977 275.977 57.8666 275.685C57.6805 274.079 60.0571 272.281 61.0995 271.478C61.7449 270.986 62.4088 269.835 62.9425 268.777C63.2776 268.117 63.5506 267.495 63.7368 267.09C63.743 267.097 63.7988 267.209 63.954 267.314C64.1711 267.47 64.5745 267.626 65.2943 267.507C66.2995 267.339 66.6842 267.078 66.7959 266.978C66.8021 266.972 66.8083 266.966 66.8146 266.966C66.8208 266.96 66.827 266.953 66.827 266.953L66.8332 266.947C66.8332 266.947 66.8332 266.947 66.8332 266.941C67.0379 267.943 67.3668 268.97 67.4909 269.455C67.9315 271.123 66.7215 272.362 65.8217 273.183Z" fill="#476486"></path><path d="M56.7869 146.394C56.7869 146.394 60.7893 145.97 62.2289 149.848C63.6685 153.725 65.0275 154.988 65.195 157.023C65.8838 165.257 69.7186 163.396 68.6389 168.138C67.5592 172.88 66.8146 173.602 66.8146 173.602L57.6494 171.798L48.3664 171.829C48.3664 171.829 51.9965 170.011 51.1898 166.134C50.3831 162.257 48.3664 155.909 49.502 151.584C50.6375 147.259 54.3917 146.723 56.7869 146.394Z" fill="#032A59"></path><path d="M28.3297 214.428L51.5497 213.613L51.9779 191.868H27.5355L28.3297 214.428Z" fill="#6BA0BF"></path><path d="M123.357 187.978L114.061 164.703L117.269 189.715L119.975 188.128L123.357 187.978Z" fill="#FBAF36"></path><path d="M120.012 192.758L113.565 165.842L113.279 193.523L116.413 192.316L120.012 192.758Z" fill="#002857"></path><path d="M50.1783 201.633C50.1783 201.633 46.8089 213.413 46.2194 216.426C45.6299 219.431 43.9855 233.994 43.8118 236.471C43.638 238.948 49.3158 250.561 49.6261 251.395C50.8237 254.637 55.7258 266.393 55.7258 266.393C55.7258 266.393 58.8905 268.279 58.5368 265.516C57.4633 257.12 56.9544 255.048 56.2036 250.692C54.553 241.151 51.1464 239.9 51.6676 238.506C56.942 224.435 58.0031 214.888 58.7105 214.067C59.4179 213.239 59.511 214.49 59.9268 216.314C60.3363 218.143 59.7592 230.721 60.5038 235.581C60.9072 238.226 61.8131 244.151 62.111 247.574C62.4026 250.997 63.9477 266.823 63.9477 266.823C63.9477 266.823 64.1525 267.414 66.5043 266.107C66.8952 265.889 68.7568 252.117 68.8188 248.053C68.8809 243.983 67.0814 243.404 68.521 235.525C71.605 218.641 71.1768 215.735 67.584 203.599C58.7664 173.907 50.1783 201.633 50.1783 201.633Z" fill="#FDDDAB"></path><path d="M91.3004 167.13C91.1577 166.987 82.6069 173.553 81.6699 174.094C79.8331 175.158 77.8351 175.102 75.7625 175.233C73.4355 175.376 70.7921 175.127 68.5086 175.588C67.3234 175.824 67.1869 176.135 66.5664 177.399C64.8909 180.834 64.3449 185.109 64.1215 188.887C63.8857 192.826 65.3936 195.565 66.9821 199.044C67.522 200.226 68.279 201.446 67.2365 202.523C66.2995 203.493 64.4566 203.693 63.2217 203.854C60.1936 204.253 55.5521 204.495 52.6356 203.288C49.0676 201.813 49.7067 197.307 49.322 194.158C49.0676 192.055 48.0562 188.899 47.4729 186.858C46.902 184.848 46.8337 184.002 46.9454 181.855C45.8347 185.022 44.8915 190.443 41.9006 192.453C39.5798 194.009 37.5135 191.924 35.8443 190.468C32.6858 187.711 29.5211 184.948 26.3627 182.191C27.0328 181.568 27.7092 180.946 28.3856 180.317C28.609 180.112 28.6214 180.056 28.8696 179.857C29.4591 179.384 29.3908 179.21 30.0051 179.627C30.4147 179.907 31.5068 180.921 31.8543 181.245C33.0023 182.315 34.0013 182.962 35.1493 184.033C36.1421 184.96 37.8486 187.113 39.3812 186.367C40.554 185.788 40.8767 183.392 41.28 182.321C42.4032 179.347 43.5325 176.353 44.8729 173.472C46.3063 170.385 49.4709 168.748 52.5425 167.516C55.2046 166.452 58.7664 166.663 61.4657 167.354C63.3583 167.839 64.0346 167.864 65.921 168.393C67.7205 168.897 69.4083 169.538 71.2327 169.918C73.3611 170.36 75.5391 170.516 77.7047 170.54C79.4112 170.559 80.1186 170.273 81.5582 169.271C83.488 167.927 86.3176 165.605 88.4398 164.529C89.7925 163.832 90.2579 166.06 91.3004 167.13Z" fill="#FEF1DB"></path><path d="M59.5483 162.487C59.5483 162.487 59.2256 166.495 59.995 167.69C60.7645 168.891 59.3373 170.516 56.396 169.962C53.4547 169.402 53.6285 167.734 53.6285 167.734C53.6285 167.734 54.4538 165.263 54.2118 163.284C53.9698 161.305 59.5483 162.487 59.5483 162.487Z" fill="#FDDDAB"></path><path d="M61.4594 167.354C61.4594 167.354 58.8098 173.565 55.3721 174.866C55.3721 174.866 51.9841 171.847 52.8962 167.379C52.8962 167.379 57.2709 165.132 61.4594 167.354Z" fill="#FDDDAB"></path><path d="M57.3144 148.659C57.3144 148.659 62.6136 149.424 61.838 157.272C61.0623 165.114 56.3836 164.491 56.0733 164.485C55.763 164.479 51.3822 164.647 51.0036 155.075C51.0036 155.075 50.8237 147.993 57.3144 148.659Z" fill="#FDDDAB"></path><path d="M56.7063 151.497C56.7063 151.497 59.1821 154.104 60.3301 155.43C61.4781 156.749 61.6146 159.307 61.6146 159.307C61.6146 159.307 63.5506 156.936 62.7439 154.173C61.9311 151.41 60.0198 146.033 55.1674 147.688C50.3149 149.344 50.1349 156.606 50.7058 160.21C50.6996 160.203 52.8776 152.25 56.7063 151.497Z" fill="#032A59"></path><path d="M54.6709 164.149C54.6709 164.149 56.9358 165.288 59.2318 163.489C59.2318 163.489 58.3506 164.958 56.8117 165.039C55.2728 165.12 54.6709 164.149 54.6709 164.149Z" fill="#FCC46A"></path><path d="M40.1134 185.638C39.8838 186.124 39.375 186.367 39.375 186.367C36.955 187.68 36.533 190.773 36.4462 191.868L35.9311 191.862C36.3593 186.161 40.1134 185.638 40.1134 185.638Z" fill="#052C5A"></path><path d="M39.9707 185.67C39.9707 185.67 36.0614 185.856 34.9569 191.8L35.3602 191.862C35.3602 191.862 36.1235 187.481 39.2509 186.304C39.2509 186.304 39.6853 186.118 39.9707 185.67Z" fill="#052C5A"></path><path d="M67.6523 200.624C67.6523 200.624 73.0012 211.733 69.4083 234.281C69.4083 234.281 58.4996 233.254 42.1302 232.084C42.1302 232.084 49.5764 201.757 49.7812 199.828C49.9922 197.905 67.6523 200.624 67.6523 200.624Z" fill="#FEF1DB"></path><path d="M55.6265 266.169C55.6265 266.169 57.153 267.19 58.5678 265.827L58.6795 267.009C58.6795 267.009 56.2657 269.188 55.6265 266.848V266.169Z" fill="#FDDDAB"></path><path d="M64.3759 265.976C64.3759 265.976 65.2881 266.804 66.6656 265.566L66.8456 266.947C66.8456 266.947 64.4938 269.356 63.8546 267.016L64.3759 265.976Z" fill="#FDDDAB"></path><path d="M55.6265 266.854C55.6265 266.854 54.3669 268.36 54.491 268.603C54.6151 268.852 57.3578 269.406 57.7736 268.821C58.1893 268.236 58.6795 267.016 58.6795 267.016C58.6795 267.016 56.2843 268.08 55.6265 266.854Z" fill="#476486"></path><path d="M63.9353 266.823C63.9353 266.823 62.7625 268.478 62.8866 268.727C63.0107 268.976 65.4432 269.368 65.8589 268.783C66.2747 268.198 66.8518 266.947 66.8518 266.947C66.8518 266.947 64.5869 268.049 63.9353 266.823Z" fill="#476486"></path><path d="M49.6199 198.228C49.6199 198.228 56.0485 200.618 65.3315 195.353C65.3315 195.353 65.7038 196.112 66.1196 197.152C66.1196 197.152 57.6556 202.392 49.7874 199.828C49.7812 199.828 49.5144 198.633 49.6199 198.228Z" fill="#FCC368"></path><path d="M47.7707 176.447C47.0323 178.37 46.9516 181.855 46.9516 181.855C46.9516 181.855 46.7096 182.763 46.3249 183.852C46.2194 178.675 47.7707 176.447 47.7707 176.447Z" fill="#FBAF36"></path><path d="M56.2657 167.815C55.9244 167.815 55.6203 167.783 55.3597 167.734C54.2986 167.528 53.8518 167.018 53.827 166.999L53.9573 166.501C53.9635 166.508 54.553 167.043 55.49 167.211C56.7497 167.441 58.1769 167.099 59.5793 166.215L59.7902 166.688C58.3941 167.566 57.1903 167.815 56.2657 167.815Z" fill="#FBB544"></path><path d="M72.6971 84.0786L60.3177 86.4061C59.6103 86.5368 58.9711 86.9102 58.4995 87.4516L30.4085 120.044C29.2605 121.375 29.4094 123.386 30.7311 124.537L42.6018 134.83C43.9297 135.982 45.934 135.832 47.0819 134.507L75.173 101.915C75.6446 101.367 75.9176 100.683 75.9424 99.9607L76.4513 87.3396C76.5381 85.2921 74.7014 83.6989 72.6971 84.0786ZM74.4842 88.4163C73.8699 89.1257 72.7964 89.2067 72.089 88.5905C71.3816 87.9744 71.3009 86.8978 71.9152 86.1883C72.5296 85.4788 73.6031 85.3979 74.3105 86.014C75.0241 86.6239 75.0985 87.7006 74.4842 88.4163Z" fill="white"></path><path d="M48.5526 122.521C48.1368 123.006 47.659 123.404 47.1191 123.716C46.5793 124.027 46.027 124.226 45.4686 124.301L45.0404 122.477C45.1273 122.496 45.2638 122.483 45.4623 122.446C45.6609 122.409 45.8781 122.34 46.1263 122.247C46.3745 122.154 46.6227 122.017 46.8833 121.842C47.144 121.668 47.386 121.456 47.6031 121.208C47.9382 120.822 48.1058 120.467 48.1244 120.143C48.1368 119.826 48.0189 119.552 47.7707 119.334C47.6466 119.229 47.5101 119.172 47.3549 119.172C47.1998 119.166 47.0323 119.204 46.8523 119.266C46.6724 119.334 46.4738 119.428 46.2566 119.552C46.0394 119.677 45.8098 119.82 45.5678 119.975C45.0032 120.33 44.5005 120.535 44.0662 120.598C43.6256 120.654 43.2161 120.517 42.8251 120.174C42.428 119.832 42.1425 119.44 41.9688 119.011C41.7951 118.581 41.7144 118.133 41.7268 117.679C41.7392 117.225 41.8385 116.77 42.0309 116.322C42.2232 115.874 42.4776 115.463 42.8065 115.077C43.1974 114.623 43.6256 114.281 44.0848 114.051C44.544 113.827 44.9845 113.677 45.4003 113.609L45.7726 115.364C45.7043 115.351 45.5927 115.358 45.4313 115.389C45.27 115.42 45.09 115.476 44.8915 115.557C44.6929 115.638 44.4881 115.743 44.2834 115.88C44.0786 116.017 43.8924 116.179 43.7249 116.372C43.3898 116.758 43.2285 117.119 43.2285 117.461C43.2285 117.797 43.365 118.09 43.6442 118.326C43.7559 118.419 43.8738 118.475 43.9979 118.488C44.1282 118.507 44.2647 118.482 44.4199 118.426C44.575 118.37 44.7425 118.283 44.9287 118.177C45.1149 118.065 45.3258 117.934 45.5554 117.778C45.8471 117.579 46.1325 117.417 46.3993 117.287C46.6724 117.156 46.933 117.069 47.1812 117.032C47.4356 116.994 47.6838 117.007 47.9258 117.075C48.1678 117.144 48.4098 117.281 48.6456 117.492C49.0738 117.866 49.3716 118.27 49.5392 118.706C49.7005 119.141 49.7688 119.577 49.7253 120.019C49.6881 120.461 49.564 120.896 49.353 121.32C49.1296 121.755 48.869 122.154 48.5526 122.521Z" fill="#A1AFC1"></path><path d="M53.1506 117.225C52.9086 117.511 52.6356 117.716 52.3377 117.847C52.0399 117.978 51.7296 118.04 51.4131 118.034C51.0967 118.027 50.774 117.953 50.4513 117.816C50.1287 117.679 49.8246 117.48 49.533 117.231C49.1172 116.87 48.7821 116.447 48.5277 115.967C48.2733 115.488 48.1182 114.99 48.0437 114.486C47.9755 113.982 47.9941 113.484 48.112 112.999C48.2299 112.513 48.4408 112.09 48.7573 111.723C49.0552 111.375 49.4027 111.157 49.7936 111.07C50.1845 110.982 50.563 111.014 50.9291 111.175L50.228 110.229L51.3449 108.935L54.2365 112.762C54.2924 112.843 54.342 112.905 54.3854 112.943C54.522 113.061 54.6585 113.042 54.795 112.893L55.6947 114.075C55.6141 114.206 55.5396 114.324 55.4838 114.424C55.4217 114.524 55.3597 114.604 55.3038 114.667C55.1115 114.891 54.9067 115.028 54.6957 115.077C54.4847 115.127 54.2862 115.065 54.0938 114.897C54.0193 114.829 53.9139 114.704 53.7773 114.524C53.889 115.046 53.8828 115.544 53.7587 116.017C53.6408 116.484 53.436 116.888 53.1506 117.225ZM52.5487 115.694C52.6418 115.588 52.7224 115.451 52.7907 115.289C52.859 115.127 52.9024 114.953 52.9272 114.772C52.952 114.592 52.952 114.405 52.9396 114.212C52.9272 114.019 52.89 113.839 52.8279 113.659L51.8413 112.364C51.5248 112.159 51.196 112.065 50.8485 112.09C50.501 112.115 50.2217 112.252 50.0108 112.495C49.8308 112.7 49.7129 112.949 49.6509 113.229C49.5888 113.515 49.5826 113.808 49.6385 114.1C49.6881 114.399 49.7874 114.685 49.9363 114.965C50.0852 115.245 50.2714 115.482 50.501 115.681C50.8361 115.974 51.1898 116.123 51.5745 116.135C51.953 116.16 52.2819 116.011 52.5487 115.694Z" fill="#A1AFC1"></path><path d="M57.6556 111.953C57.3702 112.283 57.0785 112.47 56.7807 112.513C56.4828 112.557 56.185 112.457 55.9057 112.208C55.8499 112.159 55.7941 112.103 55.7382 112.047C55.6886 111.991 55.6327 111.922 55.5707 111.847L50.7864 105.506L51.891 104.224L56.3091 110.068C56.3339 110.105 56.3649 110.136 56.396 110.167C56.427 110.198 56.458 110.229 56.489 110.254C56.7497 110.485 56.9979 110.466 57.2275 110.198C57.2895 110.13 57.3454 110.036 57.4012 109.918C57.4571 109.8 57.5005 109.688 57.5315 109.57L58.4809 110.46C58.4065 110.721 58.2886 110.982 58.1272 111.256C57.9783 111.536 57.817 111.767 57.6556 111.953Z" fill="#A1AFC1"></path><path d="M61.1181 107.983C60.8389 108.306 60.541 108.549 60.2122 108.711C59.8895 108.873 59.5544 108.96 59.2069 108.978C58.8594 108.997 58.5181 108.935 58.1769 108.804C57.8356 108.674 57.5129 108.474 57.2026 108.207C56.7869 107.846 56.458 107.416 56.2284 106.931C55.9926 106.439 55.8623 105.929 55.8251 105.4C55.7878 104.871 55.8561 104.336 56.0236 103.801C56.1912 103.265 56.4704 102.774 56.8613 102.326C57.3329 101.778 57.8294 101.448 58.3506 101.33C58.8718 101.212 59.362 101.355 59.815 101.747C60.9009 102.687 60.6031 104.13 58.9277 106.072C58.8284 106.19 58.7229 106.309 58.6174 106.433C58.5119 106.558 58.394 106.676 58.2637 106.8L58.3878 106.906C58.7291 107.199 59.0704 107.36 59.4179 107.392C59.7654 107.423 60.0819 107.267 60.3673 106.931C60.5907 106.676 60.7396 106.377 60.8141 106.041C60.8885 105.705 60.8761 105.375 60.7768 105.052L61.9744 104.305C62.0551 104.597 62.0985 104.915 62.0985 105.244C62.0985 105.574 62.0675 105.898 61.9869 106.222C61.9124 106.545 61.8007 106.856 61.6518 107.155C61.5153 107.454 61.3291 107.734 61.1181 107.983ZM57.6308 103.321C57.4695 103.508 57.3516 103.713 57.2833 103.931C57.2088 104.149 57.1778 104.373 57.1902 104.597C57.1964 104.821 57.2399 105.052 57.3081 105.282C57.3764 105.512 57.4757 105.73 57.5998 105.941C57.6928 105.842 57.7859 105.749 57.8666 105.649C57.9473 105.556 58.0341 105.45 58.1272 105.35C58.394 105.039 58.605 104.765 58.7601 104.523C58.9153 104.28 59.0146 104.062 59.0642 103.875C59.1138 103.689 59.12 103.527 59.0828 103.396C59.0456 103.265 58.9711 103.147 58.8532 103.048C58.6671 102.886 58.4685 102.836 58.2513 102.898C58.0279 102.954 57.8232 103.097 57.6308 103.321Z" fill="#A1AFC1"></path><path d="M74.3663 86.2131L74.2608 85.8148C74.2732 85.8148 75.2226 85.5597 76.4699 84.844L76.6747 85.2049C75.3716 85.9455 74.4036 86.2007 74.3663 86.2131Z" fill="white"></path><path d="M225.923 119.241L225.532 119.11C226.097 117.442 226.587 115.905 227.04 114.405L227.437 114.523C226.984 116.029 226.487 117.573 225.923 119.241ZM228.771 109.744L228.374 109.644C228.796 107.989 229.162 106.364 229.46 104.827L229.863 104.908C229.559 106.445 229.193 108.076 228.771 109.744ZM230.626 99.9979L230.217 99.9482C230.415 98.2492 230.533 96.5937 230.558 95.0317L230.974 95.0379C230.943 96.6186 230.825 98.2865 230.626 99.9979ZM230.353 90.1214C230.167 88.4348 229.863 86.8105 229.435 85.2982L229.832 85.1862C230.26 86.7172 230.577 88.3664 230.763 90.0778L230.353 90.1214ZM80.4599 81.9438L80.1372 81.6887C81.1176 80.4315 81.8436 78.9753 82.3028 77.3634L82.6999 77.4754C82.2221 79.1433 81.4713 80.6431 80.4599 81.9438ZM227.666 80.7365C226.916 79.2802 226.01 77.9111 224.973 76.6602L225.29 76.3925C226.351 77.6621 227.269 79.0562 228.033 80.5436L227.666 80.7365ZM221.455 73.2684C220.214 72.3038 218.83 71.4138 217.341 70.6297L217.533 70.2625C219.047 71.0591 220.456 71.9615 221.709 72.9448L221.455 73.2684ZM83.308 72.534L82.8985 72.5278C82.9295 71.0404 83.0785 69.3228 83.3205 67.5615L83.73 67.6175C83.4818 69.3601 83.3391 71.0591 83.308 72.534ZM212.848 68.6755C211.378 68.1528 209.795 67.686 208.139 67.3001L208.232 66.8956C209.901 67.2877 211.502 67.7607 212.985 68.2834L212.848 68.6755ZM203.311 66.3853C201.753 66.155 200.109 65.9746 198.421 65.8376L198.452 65.4269C200.153 65.5576 201.803 65.7443 203.367 65.9746L203.311 66.3853ZM193.5 65.4518C191.8 65.2838 190.156 65.0722 188.605 64.8295L188.667 64.4187C190.212 64.6614 191.85 64.8668 193.538 65.0348L193.5 65.4518ZM183.758 63.8959C182.095 63.5101 180.494 63.062 179.005 62.5641L179.135 62.1721C180.612 62.6637 182.201 63.1118 183.851 63.4976L183.758 63.8959ZM84.6174 62.7571L84.214 62.6637C84.5863 61.0332 85.0331 59.4213 85.5419 57.8717L85.9329 58.0024C85.4302 59.5396 84.9835 61.139 84.6174 62.7571ZM174.413 60.7282C172.905 60.0188 171.491 59.2346 170.082 58.3322L170.305 57.9837C171.695 58.8736 173.091 59.6516 174.587 60.3548L174.413 60.7282ZM166.086 55.4197C164.721 54.3119 163.436 53.1543 162.363 52.171L162.642 51.8661C163.715 52.8432 164.994 53.9945 166.346 55.096L166.086 55.4197ZM87.6889 53.397L87.3104 53.229C87.993 51.6794 88.75 50.192 89.5691 48.7979L89.9228 49.0095C89.1224 50.3849 88.3653 51.8599 87.6889 53.397ZM158.72 48.8353C157.336 47.5968 156.139 46.5886 154.96 45.6676L155.214 45.344C156.406 46.2712 157.603 47.2857 158.993 48.5303L158.72 48.8353ZM92.6779 44.9332L92.3553 44.6843C93.3915 43.3525 94.5147 42.114 95.6875 41L95.9729 41.2987C94.8063 42.4003 93.7018 43.6201 92.6779 44.9332ZM150.957 42.8235C149.599 41.9522 148.171 41.1307 146.707 40.3839L146.893 40.0167C148.37 40.776 149.809 41.6037 151.181 42.4812L150.957 42.8235ZM142.245 38.3426C140.787 37.7452 139.236 37.1788 137.635 36.6623L137.765 36.2702C139.372 36.793 140.936 37.3655 142.407 37.963L142.245 38.3426ZM99.7891 38.2306L99.5595 37.8883C100.931 36.9672 102.389 36.152 103.897 35.4736L104.065 35.847C102.575 36.5254 101.136 37.322 99.7891 38.2306ZM132.919 35.2869C131.659 34.9571 130.337 34.6397 128.985 34.3472C128.699 34.285 128.414 34.2227 128.128 34.1667L128.209 33.7622C128.495 33.8182 128.78 33.8804 129.072 33.9427C130.424 34.2352 131.752 34.5526 133.018 34.8824L132.919 35.2869ZM108.675 34.2227L108.57 33.8244C110.127 33.4137 111.765 33.1025 113.434 32.9096L113.478 33.3203C111.827 33.5133 110.208 33.812 108.675 34.2227ZM123.276 33.3888C121.601 33.1959 119.956 33.0901 118.374 33.0776L118.38 32.6669C119.975 32.6793 121.638 32.7913 123.326 32.9843L123.276 33.3888Z" fill="white"></path><path d="M223.335 126.491L222.951 126.348C223.23 125.595 223.515 124.817 223.801 124.02L224.185 124.163C223.9 124.96 223.614 125.738 223.335 126.491Z" fill="white"></path><path d="M324.4 127.2L337.418 119.689L349.866 111.493L351.237 113.969L338.579 121.388L325.765 129.671L324.4 127.2ZM332.237 116.334C331.474 116.061 330.816 115.681 330.251 115.189C329.693 114.698 329.246 114.138 328.93 113.521C328.613 112.905 328.415 112.246 328.34 111.542C328.266 110.839 328.353 110.142 328.601 109.439C328.837 108.76 329.209 108.169 329.705 107.653C330.202 107.142 330.766 106.75 331.405 106.483C332.038 106.215 332.727 106.066 333.472 106.035C334.216 106.004 334.967 106.122 335.737 106.396C336.475 106.657 337.133 107.037 337.704 107.534C338.275 108.032 338.728 108.586 339.05 109.19C339.373 109.8 339.572 110.459 339.64 111.169C339.708 111.878 339.621 112.575 339.385 113.254C339.137 113.951 338.771 114.554 338.275 115.052C337.778 115.55 337.214 115.942 336.574 116.222C335.935 116.502 335.24 116.652 334.483 116.677C333.726 116.72 332.975 116.602 332.237 116.334ZM333.006 114.144C333.335 114.262 333.658 114.287 333.987 114.231C334.316 114.175 334.626 114.063 334.936 113.889C335.24 113.714 335.513 113.478 335.755 113.185C335.991 112.887 336.177 112.557 336.308 112.183C336.581 111.418 336.581 110.69 336.308 109.987C336.041 109.289 335.588 108.829 334.955 108.605C334.626 108.487 334.303 108.462 333.974 108.518C333.646 108.574 333.329 108.692 333.025 108.86C332.721 109.034 332.448 109.265 332.212 109.551C331.976 109.837 331.79 110.167 331.66 110.534C331.387 111.3 331.387 112.034 331.654 112.743C331.927 113.453 332.38 113.92 333.006 114.144ZM339.913 134.805C339.15 134.532 338.486 134.152 337.927 133.66C337.363 133.169 336.922 132.615 336.599 132.011C336.27 131.401 336.072 130.748 336.004 130.051C335.929 129.348 336.022 128.651 336.264 127.947C336.512 127.25 336.878 126.647 337.375 126.149C337.871 125.651 338.436 125.259 339.075 124.979C339.714 124.699 340.403 124.549 341.148 124.518C341.892 124.487 342.649 124.605 343.413 124.879C344.176 125.147 344.84 125.533 345.398 126.024C345.957 126.516 346.404 127.076 346.739 127.698C347.067 128.321 347.266 128.98 347.328 129.677C347.39 130.374 347.297 131.071 347.049 131.775C346.801 132.472 346.435 133.075 345.957 133.579C345.473 134.084 344.908 134.469 344.263 134.731C343.617 134.992 342.922 135.142 342.178 135.173C341.433 135.198 340.676 135.079 339.913 134.805ZM340.689 132.609C341.017 132.727 341.34 132.752 341.669 132.696C341.992 132.64 342.308 132.521 342.618 132.353C342.922 132.179 343.195 131.949 343.431 131.663C343.667 131.376 343.847 131.047 343.983 130.679C344.12 130.287 344.188 129.895 344.176 129.509C344.163 129.123 344.101 128.769 343.983 128.445C343.866 128.122 343.686 127.835 343.456 127.593C343.22 127.35 342.953 127.176 342.649 127.064C342.32 126.945 341.998 126.92 341.669 126.976C341.34 127.032 341.024 127.151 340.72 127.325C340.409 127.499 340.142 127.736 339.9 128.028C339.658 128.321 339.472 128.657 339.342 129.03C339.075 129.796 339.075 130.524 339.342 131.221C339.603 131.924 340.056 132.385 340.689 132.609Z" fill="#A1AFC1"></path><path d="M43.5263 33.3328C43.0795 33.6316 42.608 33.8307 42.1239 33.9303C41.6399 34.0299 41.1683 34.0423 40.7092 33.9676C40.25 33.8929 39.828 33.7311 39.4247 33.4884C39.0275 33.2457 38.6863 32.9159 38.4194 32.5051C38.1588 32.1068 37.9913 31.6712 37.9168 31.1982C37.8423 30.7252 37.8672 30.2709 37.9789 29.8228C38.0905 29.381 38.2891 28.9516 38.5746 28.5408C38.86 28.1301 39.2199 27.7753 39.6729 27.4828C40.1072 27.1965 40.5726 26.9974 41.0691 26.8916C41.5655 26.7858 42.0371 26.7671 42.4838 26.8418C42.9368 26.9103 43.365 27.0721 43.7683 27.321C44.1717 27.57 44.5068 27.8936 44.7674 28.2919C45.0404 28.7026 45.2079 29.1445 45.2762 29.605C45.3445 30.0718 45.3196 30.5261 45.2141 30.9804C45.1025 31.4347 44.9039 31.8641 44.6184 32.2749C44.3268 32.6918 43.9607 33.0466 43.5263 33.3328ZM42.6762 32.0384C42.8686 31.9077 43.0175 31.7459 43.1168 31.5529C43.2161 31.3538 43.2843 31.1422 43.3154 30.9057C43.3464 30.6754 43.334 30.4327 43.2719 30.19C43.2099 29.9411 43.1106 29.7108 42.9617 29.493C42.6638 29.0449 42.2791 28.7524 41.8013 28.6093C41.3235 28.4723 40.9015 28.5284 40.5292 28.7773C40.3368 28.9018 40.1879 29.0698 40.0886 29.2627C39.9893 29.4556 39.9211 29.6735 39.8901 29.91C39.859 30.1464 39.8714 30.3767 39.9273 30.6194C39.9831 30.8621 40.0824 31.0862 40.2314 31.3102C40.5292 31.7583 40.9201 32.057 41.3979 32.2002C41.8757 32.3371 42.3039 32.2873 42.6762 32.0384ZM46.1387 41.8651L47.3798 31.9139L48.0313 22L49.8929 22.2614L48.7449 31.9761L47.9941 42.1265L46.1387 41.8651ZM56.3898 36.6499C55.943 36.9486 55.4714 37.1478 54.9874 37.2474C54.5034 37.3469 54.0318 37.3656 53.5788 37.2909C53.1258 37.2225 52.6977 37.0669 52.3005 36.8179C51.8972 36.5752 51.5683 36.2454 51.2953 35.8346C51.0222 35.4239 50.8547 34.9883 50.7864 34.5215C50.7182 34.0547 50.743 33.6004 50.8485 33.1461C50.954 32.698 51.1526 32.2624 51.438 31.8579C51.7234 31.4471 52.0895 31.0924 52.5363 30.7999C52.9831 30.5012 53.4547 30.302 53.9387 30.2025C54.4227 30.1029 54.9005 30.0904 55.3597 30.1589C55.8251 30.2336 56.2532 30.3892 56.6442 30.6381C57.0351 30.887 57.3702 31.2169 57.6432 31.6276C57.9163 32.0384 58.0838 32.474 58.1583 32.9345C58.2327 33.3951 58.2079 33.8494 58.09 34.2975C57.9721 34.7455 57.7673 35.175 57.4881 35.5857C57.2026 36.0027 56.8365 36.3512 56.3898 36.6499ZM55.5334 35.3554C55.7258 35.231 55.8747 35.0692 55.974 34.87C56.0733 34.6709 56.1416 34.4593 56.1726 34.2228C56.2036 33.9925 56.1912 33.756 56.1354 33.5133C56.0795 33.2768 55.9802 33.0466 55.8313 32.8287C55.6762 32.5985 55.4962 32.4055 55.2914 32.2562C55.0867 32.1068 54.8695 32.001 54.6523 31.9326C54.4351 31.8641 54.2117 31.8454 53.9883 31.8703C53.765 31.8952 53.5664 31.9699 53.3864 32.0881C53.1941 32.2126 53.0451 32.3806 52.9459 32.5736C52.8466 32.7727 52.7783 32.9843 52.7473 33.2208C52.7163 33.4573 52.7287 33.6938 52.7907 33.9365C52.8528 34.1854 52.9521 34.4157 53.101 34.6335C53.3988 35.0816 53.7836 35.3803 54.2614 35.511C54.7392 35.6604 55.1611 35.6044 55.5334 35.3554Z" fill="#A1AFC1"></path></g><defs><linearGradient id="paint0_linear" x1="69.5603" y1="146.154" x2="279.292" y2="146.154" gradientUnits="userSpaceOnUse"><stop stop-color="#3D5C7F"></stop><stop offset="1" stop-color="#8A9CB2"></stop></linearGradient><linearGradient id="paint1_linear" x1="281.068" y1="163.051" x2="316.865" y2="163.051" gradientUnits="userSpaceOnUse"><stop offset="0.00518135" stop-color="white"></stop><stop offset="1" stop-color="white"></stop></linearGradient><linearGradient id="paint2_linear" x1="308.762" y1="163.051" x2="344.558" y2="163.051" gradientUnits="userSpaceOnUse"><stop offset="0.00518135" stop-color="white"></stop><stop offset="1" stop-color="white"></stop></linearGradient><linearGradient id="paint3_linear" x1="335.631" y1="161.003" x2="355.382" y2="161.003" gradientUnits="userSpaceOnUse"><stop offset="0.00518135" stop-color="white"></stop><stop offset="1" stop-color="white"></stop></linearGradient><linearGradient id="paint4_linear" x1="307.345" y1="169.102" x2="317.617" y2="169.102" gradientUnits="userSpaceOnUse"><stop offset="0.00518135" stop-color="white"></stop><stop offset="1" stop-color="white"></stop></linearGradient><linearGradient id="paint5_linear" x1="307.345" y1="169.102" x2="314.818" y2="169.102" gradientUnits="userSpaceOnUse"><stop offset="0.00518135" stop-color="white"></stop><stop offset="1" stop-color="white"></stop></linearGradient><linearGradient id="paint6_linear" x1="311.646" y1="250.919" x2="311.646" y2="193.204" gradientUnits="userSpaceOnUse"><stop stop-color="#2581AA"></stop><stop offset="1" stop-color="#5E7895"></stop></linearGradient><linearGradient id="paint7_linear" x1="265.677" y1="179.267" x2="357.612" y2="179.267" gradientUnits="userSpaceOnUse"><stop stop-color="#2581AA"></stop><stop offset="1" stop-color="#5E7895"></stop></linearGradient><linearGradient id="paint8_linear" x1="325.615" y1="202.928" x2="296.755" y2="202.928" gradientUnits="userSpaceOnUse"><stop offset="0.00518135" stop-color="white"></stop><stop offset="1" stop-color="white"></stop></linearGradient><linearGradient id="paint9_linear" x1="352.216" y1="186.27" x2="366.47" y2="186.27" gradientUnits="userSpaceOnUse"><stop stop-color="#052C5A"></stop><stop offset="1" stop-color="#4F6B8B"></stop></linearGradient><linearGradient id="paint10_linear" x1="345.238" y1="188.018" x2="366.47" y2="188.018" gradientUnits="userSpaceOnUse"><stop stop-color="#1A3E68"></stop><stop offset="1" stop-color="#69809C"></stop></linearGradient><linearGradient id="paint11_linear" x1="342.949" y1="193.334" x2="356.326" y2="180.305" gradientUnits="userSpaceOnUse"><stop stop-color="#24466F"></stop><stop offset="1" stop-color="#4F6B8B"></stop></linearGradient><linearGradient id="paint12_linear" x1="371.014" y1="186.27" x2="385.269" y2="186.27" gradientUnits="userSpaceOnUse"><stop stop-color="#052C5A"></stop><stop offset="1" stop-color="#4F6B8B"></stop></linearGradient><linearGradient id="paint13_linear" x1="371.014" y1="188.018" x2="392.247" y2="188.018" gradientUnits="userSpaceOnUse"><stop stop-color="#1A3E68"></stop><stop offset="1" stop-color="#69809C"></stop></linearGradient><linearGradient id="paint14_linear" x1="368.712" y1="193.04" x2="368.402" y2="189.252" gradientUnits="userSpaceOnUse"><stop stop-color="#24466F"></stop><stop offset="1" stop-color="#4F6B8B"></stop></linearGradient><linearGradient id="paint15_linear" x1="368.742" y1="228.14" x2="368.742" y2="197.027" gradientUnits="userSpaceOnUse"><stop stop-color="#94BBD0"></stop><stop offset="1" stop-color="#FCBD5A"></stop></linearGradient><linearGradient id="paint16_linear" x1="368.742" y1="211.197" x2="368.742" y2="176.888" gradientUnits="userSpaceOnUse"><stop stop-color="#94BBD0"></stop><stop offset="1" stop-color="#FCBD5A"></stop></linearGradient><linearGradient id="paint17_linear" x1="368.742" y1="238.127" x2="368.742" y2="178.619" gradientUnits="userSpaceOnUse"><stop stop-color="#1A3E68"></stop><stop offset="1" stop-color="#69809C"></stop></linearGradient><linearGradient id="paint18_linear" x1="24.1624" y1="88.2279" x2="78.0916" y2="88.2279" gradientUnits="userSpaceOnUse"><stop stop-color="#2581AA"></stop><stop offset="1" stop-color="#5E7895"></stop></linearGradient><linearGradient id="paint19_linear" x1="79.6965" y1="133.339" x2="47.2809" y2="92.4253" gradientUnits="userSpaceOnUse"><stop stop-color="#2581AA"></stop><stop offset="1" stop-color="#5E7895"></stop></linearGradient><linearGradient id="paint20_linear" x1="3" y1="133.33" x2="96.5923" y2="133.33" gradientUnits="userSpaceOnUse"><stop stop-color="#2581AA"></stop><stop offset="1" stop-color="#5E7895"></stop></linearGradient><linearGradient id="paint21_linear" x1="91.6689" y1="156.848" x2="38.3068" y2="121.025" gradientUnits="userSpaceOnUse"><stop stop-color="#2581AA"></stop><stop offset="1" stop-color="#5E7895"></stop></linearGradient><linearGradient id="paint22_linear" x1="244.017" y1="81.5921" x2="291.809" y2="73.069" gradientUnits="userSpaceOnUse"><stop stop-color="#2581AA"></stop><stop offset="1" stop-color="#5E7895"></stop></linearGradient><linearGradient id="paint23_linear" x1="37.9275" y1="-375.515" x2="14.9125" y2="-418.378" gradientUnits="userSpaceOnUse"><stop stop-color="#2581AA"></stop><stop offset="1" stop-color="#5E7895"></stop></linearGradient><linearGradient id="paint24_linear" x1="291.437" y1="126.46" x2="320.874" y2="5.13686" gradientUnits="userSpaceOnUse"><stop stop-color="#2581AA"></stop><stop offset="1" stop-color="#5E7895"></stop></linearGradient><linearGradient id="paint25_linear" x1="274.86" y1="120.066" x2="328.55" y2="66.5323" gradientUnits="userSpaceOnUse"><stop stop-color="#2581AA"></stop><stop offset="1" stop-color="#5E7895"></stop></linearGradient><linearGradient id="paint26_linear" x1="57.1479" y1="155.629" x2="295.087" y2="155.629" gradientUnits="userSpaceOnUse"><stop stop-color="#94BBD0"></stop><stop offset="1" stop-color="#FCBD5A"></stop></linearGradient><linearGradient id="paint27_linear" x1="22.5386" y1="105.284" x2="224.061" y2="105.284" gradientUnits="userSpaceOnUse"><stop stop-color="#94BBD0"></stop><stop offset="1" stop-color="#FCBD5A"></stop></linearGradient><linearGradient id="paint28_linear" x1="22.5386" y1="94.4793" x2="224.061" y2="94.4793" gradientUnits="userSpaceOnUse"><stop stop-color="#94BBD0"></stop><stop offset="1" stop-color="#FCBD5A"></stop></linearGradient><linearGradient id="paint29_linear" x1="22.5387" y1="119.352" x2="224.062" y2="119.352" gradientUnits="userSpaceOnUse"><stop stop-color="#94BBD0"></stop><stop offset="1" stop-color="#FCBD5A"></stop></linearGradient><linearGradient id="paint30_linear" x1="267.975" y1="181.245" x2="92.4464" y2="181.245" gradientUnits="userSpaceOnUse"><stop stop-color="#F0F2F5"></stop><stop offset="1" stop-color="#F1F7FA"></stop></linearGradient><linearGradient id="paint31_linear" x1="176.118" y1="74.1343" x2="176.118" y2="43.9338" gradientUnits="userSpaceOnUse"><stop stop-color="#1A3E68"></stop><stop offset="1" stop-color="#69809C"></stop></linearGradient><clipPath id="clip0"><rect width="395" height="256" fill="white" transform="translate(3 22)"></rect></clipPath></defs></svg>