<svg xmlns="http://www.w3.org/2000/svg" width="400" height="280" viewBox="0 0 400 280" fill="none"><g clip-path="url(#clip0)"><path d="M325.657 239.257C319.961 245.237 314.57 249.094 310.311 252.141C260.252 287.959 201.017 277.518 188.428 274.968C169.838 271.203 133.904 263.925 107.924 233.46C68.619 187.367 74.7395 114.75 105.227 66.8151C110.804 58.0465 140.261 9.38119 200.135 1.57656C236.369 -3.14674 278.606 6.3791 309.193 31.9335C373.398 85.5739 368.827 193.937 325.657 239.257Z" fill="url(#paint0_linear)"></path><path d="M159.277 175.22C159.277 175.22 160.176 137.402 142.772 127.28C125.369 117.159 92.278 110.831 91.0373 56.5292C90.3107 24.7389 89.5249 10.8388 88.9988 4.77849C88.7933 2.41433 90.8929 0.505555 93.2231 0.944885C109.705 4.05229 163.251 16.844 174.477 53.4218C187.785 96.785 159.277 175.22 159.277 175.22Z" fill="#3B597E"></path><path opacity="0.6" d="M105.97 16.0536C124.063 32.2035 144.985 60.786 156.136 89.3676C157.567 94.0778 161.754 104.095 163.572 121.894C165.196 136.738 164.389 152.424 162.42 162.807C162.296 163.463 161.663 163.894 161.007 163.77C159.879 163.556 160.029 162.342 160.04 162.38C162.289 144.64 161.356 122.559 156.202 102.637C149.619 78.1737 134.935 54.4559 119.747 34.34L118.184 32.359C106.417 17.2352 103.94 17.1228 105.04 16.0686C105.299 15.8209 105.705 15.8189 105.97 16.0536Z" fill="white"></path><path d="M187.245 247.929C189.599 249.084 164.953 218.065 157.233 169.349C153.595 146.392 153.548 117.629 140.482 106.546C129.607 97.3206 92.6027 103.144 80.4941 105.358C78.9808 105.635 78.4717 107.548 79.6492 108.538C85.456 113.418 97.8772 124.93 101.113 136.531C105.379 151.824 119.906 161.55 132.91 164.182C145.915 166.814 153.15 169.369 159.484 190.184C165.821 210.998 180.556 244.645 187.245 247.929Z" fill="#002857"></path><path opacity="0.6" d="M97.5235 111.818C112.971 112.466 129.554 119.519 137.968 132.748L138.763 134.011C140.597 136.971 150.994 158.013 156.768 175.456C156.84 175.674 156.721 175.908 156.504 175.981C156.135 176.103 155.95 175.697 155.985 175.733C151.962 165.879 146.184 153.385 141.582 144.043C136.647 133.848 133.194 126.944 121.937 120.331C109.409 113.209 97.4394 112.476 97.4744 112.483C97.292 112.464 97.1587 112.302 97.1778 112.118C97.1968 111.941 97.3502 111.811 97.5235 111.818Z" fill="white"></path><path d="M131.789 48.3372C131.789 39.027 139.33 31.4791 148.633 31.4791H291.877C299.779 31.4791 306.296 37.6769 306.698 45.5768L317.271 253.427C317.585 259.609 312.724 264.823 306.54 264.935L142.365 267.921C136.555 268.026 131.789 263.342 131.789 257.526V48.3372Z" fill="url(#paint1_linear)"></path><path d="M166.36 264.388H166.355L147.984 264.151C141.842 264.07 136.844 259.004 136.844 252.856V225.097C136.844 224.881 137.019 224.705 137.236 224.705C137.452 224.705 137.628 224.881 137.628 225.097V252.856C137.628 258.577 142.278 263.291 147.993 263.365L166.364 263.603C166.58 263.606 166.753 263.783 166.75 264C166.748 264.216 166.574 264.388 166.36 264.388Z" fill="#879AB0"></path><path d="M137.237 216.89C137.02 216.89 136.845 216.715 136.845 216.498V212.003C136.845 211.786 137.02 211.61 137.237 211.61C137.453 211.61 137.629 211.786 137.629 212.003V216.498C137.629 216.715 137.453 216.89 137.237 216.89Z" fill="#879AB0"></path><path d="M143.524 34.6788C143.505 31.6998 146.123 29.3948 149.073 29.795C168.634 32.4501 235.9 40.6609 291.515 36.388C294.052 36.1934 296.253 38.1162 296.388 40.6589L307.474 249.436C307.627 252.299 305.442 254.747 302.582 254.916C279.192 256.301 182.863 261.657 148.503 258.055C146.412 257.835 144.825 256.074 144.812 253.97L143.524 34.6788Z" fill="#002857"></path><path opacity="0.6" d="M145.828 39.9108C145.811 37.0441 148.33 34.8254 151.168 35.2105C169.993 37.7653 234.726 45.6672 288.247 41.5558C290.687 41.3682 292.806 43.2188 292.936 45.6652L303.606 246.581C303.752 249.336 301.65 251.691 298.898 251.854C276.389 253.188 183.687 258.341 150.621 254.876C148.609 254.665 147.081 252.969 147.069 250.944L145.828 39.9108Z" fill="white"></path><g opacity="0.6"><path opacity="0.6" d="M281.668 72.6317C281.92 72.6317 282.122 72.4251 282.114 72.1713L282.056 70.2014C282.049 69.9486 281.836 69.738 281.583 69.733L227.485 68.768C227.232 68.763 227.094 68.9556 227.178 69.1943L228.234 72.1974C228.319 72.4361 228.594 72.6317 228.847 72.6317H281.668V72.6317Z" fill="white"></path></g><g opacity="0.79"><path opacity="0.79" d="M282.341 58.48C282.594 58.48 282.797 58.2734 282.791 58.0196L282.723 54.7858C282.718 54.533 282.506 54.3204 282.254 54.3144L226.473 52.9262C226.221 52.9201 226.065 53.1157 226.127 53.3615L227.305 58.0336C227.367 58.2794 227.625 58.48 227.878 58.48H282.341Z" fill="white"></path></g><g opacity="0.6"><path opacity="0.6" d="M227.485 76.7994C227.232 76.7944 227.094 76.987 227.178 77.2257L228.234 80.2288C228.319 80.4675 228.594 80.6631 228.847 80.6631H281.668C281.92 80.6631 282.122 80.4565 282.114 80.2027L282.056 78.2328C282.049 77.98 281.836 77.7693 281.583 77.7643L227.485 76.7994Z" fill="white"></path></g><g opacity="0.6"><path opacity="0.6" d="M227.485 84.946C227.232 84.941 227.094 85.1336 227.178 85.3723L228.234 88.3754C228.319 88.6141 228.594 88.8097 228.847 88.8097H281.668C281.92 88.8097 282.122 88.6031 282.114 88.3493L282.056 86.3794C282.049 86.1266 281.836 85.916 281.583 85.9109L227.485 84.946Z" fill="white"></path></g><path d="M186.864 101.902C202.053 101.902 214.366 89.579 214.366 74.3771C214.366 59.1753 202.053 46.8518 186.864 46.8518C171.674 46.8518 159.361 59.1753 159.361 74.3771C159.361 89.579 171.674 101.902 186.864 101.902Z" fill="white"></path><path d="M180.766 68.9085C179.081 68.9085 177.335 69.1232 176.675 67.0921C175.433 63.2675 177.519 57.5492 180.94 55.4669C182.083 54.7708 183.417 54.4658 184.73 54.202C186.274 53.8921 187.608 53.8149 189 54.5641C190.285 55.2552 191.532 54.1439 192.863 55.0316C193.994 55.7858 194.862 56.9734 195.466 58.1741C196.256 59.7418 196.666 61.47 197.011 63.1912C197.089 63.5814 197.163 63.9847 197.077 64.3728C197.004 64.6978 196.822 64.9867 196.642 65.2665C195.261 67.407 193.423 68.9065 190.765 68.9075C190.764 68.9085 180.81 68.9085 180.766 68.9085Z" fill="url(#paint2_linear)"></path><path d="M180.427 62.1763C180.427 62.1763 180.732 62.8152 178.749 63.8122C177.642 64.3689 175.491 65.1904 175.207 67.5927C175.061 68.8324 174.577 71.8937 173.398 72.0833C170.463 72.5547 166.5 74.3882 166.13 77.954C165.706 82.0464 166.882 84.1939 168.963 84.7285C170.492 85.1217 170.88 85.533 170.57 87.1499C170.273 88.7005 171.449 94.2664 174.013 95.6847C179.761 98.8623 184.767 84.3845 184.767 84.3845L185.944 65.6919L180.427 62.1763Z" fill="url(#paint3_linear)"></path><path d="M193.58 60.5411C193.58 60.5411 193.271 61.2172 195.29 62.2744C196.416 62.8642 198.606 63.7348 198.896 66.2795C199.045 67.5935 199.394 69.4391 200.595 69.6397C203.583 70.1392 207.047 73.054 207.784 78.7121C208.347 83.0312 207.119 87.6632 205 88.2299C203.444 88.6462 203.561 87.8207 203.876 89.5339C204.178 91.1769 203.469 90.5429 200.858 92.0455C195.007 95.4117 189.165 84.0694 189.165 84.0694L187.967 64.2654L193.58 60.5411Z" fill="url(#paint4_linear)"></path><path d="M185.758 81.2961C185.758 81.2961 190.2 80.1506 191.143 81.5669C191.615 83.922 191.858 86.2611 191.858 86.2611L186.74 87.2231L183.356 86.4437L182.551 85.9763L182.217 82.6402C182.216 82.6392 183.947 81.6341 185.758 81.2961Z" fill="url(#paint5_linear)"></path><path d="M180.43 69.416C180.43 69.416 179.716 67.2715 178.646 67.9867C177.574 68.7019 180.253 73.2627 180.253 73.2627L180.43 69.416Z" fill="url(#paint6_linear)"></path><path d="M191.143 69.4161C191.143 69.4161 191.143 66.1993 192.928 67.9867C194.713 69.7731 191.143 72.2757 191.143 72.2757V69.4161Z" fill="url(#paint7_linear)"></path><path d="M207.96 98.6246C206.465 91.4027 204.319 85.7586 203.64 85.4316L199.586 95.469C199.586 95.469 198.768 98.4601 198.834 102.174H205.068C206.939 102.174 208.339 100.457 207.96 98.6246Z" fill="url(#paint8_linear)"></path><path d="M176.754 102.174C176.941 98.9484 176.86 96.9163 176.86 96.9163L171.146 87.6332C171.146 87.6332 170.432 90.4788 169.718 97.9835C169.685 98.3326 169.653 98.6866 169.623 99.0467C169.481 100.73 170.811 102.173 172.498 102.173H176.754V102.174Z" fill="url(#paint9_linear)"></path><path d="M184.664 102.194H190.884L192.571 84.4475C192.571 84.4475 191.143 84.0794 190.428 81.5779C189.714 79.0763 189.357 74.0681 189.357 74.0681L182.93 75.4944C182.93 75.4944 183.644 82.3051 182.215 85.5208L184.664 102.194Z" fill="url(#paint10_linear)"></path><path d="M194.242 102.194L195.137 90.9913C188.62 94.8931 181.92 94.7036 175.124 92.6343L177.053 102.193H194.242V102.194Z" fill="url(#paint11_linear)"></path><path d="M186.19 102.174C184.259 92.853 182.216 82.6501 182.216 82.6501L181.145 84.7886L171.147 87.6563C171.636 89.9422 173.131 96.2353 174.634 102.174H186.19V102.174Z" fill="url(#paint12_linear)"></path><path d="M200.477 102.174C201.01 99.3186 201.48 97.0898 201.48 97.0898L203.641 85.4315C202.961 84.7505 192.286 83.286 192.286 83.286L191.144 81.5789C191.144 81.5789 189.719 91.9493 188.5 102.174H200.477V102.174Z" fill="url(#paint13_linear)"></path><path d="M179.717 64.4129C179.717 64.4129 179.36 72.9898 180.431 74.4192C181.503 75.8485 182.931 79.0652 185.43 79.4223C187.93 79.7794 191.858 72.6318 191.858 72.2747C191.858 71.9176 191.501 62.6254 191.501 62.6254C191.501 62.6254 184.001 56.5511 179.717 64.4129Z" fill="url(#paint14_linear)"></path><path d="M178.289 62.9837C178.289 62.9837 176.861 67.2727 181.145 65.8424C185.429 64.413 185.429 64.413 185.429 64.413C185.429 64.413 189.715 61.9114 190.428 62.9837C191.143 64.0559 191.856 66.6959 191.856 66.6959C191.856 66.6959 193.285 62.9837 191.856 60.8392C190.429 58.6947 181.502 56.9083 178.289 62.9837Z" fill="url(#paint15_linear)"></path><g opacity="0.6"><path opacity="0.6" d="M283.655 117.271C283.908 117.271 284.106 117.064 284.096 116.812L283.966 113.614C283.956 113.361 283.74 113.151 283.487 113.148L175.149 111.762C174.896 111.759 174.78 111.943 174.891 112.169L177.191 116.859C177.303 117.086 177.601 117.272 177.854 117.272H283.655V117.271Z" fill="white"></path></g><g opacity="0.6"><path opacity="0.6" d="M175.15 124.213C174.897 124.21 174.781 124.393 174.892 124.62L177.192 129.309C177.304 129.537 177.602 129.723 177.855 129.723H283.654C283.907 129.723 284.105 129.516 284.095 129.263L283.965 126.066C283.955 125.813 283.739 125.603 283.486 125.6L175.15 124.213Z" fill="white"></path></g><g opacity="0.6"><path opacity="0.6" d="M175.824 136.797C175.572 136.793 175.447 136.98 175.547 137.213L177.558 141.883C177.658 142.116 177.947 142.306 178.201 142.306H270.978C271.231 142.306 271.431 142.099 271.422 141.845L271.308 138.648C271.299 138.395 271.084 138.184 270.832 138.181L175.824 136.797Z" fill="white"></path></g><path d="M159.623 119.511C162.28 119.511 164.434 117.355 164.434 114.695C164.434 112.036 162.28 109.88 159.623 109.88C156.965 109.88 154.811 112.036 154.811 114.695C154.811 117.355 156.965 119.511 159.623 119.511Z" fill="url(#paint16_linear)"></path><g opacity="0.6"><path opacity="0.6" d="M285.002 164.458C285.254 164.458 285.453 164.251 285.443 163.998L285.313 160.801C285.303 160.548 285.087 160.338 284.834 160.335L176.496 158.949C176.243 158.946 176.127 159.13 176.238 159.356L178.538 164.046C178.65 164.273 178.948 164.459 179.201 164.459H285.002V164.458Z" fill="white"></path></g><g opacity="0.6"><path opacity="0.6" d="M176.498 172.076C176.245 172.072 176.118 172.26 176.215 172.493L178.166 177.159C178.263 177.393 178.55 177.584 178.803 177.584H268.837C269.09 177.584 269.29 177.377 269.281 177.123L269.17 173.925C269.161 173.673 268.948 173.462 268.694 173.459L176.498 172.076Z" fill="white"></path></g><g opacity="0.6"><path opacity="0.6" d="M176.947 185.107C176.694 185.104 176.578 185.288 176.688 185.516L178.973 190.204C179.085 190.431 179.382 190.617 179.635 190.617H284.777C285.03 190.617 285.229 190.41 285.218 190.157L285.089 186.959C285.079 186.706 284.864 186.497 284.611 186.494L176.947 185.107Z" fill="white"></path></g><path d="M162.667 165.343C164.546 163.462 164.546 160.413 162.667 158.532C160.788 156.652 157.741 156.652 155.862 158.532C153.983 160.413 153.983 163.462 155.862 165.343C157.741 167.223 160.788 167.223 162.667 165.343Z" fill="#002857"></path><g opacity="0.6"><path opacity="0.6" d="M284.441 216.026C284.693 216.026 284.892 215.819 284.882 215.567L284.751 212.369C284.741 212.116 284.526 211.907 284.272 211.904L175.935 210.517C175.682 210.514 175.566 210.698 175.677 210.925L177.977 215.614C178.088 215.841 178.387 216.027 178.64 216.027H284.441V216.026Z" fill="white"></path></g><g opacity="0.6"><path opacity="0.6" d="M175.937 222.97C175.684 222.966 175.556 223.154 175.653 223.388L177.582 228.053C177.68 228.287 177.965 228.479 178.218 228.479H267.266C267.519 228.479 267.719 228.272 267.71 228.018L267.601 224.82C267.592 224.568 267.378 224.357 267.125 224.353L175.937 222.97Z" fill="white"></path></g><g opacity="0.6"><path opacity="0.6" d="M176.61 236.229C176.358 236.224 176.216 236.417 176.297 236.656L177.867 241.3C177.948 241.54 178.222 241.737 178.474 241.737H251.101C251.353 241.737 251.555 241.53 251.548 241.276L251.458 238.079C251.451 237.826 251.239 237.614 250.985 237.61L176.61 236.229Z" fill="white"></path></g><path d="M158.672 218.297C161.329 218.297 163.483 216.141 163.483 213.481C163.483 210.822 161.329 208.666 158.672 208.666C156.014 208.666 153.86 210.822 153.86 213.481C153.86 216.141 156.014 218.297 158.672 218.297Z" fill="url(#paint17_linear)"></path><path d="M229.139 3.14035C223.965 -0.462554 219.466 -0.391338 216.299 0.544495C213.41 1.39808 211.538 4.18953 211.812 7.19162L213.178 22.1118L229.431 23.5552C229.43 23.5552 239.287 10.2047 229.139 3.14035ZM221.992 15.1768C219.754 15.1768 217.939 13.3613 217.939 11.1205C217.939 8.87973 219.753 7.06423 221.992 7.06423C224.23 7.06423 226.045 8.87973 226.045 11.1205C226.045 13.3613 224.23 15.1768 221.992 15.1768Z" fill="url(#paint18_linear)"></path><path d="M214.801 15.835C214.6 15.835 214.429 15.6825 214.411 15.4779L214.194 13.1017C214.174 12.886 214.333 12.6955 214.548 12.6754C214.769 12.6543 214.955 12.8148 214.974 13.0305L215.192 15.4067C215.212 15.6223 215.052 15.8129 214.837 15.833C214.825 15.835 214.813 15.835 214.801 15.835ZM214.375 11.1789C214.175 11.1789 214.003 11.0264 213.985 10.8218L213.82 9.01834C213.558 6.15868 215.356 3.49562 218.095 2.68616C220.035 2.11343 222.034 2.03118 224.035 2.44243C224.248 2.48556 224.384 2.69319 224.341 2.90583C224.298 3.11747 224.091 3.25388 223.878 3.21176C222.003 2.82759 220.133 2.90382 218.318 3.43945C215.936 4.14257 214.374 6.45959 214.601 8.94712L214.767 10.7506C214.787 10.9662 214.628 11.1568 214.412 11.1769C214.399 11.1789 214.387 11.1789 214.375 11.1789Z" fill="#879AB0"></path><path d="M190.996 31.7541V24.2524C190.996 21.6625 193.14 19.5893 195.726 19.6775L247.402 21.4499C249.695 21.5281 251.553 23.3406 251.691 25.6326L252.123 32.8404L190.996 31.7541Z" fill="url(#paint19_linear)"></path><path d="M210.264 22.5039H208.042C207.826 22.5039 207.65 22.3283 207.65 22.1117C207.65 21.895 207.826 21.7195 208.042 21.7195H210.264C210.48 21.7195 210.656 21.895 210.656 22.1117C210.657 22.3283 210.482 22.5039 210.264 22.5039Z" fill="#879AB0"></path><path d="M193.793 29.3978C193.576 29.3978 193.401 29.2222 193.401 29.0056V25.9704C193.401 23.6253 195.307 21.7185 197.649 21.7185H205.819C206.036 21.7185 206.211 21.894 206.211 22.1107C206.211 22.3273 206.036 22.5029 205.819 22.5029H197.649C195.739 22.5029 194.185 24.0586 194.185 25.9704V29.0056C194.185 29.2222 194.009 29.3978 193.793 29.3978Z" fill="#879AB0"></path><path d="M169.939 33.6477C170.064 31.0498 172.204 29.0076 174.803 29.0076L265.169 29.0056C268.419 29.0056 271.197 31.3457 271.751 34.5504L271.827 34.9927C272.434 38.5024 269.734 41.7131 266.175 41.7131H173.465C171.336 41.7131 169.638 39.9307 169.74 37.8012L169.939 33.6477Z" fill="url(#paint20_linear)"></path><g opacity="0.3"><path opacity="0.3" d="M302.995 31.6286C302.873 31.1401 303.137 30.6285 303.62 30.453C304.675 30.0678 305.763 29.7228 306.853 29.4269C307.383 29.2835 307.929 29.5964 308.073 30.127C308.075 30.133 308.076 30.14 308.078 30.1461C308.21 30.6707 307.898 31.2063 307.374 31.3487C306.339 31.6296 305.304 31.9576 304.302 32.3237C303.786 32.5122 303.215 32.2464 303.026 31.7299C303.014 31.6958 303.004 31.6617 302.995 31.6286ZM311.417 29.5834C311.408 29.5452 311.4 29.5071 311.395 29.467C311.325 28.9214 311.709 28.4229 312.255 28.3526C313.374 28.2092 314.511 28.1119 315.632 28.0638C316.181 28.0407 316.643 28.465 316.668 29.0156C316.691 29.5653 316.265 30.0287 315.717 30.0528C314.651 30.0979 313.572 30.1912 312.507 30.3276C312.002 30.3928 311.537 30.0658 311.417 29.5834ZM320.078 29.4459C320.051 29.3386 320.042 29.2243 320.053 29.1079C320.106 28.5613 320.592 28.1601 321.139 28.2132C322.26 28.3215 323.39 28.481 324.498 28.6856C325.038 28.7859 325.394 29.3055 325.295 29.8452C325.195 30.3858 324.676 30.7429 324.137 30.6436C323.084 30.449 322.012 30.2975 320.948 30.1942C320.517 30.1531 320.177 29.8421 320.078 29.4459ZM328.554 31.2504C328.51 31.0729 328.514 30.8803 328.576 30.6937C328.751 30.1721 329.314 29.8903 329.835 30.0648C330.904 30.4219 331.97 30.8301 333.004 31.2775C333.508 31.4962 333.74 32.0809 333.522 32.5865C333.305 33.091 332.719 33.3237 332.214 33.105C331.232 32.6807 330.22 32.2926 329.204 31.9535C328.87 31.8412 328.635 31.5694 328.554 31.2504ZM336.417 34.9005C336.355 34.6517 336.388 34.3779 336.532 34.1412C336.818 33.6707 337.429 33.5223 337.898 33.8072C338.858 34.3919 339.807 35.0248 340.718 35.6909C341.162 36.0148 341.259 36.6377 340.936 37.0821C340.612 37.5264 339.99 37.6237 339.546 37.2987C338.68 36.6658 337.778 36.064 336.865 35.5083C336.632 35.3679 336.478 35.1462 336.417 34.9005ZM343.275 40.2005C343.194 39.8775 343.277 39.5225 343.524 39.2657C343.906 38.8705 344.535 38.8605 344.93 39.2426C345.739 40.026 346.525 40.8545 347.264 41.7041C347.625 42.1193 347.582 42.7472 347.167 43.1083C346.753 43.4694 346.125 43.4263 345.764 43.012C345.061 42.2046 344.315 41.4172 343.546 40.6729C343.409 40.5395 343.318 40.375 343.275 40.2005ZM354.426 75.0109C354.393 74.8775 354.387 74.7351 354.413 74.5906C354.606 73.5385 354.755 72.4642 354.856 71.397C354.908 70.8493 355.393 70.4481 355.941 70.5003C356.488 70.5524 356.889 71.0379 356.836 71.5855C356.729 72.7099 356.573 73.8414 356.37 74.9497C356.271 75.4904 355.753 75.8485 355.213 75.7491C354.816 75.6759 354.518 75.378 354.426 75.0109ZM348.786 46.8858C348.686 46.4855 348.843 46.0482 349.208 45.8095C349.668 45.5096 350.284 45.64 350.584 46.1004C351.198 47.0442 351.779 48.0272 352.311 49.0202C352.567 49.5057 352.388 50.1085 351.904 50.3683C351.42 50.6281 350.816 50.4455 350.557 49.9601C350.053 49.0162 349.5 48.0834 348.917 47.1877C348.855 47.0924 348.812 46.9901 348.786 46.8858ZM355.016 66.3587C355 66.2945 354.99 66.2283 354.987 66.1601C354.939 65.0909 354.845 64.0096 354.707 62.9464C354.636 62.4007 355.02 61.9012 355.565 61.831C356.109 61.7598 356.611 62.144 356.679 62.6896C356.824 63.808 356.924 64.9464 356.975 66.0708C356.999 66.6205 356.574 67.0859 356.026 67.11C355.545 67.1321 355.129 66.8091 355.016 66.3587ZM352.666 54.6352C352.544 54.1477 352.807 53.6372 353.289 53.4597C353.805 53.2701 354.376 53.5349 354.566 54.0515C354.953 55.1087 355.3 56.1959 355.597 57.2842C355.599 57.2913 355.601 57.2983 355.603 57.3043C355.734 57.8279 355.422 58.3635 354.9 58.5059C354.37 58.6504 353.823 58.3384 353.679 57.8078C353.397 56.7737 353.067 55.7406 352.698 54.7365C352.685 54.7034 352.674 54.6693 352.666 54.6352Z" fill="#3B597E"></path><path opacity="0.3" d="M352.552 81.7445C352.505 81.5539 352.512 81.3483 352.587 81.1507C352.77 80.6713 352.944 80.1788 353.107 79.6893C353.281 79.1677 353.844 78.8858 354.365 79.0594C354.886 79.2329 355.169 79.7966 354.994 80.3182C354.823 80.8338 354.64 81.3503 354.448 81.8558C354.254 82.3694 353.679 82.6292 353.165 82.4336C352.848 82.3152 352.628 82.0504 352.552 81.7445Z" fill="#3B597E"></path></g><g opacity="0.3"><path opacity="0.3" d="M331.585 103.672C331.469 103.205 331.703 102.711 332.159 102.515C332.63 102.314 333.106 102.098 333.571 101.876C334.067 101.639 334.661 101.849 334.897 102.346C335.135 102.844 334.923 103.436 334.428 103.673C333.938 103.906 333.438 104.133 332.941 104.346C332.436 104.562 331.852 104.328 331.635 103.822C331.614 103.773 331.597 103.723 331.585 103.672Z" fill="#3B597E"></path><path opacity="0.3" d="M278.75 77.4934C278.639 77.0491 278.535 76.6007 278.438 76.1494C278.323 75.6117 278.665 75.0821 279.202 74.9668C279.739 74.8514 280.27 75.1955 280.384 75.7311C280.607 76.7733 280.873 77.8034 281.176 78.8044C281.335 79.331 281.039 79.8867 280.513 80.0462C279.987 80.2056 279.432 79.9087 279.272 79.3822C279.085 78.7633 278.909 78.1274 278.75 77.4934ZM277.688 70.9476C277.675 70.8935 277.665 70.8373 277.661 70.7801C277.577 69.6728 277.537 68.5494 277.546 67.441C277.551 66.8913 277.999 66.449 278.549 66.453C279.098 66.457 279.542 66.9074 279.536 67.4561C279.528 68.5082 279.564 69.5755 279.644 70.6277C279.686 71.1753 279.275 71.6538 278.728 71.6959C278.238 71.735 277.804 71.41 277.688 70.9476ZM281.135 84.278C281.021 83.8226 281.243 83.3361 281.685 83.1325C282.184 82.9028 282.774 83.1215 283.004 83.621C283.443 84.5769 283.931 85.5258 284.451 86.4435C284.721 86.922 284.554 87.5298 284.077 87.8006C283.599 88.0715 282.991 87.9039 282.721 87.4265C282.173 86.4606 281.661 85.4606 281.199 84.4545C281.17 84.3963 281.15 84.3372 281.135 84.278ZM277.98 62.4168C277.949 62.2944 277.942 62.164 277.961 62.0306C278.122 60.9323 278.331 59.828 278.584 58.7487C278.709 58.2131 279.244 57.8811 279.778 58.0065C280.314 58.1318 280.645 58.6664 280.52 59.2021C280.281 60.2272 280.081 61.2763 279.929 62.3185C279.85 62.8621 279.344 63.2393 278.8 63.159C278.39 63.0999 278.076 62.796 277.98 62.4168ZM285.534 91.5831C285.441 91.21 285.569 90.7997 285.895 90.55C286.331 90.2159 286.955 90.2992 287.29 90.7355C287.928 91.57 288.612 92.3895 289.32 93.1709C289.69 93.5781 289.66 94.207 289.253 94.5771C288.846 94.9463 288.218 94.9162 287.848 94.5099C287.101 93.6875 286.383 92.8258 285.71 91.9462C285.624 91.8348 285.566 91.7115 285.534 91.5831ZM291.429 97.7447C291.354 97.4458 291.419 97.1168 291.63 96.8631C291.983 96.4418 292.611 96.3856 293.032 96.7387C293.839 97.4157 294.685 98.0667 295.545 98.6725C295.995 98.9885 296.102 99.6094 295.786 100.06C295.469 100.509 294.848 100.616 294.399 100.3C293.495 99.6625 292.605 98.9775 291.755 98.2653C291.587 98.1259 291.478 97.9423 291.429 97.7447ZM298.526 102.474C298.468 102.247 298.491 102 298.608 101.775C298.86 101.286 299.461 101.096 299.949 101.349C300.885 101.834 301.852 102.284 302.823 102.689C303.33 102.899 303.571 103.482 303.359 103.991C303.148 104.498 302.566 104.739 302.058 104.527C301.037 104.102 300.019 103.628 299.034 103.117C298.769 102.981 298.593 102.742 298.526 102.474ZM306.483 105.542C306.444 105.385 306.442 105.216 306.486 105.048C306.625 104.516 307.17 104.198 307.701 104.339C308.72 104.608 309.762 104.835 310.798 105.016C311.34 105.11 311.701 105.627 311.607 106.167C311.513 106.709 310.998 107.072 310.457 106.977C309.365 106.786 308.268 106.546 307.195 106.264C306.832 106.168 306.568 105.882 306.483 105.542ZM314.923 106.787C314.9 106.699 314.89 106.606 314.893 106.51C314.913 105.961 315.374 105.531 315.922 105.55C316.972 105.587 318.038 105.579 319.091 105.527C319.64 105.5 320.106 105.926 320.133 106.472C320.16 107.021 319.737 107.488 319.189 107.515C318.081 107.57 316.959 107.579 315.853 107.539C315.4 107.523 315.028 107.206 314.923 106.787ZM323.423 106.146C323.418 106.126 323.414 106.106 323.41 106.086C323.309 105.545 323.666 105.026 324.206 104.924C324.969 104.782 325.735 104.615 326.486 104.426C326.758 104.358 327.028 104.287 327.297 104.213C327.827 104.068 328.374 104.381 328.518 104.91C328.676 105.444 328.351 105.988 327.822 106.133C327.539 106.21 327.255 106.286 326.969 106.357C326.179 106.554 325.372 106.731 324.571 106.88C324.051 106.979 323.549 106.652 323.423 106.146Z" fill="#3B597E"></path><path opacity="0.3" d="M280.151 54.1368C280.103 53.9452 280.111 53.7365 280.187 53.5379C280.381 53.0344 280.588 52.5269 280.805 52.0264C281.023 51.5218 281.608 51.2901 282.112 51.5078C282.616 51.7265 282.849 52.3122 282.63 52.8168C282.425 53.2912 282.228 53.7747 282.044 54.2521C281.848 54.7647 281.272 55.0214 280.759 54.8238C280.445 54.7045 280.227 54.4407 280.151 54.1368Z" fill="#3B597E"></path></g><path d="M291.669 52.6351C291.55 52.7946 291.545 53.0112 291.656 53.1747L294.84 57.8559C293.785 60.2802 293.109 62.8911 292.875 65.6023L287.85 68.1982C287.674 68.2895 287.575 68.4821 287.604 68.6787L288.581 75.4C288.61 75.5966 288.759 75.7531 288.954 75.7902L294.509 76.8454C295.504 79.378 296.895 81.687 298.597 83.7102L296.879 89.1055C296.819 89.2951 296.885 89.5007 297.044 89.62L302.484 93.6813C302.644 93.7997 302.86 93.8047 303.023 93.6934L307.701 90.5067C310.123 91.5629 312.732 92.24 315.441 92.4727L318.034 97.5019C318.126 97.6784 318.318 97.7777 318.514 97.7486L325.231 96.7707C325.428 96.7426 325.584 96.5921 325.621 96.3965L326.675 90.8367C329.206 89.8407 331.513 88.4485 333.534 86.7453L338.925 88.4665C339.114 88.5267 339.32 88.4605 339.439 88.301L343.497 82.8566C343.615 82.6971 343.62 82.4804 343.509 82.3169L340.325 77.6358C341.381 75.2114 342.057 72.6005 342.291 69.8893L347.316 67.2935C347.492 67.2022 347.591 67.0096 347.562 66.813L346.585 60.0917C346.557 59.8951 346.407 59.7386 346.212 59.7015L340.657 58.6463C339.662 56.1136 338.271 53.8036 336.569 51.7815L338.289 46.3872C338.349 46.1976 338.283 45.991 338.124 45.8726L332.684 41.8113C332.525 41.693 332.309 41.688 332.145 41.7993L327.468 44.986C325.046 43.9298 322.437 43.2527 319.728 43.02L317.134 37.9908C317.043 37.8142 316.851 37.7149 316.654 37.744L309.939 38.722C309.742 38.7511 309.586 38.9005 309.549 39.0951L308.494 44.655C305.964 45.651 303.657 47.0432 301.635 48.7463L296.246 47.0251C296.056 46.9649 295.851 47.0311 295.731 47.1896L291.669 52.6351Z" fill="#3B597E"></path><path d="M310.963 69.4009C310.155 66.1721 311.815 62.7437 314.978 61.4358C318.454 59.9984 322.451 61.6604 323.887 65.14C324.584 66.8261 324.581 68.6817 323.882 70.3658C323.184 72.0499 321.871 73.3609 320.186 74.057C316.709 75.4943 312.713 73.8323 311.276 70.3528C311.148 70.0398 311.043 69.7209 310.963 69.4009ZM322.66 66.4851C322.597 66.2353 322.516 65.9896 322.417 65.7478C321.316 63.0797 318.251 61.8059 315.586 62.9082C312.92 64.0106 311.646 67.0769 312.749 69.7449C313.85 72.413 316.915 73.6869 319.58 72.5845C320.872 72.0509 321.878 71.0459 322.413 69.754C322.848 68.7048 322.931 67.5683 322.66 66.4851Z" fill="url(#paint21_linear)"></path><path d="M301.439 71.9325C301.301 71.3778 301.188 70.8131 301.105 70.2403C301.079 70.0598 301.056 69.8792 301.035 69.6977C300.935 68.804 300.905 67.9033 300.947 67.0106C300.948 66.9985 300.948 66.9865 300.949 66.9745C300.951 66.9403 300.953 66.9052 300.955 66.8711C300.959 66.8039 300.963 66.7367 300.967 66.6695C300.979 66.493 301.104 66.3516 301.267 66.3104C301.306 66.3004 301.348 66.2964 301.391 66.2994C301.61 66.3145 301.775 66.505 301.761 66.7237C301.683 67.8531 301.729 68.9976 301.893 70.126C302.707 75.734 306.354 80.2426 311.169 82.4132C313.848 83.6208 316.888 84.1043 320.005 83.6499C320.551 83.5707 321.09 83.4644 321.618 83.331C325.174 82.4393 328.29 80.368 330.512 77.387C333.064 73.9636 334.132 69.7499 333.517 65.5231C332.247 56.7936 324.124 50.7303 315.406 51.9991C314.868 52.0774 314.336 52.1827 313.813 52.3141C311.544 52.8828 309.425 53.942 307.612 55.4235C307.565 55.4616 307.513 55.4877 307.458 55.5007C307.314 55.5368 307.153 55.4897 307.053 55.3663C306.915 55.1958 306.939 54.945 307.11 54.8056C309.015 53.2509 311.238 52.1375 313.621 51.5407C314.17 51.4023 314.728 51.292 315.292 51.2097C324.446 49.8767 332.975 56.249 334.307 65.4067C334.952 69.8441 333.831 74.2675 331.152 77.8624C328.82 80.9919 325.549 83.1665 321.816 84.1023C321.26 84.2417 320.695 84.3531 320.122 84.4363C315.687 85.0813 311.268 83.9609 307.677 81.2788C304.547 78.9447 302.374 75.6698 301.439 71.9325Z" fill="url(#paint22_linear)"></path><g opacity="0.3"><path opacity="0.3" d="M269.322 5.04707C269.258 4.78929 269.367 4.50945 269.608 4.36802C270.058 4.10322 270.522 3.84945 270.987 3.61273C271.29 3.45826 271.659 3.57863 271.813 3.88155C271.968 4.18446 271.846 4.55458 271.544 4.70805C271.101 4.93373 270.659 5.17647 270.229 5.42823C269.937 5.59975 269.561 5.50245 269.389 5.20957C269.358 5.15741 269.336 5.10324 269.322 5.04707Z" fill="#3B597E"></path><path opacity="0.3" d="M273.601 3.03703C273.526 2.73511 273.689 2.41815 273.988 2.30983C274.833 2.0039 275.703 1.73809 276.572 1.52044C276.756 1.4743 276.94 1.43016 277.126 1.38803C277.456 1.31281 277.778 1.5405 277.861 1.85043C277.936 2.18144 277.73 2.51144 277.399 2.58666C277.222 2.62679 277.045 2.66891 276.87 2.71305C276.039 2.92168 275.21 3.17444 274.405 3.46633C274.085 3.58168 273.733 3.41718 273.618 3.09721C273.612 3.07715 273.606 3.05709 273.601 3.03703ZM279.82 1.61773C279.813 1.58964 279.806 1.56056 279.803 1.53047C279.769 1.19244 280.015 0.890528 280.352 0.855422C281.434 0.744085 282.534 0.698948 283.619 0.721015C283.959 0.728036 284.227 1.01089 284.22 1.34791C284.213 1.68794 283.933 1.95676 283.594 1.94974C282.559 1.92867 281.51 1.9718 280.477 2.07812C280.17 2.11022 279.893 1.90961 279.82 1.61773ZM286.197 1.75013C286.177 1.6749 286.172 1.59366 286.184 1.51241C286.234 1.17639 286.545 0.943689 286.881 0.992838C287.956 1.15031 289.034 1.377 290.083 1.66688C290.411 1.75715 290.602 2.09518 290.512 2.42317C290.422 2.75016 290.083 2.94274 289.756 2.85247C288.756 2.57663 287.729 2.35998 286.703 2.21052C286.45 2.17241 286.256 1.98484 286.197 1.75013ZM292.347 3.44727C292.316 3.3239 292.323 3.18949 292.375 3.06311C292.505 2.74916 292.865 2.60071 293.178 2.7301C294.184 3.14736 295.172 3.63082 296.117 4.16745C296.412 4.33496 296.515 4.7111 296.348 5.00599C296.18 5.30088 295.806 5.4052 295.51 5.23769C294.61 4.72614 293.667 4.26474 292.708 3.86754C292.52 3.7893 292.392 3.62982 292.347 3.44727ZM297.896 6.5968C297.853 6.42428 297.885 6.23471 297.998 6.08024C298.201 5.80741 298.585 5.75124 298.857 5.95286C299.73 6.60182 300.572 7.31097 301.358 8.06024C301.604 8.29394 301.613 8.68312 301.379 8.92987C301.144 9.17561 300.755 9.18564 300.51 8.95093C299.759 8.23577 298.956 7.55972 298.124 6.94085C298.006 6.85258 297.929 6.72921 297.896 6.5968ZM302.512 10.9971C302.456 10.7735 302.529 10.5277 302.719 10.3722C302.981 10.1566 303.368 10.1957 303.583 10.4575C304.272 11.299 304.916 12.1917 305.494 13.1115C305.674 13.4004 305.588 13.7785 305.301 13.9601C305.015 14.1416 304.635 14.0554 304.455 13.7675C303.902 12.8909 303.289 12.0403 302.633 11.2379C302.573 11.1656 302.533 11.0834 302.512 10.9971ZM305.913 16.3935C305.843 16.1136 305.978 15.8147 306.247 15.6883C306.555 15.5439 306.921 15.6763 307.065 15.9842C307.525 16.9662 307.93 17.9903 308.269 19.0274C308.369 19.3524 308.197 19.6975 307.875 19.8028C307.552 19.9081 307.206 19.7316 307.1 19.4086C306.779 18.4186 306.393 17.4426 305.954 16.5058C305.935 16.4687 305.922 16.4316 305.913 16.3935ZM308.305 25.6344C308.296 25.6003 308.291 25.5642 308.288 25.5271C308.226 24.6324 308.114 23.7267 307.954 22.833C307.931 22.6976 307.906 22.5641 307.88 22.4328C307.815 22.0997 308.031 21.7768 308.365 21.7116C308.699 21.6454 309.032 21.863 309.087 22.196C309.114 22.3375 309.141 22.4779 309.165 22.6203C309.331 23.5541 309.448 24.504 309.514 25.4419C309.538 25.7809 309.282 26.0748 308.943 26.0978C308.643 26.1189 308.376 25.9183 308.305 25.6344Z" fill="#3B597E"></path></g><g opacity="0.3"><path opacity="0.3" d="M257.393 34.077C257.312 33.751 257.507 33.42 257.832 33.3337C258.16 33.2465 258.497 33.443 258.583 33.771C258.843 34.759 259.167 35.74 259.544 36.6859C259.666 37.0008 259.517 37.3589 259.201 37.4853C258.885 37.6107 258.529 37.4572 258.402 37.1422C258.007 36.1502 257.668 35.1221 257.394 34.086C257.395 34.082 257.394 34.079 257.393 34.077ZM256.775 30.9926C256.77 30.9706 256.765 30.9495 256.762 30.9274C256.614 29.8672 256.529 28.787 256.509 27.7177C256.503 27.3777 256.773 27.0978 257.113 27.0918C257.452 27.0848 257.731 27.3576 257.739 27.6946C257.758 28.7157 257.838 29.7459 257.979 30.7579C258.027 31.0939 257.792 31.4049 257.456 31.452C257.141 31.4952 256.85 31.2935 256.775 30.9926ZM259.718 39.9076C259.652 39.6428 259.768 39.3569 260.019 39.2195C260.316 39.056 260.689 39.1644 260.853 39.4623C261.346 40.359 261.896 41.2326 262.491 42.0591C262.689 42.336 262.627 42.7191 262.351 42.9167C262.076 43.1153 261.692 43.0521 261.493 42.7763C260.87 41.9097 260.293 40.9929 259.776 40.0531C259.75 40.0069 259.731 39.9578 259.718 39.9076ZM256.664 24.7116C256.646 24.6434 256.64 24.5722 256.649 24.498C256.76 23.4327 256.938 22.3635 257.179 21.3204C257.255 20.9894 257.585 20.7827 257.915 20.859C258.245 20.9352 258.451 21.2652 258.375 21.5962C258.146 22.5912 257.976 23.6103 257.87 24.6254C257.835 24.9634 257.532 25.2081 257.195 25.173C256.932 25.1469 256.725 24.9554 256.664 24.7116ZM263.382 45.003C263.329 44.7924 263.39 44.5587 263.562 44.4012C263.811 44.1705 264.2 44.1866 264.43 44.4353C265.121 45.1856 265.865 45.9008 266.642 46.5618C266.902 46.7814 266.932 47.1696 266.713 47.4284C266.493 47.6872 266.105 47.7183 265.847 47.4986C265.032 46.8055 264.251 46.0552 263.527 45.2698C263.454 45.1916 263.406 45.0993 263.382 45.003ZM268.161 49.0693C268.121 48.9079 268.146 48.7303 268.244 48.5809C268.431 48.298 268.812 48.2198 269.095 48.4063C269.948 48.97 270.842 49.4866 271.753 49.942C272.056 50.0934 272.18 50.4636 272.027 50.7665C271.876 51.0704 271.507 51.1938 271.203 51.0413C270.248 50.5639 269.311 50.0222 268.417 49.4314C268.285 49.3452 268.197 49.2128 268.161 49.0693ZM273.776 51.8738C273.748 51.7605 273.751 51.6371 273.793 51.5188C273.906 51.1988 274.258 51.0313 274.578 51.1456C275.54 51.4887 276.532 51.7755 277.526 51.9982C277.857 52.0724 278.066 52.4014 277.991 52.7324C277.917 53.0634 277.589 53.2721 277.258 53.1978C276.215 52.9641 275.175 52.6642 274.166 52.3041C273.965 52.2319 273.824 52.0664 273.776 51.8738Z" fill="#3B597E"></path><path opacity="0.3" d="M258.083 18.564C258.054 18.4487 258.058 18.3243 258.102 18.2049C258.282 17.7104 258.478 17.2189 258.682 16.7445C258.817 16.4336 259.179 16.2891 259.49 16.4245C259.801 16.5599 259.944 16.921 259.81 17.233C259.613 17.6853 259.428 18.1548 259.255 18.6262C259.139 18.9452 258.786 19.1097 258.468 18.9933C258.269 18.9201 258.131 18.7556 258.083 18.564Z" fill="#3B597E"></path></g><path d="M265.905 17.1306C265.826 17.2369 265.823 17.3824 265.897 17.4917L268.028 20.6242C267.321 22.2461 266.868 23.9934 266.713 25.8079L263.35 27.5451C263.232 27.6063 263.166 27.7347 263.185 27.8661L263.838 32.3637C263.857 32.4951 263.958 32.6004 264.088 32.6245L267.805 33.3306C268.471 35.0258 269.402 36.5704 270.541 37.9245L269.39 41.5345C269.35 41.6609 269.394 41.7993 269.5 41.8785L273.14 44.5967C273.246 44.676 273.391 44.679 273.501 44.6048L276.63 42.4723C278.251 43.1795 279.997 43.6328 281.81 43.7883L283.546 47.1535C283.607 47.2718 283.735 47.338 283.866 47.319L288.36 46.665C288.492 46.646 288.597 46.5456 288.621 46.4153L289.326 42.695C291.02 42.029 292.563 41.0972 293.916 39.9567L297.523 41.1092C297.65 41.1493 297.788 41.1052 297.867 40.9989L300.583 37.3558C300.662 37.2495 300.665 37.1041 300.591 36.9947L298.46 33.8622C299.167 32.2403 299.62 30.493 299.775 28.6786L303.138 26.9413C303.256 26.8801 303.322 26.7517 303.303 26.6203L302.65 22.1227C302.631 21.9913 302.53 21.886 302.4 21.8619L298.683 21.1558C298.017 19.4606 297.086 17.916 295.947 16.5619L297.098 12.9519C297.138 12.8256 297.094 12.6871 296.988 12.6079L293.348 9.88967C293.242 9.81043 293.097 9.80742 292.987 9.88164L289.858 12.0141C288.237 11.307 286.491 10.8536 284.678 10.6981L282.942 7.33293C282.881 7.21457 282.753 7.14837 282.622 7.16743L278.128 7.82141C277.996 7.84047 277.891 7.94077 277.867 8.07116L277.162 11.7914C275.468 12.4574 273.925 13.3893 272.572 14.5297L268.965 13.3772C268.838 13.3371 268.7 13.3812 268.621 13.4876L265.905 17.1306Z" fill="#3B597E"></path><path d="M278.735 28.3626C278.495 27.4006 278.568 26.3906 278.955 25.4578C279.431 24.3103 280.325 23.4176 281.472 22.9432C283.839 21.9642 286.562 23.0956 287.541 25.4658C288.516 27.841 287.387 30.5612 285.019 31.5402C283.871 32.0146 282.609 32.0136 281.462 31.5372C280.316 31.0607 279.424 30.166 278.95 29.0175C278.862 28.8029 278.79 28.5842 278.735 28.3626ZM286.562 26.4127C286.522 26.2522 286.47 26.0927 286.405 25.9352C285.685 24.1919 283.682 23.3594 281.94 24.0796C281.096 24.4287 280.439 25.0856 280.089 25.9292C279.738 26.7738 279.738 27.7026 280.086 28.5481C280.435 29.3927 281.091 30.0507 281.934 30.4017C282.778 30.7528 283.707 30.7528 284.551 30.4037C286.135 29.7488 286.967 28.0306 286.562 26.4127Z" fill="url(#paint23_linear)"></path><path d="M272.103 30.1159C272.008 29.7388 271.932 29.3536 271.875 28.9604C271.762 28.1801 271.727 27.3877 271.773 26.6023C271.775 26.5672 271.778 26.5321 271.78 26.497C271.798 26.2241 271.991 26.0055 272.243 25.9423C272.304 25.9273 272.368 25.9212 272.434 25.9252C272.773 25.9483 273.027 26.2422 273.006 26.5802C272.955 27.3124 272.984 28.0537 273.091 28.7829C273.097 28.823 273.103 28.8631 273.109 28.9023C273.376 30.6255 274.063 32.2173 275.093 33.5674C275.652 34.3006 276.314 34.9616 277.066 35.5343C277.072 35.5394 277.078 35.5434 277.084 35.5484C277.104 35.5624 277.122 35.5765 277.141 35.5905C279.355 37.2435 282.08 37.9356 284.814 37.5374C285.168 37.4863 285.517 37.417 285.859 37.3318C288.161 36.754 290.178 35.413 291.616 33.4831C293.268 31.2664 293.959 28.5392 293.562 25.8029C293.163 23.0686 291.726 20.6483 289.511 18.9953C287.296 17.3423 284.571 16.6502 281.837 17.0484C281.489 17.0985 281.144 17.1667 280.807 17.252C279.337 17.6201 277.966 18.3062 276.793 19.2651C276.721 19.3243 276.638 19.3644 276.554 19.3854C276.331 19.4416 276.084 19.3684 275.929 19.1778C275.715 18.914 275.754 18.5278 276.017 18.3122C277.331 17.2389 278.865 16.4716 280.508 16.0594C280.888 15.9641 281.273 15.8878 281.662 15.8317C284.721 15.3863 287.77 16.1597 290.248 18.0103C292.726 19.8599 294.337 22.5631 294.78 25.6263C295.225 28.6876 294.453 31.7399 292.604 34.2194C290.995 36.3779 288.738 37.8784 286.162 38.5244C285.781 38.6207 285.39 38.6979 284.995 38.7551C279.071 39.6167 273.527 35.8062 272.103 30.1159Z" fill="url(#paint24_linear)"></path><path d="M353.104 188.381L221.998 126.939L212.889 146.214L343.819 209.003C346.6 210.337 349.929 209.477 351.73 206.971C353.579 204.398 355.506 200.284 356.214 193.911C356.47 191.594 355.214 189.37 353.104 188.381Z" fill="url(#paint25_linear)"></path><path d="M180.492 117.72L199.024 121.837C198.756 124.418 197.588 127.678 194.357 131.236L179.692 119.383C178.914 118.753 179.515 117.503 180.492 117.72Z" fill="url(#paint26_linear)"></path><path d="M221.998 126.939C221.65 139.537 212.889 146.215 212.889 146.215L194.357 131.236C197.588 127.678 198.756 124.417 199.024 121.837L221.998 126.939Z" fill="url(#paint27_linear)"></path><path d="M350.829 194.342C350.994 194.358 351.157 194.271 351.231 194.112C351.324 193.912 351.238 193.673 351.037 193.58L225.574 135.088C225.373 134.994 225.134 135.081 225.042 135.282C224.948 135.483 225.035 135.722 225.237 135.815L350.699 194.307C350.741 194.326 350.785 194.338 350.829 194.342Z" fill="#002857"></path><path d="M347.833 201.96C347.997 201.976 348.161 201.889 348.235 201.731C348.329 201.53 348.242 201.291 348.04 201.198L222.578 142.706C222.376 142.613 222.139 142.699 222.046 142.901C221.951 143.101 222.039 143.34 222.24 143.433L347.702 201.925C347.744 201.944 347.789 201.956 347.833 201.96Z" fill="#002857"></path><path d="M291.162 213.594L300.757 215.995L298.358 234.001C298.358 234.001 301.956 237.602 303.156 242.405C304.355 247.206 305.461 267.368 305.461 267.368L307.738 268.745L308.014 269.896L301.39 278.81L302.488 271.715C302.662 270.589 302.361 268.305 302.455 268.257C298.857 258.654 291.159 231.601 291.159 231.601V213.594H291.162Z" fill="url(#paint28_linear)"></path><path d="M288.358 270.018C288.462 270.016 288.564 270.025 288.669 270.018C288.205 264.229 286.086 238.749 283.966 229.199C281.566 218.395 287.564 196.787 287.564 196.787L298.358 207.59L292.361 227.998C296.471 234.168 291.691 270.3 291.794 270.285L291.787 270.365L293.351 272.519L293.161 273.686L283.601 279.332L287.362 273.219C287.961 272.249 288.291 271.149 288.358 270.018Z" fill="url(#paint29_linear)"></path><path d="M300.5 148.87C300.5 148.87 321.518 172.578 300.5 184.734L298.358 183.182C298.358 183.182 308.793 173.182 298.358 160.94L300.5 148.87Z" fill="url(#paint30_linear)"></path><path d="M282.972 280.218H286.023C286.594 280.218 287.132 279.955 287.481 279.503C288.432 278.266 290.403 275.853 291.345 275.791C292.613 275.705 292.451 280.219 292.451 280.219H293.162L294.063 274.611C294.289 273.2 293.589 271.803 292.322 271.142C292.322 271.142 292.032 273.287 290.46 274.237C288.887 275.186 284.063 278.585 284.063 278.585C284.063 278.585 283.471 278.501 282.823 278.618C281.86 278.792 281.994 280.218 282.972 280.218Z" fill="url(#paint31_linear)"></path><path d="M301.154 279.87L303.966 278.687C304.493 278.465 304.887 278.015 305.033 277.462C305.431 275.953 306.312 272.964 307.155 272.54C308.292 271.969 309.89 276.192 309.89 276.192L310.546 275.916L309.203 270.398C308.865 269.009 307.678 267.993 306.254 267.875C306.254 267.875 306.819 269.965 305.737 271.451C304.656 272.935 301.525 277.941 301.525 277.941C301.525 277.941 300.948 278.093 300.395 278.453C299.576 278.987 300.252 280.249 301.154 279.87Z" fill="url(#paint32_linear)"></path><path d="M284.814 178.519C284.814 178.519 285.167 180.683 284.65 186.632C284.133 192.581 281.663 206.547 282.166 219.91C282.166 219.91 289.189 221.548 301.391 220.772C301.391 220.772 306.54 199.909 305.285 191.978C304.031 184.047 297.226 178.357 297.226 178.357L284.814 178.519Z" fill="url(#paint33_linear)"></path><path d="M290.004 138.769L289.146 148.871H297.301L295.273 133.451L290.004 138.769Z" fill="url(#paint34_linear)"></path><path d="M299.717 147.474C296.903 147.319 290.61 147.031 286.151 147.275C283.804 147.403 281.838 149.088 281.358 151.391L280.27 156.606C279.866 158.549 279.926 160.559 280.447 162.474L284.814 178.519C284.814 178.519 288.699 180.855 297.227 178.356C297.227 178.356 304.716 160.482 301.65 149.048C301.412 148.159 300.634 147.524 299.717 147.474Z" fill="url(#paint35_linear)"></path><path d="M281.571 150.455C280.37 153.623 279.285 156.943 278.12 160.053C277.527 161.61 276.926 163.136 276.283 164.538C275.957 165.236 275.6 165.877 275.273 166.459C274.944 167.034 274.574 167.513 274.382 167.734C274.344 167.767 274.471 167.791 274.513 167.793C274.538 167.796 273.701 167.93 273.444 167.973L272.439 167.967C271 167.893 269.371 167.639 267.736 167.321C264.439 166.706 261.01 165.842 257.491 165.189L257.463 165.184C256.79 165.058 256.143 165.504 256.017 166.178C255.935 166.622 256.102 167.056 256.417 167.336C257.836 168.587 259.341 169.614 260.902 170.614C261.688 171.095 262.486 171.566 263.299 172.018C264.128 172.441 264.959 172.867 265.821 173.261C267.558 174.019 269.353 174.717 271.42 175.165C271.963 175.256 272.499 175.352 273.059 175.427C273.686 175.449 274.255 175.504 274.94 175.465C275.304 175.429 275.669 175.385 276.033 175.332C276.228 175.297 276.37 175.293 276.605 175.228C276.855 175.153 277.105 175.069 277.35 174.976C277.863 174.792 278.195 174.569 278.612 174.337C278.959 174.108 279.274 173.869 279.58 173.624C280.71 172.66 281.412 171.705 282.03 170.787C282.647 169.869 283.136 168.95 283.575 168.049C284.455 166.25 285.142 164.468 285.7 162.672C286.831 159.075 287.597 155.54 287.92 151.784C288.075 149.986 286.744 148.402 284.947 148.247C283.459 148.118 282.119 149.009 281.613 150.34L281.571 150.455Z" fill="url(#paint36_linear)"></path><path d="M258.598 166.803L257.143 163.345L249.483 161.436C249.483 161.436 248.871 162.765 252.088 163.345C252.088 163.345 250.938 164.616 251.551 166.112C252.164 167.606 258.674 169.104 258.598 166.803Z" fill="url(#paint37_linear)"></path><path d="M286.551 127.102C286.26 127.273 283.966 135.373 285.888 138.768C287.81 142.163 293.682 138.36 295.273 133.45C296.865 128.54 294.308 122.524 286.551 127.102Z" fill="url(#paint38_linear)"></path><path d="M301.769 133.451C303.086 139.908 307.449 138.141 310.54 141.015C315.549 145.671 322.715 140.871 329.681 145.284C334.71 148.469 337.133 156.619 334.72 163.199C331.378 172.312 319.954 176.061 314.035 173.284C308.377 170.631 309.183 162.686 301.57 159.615C298.338 158.311 296.743 159.159 294.807 157.227C291.419 153.845 292.334 147.281 292.686 144.752C293.45 139.265 295.288 138.272 294.409 135.86C292.701 131.17 284.731 132.138 284.067 128.827C283.462 125.812 289.238 120.096 294.675 120.997C303.086 122.391 301.181 130.574 301.769 133.451Z" fill="url(#paint39_linear)"></path><path d="M332.207 161.655C332.308 161.655 332.397 161.588 332.422 161.487C333.499 157.012 333.01 153.343 330.969 150.58C327.581 145.995 320.999 145.54 320.933 145.536C320.83 145.519 320.707 145.622 320.699 145.743C320.692 145.864 320.783 145.969 320.906 145.976C320.97 145.98 327.354 146.423 330.617 150.843C332.575 153.497 333.038 157.042 331.994 161.382C331.966 161.501 332.038 161.62 332.156 161.648C332.172 161.653 332.19 161.655 332.207 161.655Z" fill="#3B597E"></path><path d="M310.646 165.752C310.655 165.752 310.664 165.751 310.674 165.749C310.732 165.734 310.768 165.672 310.753 165.614C309.704 161.586 307.864 158.79 305.283 157.299C303.406 156.216 301.648 156.114 300.097 156.025C298.602 155.939 297.31 155.865 296.271 154.94C294.122 153.027 294.246 148.43 296.64 141.275C296.659 141.216 296.628 141.154 296.57 141.135C296.512 141.116 296.45 141.147 296.431 141.205C294.007 148.452 293.903 153.128 296.124 155.105C297.221 156.081 298.548 156.159 300.084 156.247C301.61 156.335 303.34 156.434 305.172 157.492C307.7 158.95 309.506 161.702 310.539 165.671C310.553 165.718 310.597 165.752 310.646 165.752Z" fill="#3B597E"></path><path d="M298.653 131.848C298.665 131.848 298.676 131.846 298.688 131.842C298.746 131.823 298.776 131.76 298.757 131.703C297.923 129.22 295.521 129.589 292.975 129.98C291.365 130.228 289.699 130.484 288.286 130.066C287.232 129.753 286.605 129.268 286.425 128.624C286.115 127.529 287.199 126.307 287.21 126.295C287.251 126.25 287.247 126.18 287.202 126.14C287.157 126.099 287.086 126.103 287.046 126.148C286.998 126.201 285.872 127.471 286.213 128.683C286.415 129.405 287.092 129.94 288.224 130.276C289.685 130.71 291.375 130.45 293.009 130.198C295.564 129.806 297.774 129.465 298.549 131.773C298.564 131.819 298.607 131.848 298.653 131.848Z" fill="#3B597E"></path></g><defs><linearGradient id="paint0_linear" x1="393.508" y1="360.72" x2="145.791" y2="53.3275" gradientUnits="userSpaceOnUse"><stop stop-color="#BAC5D2"></stop><stop offset="1" stop-color="#D6DDE4"></stop></linearGradient><linearGradient id="paint1_linear" x1="250.505" y1="46.8369" x2="204.466" y2="230.839" gradientUnits="userSpaceOnUse"><stop stop-color="#5C7593"></stop><stop offset="1" stop-color="#4A6688"></stop></linearGradient><linearGradient id="paint2_linear" x1="187.473" y1="51.9183" x2="184.561" y2="98.9289" gradientUnits="userSpaceOnUse"><stop stop-color="#002857"></stop><stop offset="1" stop-color="#143964"></stop></linearGradient><linearGradient id="paint3_linear" x1="177.299" y1="51.288" x2="174.386" y2="98.2984" gradientUnits="userSpaceOnUse"><stop stop-color="#002857"></stop><stop offset="1" stop-color="#143964"></stop></linearGradient><linearGradient id="paint4_linear" x1="199.19" y1="52.6442" x2="196.277" y2="99.6546" gradientUnits="userSpaceOnUse"><stop stop-color="#002857"></stop><stop offset="1" stop-color="#143964"></stop></linearGradient><linearGradient id="paint5_linear" x1="193.503" y1="76.9002" x2="189.447" y2="81.6279" gradientUnits="userSpaceOnUse"><stop stop-color="white"></stop><stop offset="1" stop-color="#CB236D"></stop></linearGradient><linearGradient id="paint6_linear" x1="179.932" y1="68.8986" x2="187.593" y2="44.4586" gradientUnits="userSpaceOnUse"><stop stop-color="#FCCD80"></stop><stop offset="1" stop-color="#FBAF36"></stop></linearGradient><linearGradient id="paint7_linear" x1="191.228" y1="72.4393" x2="198.889" y2="47.9993" gradientUnits="userSpaceOnUse"><stop stop-color="#FCCD80"></stop><stop offset="1" stop-color="#FBAF36"></stop></linearGradient><linearGradient id="paint8_linear" x1="209.883" y1="84.8742" x2="223.708" y2="58.2567" gradientUnits="userSpaceOnUse"><stop stop-color="#BDD0FB"></stop><stop offset="1" stop-color="#FBAF36"></stop></linearGradient><linearGradient id="paint9_linear" x1="185.673" y1="72.2991" x2="199.498" y2="45.6815" gradientUnits="userSpaceOnUse"><stop stop-color="#BDD0FB"></stop><stop offset="1" stop-color="#FBAF36"></stop></linearGradient><linearGradient id="paint10_linear" x1="186.101" y1="94.2487" x2="189.633" y2="70.6293" gradientUnits="userSpaceOnUse"><stop stop-color="#FCCD80"></stop><stop offset="1" stop-color="#FBAF36"></stop></linearGradient><linearGradient id="paint11_linear" x1="184.393" y1="99.3555" x2="186.097" y2="87.9614" gradientUnits="userSpaceOnUse"><stop stop-color="#002857"></stop><stop offset="1" stop-color="#143964"></stop></linearGradient><linearGradient id="paint12_linear" x1="189.394" y1="74.2321" x2="203.22" y2="47.6147" gradientUnits="userSpaceOnUse"><stop stop-color="#BDD0FB"></stop><stop offset="1" stop-color="#FBAF36"></stop></linearGradient><linearGradient id="paint13_linear" x1="201.657" y1="80.6015" x2="215.483" y2="53.984" gradientUnits="userSpaceOnUse"><stop stop-color="#BDD0FB"></stop><stop offset="1" stop-color="#FBAF36"></stop></linearGradient><linearGradient id="paint14_linear" x1="185.108" y1="70.5211" x2="192.769" y2="46.0808" gradientUnits="userSpaceOnUse"><stop stop-color="#FCCD80"></stop><stop offset="1" stop-color="#FBAF36"></stop></linearGradient><linearGradient id="paint15_linear" x1="177.293" y1="50.7367" x2="208.29" y2="100.104" gradientUnits="userSpaceOnUse"><stop stop-color="#002857"></stop><stop offset="1" stop-color="#143964"></stop></linearGradient><linearGradient id="paint16_linear" x1="161.643" y1="105.371" x2="152.005" y2="149.776" gradientUnits="userSpaceOnUse"><stop stop-color="#BDD0FB"></stop><stop offset="1" stop-color="#FBAF36"></stop></linearGradient><linearGradient id="paint17_linear" x1="147.723" y1="204.722" x2="210.946" y2="255.218" gradientUnits="userSpaceOnUse"><stop stop-color="#5C7593"></stop><stop offset="1" stop-color="#4A6688"></stop></linearGradient><linearGradient id="paint18_linear" x1="214.206" y1="65.318" x2="231.408" y2="-46.9094" gradientUnits="userSpaceOnUse"><stop stop-color="#002857"></stop><stop offset="1" stop-color="#143964"></stop></linearGradient><linearGradient id="paint19_linear" x1="224.13" y1="3.23822" x2="214.516" y2="97.2689" gradientUnits="userSpaceOnUse"><stop stop-color="#002857"></stop><stop offset="1" stop-color="#143964"></stop></linearGradient><linearGradient id="paint20_linear" x1="244.045" y1="-7.45506" x2="198.493" y2="76.1186" gradientUnits="userSpaceOnUse"><stop stop-color="#5C7593"></stop><stop offset="1" stop-color="#4A6688"></stop></linearGradient><linearGradient id="paint21_linear" x1="310.76" y1="67.7467" x2="324.408" y2="67.7467" gradientUnits="userSpaceOnUse"><stop stop-color="#BAC5D2"></stop><stop offset="1" stop-color="#D6DDE4"></stop></linearGradient><linearGradient id="paint22_linear" x1="300.929" y1="67.8241" x2="334.483" y2="67.8241" gradientUnits="userSpaceOnUse"><stop stop-color="#BAC5D2"></stop><stop offset="1" stop-color="#D6DDE4"></stop></linearGradient><linearGradient id="paint23_linear" x1="278.596" y1="27.2436" x2="287.891" y2="27.2436" gradientUnits="userSpaceOnUse"><stop stop-color="#BAC5D2"></stop><stop offset="1" stop-color="#D6DDE4"></stop></linearGradient><linearGradient id="paint24_linear" x1="271.753" y1="27.2927" x2="294.902" y2="27.2927" gradientUnits="userSpaceOnUse"><stop stop-color="#BAC5D2"></stop><stop offset="1" stop-color="#D6DDE4"></stop></linearGradient><linearGradient id="paint25_linear" x1="290.058" y1="165.882" x2="226.052" y2="196.175" gradientUnits="userSpaceOnUse"><stop stop-color="#002857"></stop><stop offset="1" stop-color="#143964"></stop></linearGradient><linearGradient id="paint26_linear" x1="210.294" y1="142.706" x2="186.511" y2="117.654" gradientUnits="userSpaceOnUse"><stop stop-color="#002857"></stop><stop offset="1" stop-color="#143964"></stop></linearGradient><linearGradient id="paint27_linear" x1="190.81" y1="107.394" x2="277.41" y2="215.386" gradientUnits="userSpaceOnUse"><stop stop-color="#BDD0FB"></stop><stop offset="1" stop-color="#FBAF36"></stop></linearGradient><linearGradient id="paint28_linear" x1="275.789" y1="279.926" x2="310.179" y2="224.847" gradientUnits="userSpaceOnUse"><stop stop-color="#FCCD80"></stop><stop offset="1" stop-color="#FBAF36"></stop></linearGradient><linearGradient id="paint29_linear" x1="290.913" y1="210.532" x2="290.407" y2="280.803" gradientUnits="userSpaceOnUse"><stop stop-color="#FCCD80"></stop><stop offset="1" stop-color="#FBAF36"></stop></linearGradient><linearGradient id="paint30_linear" x1="309.841" y1="166.803" x2="298.359" y2="166.803" gradientUnits="userSpaceOnUse"><stop stop-color="#FCCD80"></stop><stop offset="1" stop-color="#FBAF36"></stop></linearGradient><linearGradient id="paint31_linear" x1="300.488" y1="257.974" x2="290.427" y2="274.985" gradientUnits="userSpaceOnUse"><stop stop-color="#002857"></stop><stop offset="1" stop-color="#143964"></stop></linearGradient><linearGradient id="paint32_linear" x1="308.68" y1="252.569" x2="306.008" y2="272.155" gradientUnits="userSpaceOnUse"><stop stop-color="#002857"></stop><stop offset="1" stop-color="#143964"></stop></linearGradient><linearGradient id="paint33_linear" x1="318.999" y1="144.106" x2="290.669" y2="204.763" gradientUnits="userSpaceOnUse"><stop stop-color="#002857"></stop><stop offset="1" stop-color="#143964"></stop></linearGradient><linearGradient id="paint34_linear" x1="297.301" y1="141.161" x2="289.145" y2="141.161" gradientUnits="userSpaceOnUse"><stop stop-color="#FCCD80"></stop><stop offset="1" stop-color="#FBAF36"></stop></linearGradient><linearGradient id="paint35_linear" x1="282.608" y1="150.004" x2="325.839" y2="205.418" gradientUnits="userSpaceOnUse"><stop stop-color="#BDD0FB"></stop><stop offset="1" stop-color="#FBAF36"></stop></linearGradient><linearGradient id="paint36_linear" x1="249.452" y1="145.814" x2="320.016" y2="186.205" gradientUnits="userSpaceOnUse"><stop stop-color="#FCCD80"></stop><stop offset="1" stop-color="#FBAF36"></stop></linearGradient><linearGradient id="paint37_linear" x1="242.444" y1="158.058" x2="313.007" y2="198.449" gradientUnits="userSpaceOnUse"><stop stop-color="#FCCD80"></stop><stop offset="1" stop-color="#FBAF36"></stop></linearGradient><linearGradient id="paint38_linear" x1="299.125" y1="117.393" x2="271.31" y2="161.86" gradientUnits="userSpaceOnUse"><stop stop-color="#FCCD80"></stop><stop offset="1" stop-color="#FBAF36"></stop></linearGradient><linearGradient id="paint39_linear" x1="306.445" y1="122.629" x2="317.914" y2="189.361" gradientUnits="userSpaceOnUse"><stop stop-color="#002857"></stop><stop offset="1" stop-color="#143964"></stop></linearGradient><clipPath id="clip0"><rect width="400" height="280" fill="white"></rect></clipPath></defs></svg>