<svg xmlns="http://www.w3.org/2000/svg" width="400" height="280" viewBox="0 0 400 280" fill="none"><path d="M300.601 233.977C295.059 239.812 289.816 243.576 285.673 246.549C236.974 281.502 179.35 271.313 167.103 268.825C149.018 265.151 114.061 258.049 88.7878 228.32C50.5514 183.342 56.5055 112.481 86.1637 65.7037C91.5884 57.1471 120.245 9.65823 178.49 2.04247C213.739 -2.5663 254.827 6.72948 284.583 31.665C347.044 84.0094 342.597 189.752 300.601 233.977Z" fill="url(#paint0_linear)"></path><path d="M223.182 129.583C230.037 113.002 241.65 100.297 254.714 93.3444C266.394 87.1289 275.317 76.6826 279.364 64.098C279.789 62.7751 280.273 61.4531 280.818 60.1372C289.063 40.1956 307.961 29.0834 323.029 35.317C338.097 41.5506 343.628 62.7691 335.382 82.7107C333.697 86.7878 331.565 90.4959 329.111 93.7607C321.282 104.181 317.461 117.14 318.911 130.099C320.206 141.681 318.497 154.459 313.358 166.89C305.692 185.431 292.079 199.126 277.138 205.351C271.486 207.706 266.284 211.07 261.854 215.29C254.492 222.302 244.724 225.076 236.265 221.576C227.139 217.8 222.091 207.78 222.618 196.622C222.916 190.307 221.967 184.015 220.061 177.983C215.559 163.742 216.25 146.347 223.182 129.583Z" fill="#002857"></path><path d="M308.982 54.3478C301.565 66.7127 294.55 79.3054 287.667 91.9722C285.945 95.1377 284.274 98.3312 282.592 101.519L280.072 106.301L277.591 111.104C275.949 114.313 274.263 117.499 272.657 120.726L267.84 130.407C264.712 136.901 261.528 143.37 258.52 149.922C257.012 153.196 255.44 156.441 253.998 159.746L249.627 169.638C243.933 182.887 238.568 196.284 233.893 209.927L234.478 210.134L238.366 200.06L239.331 197.541L240.36 195.045L242.428 190.058L244.485 185.068C245.168 183.404 245.912 181.765 246.623 180.112C248.066 176.815 249.484 173.507 250.948 170.22C256.892 157.109 263.009 144.077 269.395 131.172C272.636 124.745 275.824 118.29 279.111 111.885L281.563 107.074L284.055 102.284C285.715 99.0895 287.374 95.8949 289.067 92.7174C292.397 86.3334 295.772 79.9724 299.199 73.6394C302.593 67.2884 306.048 60.9676 309.521 54.6607L308.982 54.3478Z" fill="#637C99"></path><g opacity="0.5"><path opacity="0.5" d="M319.987 96.1617C320.139 96.1617 320.288 96.0965 320.392 95.9711C332.783 80.9161 333.657 68.0086 332.209 59.8311C330.635 50.9476 326.177 45.7169 325.988 45.4983C325.798 45.2796 325.468 45.2556 325.25 45.4451C325.031 45.6347 325.007 45.9647 325.196 46.1833C325.241 46.2355 329.676 51.4521 331.187 60.0688C332.582 68.0176 331.7 80.5831 319.582 95.3061C319.399 95.5298 319.431 95.8598 319.654 96.0433C319.753 96.1226 319.87 96.1617 319.987 96.1617Z" fill="#637C99"></path></g><path d="M245.204 168.655C253.425 159.547 263.815 154.023 273.816 152.534C282.755 151.203 290.896 146.517 296.393 139.341C296.97 138.587 297.586 137.846 298.239 137.123C308.126 126.171 322.835 123.337 331.091 130.794C339.346 138.252 338.022 153.176 328.135 164.128C326.113 166.368 323.889 168.267 321.561 169.808C314.13 174.727 308.693 182.195 306.643 190.869C304.812 198.621 300.776 206.457 294.611 213.284C285.418 223.467 273.514 229.171 262.475 229.763C258.3 229.987 254.18 230.964 250.361 232.668C244.015 235.499 237.095 235.052 232.461 230.864C227.461 226.348 226.519 218.744 229.424 211.68C231.068 207.683 231.905 203.415 232.067 199.097C232.447 188.902 236.892 177.862 245.204 168.655Z" fill="#637C99"></path><path d="M317.679 139.834C310.066 146.099 302.659 152.603 295.32 159.183C293.485 160.827 291.676 162.501 289.861 164.169L287.14 166.672L284.439 169.196C282.645 170.886 280.829 172.552 279.055 174.262L273.731 179.394C270.226 182.86 266.691 186.295 263.25 189.827C261.527 191.59 259.77 193.318 258.083 195.117L252.997 200.486C246.289 207.712 239.758 215.111 233.614 222.825L233.943 223.093L238.76 217.496L239.96 216.095L241.195 214.724L243.671 211.986L246.142 209.244C246.964 208.328 247.819 207.443 248.657 206.542C250.343 204.749 252.015 202.944 253.712 201.163C260.55 194.081 267.48 187.09 274.555 180.242C278.118 176.845 281.652 173.419 285.239 170.047L287.922 167.51L290.626 164.997C292.428 163.32 294.23 161.643 296.049 159.984C299.658 156.635 303.291 153.312 306.952 150.018C310.595 146.705 314.27 143.426 317.954 140.159L317.679 139.834Z" fill="url(#paint1_linear)"></path><g opacity="0.5"><path opacity="0.5" d="M312.597 167.972C312.699 168.015 312.818 168.014 312.923 167.957C325.483 161.306 329.692 152.866 331.01 146.958C332.443 140.538 330.911 135.768 330.845 135.569C330.779 135.368 330.563 135.26 330.364 135.326C330.163 135.392 330.055 135.608 330.12 135.807C330.135 135.854 331.656 140.61 330.256 146.831C328.965 152.57 324.848 160.778 312.566 167.282C312.38 167.381 312.309 167.612 312.408 167.798C312.45 167.88 312.518 167.939 312.597 167.972Z" fill="url(#paint2_linear)"></path></g><path d="M96.1479 2.47302H283.361C288.466 2.47302 292.578 8.32752 292.485 15.4638L289.851 218.543C289.727 228.1 284.105 235.723 272.598 235.604L95.3487 232.493C92.4328 232.442 89.8268 230.671 88.6997 227.981C87.7632 225.744 86.933 222.835 86.934 219.656L87.0212 15.2251C87.0252 8.18108 91.1103 2.47302 96.1479 2.47302Z" fill="url(#paint3_linear)"></path><path d="M100.277 7.97217H280.046C284.948 7.97217 288.896 13.5348 288.808 20.3151L286.279 213.269C286.16 222.35 280.762 229.592 274.198 229.479L100.084 226.456C95.2855 226.373 91.4281 220.966 91.4311 214.327L91.5143 20.0884C91.5174 13.3954 95.439 7.97217 100.277 7.97217Z" fill="#002857"></path><path d="M288.534 36.8775H91.4301V9.96608C91.4301 8.53079 92.5933 7.36731 94.0281 7.36731H286.083C287.436 7.36731 288.534 8.46559 288.534 9.81964V36.8775V36.8775Z" fill="url(#paint4_linear)"></path><path d="M266.576 24.2978L164.318 23.3279C161.908 23.3048 159.969 21.7121 159.968 19.7552L159.967 16.345C159.967 14.8355 161.474 13.6108 163.334 13.6108H267.308C269.142 13.6108 270.589 14.8756 270.454 16.3601L269.963 21.7722C269.835 23.2085 268.351 24.3138 266.576 24.2978Z" fill="#002857"></path><path opacity="0.6" d="M279.477 54.5132H100.478C99.2903 54.5132 98.3277 53.5543 98.3277 52.3708V46.6397C98.3277 45.4491 99.3024 44.4863 100.497 44.4973L279.496 46.074C280.676 46.084 281.627 47.0409 281.627 48.2164V52.3708C281.628 53.5543 280.664 54.5132 279.477 54.5132Z" fill="white"></path><path d="M143.255 23.4525C140.347 23.4525 137.98 21.0854 137.98 18.1757C137.98 15.266 140.347 12.8989 143.255 12.8989C146.164 12.8989 148.531 15.266 148.531 18.1757C148.531 21.0854 146.164 23.4525 143.255 23.4525ZM143.255 13.5679C140.716 13.5679 138.648 15.6351 138.648 18.1757C138.648 20.7163 140.714 22.7845 143.255 22.7845C145.796 22.7845 147.862 20.7173 147.862 18.1757C147.863 15.6351 145.796 13.5679 143.255 13.5679Z" fill="#002857"></path><path d="M126.154 23.8536C123.245 23.8536 120.879 21.4865 120.879 18.5768C120.879 15.6671 123.245 13.3 126.154 13.3C129.063 13.3 131.429 15.6671 131.429 18.5768C131.429 21.4865 129.063 23.8536 126.154 23.8536ZM126.154 13.968C123.614 13.968 121.548 16.0352 121.548 18.5768C121.548 21.1174 123.614 23.1856 126.154 23.1856C128.694 23.1856 130.762 21.1184 130.762 18.5768C130.761 16.0352 128.694 13.968 126.154 13.968Z" fill="#002857"></path><path d="M109.721 23.8536C106.812 23.8536 104.445 21.4865 104.445 18.5768C104.445 15.6671 106.812 13.3 109.721 13.3C112.629 13.3 114.996 15.6671 114.996 18.5768C114.996 21.4865 112.629 23.8536 109.721 23.8536ZM109.721 13.968C107.181 13.968 105.113 16.0352 105.113 18.5768C105.113 21.1174 107.18 23.1856 109.721 23.1856C112.26 23.1856 114.327 21.1184 114.327 18.5768C114.327 16.0352 112.261 13.968 109.721 13.968Z" fill="#002857"></path><path opacity="0.6" d="M208.718 71.7939L175.241 71.5161C174.192 71.507 173.349 70.6495 173.358 69.6003L173.366 68.6665C173.374 67.6415 174.194 66.809 175.218 66.7829L208.704 65.9544C209.777 65.9284 210.66 66.7959 210.651 67.8692L210.634 69.9103C210.625 70.9594 209.767 71.8029 208.718 71.7939Z" fill="white"></path><path opacity="0.6" d="M215.934 132.644L166.646 132.234C164.98 132.219 163.641 130.858 163.655 129.191L164.065 79.8119C164.079 78.176 165.392 76.849 167.028 76.8209L215.699 77.7447C217.761 77.7838 219.406 79.4759 219.388 81.538L218.974 129.652C218.961 131.319 217.599 132.658 215.934 132.644Z" fill="white"></path><path opacity="0.6" d="M146.439 71.7939L112.961 71.5161C111.912 71.507 111.069 70.6495 111.078 69.6003L111.086 68.6665C111.094 67.6415 111.914 66.809 112.938 66.7829L146.425 65.9544C147.498 65.9284 148.38 66.7959 148.371 67.8692L148.354 69.9103C148.345 70.9594 147.488 71.8029 146.439 71.7939Z" fill="white"></path><path opacity="0.6" d="M153.654 132.644L104.366 132.234C102.701 132.219 101.362 130.858 101.375 129.191L101.785 79.8119C101.799 78.176 103.113 76.849 104.748 76.8209L153.42 77.7447C155.481 77.7838 157.127 79.4759 157.109 81.538L156.695 129.652C156.681 131.319 155.32 132.658 153.654 132.644Z" fill="white"></path><path opacity="0.6" d="M271.183 72.9624L237.706 72.6836C236.657 72.6745 235.814 71.817 235.823 70.7678L235.831 69.834C235.839 68.809 236.659 67.9765 237.683 67.9504L271.169 67.1219C272.242 67.0958 273.125 67.9634 273.116 69.0366L273.099 71.0778C273.09 72.1279 272.232 72.9704 271.183 72.9624Z" fill="white"></path><path opacity="0.6" d="M278.398 133.812L229.11 133.402C227.444 133.388 226.106 132.026 226.119 130.36L226.529 80.9802C226.543 79.3443 227.856 78.0173 229.492 77.9893L278.163 78.913C280.225 78.9521 281.871 80.6442 281.852 82.7064L281.438 130.82C281.425 132.486 280.064 133.825 278.398 133.812Z" fill="white"></path><path opacity="0.6" d="M280.66 174.071C280.66 177.383 277.95 180.055 274.639 180.006L103.468 177.496C100.617 177.454 98.3277 175.13 98.3277 172.277V142.576C98.3277 139.677 100.691 137.333 103.589 137.358L275.488 138.808C278.299 138.832 280.585 141.078 280.66 143.887V174.071V174.071Z" fill="white"></path><path opacity="0.6" d="M273.392 200.555L103.029 198.364C100.422 198.331 98.3277 196.208 98.3277 193.6V186.665C98.3277 184.886 99.7817 183.45 101.56 183.474L277.114 185.786C279.616 185.82 281.628 187.858 281.628 190.361V192.423C281.628 196.955 277.923 200.613 273.392 200.555Z" fill="white"></path><path d="M80.9166 66.4711C53.8685 100.872 59.8216 150.692 94.2136 177.748C122.166 199.737 160.302 199.92 188.126 180.746L307.617 274.748C309.601 276.308 312.248 276.746 314.629 275.906L329.194 270.77C329.445 270.681 329.686 270.577 329.921 270.465C329.987 270.434 330.052 270.398 330.117 270.364C330.292 270.274 330.464 270.178 330.629 270.075C330.685 270.039 330.743 270.004 330.798 269.968C331.005 269.832 331.205 269.687 331.395 269.532C331.398 269.53 331.401 269.528 331.404 269.525C333.437 267.864 334.494 265.189 333.997 262.481L328.751 233.851C328.427 232.083 327.469 230.494 326.056 229.382L314.087 219.967L309.161 226.233L298.879 218.144L303.806 211.879L294.187 204.312L289.654 210.076L277.159 200.246L281.691 194.482L277.035 190.819L274.702 193.786L264.227 185.545L266.56 182.578L258.412 176.169L253.486 182.435L247.666 177.856L252.592 171.59L247.548 167.622L242.622 173.888L232.535 165.952L237.461 159.687L223.283 148.532L217.21 143.755C229.281 112.189 220.117 75.16 192.164 53.1693C157.771 26.1145 107.964 32.0693 80.9166 66.4711ZM125.169 80.8701C132.133 86.3485 133.339 96.4376 127.862 103.403C122.385 110.369 112.299 111.575 105.335 106.096C98.3709 100.618 97.1646 90.53 102.642 83.5641C108.12 76.5973 118.206 75.3917 125.169 80.8701Z" fill="url(#paint5_linear)"></path><path d="M184.012 111.607L240.657 156.169L235.73 162.435L245.818 170.371L250.744 164.105L255.788 168.073L250.861 174.339L256.681 178.917L261.607 172.651L269.756 179.062L267.422 182.028L277.898 190.269L280.231 187.302L284.886 190.965L280.354 196.729L292.85 206.56L297.382 200.796L307.001 208.363L302.075 214.629L312.357 222.717L317.283 216.451L329.251 225.866C330.664 226.978 331.623 228.568 331.947 230.336L337.193 258.965C337.847 262.533 335.81 266.048 332.39 267.253L317.825 272.389C315.443 273.229 312.798 272.792 310.813 271.231L166.568 157.754L184.012 111.607Z" fill="url(#paint6_linear)"></path><path d="M97.4112 174.23C131.803 201.286 181.609 195.33 208.656 160.929C235.704 126.529 229.751 76.7077 195.359 49.6528C160.967 22.598 111.161 28.5518 84.1143 62.9536C57.0661 97.3544 63.0192 147.174 97.4112 174.23ZM108.533 102.578C101.569 97.0996 100.363 87.0115 105.841 80.0447C111.318 73.0789 121.404 71.8732 128.368 77.3516C135.332 82.83 136.538 92.9181 131.06 99.885C125.582 106.852 115.497 108.056 108.533 102.578Z" fill="url(#paint7_linear)"></path><path d="M191.323 177.228L310.815 271.23C312.799 272.792 315.445 273.229 317.827 272.389L332.392 267.252C334.589 266.478 336.201 264.747 336.91 262.666C327.428 247.09 222.31 173.596 220.081 162.372C219.288 158.379 220.146 152.745 226.479 145.014L220.407 140.237C232.478 108.67 223.314 71.6416 195.36 49.6509C160.967 22.5971 111.161 28.5519 84.1143 62.9537C57.0661 97.3545 63.0192 147.175 97.4112 174.23C125.364 196.221 163.5 196.402 191.323 177.228ZM128.367 77.3527C135.331 82.8311 136.537 92.9192 131.059 99.886C125.582 106.852 115.496 108.057 108.532 102.579C101.568 97.1007 100.362 87.0126 105.84 80.0458C111.318 73.0799 121.403 71.8743 128.367 77.3527Z" fill="url(#paint8_linear)"></path><path d="M107.022 162.006C134.664 183.752 174.695 178.965 196.434 151.316C218.173 123.666 213.389 83.6233 185.746 61.8783C158.105 40.1324 118.073 44.9197 96.3344 72.5683C74.5956 100.217 79.3805 140.26 107.022 162.006ZM108.533 102.578C101.57 97.0996 100.363 87.0115 105.841 80.0446C111.318 73.0788 121.404 71.8732 128.368 77.3516C135.332 82.83 136.538 92.9181 131.06 99.8849C125.583 106.852 115.497 108.056 108.533 102.578Z" fill="url(#paint9_linear)"></path><path d="M132.709 278.242C129.595 278.511 124.191 278.948 119.93 279.136C117.369 279.248 115.895 278.997 115.046 278.657C115.047 278.753 115.05 278.844 115.054 278.927C115.074 279.375 115.438 279.735 115.891 279.76C123.941 280.209 130.343 279.915 132.623 279.777C133.094 279.748 133.375 279.236 133.134 278.834C133.014 278.633 132.867 278.437 132.709 278.242Z" fill="url(#paint10_linear)"></path><path d="M119.93 279.136C124.191 278.948 129.594 278.511 132.709 278.242C129.648 274.485 119.93 271.953 119.93 271.953H117.186C115.299 274.674 115.025 277.266 115.046 278.658C115.895 278.998 117.369 279.249 119.93 279.136Z" fill="url(#paint11_linear)"></path><path d="M116.725 267.471L116.981 272.554C117.009 273.105 117.421 273.567 117.972 273.646C118.52 273.725 119.254 273.735 120.033 273.476C120.513 273.316 120.869 272.912 120.957 272.42L121.844 267.471H116.725V267.471Z" fill="url(#paint12_linear)"></path><path d="M81.0791 279.098C79.7284 278.909 79.1178 278.208 78.8621 277.458C78.8601 277.465 78.8591 277.471 78.8571 277.478C78.6585 278.269 79.1188 279.09 80.0393 279.479C81.1523 279.95 82.3686 280.03 83.3131 279.991C84.3269 279.949 85.2574 279.53 85.7678 278.859L85.7758 278.849C84.759 279.352 83.3302 279.413 81.0791 279.098Z" fill="url(#paint13_linear)"></path><path d="M87.4442 267.439H85.1811C81.7338 267.369 79.5689 274.641 78.86 277.458C79.1157 278.208 79.7273 278.909 81.077 279.098C83.3291 279.412 84.7569 279.352 85.7747 278.849C87.6367 276.398 88.5602 272.807 89.0044 270.712C89.5088 268.329 87.4442 267.439 87.4442 267.439Z" fill="url(#paint14_linear)"></path><path d="M85.4729 262.721L84.2165 267.721C84.0621 268.333 84.3559 268.967 84.9224 269.258C85.6253 269.619 86.615 269.998 87.5245 269.888C87.9526 269.837 88.3076 269.535 88.449 269.132L90.294 263.871L85.4729 262.721Z" fill="url(#paint15_linear)"></path><path d="M83.9739 264.165C85.5372 265.552 90.6229 265.736 90.6229 265.736C108.942 221.754 116.437 215.507 116.437 215.507C113.792 232.107 116.011 268.859 116.011 268.859C119.034 270.193 122.931 268.859 122.931 268.859C123.177 241.682 127.353 217.981 132.287 199.295C119.905 199.016 113.32 194.779 111.171 193.078C100.849 209.721 83.9739 264.165 83.9739 264.165Z" fill="url(#paint16_linear)"></path><path d="M114.314 142.498C111.971 154.191 112.81 175.121 113.362 184.666C113.518 187.349 111.645 191.07 110.132 193.607C109.894 194.005 110.04 194.515 110.453 194.726C112.986 196.029 121.571 200.066 131.521 200.569C132.184 200.602 132.776 200.151 132.948 199.509C140.328 171.944 148.901 154.331 148.901 154.331C139.436 139.214 114.314 142.498 114.314 142.498Z" fill="url(#paint17_linear)"></path><path d="M117.687 214.465C117.583 214.465 117.478 214.437 117.382 214.379C117.106 214.21 117.018 213.85 117.187 213.574C117.285 213.411 119.655 209.58 124.45 207.266C124.742 207.127 125.093 207.247 125.234 207.54C125.374 207.832 125.252 208.183 124.96 208.323C120.49 210.481 118.211 214.147 118.188 214.185C118.077 214.365 117.885 214.465 117.687 214.465Z" fill="url(#paint18_linear)"></path><path d="M99.6132 176.058C100.366 181.505 102.59 187.447 107.039 193.758L108.731 192.378C108.731 192.378 106.779 184.455 107.889 175.462C105.144 174.926 101.902 175.479 99.6132 176.058Z" fill="url(#paint19_linear)"></path><path d="M116.931 156.927L114.313 142.499C114.313 142.499 96.8236 155.872 99.6132 176.058C101.902 175.479 105.143 174.926 107.889 175.462C108.689 168.985 111.076 161.952 116.931 156.927Z" fill="url(#paint20_linear)"></path><path d="M148.9 154.331L142.148 168.874C143.24 177.655 147.955 181.451 153.04 182.907C153.357 178.905 154.368 175.673 155.307 173.436C148.81 166.727 148.9 154.331 148.9 154.331Z" fill="url(#paint21_linear)"></path><path d="M155.307 173.437C154.368 175.674 153.357 178.906 153.04 182.908C166.604 188.173 170.193 177.962 170.193 177.962L167.686 177.52C162.025 178.116 158.07 176.29 155.307 173.437Z" fill="url(#paint22_linear)"></path><path d="M142.68 136.376L139.421 148.361C139.055 149.707 137.599 150.43 136.304 149.912C134.906 149.354 133.133 148.591 131.606 147.766C129.976 146.886 129.466 144.789 130.498 143.251L137.274 133.144L142.68 136.376Z" fill="url(#paint23_linear)"></path><path d="M176.411 169.942L92.897 200.347C89.3945 201.622 87.72 205.612 89.2632 209.006L89.5169 209.564C90.8826 212.567 94.4302 213.884 97.4233 212.499L178.515 174.974L176.411 169.942Z" fill="url(#paint24_linear)"></path><g opacity="0.32"><path opacity="0.32" d="M214.797 192.147C237.566 192.147 256.023 174.017 256.023 151.653C256.023 129.289 237.566 111.159 214.797 111.159C192.028 111.159 173.57 129.289 173.57 151.653C173.57 174.017 192.028 192.147 214.797 192.147Z" fill="url(#paint25_linear)"></path></g><path d="M214.797 106.594C189.461 106.594 168.923 126.767 168.923 151.653C168.923 176.538 189.461 196.712 214.797 196.712C240.132 196.712 260.671 176.539 260.671 151.653C260.671 126.767 240.132 106.594 214.797 106.594ZM214.797 190.094C193.183 190.094 175.662 172.883 175.662 151.654C175.662 130.424 193.183 113.214 214.797 113.214C236.41 113.214 253.932 130.424 253.932 151.654C253.933 172.883 236.411 190.094 214.797 190.094Z" fill="url(#paint26_linear)"></path><path d="M172.411 157.235C172.258 157.235 172.125 157.122 172.105 156.966C171.968 155.891 171.873 154.805 171.82 153.735C171.812 153.565 171.943 153.42 172.112 153.412C172.315 153.4 172.428 153.534 172.436 153.705C172.487 154.759 172.583 155.83 172.717 156.888C172.738 157.057 172.619 157.211 172.45 157.232C172.437 157.234 172.423 157.235 172.411 157.235ZM172.726 144.636C172.708 144.636 172.69 144.634 172.672 144.631C172.504 144.601 172.393 144.441 172.423 144.274C172.944 141.374 173.776 138.523 174.898 135.801L174.899 135.8C181.512 119.753 197.174 109.384 214.799 109.384C223.017 109.384 231.006 111.668 237.903 115.989C238.048 116.079 238.091 116.27 238.001 116.414C237.911 116.56 237.721 116.602 237.576 116.513C230.777 112.253 222.901 110.002 214.799 110.002C197.425 110.002 181.986 120.222 175.47 136.037C175.468 136.038 175.468 136.038 175.468 136.039C174.363 138.721 173.542 141.528 173.031 144.384C173.002 144.53 172.872 144.636 172.726 144.636Z" fill="#002857"></path><path d="M149.81 127.271C149.84 127.477 147.092 140.947 147.092 140.947L139.436 139.214L140.144 126.059C140.144 126.059 149.313 123.825 149.81 127.271Z" fill="url(#paint27_linear)"></path><path d="M141.866 128.991L140.95 135.887C140.938 135.975 140.938 136.062 140.951 136.15C141.028 136.691 141.43 138.53 143.287 138.005C144.972 137.527 146.517 137.117 147.584 137.443C148.063 137.59 148.352 138.075 148.252 138.567C148.002 139.79 147.387 142.537 146.49 144.843C146.308 145.311 145.796 145.556 145.314 145.416C143.862 144.993 140.825 144.014 138.566 142.654C138.26 142.469 138.077 142.136 138.092 141.779C138.166 140.038 138.369 134.747 138.198 133.264C138.037 131.872 136.329 131.037 135.587 130.738C135.343 130.64 135.152 130.448 135.055 130.205C134.711 129.343 134.238 127.35 136.749 126.533C137.274 126.362 137.552 125.794 137.364 125.275C136.992 124.239 136.836 122.658 138.778 121.787C140.753 120.902 142.228 121.955 143.025 122.81C143.347 123.156 143.863 123.21 144.263 122.957C144.491 122.813 144.783 122.766 145.137 122.987C145.615 123.284 146.246 123.081 146.492 122.577C146.965 121.606 147.929 120.566 149.862 120.897C153.292 121.484 153.681 125.287 152.776 127.516C151.871 129.744 148.188 128.896 146.34 127.772C144.935 126.918 143.112 127.813 142.32 128.292C142.071 128.442 141.905 128.7 141.866 128.991Z" fill="url(#paint28_linear)"></path><path d="M137.89 135.777C137.89 135.777 139.301 131.827 137.851 130.86C136.402 129.892 134.256 130.394 134.728 133.257C135.317 136.816 137.89 135.777 137.89 135.777Z" fill="url(#paint29_linear)"></path><path d="M108.034 192.139L115.929 191.495L119.349 194.647C119.349 194.647 118.539 195.766 116.011 195.123C113.482 194.48 110.017 194.322 110.017 194.322C110.017 194.322 106.526 195.897 106.484 192.951L108.034 192.139Z" fill="url(#paint30_linear)"></path><path d="M169.188 179.83C169.871 180.364 172.211 179.249 173.642 178.48C174.339 178.105 174.677 177.289 174.438 176.533C174.093 175.447 173.519 174.044 172.812 173.867C171.638 173.573 166.375 177.632 169.188 179.83Z" fill="url(#paint31_linear)"></path><path d="M94.5445 211.329C94.5114 211.329 94.4774 211.324 94.4433 211.312C91.1814 210.184 90.4224 208.256 90.3602 206.837C90.271 204.764 91.5735 202.839 93.6 202.048L103.628 198.137C103.784 198.075 103.964 198.153 104.026 198.312C104.088 198.471 104.01 198.65 103.851 198.711L93.8226 202.622C92.0418 203.317 90.8977 204.999 90.9759 206.81C91.0531 208.595 92.2874 209.914 94.6448 210.728C94.8052 210.785 94.8905 210.959 94.8343 211.121C94.7912 211.249 94.6729 211.329 94.5445 211.329Z" fill="#002857"></path><path d="M106.83 197.528C106.706 197.528 106.59 197.454 106.543 197.332C106.481 197.173 106.559 196.994 106.718 196.933L108.019 196.427C108.174 196.365 108.356 196.444 108.418 196.602C108.48 196.762 108.402 196.94 108.243 197.001L106.942 197.508C106.905 197.521 106.867 197.528 106.83 197.528Z" fill="#002857"></path><defs><linearGradient id="paint0_linear" x1="366.975" y1="352.178" x2="125.623" y2="52.5194" gradientUnits="userSpaceOnUse"><stop stop-color="#A6B4C4"></stop><stop offset="1" stop-color="#C9D2DC"></stop></linearGradient><linearGradient id="paint1_linear" x1="233.613" y1="181.463" x2="317.953" y2="181.463" gradientUnits="userSpaceOnUse"><stop stop-color="#A6B4C4"></stop><stop offset="1" stop-color="#C9D2DC"></stop></linearGradient><linearGradient id="paint2_linear" x1="312.363" y1="151.654" x2="331.62" y2="151.654" gradientUnits="userSpaceOnUse"><stop stop-color="#A6B4C4"></stop><stop offset="1" stop-color="#C9D2DC"></stop></linearGradient><linearGradient id="paint3_linear" x1="90.4004" y1="229.902" x2="448.748" y2="-180.886" gradientUnits="userSpaceOnUse"><stop stop-color="#1C4069"></stop><stop offset="1" stop-color="#032A59"></stop></linearGradient><linearGradient id="paint4_linear" x1="226.499" y1="-88.6851" x2="169.06" y2="87.2279" gradientUnits="userSpaceOnUse"><stop stop-color="#53D8FF"></stop><stop offset="1" stop-color="#002857"></stop></linearGradient><linearGradient id="paint5_linear" x1="225.89" y1="137.289" x2="172.064" y2="221.014" gradientUnits="userSpaceOnUse"><stop stop-color="#FBAF36"></stop><stop offset="1" stop-color="#FCBB54"></stop></linearGradient><linearGradient id="paint6_linear" x1="184.309" y1="285.349" x2="267.045" y2="179.075" gradientUnits="userSpaceOnUse"><stop stop-color="#FBAF36"></stop><stop offset="1" stop-color="#FCBB54"></stop></linearGradient><linearGradient id="paint7_linear" x1="104.664" y1="29.6355" x2="292.567" y2="400.114" gradientUnits="userSpaceOnUse"><stop stop-color="#FDD18C"></stop><stop offset="1" stop-color="#DEFAFD"></stop></linearGradient><linearGradient id="paint8_linear" x1="79.7516" y1="254.309" x2="272.3" y2="117.959" gradientUnits="userSpaceOnUse"><stop stop-color="#FDD390"></stop><stop offset="1" stop-color="#FCC56C"></stop></linearGradient><linearGradient id="paint9_linear" x1="177.88" y1="-28.3022" x2="131.238" y2="179.272" gradientUnits="userSpaceOnUse"><stop stop-color="#FBAF36"></stop><stop offset="1" stop-color="#FCBB54"></stop></linearGradient><linearGradient id="paint10_linear" x1="115.046" y1="279.121" x2="133.222" y2="279.121" gradientUnits="userSpaceOnUse"><stop stop-color="#1C4069"></stop><stop offset="1" stop-color="#032A59"></stop></linearGradient><linearGradient id="paint11_linear" x1="115.045" y1="275.558" x2="132.709" y2="275.558" gradientUnits="userSpaceOnUse"><stop stop-color="#005C90"></stop><stop offset="1" stop-color="#146999"></stop></linearGradient><linearGradient id="paint12_linear" x1="116.724" y1="270.583" x2="121.844" y2="270.583" gradientUnits="userSpaceOnUse"><stop stop-color="#FEE3B9"></stop><stop offset="1" stop-color="#FDD390"></stop></linearGradient><linearGradient id="paint13_linear" x1="78.8105" y1="278.729" x2="85.7759" y2="278.729" gradientUnits="userSpaceOnUse"><stop stop-color="#1C4069"></stop><stop offset="1" stop-color="#032A59"></stop></linearGradient><linearGradient id="paint14_linear" x1="78.8601" y1="273.365" x2="89.0839" y2="273.365" gradientUnits="userSpaceOnUse"><stop stop-color="#005C90"></stop><stop offset="1" stop-color="#146999"></stop></linearGradient><linearGradient id="paint15_linear" x1="84.1753" y1="266.314" x2="90.294" y2="266.314" gradientUnits="userSpaceOnUse"><stop stop-color="#FEE3B9"></stop><stop offset="1" stop-color="#FDD390"></stop></linearGradient><linearGradient id="paint16_linear" x1="46.7178" y1="310.563" x2="127.122" y2="219.621" gradientUnits="userSpaceOnUse"><stop stop-color="#005C90"></stop><stop offset="1" stop-color="#146999"></stop></linearGradient><linearGradient id="paint17_linear" x1="181.782" y1="82.6999" x2="95.4159" y2="213.873" gradientUnits="userSpaceOnUse"><stop stop-color="#1C4069"></stop><stop offset="1" stop-color="#032A59"></stop></linearGradient><linearGradient id="paint18_linear" x1="104.795" y1="243.648" x2="107.728" y2="237.783" gradientUnits="userSpaceOnUse"><stop stop-color="#1C4069"></stop><stop offset="1" stop-color="#032A59"></stop></linearGradient><linearGradient id="paint19_linear" x1="112.208" y1="177.101" x2="90.4209" y2="196.388" gradientUnits="userSpaceOnUse"><stop stop-color="#FEE3B9"></stop><stop offset="1" stop-color="#FDD390"></stop></linearGradient><linearGradient id="paint20_linear" x1="166.671" y1="72.751" x2="80.3051" y2="203.924" gradientUnits="userSpaceOnUse"><stop stop-color="#1C4069"></stop><stop offset="1" stop-color="#032A59"></stop></linearGradient><linearGradient id="paint21_linear" x1="199.731" y1="94.5181" x2="113.365" y2="225.691" gradientUnits="userSpaceOnUse"><stop stop-color="#1C4069"></stop><stop offset="1" stop-color="#032A59"></stop></linearGradient><linearGradient id="paint22_linear" x1="153.04" y1="178.926" x2="170.194" y2="178.926" gradientUnits="userSpaceOnUse"><stop stop-color="#FEE3B9"></stop><stop offset="1" stop-color="#FDD390"></stop></linearGradient><linearGradient id="paint23_linear" x1="123.494" y1="156.959" x2="142.883" y2="136.072" gradientUnits="userSpaceOnUse"><stop stop-color="#FEE3B9"></stop><stop offset="1" stop-color="#FDD390"></stop></linearGradient><linearGradient id="paint24_linear" x1="104.727" y1="191.495" x2="194.554" y2="191.495" gradientUnits="userSpaceOnUse"><stop stop-color="#005C90"></stop><stop offset="1" stop-color="#146999"></stop></linearGradient><linearGradient id="paint25_linear" x1="173.571" y1="151.653" x2="256.024" y2="151.653" gradientUnits="userSpaceOnUse"><stop stop-color="#CCE0F4"></stop><stop offset="0.0641" stop-color="#C3DCF2"></stop><stop offset="0.1706" stop-color="#A9D2EE"></stop><stop offset="0.3066" stop-color="#80C2E7"></stop><stop offset="0.4649" stop-color="#47ACDE"></stop><stop offset="0.5674" stop-color="#1E9CD7"></stop><stop offset="0.8652" stop-color="#0075BE"></stop><stop offset="0.9944" stop-color="#005B97"></stop></linearGradient><linearGradient id="paint26_linear" x1="168.923" y1="151.653" x2="260.671" y2="151.653" gradientUnits="userSpaceOnUse"><stop stop-color="#005C90"></stop><stop offset="1" stop-color="#146999"></stop></linearGradient><linearGradient id="paint27_linear" x1="146.76" y1="127.803" x2="134.128" y2="150.703" gradientUnits="userSpaceOnUse"><stop stop-color="#FEE3B9"></stop><stop offset="1" stop-color="#FDD390"></stop></linearGradient><linearGradient id="paint28_linear" x1="132.384" y1="131.237" x2="187.094" y2="138.152" gradientUnits="userSpaceOnUse"><stop stop-color="#005C90"></stop><stop offset="1" stop-color="#146999"></stop></linearGradient><linearGradient id="paint29_linear" x1="134.232" y1="136.507" x2="144.9" y2="121.857" gradientUnits="userSpaceOnUse"><stop stop-color="#FEE3B9"></stop><stop offset="1" stop-color="#FDD390"></stop></linearGradient><linearGradient id="paint30_linear" x1="120.809" y1="186.817" x2="99.0222" y2="206.104" gradientUnits="userSpaceOnUse"><stop stop-color="#FEE3B9"></stop><stop offset="1" stop-color="#FDD390"></stop></linearGradient><linearGradient id="paint31_linear" x1="171.045" y1="176.911" x2="177.188" y2="176.911" gradientUnits="userSpaceOnUse"><stop stop-color="#FEE3B9"></stop><stop offset="1" stop-color="#FDD390"></stop></linearGradient></defs></svg>