<svg xmlns="http://www.w3.org/2000/svg" width="400" height="280" viewBox="0 0 400 280" fill="none"><g clip-path="url(#clip0)"><path opacity="0.3" d="M305.375 241.65C298.203 249.048 291.785 253.397 286.872 256.68C238.95 288.7 184.171 279.471 167.234 276.316C139.909 271.227 116.843 267.637 97.025 249.72C51.9916 209.008 54.1821 124.078 88.5917 71.4681C92.6719 65.2301 127.03 14.2661 181.928 7.0851C183.271 6.9091 184.273 6.8091 185.15 6.7161C193.642 5.8161 246.269 1.06711 289.182 37.0441C295.325 42.1941 305.21 51.4831 314.377 65.6501C347.896 117.452 348.002 197.681 305.375 241.65Z" fill="url(#paint0_linear)"></path><path d="M80.2234 4.76222C79.7737 3.36923 81.3976 2.22623 82.5688 3.10223C94.4677 11.9972 123.733 39.3542 123.258 92.9921C122.662 160.289 139.212 182.951 158.08 195.784C158.08 195.784 133.674 191.503 116.039 168.603C72.7425 112.376 88.22 29.5262 80.2234 4.76222Z" fill="url(#paint1_linear)"></path><path d="M90.7501 24.5712C92.9297 31.8092 94.9653 39.0862 96.7321 46.4282C98.5368 53.7592 100.119 61.1412 101.469 68.5622C102.79 75.9882 103.972 83.4372 104.837 90.9252C105.734 98.4092 106.31 105.923 106.861 113.47C107.454 121.009 108.008 128.607 109.342 136.172C110.667 143.722 112.912 151.235 116.464 158.115C117.351 159.829 118.272 161.534 119.286 163.168C120.269 164.821 121.325 166.431 122.411 168.021C124.597 171.191 126.996 174.222 129.611 177.061C134.854 182.726 140.955 187.587 147.518 191.544C148.209 191.96 149.106 191.738 149.523 191.046C149.932 190.367 149.724 189.489 149.062 189.063L149.057 189.06C147.489 188.053 145.933 187.028 144.428 185.938C143.666 185.405 142.931 184.839 142.184 184.287C141.46 183.708 140.712 183.156 140.007 182.555C137.144 180.199 134.448 177.645 131.956 174.904C126.949 169.453 122.732 163.224 119.328 156.658C117.662 153.355 116.243 149.934 115.092 146.416C113.942 142.897 113.062 139.284 112.387 135.618C111.036 128.282 110.425 120.766 109.778 113.232C109.121 105.697 108.409 98.1292 107.387 90.6032C106.886 86.8392 106.318 83.0842 105.682 79.3422C105.375 77.4692 105.032 75.6022 104.693 73.7352C104.335 71.8712 103.967 70.0102 103.584 68.1512C102.039 60.7212 100.268 53.3412 98.266 46.0282C96.2294 38.7242 93.9999 31.4772 91.4946 24.3282C91.4227 24.1242 91.1998 24.0162 90.995 24.0882C90.7971 24.1582 90.6902 24.3722 90.7501 24.5712Z" fill="white"></path><path d="M133.478 217.104C132.931 219.745 129.867 220.968 127.633 219.458C115.312 211.127 82.6008 184.421 78.0759 133.25C74.2555 90.0378 68.0797 66.9698 64.5511 56.6928C63.8046 54.5198 66.2649 52.6558 68.1556 53.9618C89.0084 68.3598 153.311 121.416 133.478 217.104Z" fill="url(#paint2_linear)"></path><path d="M129.869 217.646C129.819 217.691 129.764 217.731 129.705 217.766C129.205 218.063 128.56 217.898 128.263 217.399C127.926 216.832 94.5308 160.035 86.5053 100.192C86.4283 99.6159 86.832 99.0859 87.4086 99.0079C87.9842 98.9309 88.5139 99.3349 88.5918 99.9119C96.5574 159.319 129.738 215.76 130.072 216.323C130.333 216.763 130.237 217.317 129.869 217.646Z" fill="white"></path><path d="M116.897 14.745C116.623 59.322 115.867 213.081 118.146 267.531C118.386 273.3 122.408 277.872 127.34 277.987C151.735 278.555 241.147 279.58 280.996 277.022C289.296 276.489 295.783 268.514 295.809 258.781C295.936 211.994 295.791 80.408 290.541 20.207C289.912 12.994 284.985 7.31604 278.814 6.68804C252.217 3.97704 162.341 -2.27595 127.928 0.859044C121.722 1.42404 116.942 7.45504 116.897 14.745Z" fill="url(#paint3_linear)"></path><path d="M127.981 28.254C127.208 64.242 124.864 183.964 126.841 228.192C127.129 234.656 131.562 239.821 137.087 240.115C159.831 241.331 237.402 243.598 270.682 239.974C276.675 239.321 281.297 233.569 281.516 226.527C282.655 189.806 285.833 78.314 283.918 34.581C283.612 27.604 278.908 21.974 272.957 21.438C248.337 19.224 165.872 14.313 137.579 16.548C132.268 16.967 128.115 22.023 127.981 28.254Z" fill="url(#paint4_linear)"></path><path opacity="0.5" d="M177.062 7.90902C177.082 9.27702 178.01 10.391 179.178 10.445C184.942 10.712 201.178 11.467 208.436 11.85C209.867 11.925 210.966 10.404 210.671 8.76302L210.62 8.48302C210.418 7.36302 209.609 6.52902 208.635 6.44002C203.726 5.98802 188.918 4.75202 179.127 5.30902C177.95 5.37502 177.041 6.53102 177.062 7.90902Z" fill="white"></path><path d="M123.6 64.1869C137.397 64.1869 148.582 52.9945 148.582 39.1879C148.582 25.3814 137.397 14.189 123.6 14.189C109.803 14.189 98.6178 25.3814 98.6178 39.1879C98.6178 52.9945 109.803 64.1869 123.6 64.1869Z" fill="url(#paint5_linear)"></path><path d="M117.542 30.882C117.542 30.238 117.02 29.715 116.376 29.715H112.145C111.501 29.715 110.978 30.237 110.978 30.882V49.3439C110.978 49.9879 111.5 50.5109 112.145 50.5109H116.376C117.019 50.5109 117.542 49.9889 117.542 49.3439V30.882Z" fill="white"></path><path d="M131.864 29.7147H127.75V24.7357C127.75 23.1177 126.798 22.0527 125.181 22.0527H125.077C123.46 22.0527 122.149 23.2407 122.149 24.8587L120.704 29.8507C120.06 29.8507 119 30.3117 119 30.9557V50.0927C119 50.7367 120.598 51.6037 121.243 51.6037H122.15H131.865C134.284 51.6037 136.136 49.2977 136.136 46.8777V34.1727C136.136 31.7517 134.284 29.7147 131.864 29.7147Z" fill="white"></path><path d="M155.196 129.37C166.768 129.37 176.148 119.983 176.148 108.404C176.148 96.8248 166.768 87.438 155.196 87.438C143.625 87.438 134.245 96.8248 134.245 108.404C134.245 119.983 143.625 129.37 155.196 129.37Z" fill="url(#paint6_linear)"></path><path d="M156.511 105.135C156.945 105.653 160.241 107.62 156.512 110.768C156.335 111.109 156.832 111.989 157.181 111.877C162.549 108.194 157.511 103.607 156.958 104.057C156.407 104.506 156.008 104.532 156.511 105.135Z" fill="white"></path><path d="M158.747 114.098C158.828 114.785 159.296 115.431 159.896 115.238C160.488 115.048 168.141 108.492 159.513 101.19C159.407 101.1 159.271 101.057 159.133 101.069C158.995 101.081 158.867 101.148 158.778 101.254C158.501 101.586 158.315 101.87 158.36 102.237C165.932 108.919 158.667 113.411 158.747 114.098Z" fill="white"></path><path d="M161.033 117.511C160.935 117.999 161.302 118.996 162.104 118.739C174.65 107.2 161.5 96.9227 160.969 97.2997C160.439 97.6767 160.419 98.4407 160.598 98.7487C172.376 107.936 161.131 117.023 161.033 117.511Z" fill="white"></path><path d="M153.502 99.3098C153.401 99.2688 153.296 99.2928 153.219 99.3708L148.877 103.819C148.83 103.867 148.768 103.896 148.701 103.9L145.09 104.081C144.735 104.099 144.449 104.38 144.424 104.736L143.972 111.256C143.946 111.633 144.222 111.963 144.597 112.005L148.718 112.463C148.777 112.47 148.832 112.495 148.874 112.536L153.236 116.707C153.314 116.781 153.407 116.802 153.506 116.76C153.604 116.718 153.646 116.62 153.646 116.513V99.5588C153.646 99.4498 153.602 99.3508 153.502 99.3098Z" fill="white"></path><path d="M93.6244 270C93.6244 270 93.0547 273.056 92.7609 276.084C92.646 277.267 93.5484 278.304 94.7356 278.365C98.7669 278.572 107.391 278.981 110.488 278.872C110.954 278.856 111.262 278.382 111.094 277.947C110.954 277.583 110.678 277.287 110.325 277.12L96.1376 270.43L93.6244 270Z" fill="url(#paint7_linear)"></path><path d="M93.1985 268.197L93.5983 271.863C93.5983 271.863 96.0836 273.05 97.8004 271.757L96.8061 267.666L93.1985 268.197Z" fill="url(#paint8_linear)"></path><path d="M94.1819 199.354C93.985 200.309 92.7199 247.066 97.5156 268.071C97.5936 268.414 97.4177 268.765 97.0909 268.894C96.3214 269.2 94.8155 269.639 93.0147 269.683C92.4571 269.696 91.9604 269.329 91.8085 268.792C90.4265 263.916 83.817 239.489 83.1464 216.208C82.3969 190.194 83.1544 215.323 83.1544 215.323L83.8929 199.254L94.1819 199.354Z" fill="url(#paint9_linear)"></path><path d="M77.2165 271.441C77.2165 271.441 76.3411 272.978 75.4697 277.077C75.3118 277.817 75.8234 278.532 76.5749 278.613C77.905 278.757 79.9536 278.945 81.5965 278.949C82.354 278.951 82.9506 278.297 82.8666 277.544C82.6987 276.043 82.1561 273.578 80.4233 271.645L77.2165 271.441Z" fill="url(#paint10_linear)"></path><path d="M76.506 266.724L77.4673 272.272C77.4673 272.272 78.4636 273.028 80.4533 272.506L80.0256 266.543L76.506 266.724Z" fill="url(#paint11_linear)"></path><path d="M74.3953 200.6C70.0743 225.235 74.7001 261.592 76.309 268.715C76.408 269.151 76.7557 269.488 77.1954 269.565C77.9429 269.696 79.1741 269.809 80.3923 269.468C80.812 269.35 81.1098 268.975 81.1308 268.54C81.4106 262.797 81.3416 227.521 85.2819 213.617C85.4818 212.912 85.9185 212.3 86.5191 211.882L93.958 206.696L94.6056 198.205L74.3953 200.6Z" fill="url(#paint12_linear)"></path><path d="M100.875 154.096C88.6337 153.777 75.0909 157.067 75.0909 157.067C71.2385 178.342 74.0156 202.951 74.0156 202.951C83.4712 205.529 94.2019 201.623 94.2019 201.623C95.8628 192.731 103.452 167.733 103.452 167.733C109.441 167.047 114.385 165.367 118.465 163.122C115.403 159.502 113.988 154.919 113.38 152.212C109.039 153.517 104.651 154.195 100.875 154.096Z" fill="url(#paint13_linear)"></path><path d="M137.214 136.395C136.024 134.93 134.496 135.603 134.496 135.603C132.621 143.202 123.114 149.287 113.38 152.213C113.987 154.92 115.404 159.503 118.465 163.123C134.66 154.214 137.214 136.395 137.214 136.395Z" fill="url(#paint14_linear)"></path><path d="M136.918 136.761C137.04 137.163 135.577 137.758 134.734 136.113C134.712 135.328 134.267 131.961 134.741 131.326C137.27 127.945 142.149 123.723 142.149 123.723C142.96 124.538 142.278 125.325 142.278 125.325L139.908 127.75C140.39 128.643 140.982 129.398 141.253 130.474C141.458 131.289 141.32 132.157 140.902 132.893C140.483 133.632 139.912 134.592 139.373 135.343C138.353 136.764 136.918 136.761 136.918 136.761Z" fill="url(#paint15_linear)"></path><path d="M138.865 129.328L136.709 131.122L136.02 132.922L137.907 135.057C137.907 135.057 138.583 131.478 139.066 130.707C139.551 129.937 139.307 129.559 138.865 129.328Z" fill="url(#paint16_linear)"></path><path d="M79.6738 168.976L75.0909 157.067C75.0909 157.067 63.5797 164.734 61.6051 174.575C63.7646 174.755 67.6909 175.355 71.5213 177.336C72.4117 172.689 79.6738 168.976 79.6738 168.976Z" fill="url(#paint17_linear)"></path><path d="M89.562 180.235C89.562 180.235 76.6528 187.374 72.3788 181.132C71.4914 179.836 71.2885 178.554 71.5223 177.336C67.6919 175.355 63.7656 174.755 61.6061 174.575C61.0105 177.542 61.2803 180.706 62.9951 183.917C70.4521 197.882 91.2319 183.419 91.2319 183.419L89.562 180.235Z" fill="url(#paint18_linear)"></path><path d="M88.5677 144.031L84.5644 155.268C84.4984 155.454 84.5724 155.662 84.7443 155.759C85.8006 156.357 89.61 158.091 94.2488 155.21C94.7325 154.91 95.0642 154.416 95.1422 153.852L96.4963 144.106L88.5677 144.031Z" fill="url(#paint19_linear)"></path><path d="M97.1438 133.672C97.1438 133.672 101.345 141.771 100.765 145.021C100.186 148.271 94.8863 147.987 90.2815 145.299L87.1296 136.567L97.1438 133.672Z" fill="url(#paint20_linear)"></path><path d="M90.5274 141.027C90.7163 140.945 90.7882 140.716 90.6773 140.542C90.3395 140.015 89.7069 138.94 89.5111 138.002C89.5111 138.002 88.7466 137.502 91.4797 136.875C94.2129 136.248 98.2881 135.273 99.1645 132.959C100.019 130.703 97.8844 124.988 94.3488 129.491C94.2139 129.662 93.954 129.664 93.8231 129.49C93.2575 128.739 91.7675 127.177 89.668 128.095C87.7043 128.954 87.4695 130.386 87.4894 131.11C87.4954 131.323 87.3036 131.486 87.0957 131.444C86.1084 131.246 83.737 131.061 82.6068 133.486C81.6754 135.484 82.258 136.625 82.7926 137.186C82.9655 137.368 82.8866 137.663 82.6457 137.734C81.9942 137.927 81.1498 138.47 81.2187 139.995C81.3147 142.102 83.67 141.939 84.3406 141.85C84.4505 141.835 84.5604 141.874 84.6344 141.957C85.203 142.599 87.7653 145.325 90.5644 145.677C90.8072 145.708 90.9971 145.47 90.9201 145.238L89.7409 141.7C89.686 141.536 89.7659 141.357 89.9248 141.288L90.5274 141.027Z" fill="url(#paint21_linear)"></path><path d="M91.01 141.533C91.01 141.533 87.984 139.413 87.7442 141.172C87.5054 142.931 90.4624 143.749 91.9383 143.107L91.01 141.533Z" fill="url(#paint22_linear)"></path><path d="M86.9238 191.517L93.956 166.942C94.036 166.663 94.2738 166.46 94.5616 166.426C95.8358 166.277 99.5282 165.86 103.79 165.499C108.925 165.064 114.888 164.712 118.451 165.012C118.958 165.055 119.264 165.591 119.039 166.047C117.012 170.149 108.678 186.836 104.504 192.302C104.366 192.483 104.152 192.589 103.924 192.587L87.6084 192.435C87.1327 192.43 86.7929 191.974 86.9238 191.517Z" fill="url(#paint23_linear)"></path><path d="M88.6228 185.58C88.6228 185.58 87.6435 181.549 88.0382 180.119C88.4329 178.689 89.1994 176.85 91.7507 177.259C94.3029 177.668 97.3129 178.743 97.3129 178.743C97.3129 178.743 97.161 180.606 95.2213 180.005L96.4245 180.936C96.4245 180.936 96.2526 182.427 94.6147 181.631L95.7329 182.866C95.7329 182.866 95.0294 184.091 93.8242 183.305C92.6181 182.52 92.0405 186.065 88.6228 185.58Z" fill="url(#paint24_linear)"></path><path d="M103.322 172.835C103.322 173.976 104.246 174.901 105.386 174.901C106.527 174.901 107.451 173.976 107.451 172.835C107.451 171.694 106.527 170.769 105.386 170.769C104.246 170.769 103.322 171.694 103.322 172.835Z" fill="url(#paint25_linear)"></path><path d="M94.7496 174.196L94.227 174.042L95.659 169.182C95.8919 168.391 96.5294 167.797 97.3239 167.632C101.862 166.684 113.815 166.49 114.321 166.483L114.329 167.028C114.205 167.03 101.923 167.229 97.4348 168.166C96.8382 168.291 96.3575 168.739 96.1817 169.337L94.7496 174.196Z" fill="white"></path><path d="M299.055 106.677C313.016 106.677 324.333 95.3519 324.333 81.3819C324.333 67.4119 313.016 56.0869 299.055 56.0869C285.095 56.0869 273.778 67.4119 273.778 81.3819C273.778 95.3519 285.095 106.677 299.055 106.677Z" fill="url(#paint26_linear)"></path><path d="M309.895 74.3379C307.152 71.6399 302.875 72.4519 299.93 74.9259C299.508 75.2809 298.896 75.2849 298.468 74.9369C295.484 72.5149 291.211 71.7779 288.515 74.5219C285.588 77.5019 285.63 82.2909 288.607 85.2199L298.57 95.0189C299.022 95.4639 299.75 95.4579 300.195 95.0049L309.987 85.0349C312.914 82.0559 312.872 77.2669 309.895 74.3379Z" fill="white"></path><path d="M195.304 92.9792C207.763 92.9792 217.864 82.872 217.864 70.4042C217.864 57.9364 207.763 47.8292 195.304 47.8292C182.845 47.8292 172.744 57.9364 172.744 70.4042C172.744 82.872 182.845 92.9792 195.304 92.9792Z" fill="url(#paint27_linear)"></path><path d="M201.658 63.0331C201.658 66.5261 198.828 70.2971 195.338 70.2971C191.847 70.2971 189.017 66.5261 189.017 63.0331C189.017 59.5401 191.847 57.0621 195.338 57.0621C198.828 57.0621 201.658 59.5401 201.658 63.0331Z" fill="white"></path><path d="M187.494 83.7459H202.924C204.548 83.7459 205.986 82.6959 206.481 81.1479L207.312 78.5509C207.919 76.6499 206.931 74.5909 205.057 73.9059C198.778 71.6089 192.285 71.9029 185.633 74.1179C183.77 74.7379 182.736 76.7329 183.25 78.6289L183.89 80.9869C184.331 82.6159 185.808 83.7459 187.494 83.7459Z" fill="white"></path><path d="M136.957 173.918C136.957 173.918 153.309 217.073 158.475 226.05C164.472 236.471 181.986 229.83 181.115 221.109C180.243 212.388 159.781 176.34 159.781 176.34L136.957 173.918Z" fill="url(#paint28_linear)"></path><path d="M159.052 142.482L260.685 107.22L259.617 202.644L156.274 179.57L159.052 142.482Z" fill="url(#paint29_linear)"></path><path d="M260.779 204.248C266.294 204.248 270.765 182.292 270.765 155.209C270.765 128.125 266.294 106.17 260.779 106.17C255.265 106.17 250.794 128.125 250.794 155.209C250.794 182.292 255.265 204.248 260.779 204.248Z" fill="url(#paint30_linear)"></path><path d="M261.538 200.894C260.636 199.975 258.67 196.432 256.984 187.27C255.355 178.416 254.458 166.931 254.458 154.932C254.458 142.933 255.355 131.448 256.984 122.594C258.67 113.432 260.636 109.889 261.538 108.97C262.44 109.889 264.406 113.432 266.092 122.594C267.721 131.448 268.618 142.933 268.618 154.932C268.618 166.931 267.721 178.416 266.092 187.27C264.406 196.432 262.44 199.976 261.538 200.894Z" fill="url(#paint31_linear)"></path><path d="M274.336 154.567C274.336 162.899 269.85 169.654 260.973 169.654C252.095 169.654 244.898 162.899 244.898 154.567C244.898 146.235 252.095 139.48 260.973 139.48C269.85 139.48 274.336 146.234 274.336 154.567Z" fill="url(#paint32_linear)"></path><path d="M142.66 140.43C147.441 139.874 154.297 139.674 161.709 141.373C159.267 154.139 159.635 167.445 162.459 181.223H141.552C138.218 181.223 135.376 178.8 134.856 175.505C133.814 168.901 132.541 157.8 133.899 148.885C134.58 144.412 138.167 140.953 142.66 140.43Z" fill="url(#paint33_linear)"></path><path d="M155.207 150.208H138.917C138.365 150.208 137.877 149.918 137.612 149.432C137.348 148.946 137.369 148.378 137.67 147.914C137.796 147.72 138.055 147.665 138.25 147.79C138.444 147.916 138.5 148.175 138.374 148.37C138.243 148.572 138.234 148.82 138.349 149.032C138.464 149.244 138.677 149.37 138.918 149.37H155.208C155.565 149.37 155.856 149.079 155.856 148.722V147.562C155.856 147.205 155.565 146.914 155.208 146.914H138.796C138.565 146.914 138.378 146.726 138.378 146.495C138.378 146.264 138.566 146.076 138.796 146.076H155.206C156.026 146.076 156.692 146.743 156.692 147.562V148.722C156.692 149.541 156.027 150.208 155.207 150.208Z" fill="white"></path><path d="M153.754 157.427H137.465C136.913 157.427 136.425 157.137 136.16 156.651C135.896 156.165 135.917 155.597 136.218 155.133C136.344 154.939 136.603 154.884 136.798 155.009C136.992 155.135 137.048 155.394 136.922 155.589C136.791 155.792 136.782 156.039 136.897 156.251C137.012 156.463 137.225 156.589 137.466 156.589H153.756C154.113 156.589 154.404 156.298 154.404 155.941V154.781C154.404 154.424 154.113 154.133 153.756 154.133H137.344C137.113 154.133 136.926 153.945 136.926 153.714C136.926 153.483 137.114 153.295 137.344 153.295H153.754C154.574 153.295 155.24 153.962 155.24 154.782V155.942C155.24 156.76 154.574 157.427 153.754 157.427Z" fill="white"></path><path d="M173.82 139.899C173.642 139.899 173.478 139.785 173.421 139.607C173.351 139.386 173.473 139.151 173.693 139.08L250.668 114.568C250.888 114.498 251.124 114.62 251.195 114.84C251.265 115.061 251.143 115.296 250.923 115.367L173.948 139.879C173.905 139.893 173.862 139.899 173.82 139.899Z" fill="white"></path><path d="M163.41 144.157C163.245 144.157 163.088 144.059 163.022 143.896C162.934 143.682 163.037 143.437 163.251 143.349L167.212 141.729C167.426 141.641 167.671 141.744 167.759 141.959C167.847 142.173 167.744 142.418 167.53 142.506L163.569 144.126C163.517 144.147 163.463 144.157 163.41 144.157Z" fill="white"></path><path d="M155.207 165.882H138.917C138.365 165.882 137.877 165.592 137.612 165.106C137.348 164.62 137.369 164.052 137.67 163.588C137.796 163.393 138.055 163.339 138.25 163.464C138.444 163.59 138.5 163.849 138.374 164.044C138.243 164.247 138.233 164.494 138.349 164.706C138.464 164.918 138.677 165.044 138.917 165.044H155.207C155.564 165.044 155.855 164.753 155.855 164.396V163.236C155.855 162.879 155.564 162.588 155.207 162.588H138.796C138.565 162.588 138.378 162.4 138.378 162.169C138.378 161.938 138.566 161.75 138.796 161.75H155.206C156.026 161.75 156.692 162.417 156.692 163.236V164.396C156.692 165.215 156.027 165.882 155.207 165.882Z" fill="white"></path><path d="M156.732 175.266H140.443C139.891 175.266 139.403 174.976 139.138 174.49C138.874 174.004 138.895 173.436 139.196 172.972C139.322 172.777 139.581 172.723 139.776 172.848C139.97 172.974 140.026 173.233 139.9 173.428C139.769 173.631 139.759 173.878 139.875 174.09C139.99 174.302 140.202 174.428 140.443 174.428H156.733C157.09 174.428 157.381 174.137 157.381 173.78V172.62C157.381 172.263 157.09 171.972 156.733 171.972H140.322C140.091 171.972 139.904 171.784 139.904 171.553C139.904 171.322 140.092 171.134 140.322 171.134H156.732C157.552 171.134 158.218 171.801 158.218 172.62V173.78C158.218 174.599 157.552 175.266 156.732 175.266Z" fill="white"></path><path d="M171.281 226.29C170.531 226.29 169.772 226.209 169.015 226.044C165.703 225.322 163.007 223.137 161.618 220.048L148.604 191.116C148.509 190.905 148.603 190.657 148.814 190.562C149.025 190.467 149.272 190.561 149.367 190.772L162.381 219.704C163.661 222.547 166.143 224.559 169.193 225.224C172.19 225.878 175.223 225.102 177.515 223.095C177.638 222.988 177.761 222.877 177.885 222.764C178.056 222.608 178.321 222.62 178.476 222.791C178.632 222.962 178.62 223.227 178.45 223.383C178.321 223.501 178.193 223.615 178.066 223.726C176.152 225.402 173.763 226.29 171.281 226.29Z" fill="white"></path><path d="M147.061 187.085C146.901 187.085 146.748 186.993 146.679 186.838L145.227 183.61C145.132 183.399 145.226 183.151 145.437 183.056C145.648 182.961 145.896 183.055 145.991 183.266L147.443 186.493C147.538 186.704 147.444 186.952 147.233 187.048C147.177 187.073 147.119 187.085 147.061 187.085Z" fill="white"></path><path d="M271.956 154.132C271.738 154.132 271.554 153.963 271.538 153.743C271.248 149.66 269.834 146.617 267.335 144.696C263.013 141.375 256.845 142.516 256.783 142.529C256.554 142.572 256.336 142.424 256.293 142.197C256.249 141.97 256.397 141.75 256.624 141.706C256.891 141.654 263.227 140.484 267.845 144.031C270.543 146.104 272.066 149.351 272.373 153.683C272.389 153.914 272.216 154.114 271.985 154.131C271.976 154.132 271.966 154.132 271.956 154.132Z" fill="white"></path><path d="M312.737 180.581C326.493 180.581 337.644 169.422 337.644 155.657C337.644 141.892 326.493 130.733 312.737 130.733C298.981 130.733 287.83 141.892 287.83 155.657C287.83 169.422 298.981 180.581 312.737 180.581Z" fill="url(#paint34_linear)"></path><path d="M312.8 173.342C311.227 173.342 309.802 172.538 308.987 171.191C304.395 163.6 298.921 153.602 298.921 149.081C298.921 142.015 305.147 136.267 312.799 136.267C320.451 136.267 326.677 142.015 326.677 149.081C326.677 153.603 321.203 163.6 316.611 171.191C315.798 172.538 314.373 173.342 312.8 173.342ZM312.8 138.045C306.128 138.045 300.698 142.996 300.698 149.082C300.698 152.243 304.273 159.967 310.507 170.272C310.996 171.082 311.854 171.566 312.8 171.566C313.746 171.566 314.604 171.082 315.093 170.272C321.327 159.967 324.902 152.244 324.902 149.082C324.902 142.996 319.472 138.045 312.8 138.045Z" fill="white"></path><path d="M311.725 158.028C306.98 158.028 303.121 154.166 303.121 149.418C303.121 148.927 303.518 148.529 304.009 148.529C304.5 148.529 304.897 148.927 304.897 149.418C304.897 153.186 307.96 156.251 311.726 156.251C315.491 156.251 318.554 153.186 318.554 149.418C318.554 145.65 315.491 142.585 311.726 142.585C309.548 142.585 307.552 143.588 306.248 145.337C305.956 145.731 305.399 145.812 305.005 145.518C304.613 145.225 304.532 144.668 304.824 144.274C306.442 142.103 309.023 140.807 311.726 140.807C316.471 140.807 320.33 144.67 320.33 149.417C320.33 154.164 316.47 158.028 311.725 158.028Z" fill="white"></path><path d="M246.705 59.5891C260.461 59.5891 271.612 48.4302 271.612 34.6651C271.612 20.8999 260.461 9.74109 246.705 9.74109C232.949 9.74109 221.798 20.8999 221.798 34.6651C221.798 48.4302 232.949 59.5891 246.705 59.5891Z" fill="url(#paint35_linear)"></path><g opacity="0.9"><path opacity="0.9" d="M247.15 48.9361C238.913 48.9361 232.213 42.2311 232.213 33.9891C232.213 25.7471 238.913 19.0421 247.15 19.0421C255.386 19.0421 262.087 25.7471 262.087 33.9891C262.087 42.2311 255.386 48.9361 247.15 48.9361ZM247.15 21.5481C240.293 21.5481 234.716 27.1291 234.716 33.9901C234.716 40.8511 240.293 46.4321 247.15 46.4321C254.005 46.4321 259.583 40.8511 259.583 33.9901C259.583 27.1291 254.006 21.5481 247.15 21.5481Z" fill="white"></path><path opacity="0.9" fill-rule="evenodd" clip-rule="evenodd" d="M242.471 39.7461V29.0001C242.471 27.8521 243.72 27.1401 244.707 27.7261L253.755 33.0991C254.722 33.6731 254.722 35.0731 253.755 35.6471L244.707 41.0201C243.72 41.6061 242.471 40.8941 242.471 39.7461Z" fill="white"></path></g></g><defs><linearGradient id="paint0_linear" x1="363.711" y1="324.685" x2="169.277" y2="117.848" gradientUnits="userSpaceOnUse"><stop stop-color="#91A3B7"></stop><stop offset="1" stop-color="white"></stop></linearGradient><linearGradient id="paint1_linear" x1="57.9045" y1="81.5085" x2="180.77" y2="116.806" gradientUnits="userSpaceOnUse"><stop stop-color="#5C7593"></stop><stop offset="1" stop-color="white"></stop></linearGradient><linearGradient id="paint2_linear" x1="88.8361" y1="214.725" x2="109.451" y2="59.1597" gradientUnits="userSpaceOnUse"><stop stop-color="#5C7593"></stop><stop offset="1" stop-color="white"></stop></linearGradient><linearGradient id="paint3_linear" x1="290.33" y1="311.409" x2="114.447" y2="-31.0825" gradientUnits="userSpaceOnUse"><stop stop-color="#294A72"></stop><stop offset="1" stop-color="#002857"></stop></linearGradient><linearGradient id="paint4_linear" x1="250.667" y1="67.0371" x2="-111.727" y2="544.917" gradientUnits="userSpaceOnUse"><stop stop-color="#FBAF36"></stop><stop offset="1" stop-color="white"></stop></linearGradient><linearGradient id="paint5_linear" x1="86.2874" y1="86.3669" x2="216.95" y2="-78.6216" gradientUnits="userSpaceOnUse"><stop stop-color="#DEFAFD"></stop><stop offset="1" stop-color="#426083"></stop></linearGradient><linearGradient id="paint6_linear" x1="169.392" y1="79.3478" x2="139.676" y2="140.09" gradientUnits="userSpaceOnUse"><stop stop-color="#DEFAFD"></stop><stop offset="1" stop-color="#426083"></stop></linearGradient><linearGradient id="paint7_linear" x1="110.159" y1="265.927" x2="57.4004" y2="322.193" gradientUnits="userSpaceOnUse"><stop stop-color="#294A72"></stop><stop offset="1" stop-color="#002857"></stop></linearGradient><linearGradient id="paint8_linear" x1="93.1819" y1="269.984" x2="97.817" y2="270.028" gradientUnits="userSpaceOnUse"><stop stop-color="#F9B776"></stop><stop offset="1" stop-color="#F47960"></stop></linearGradient><linearGradient id="paint9_linear" x1="109.068" y1="403.876" x2="89.2865" y2="216.083" gradientUnits="userSpaceOnUse"><stop stop-color="#667E9A"></stop><stop offset="0.9964" stop-color="#1A3E68"></stop></linearGradient><linearGradient id="paint10_linear" x1="98.5555" y1="255.044" x2="45.7943" y2="311.312" gradientUnits="userSpaceOnUse"><stop stop-color="#294A72"></stop><stop offset="1" stop-color="#002857"></stop></linearGradient><linearGradient id="paint11_linear" x1="76.479" y1="269.587" x2="80.4809" y2="269.625" gradientUnits="userSpaceOnUse"><stop stop-color="#F9B776"></stop><stop offset="1" stop-color="#F47960"></stop></linearGradient><linearGradient id="paint12_linear" x1="103.171" y1="404.498" x2="83.3896" y2="216.705" gradientUnits="userSpaceOnUse"><stop stop-color="#667E9A"></stop><stop offset="0.9964" stop-color="#1A3E68"></stop></linearGradient><linearGradient id="paint13_linear" x1="131.716" y1="88.3002" x2="77.3724" y2="199.822" gradientUnits="userSpaceOnUse"><stop stop-color="#DEFAFD"></stop><stop offset="1" stop-color="#426083"></stop></linearGradient><linearGradient id="paint14_linear" x1="113.409" y1="149.157" x2="137.09" y2="149.382" gradientUnits="userSpaceOnUse"><stop stop-color="#F9B776"></stop><stop offset="1" stop-color="#F47960"></stop></linearGradient><linearGradient id="paint15_linear" x1="163.138" y1="112.19" x2="125.002" y2="141.869" gradientUnits="userSpaceOnUse"><stop stop-color="#F9B776"></stop><stop offset="1" stop-color="#F47960"></stop></linearGradient><linearGradient id="paint16_linear" x1="137.129" y1="133.361" x2="143.862" y2="123.227" gradientUnits="userSpaceOnUse"><stop stop-color="#F9B776"></stop><stop offset="1" stop-color="#F47960"></stop></linearGradient><linearGradient id="paint17_linear" x1="114.934" y1="80.1228" x2="60.5909" y2="191.644" gradientUnits="userSpaceOnUse"><stop stop-color="#DEFAFD"></stop><stop offset="1" stop-color="#426083"></stop></linearGradient><linearGradient id="paint18_linear" x1="61.2718" y1="182.228" x2="91.2395" y2="182.512" gradientUnits="userSpaceOnUse"><stop stop-color="#F9B776"></stop><stop offset="1" stop-color="#F47960"></stop></linearGradient><linearGradient id="paint19_linear" x1="84.5882" y1="150.388" x2="96.4369" y2="150.501" gradientUnits="userSpaceOnUse"><stop stop-color="#F9B776"></stop><stop offset="1" stop-color="#F47960"></stop></linearGradient><linearGradient id="paint20_linear" x1="99.3266" y1="142.985" x2="86.3699" y2="134.918" gradientUnits="userSpaceOnUse"><stop stop-color="#F9B776"></stop><stop offset="1" stop-color="#F47960"></stop></linearGradient><linearGradient id="paint21_linear" x1="79.5589" y1="126.463" x2="96.271" y2="139.913" gradientUnits="userSpaceOnUse"><stop stop-color="#294A72"></stop><stop offset="1" stop-color="#002857"></stop></linearGradient><linearGradient id="paint22_linear" x1="95.8768" y1="145.917" x2="84.2194" y2="138.659" gradientUnits="userSpaceOnUse"><stop stop-color="#F9B776"></stop><stop offset="1" stop-color="#F47960"></stop></linearGradient><linearGradient id="paint23_linear" x1="99.2751" y1="163.173" x2="115.832" y2="232.115" gradientUnits="userSpaceOnUse"><stop stop-color="#294A72"></stop><stop offset="1" stop-color="#002857"></stop></linearGradient><linearGradient id="paint24_linear" x1="87.9442" y1="181.413" x2="97.3132" y2="181.413" gradientUnits="userSpaceOnUse"><stop stop-color="#F9B776"></stop><stop offset="1" stop-color="#F47960"></stop></linearGradient><linearGradient id="paint25_linear" x1="105.939" y1="170.527" x2="103.465" y2="180.83" gradientUnits="userSpaceOnUse"><stop stop-color="#DEFAFD"></stop><stop offset="1" stop-color="#426083"></stop></linearGradient><linearGradient id="paint26_linear" x1="-356.757" y1="-615.962" x2="1038.73" y2="865.877" gradientUnits="userSpaceOnUse"><stop stop-color="#DEFAFD"></stop><stop offset="1" stop-color="#426083"></stop></linearGradient><linearGradient id="paint27_linear" x1="181.044" y1="86.1571" x2="259.029" y2="0.127691" gradientUnits="userSpaceOnUse"><stop stop-color="#DEFAFD"></stop><stop offset="1" stop-color="#426083"></stop></linearGradient><linearGradient id="paint28_linear" x1="133.581" y1="233.146" x2="169.343" y2="185.205" gradientUnits="userSpaceOnUse"><stop stop-color="#294A72"></stop><stop offset="1" stop-color="#002857"></stop></linearGradient><linearGradient id="paint29_linear" x1="193.755" y1="117.154" x2="258.86" y2="233.029" gradientUnits="userSpaceOnUse"><stop stop-color="white"></stop><stop offset="1" stop-color="#264870"></stop></linearGradient><linearGradient id="paint30_linear" x1="403.595" y1="104.62" x2="331.91" y2="129.978" gradientUnits="userSpaceOnUse"><stop stop-color="#5C7593"></stop><stop offset="1" stop-color="white"></stop></linearGradient><linearGradient id="paint31_linear" x1="196.873" y1="235.735" x2="285.884" y2="124.661" gradientUnits="userSpaceOnUse"><stop stop-color="white"></stop><stop offset="1" stop-color="#264870"></stop></linearGradient><linearGradient id="paint32_linear" x1="284.431" y1="140.659" x2="231.561" y2="171.514" gradientUnits="userSpaceOnUse"><stop stop-color="#294A72"></stop><stop offset="1" stop-color="#002857"></stop></linearGradient><linearGradient id="paint33_linear" x1="148.628" y1="178.509" x2="146.01" y2="112.667" gradientUnits="userSpaceOnUse"><stop stop-color="#294A72"></stop><stop offset="1" stop-color="#002857"></stop></linearGradient><linearGradient id="paint34_linear" x1="289.504" y1="188.683" x2="397.891" y2="34.8178" gradientUnits="userSpaceOnUse"><stop stop-color="#DEFAFD"></stop><stop offset="1" stop-color="#426083"></stop></linearGradient><linearGradient id="paint35_linear" x1="225.639" y1="69.1063" x2="297.565" y2="-48.327" gradientUnits="userSpaceOnUse"><stop stop-color="#DEFAFD"></stop><stop offset="1" stop-color="#426083"></stop></linearGradient><clipPath id="clip0"><rect width="400" height="280" fill="white"></rect></clipPath></defs></svg>