<svg xmlns="http://www.w3.org/2000/svg" id="Layer_1" data-name="Layer 1" viewBox="0 0 512 512" width="512" height="512">
    <path d="M303.459,75.173h68.447a6,6,0,0,0,0-12H303.459a6,6,0,0,0,0,12Z" />
    <path d="M272.29,75.173H282.1a6,6,0,0,0,0-12H272.29a6,6,0,0,0,0,12Z" />
    <path d="M189.781,266.416H259.4a6,6,0,0,0,0-12H189.781a6,6,0,0,0,0,12Z" />
    <path d="M157.646,266.416h9.943a6,6,0,0,0,0-12h-9.943a6,6,0,0,0,0,12Z" />
    <path d="M371.906,187.218h-7.447a6,6,0,0,0,0,12h7.447a6,6,0,0,0,0-12Z" />
    <path d="M272.29,199.218H342.1a6,6,0,0,0,0-12H272.29a6,6,0,0,0,0,12Z" />
    <path d="M371.906,147.332H309.329a6,6,0,0,0,0,12h62.577a6,6,0,1,0,0-12Z" />
    <path d="M272.29,159.332h15.03a6,6,0,0,0,0-12H272.29a6,6,0,0,0,0,12Z" />
    <path d="M371.906,107.446H358.949a6,6,0,0,0,0,12h12.957a6,6,0,0,0,0-12Z" />
    <path d="M272.29,119.446h64.525a6,6,0,0,0,0-12H272.29a6,6,0,0,0,0,12Z" />
    <path d="M322.1,330.113h65.457a6,6,0,0,0,0-12H322.1a6,6,0,0,0,0,12Z" />
    <path d="M291.518,330.113h9.132a6,6,0,0,0,0-12h-9.132a6,6,0,0,0,0,12Z" />
    <path d="M147.744,330.113H269.781a6,6,0,0,0,0-12H147.744a6,6,0,1,0,0,12Z" />
    <path d="M387.556,351.019H362.122a6,6,0,0,0,0,12h25.434a6,6,0,1,0,0-12Z" />
    <path d="M192.662,357.019a6,6,0,0,0,6,6H340.277a6,6,0,1,0,0-12H198.662A6,6,0,0,0,192.662,357.019Z" />
    <path d="M147.744,363.019h28.845a6,6,0,0,0,0-12H147.744a6,6,0,0,0,0,12Z" />
    <path
        d="M475.327,427.238V167.248a29.7,29.7,0,0,0-29.72-29.616H402.875l-.3-88.708A27.987,27.987,0,0,0,374.591,21H269.128A28.015,28.015,0,0,0,241.8,42.924H162.285a36.788,36.788,0,0,0-36.79,36.7v58.005H70.748a29.7,29.7,0,0,0-29.719,29.616V426.779A32.12,32.12,0,0,0,42.24,491H469.76a32.113,32.113,0,0,0,5.567-63.762ZM253.142,48.924A15.973,15.973,0,0,1,269.128,33H374.591a15.978,15.978,0,0,1,15.986,15.944l.55,163.78a15.973,15.973,0,0,1-15.986,15.923L246.274,230.83a32.7,32.7,0,0,0,7.167-20.463Zm-11.7,161.455a20.951,20.951,0,0,1-20.194,20.875l-.819.014a20.956,20.956,0,0,1-20.918-20.909l-.434-130.871a36.51,36.51,0,0,0-9.619-24.564h51.7ZM137.5,79.627a24.791,24.791,0,0,1,49.581-.1l.032,9.557c-.171-.015-.344-.026-.519-.026H157.646a6,6,0,0,0,0,12h28.943c.188,0,.374-.011.558-.028l.144,43.191a6.026,6.026,0,0,0-.7-.045H157.646a6,6,0,0,0,0,12h28.943a6.04,6.04,0,0,0,.741-.05l.143,43.241a5.99,5.99,0,0,0-.884-.072H157.646a6,6,0,1,0,0,12h28.943a6.087,6.087,0,0,0,.942-.081,32.962,32.962,0,0,0,32.945,32.051c.363,0,.724-.006,1.085-.018l70.955-1.2.167,31.631A15.955,15.955,0,0,1,276.7,289.661H153.48A15.972,15.972,0,0,1,137.5,273.738ZM153.48,301.661H276.7a27.954,27.954,0,0,0,27.986-28.036l-.168-31.78,70.68-1.2A27.989,27.989,0,0,0,403.127,212.7l-.074-22.156h20.932V390.2H92.37V190.548H125.5v83.19A27.986,27.986,0,0,0,153.48,301.661ZM70.748,149.632H125.5v28.916H90.643A10.274,10.274,0,0,0,80.37,188.8V391.945A10.275,10.275,0,0,0,90.643,402.2h335.07a10.274,10.274,0,0,0,10.272-10.253V188.8a10.274,10.274,0,0,0-10.272-10.252h-22.7l-.1-28.916h42.692a17.688,17.688,0,0,1,17.72,17.616v259.5H324.353a17.855,17.855,0,0,0-17.86,17.808,5.841,5.841,0,0,1-5.859,5.808H205.756a5.841,5.841,0,0,1-5.86-5.808,17.855,17.855,0,0,0-17.86-17.808H53.029v-259.5A17.688,17.688,0,0,1,70.748,149.632ZM484.12,473.057A20.161,20.161,0,0,1,469.76,479H42.24a20.126,20.126,0,1,1,0-40.252h139.8a5.841,5.841,0,0,1,5.86,5.808,17.853,17.853,0,0,0,17.86,17.808h94.878a17.854,17.854,0,0,0,17.859-17.808,5.841,5.841,0,0,1,5.86-5.808H469.76A20.212,20.212,0,0,1,490,458.854,19.938,19.938,0,0,1,484.12,473.057Z" />
</svg>