<?xml version="1.0" encoding="utf-8"?>
<!-- Generator: Adobe Illustrator 21.0.0, SVG Export Plug-In . SVG Version: 6.00 Build 0)  -->
<svg version="1.1" id="Capa_1" xmlns="http://www.w3.org/2000/svg" xmlns:xlink="http://www.w3.org/1999/xlink" x="0px" y="0px"
	 viewBox="0 0 512 512" style="enable-background:new 0 0 512 512;" xml:space="preserve">
<g>
	<g>
		<path d="M512,116.1c0-4.2-3.4-7.5-7.5-7.5s-7.5,3.4-7.5,7.5v197.8c0,9-7.3,16.4-16.4,16.4c-9,0-16.4-7.3-16.4-16.4V43.8
			c0-9,7.3-16.4,16.4-16.4c9,0,16.4,7.3,16.4,16.4v37c0,4.2,3.4,7.5,7.5,7.5s7.5-3.4,7.5-7.5v-37c0-17.3-14.1-31.4-31.4-31.4
			s-31.4,14.1-31.4,31.4v7.8c-32.7,36.2-79.2,56.9-128,56.9c-25,0-89.3,0-112.7,0c-13.7,0-25,10-27.1,23.1H180
			c-27.3,0-49.4,22.1-49.4,49.4s22.1,49.4,49.4,49.4l0,0h2.4c1.3,4.1,3.6,7.8,6.7,10.9c5.2,5.2,12.1,8.1,19.4,8.1h1.1v13.4
			c-19.3,2-36.8,11.6-48.9,27c-10,11.1-13.9,22.5-28.8,26.8v-9.2c0-8.9-7.2-16.1-16.1-16.1H90.2c-7.5,0-13.8,5.1-15.6,12.1H16.3
			c-9,0-16.3,7.3-16.3,16.3v151.8c0,9,7.3,16.3,16.3,16.3h58.4c1.8,6.9,8.1,12.1,15.6,12.1h25.4c8.9,0,16.1-7.2,16.1-16.1v-10.9
			c5.3,0.3,11.1-0.9,19.3,2.3c14.6,4.7,42.9,22.6,89.8,22.6h48.9c13.7,0,24.9-11.2,24.9-24.9v-11.1c0-4.4-1.2-8.6-3.2-12.2
			c8.5-4,14.3-12.6,14.3-22.6v-11.1c0-4.8-1.4-9.3-3.7-13.1c7.5-4.3,12.6-12.4,12.6-21.6v-11.1c0-5.3-1.7-10.3-4.6-14.4
			c6.4-4.5,10.6-12,10.6-20.4v-11.1c0-13.7-11.2-24.9-24.9-24.9h-20.4l7-49.7c4.8,0,13.9,0,18.7,0l0,0c48.8,0,95.3,20.7,128,56.9
			v7.8c0,17.3,14.1,31.4,31.4,31.4c17.4,0,31.4-14.1,31.4-31.4L512,116.1z M179.9,215.2c-18.9,0-34.3-15.4-34.3-34.3
			c0-19,15.3-34.3,34.3-34.3h1v68.6C180.4,215.2,180.5,215.2,179.9,215.2L179.9,215.2z M208.4,234.2c-3.3,0-6.4-1.3-8.8-3.6
			c-2.1-2.1-3.4-4.9-3.6-7.8l0,0c0-102.9-0.1-84.6-0.1-86.8c0-6.9,5.6-12.4,12.4-12.4h89.2v110.7L208.4,234.2z M116.8,483.5
			c0,0.6-0.5,1.1-1.1,1.1H90.2c-0.6,0-1.1-0.5-1.1-1.1V377.7c0-4.2-3.4-7.5-7.5-7.5s-7.5,3.4-7.5,7.5v94.9H16.3
			c-0.7,0-1.2-0.6-1.2-1.2V319.5c0-0.7,0.6-1.2,1.2-1.2h57.8v24.2c0,4.2,3.4,7.5,7.5,7.5s7.5-3.4,7.5-7.5v-35.2
			c0-0.6,0.5-1.1,1.1-1.1h25.4c0.6,0,1.1,0.5,1.1,1.1L116.8,483.5L116.8,483.5z M325.7,323.9V335c0,5.4-4.4,9.9-9.9,9.9h-6.1
			c-4.2,0-7.5,3.4-7.5,7.5s3.4,7.5,7.5,7.5c5.4,0,9.9,4.4,9.9,9.9v11.1c0,5.4-4.4,9.9-9.9,9.9h-8.9c-4.2,0-7.5,3.4-7.5,7.5
			s3.4,7.5,7.5,7.5c5.4,0,9.9,4.4,9.9,9.9v11.1c0,5.4-4.4,9.9-9.9,9.9h-11.1c-4.2,0-7.5,3.4-7.5,7.5s3.4,7.5,7.5,7.5
			c5.4,0,9.9,4.4,9.9,9.9v11.1c0,5.4-4.4,9.9-9.9,9.9h-48.9c-43,0-68-16.3-84.2-21.5c-11.6-4.6-20.3-3.1-24.9-3.4V332
			c24.2-4.7,31.7-23.7,40.6-33c9.3-11.8,22.5-19.3,37.1-21.2V291c0,12.6,10.3,22.9,22.9,22.9c15.6,0,67.3,0,83.4,0
			C321.3,314,325.7,318.4,325.7,323.9L325.7,323.9z M280.2,299h-47.7c-4.3,0-7.9-3.5-7.9-7.9v-21.3v-20.5h62.6L280.2,299z
			 M321.1,234.2L321.1,234.2h-8.5V123.5h8.4c47.8,0,93.4-18.2,128-50.5v211.7C414.6,252.4,368.9,234.2,321.1,234.2z"/>
	</g>
</g>
</svg>