<?xml version="1.0" encoding="utf-8"?>
<!-- Generator: Adobe Illustrator 21.1.0, SVG Export Plug-In . SVG Version: 6.00 Build 0)  -->
<svg version="1.1" id="Capa_1" xmlns="http://www.w3.org/2000/svg" xmlns:xlink="http://www.w3.org/1999/xlink" x="0px" y="0px"
	 viewBox="0 0 512 512" style="enable-background:new 0 0 512 512;" xml:space="preserve">
<style type="text/css">
	.st0{fill:#F5FBFC;}
	.st1{fill:#CADDED;}
	.st2{fill:#2C3B42;}
	.st3{fill:#1360FE;}
	.st4{fill:#ECBD83;}
	.st5{fill:#F7D4AD;}
	.st6{fill:#357EFC;}
	.st7{fill:#9EC3EF;}
</style>
<g>
	<g>
		<path class="st0" d="M366,512H44c-16.1,0-29.2-13.1-29.2-29.2V29.2C14.9,13.1,27.9,0,44,0h322c16.1,0,29.2,13.1,29.2,29.2v453.7
			C395.2,498.9,382.1,512,366,512z"/>
		<path class="st1" d="M366,0h-26.9v132.6c0,176-142.8,318.7-318.9,318.7h-5.4v31.5C14.9,499,27.9,512,44,512h322
			c16.1,0,29.2-13,29.2-29.1V29.1C395.2,13,382.1,0,366,0L366,0z"/>
		<g>
			<path class="st2" d="M318.2,357.5H82.3c-3.7,0-6.8-3.5-6.8-7.8s3-7.8,6.8-7.8h235.9c3.7,0,6.8,3.5,6.8,7.8S322,357.5,318.2,357.5
				z"/>
		</g>
		<g>
			<path class="st2" d="M318.2,399.1H82.3c-3.7,0-6.8-3.5-6.8-7.8s3-7.8,6.8-7.8h235.9c3.7,0,6.8,3.5,6.8,7.8
				C325,395.6,322,399.1,318.2,399.1z"/>
		</g>
		<g>
			<path class="st2" d="M318.2,440.8H82.3c-3.7,0-6.8-3.5-6.8-7.8s3-7.8,6.8-7.8h235.9c3.7,0,6.8,3.5,6.8,7.8S322,440.8,318.2,440.8
				z"/>
		</g>
		<g>
			<path class="st2" d="M318.2,274.1H82.3c-3.7,0-6.8-3.5-6.8-7.8s3-7.8,6.8-7.8h235.9c3.7,0,6.8,3.5,6.8,7.8S322,274.1,318.2,274.1
				z"/>
		</g>
		<g>
			<path class="st2" d="M318.2,315.8H82.3c-3.7,0-6.8-3.5-6.8-7.8s3-7.8,6.8-7.8h235.9c3.7,0,6.8,3.5,6.8,7.8
				C325,312.3,322,315.8,318.2,315.8z"/>
		</g>
		<g>
			<ellipse class="st2" cx="54.7" cy="349.7" rx="7.8" ry="7.8"/>
			<ellipse class="st2" cx="54.7" cy="266.4" rx="7.8" ry="7.8"/>
			<ellipse class="st2" cx="54.7" cy="308" rx="7.8" ry="7.8"/>
			<ellipse class="st2" cx="54.7" cy="391.4" rx="7.8" ry="7.8"/>
			<ellipse class="st2" cx="54.7" cy="391.4" rx="7.8" ry="7.8"/>
			<ellipse class="st2" cx="54.7" cy="433" rx="7.8" ry="7.8"/>
		</g>
		<g>
			<g>
				<path class="st3" d="M243.5,213.8h-77.3c-11.9,0-20.9-10.9-18.7-22.6l3-15.9c0.9-4.6,2.6-8.8,5.1-12.5c4-5.9,9.8-10.6,16.7-13.1
					l32.7-11.9l32.4,11.8c7,2.5,12.8,7.2,16.8,13.2v0c2.5,3.8,4.3,8.2,5.2,12.8l2.8,15.8C264.3,203,255.4,213.8,243.5,213.8
					L243.5,213.8z"/>
				<path class="st4" d="M223,144.3l-18.3,16l-18.3-16v-24.5H223V144.3z"/>
				<path class="st5" d="M233.7,76.6v20.8c0,16.3-13.3,30-29.6,29.7c-15.8-0.3-28.5-13.2-28.5-29V76.6c0-16,13-24.4,29-24.4
					C220.7,52.2,233.7,60.6,233.7,76.6z"/>
				<g>
					<path class="st6" d="M174.5,185.7v28h-8.3c-11.9,0-20.9-10.9-18.7-22.6l3-15.9c0.9-4.6,2.6-8.8,5.1-12.5
						C166.4,164.9,174.5,174.4,174.5,185.7L174.5,185.7z"/>
					<path class="st6" d="M243.5,213.8h-8v-28c0-11.3,8.1-20.8,18.8-22.9c2.5,3.8,4.3,8.2,5.2,12.8l2.8,15.8
						C264.3,203,255.4,213.8,243.5,213.8L243.5,213.8z"/>
				</g>
			</g>
			<path class="st2" d="M233.7,75.2c-1.1,0.8-1.9,1.4-1.9,1.4c-2.1,1.2-4.3,2.3-6.7,3.2c-10.9,4.4-21.5,4.5-26.7,0.9
				c0,0-5.4-4-7.4-6.6s-8.4-3.2-13.7,2.4c-0.6,0.6-1.1,1-1.7,1.2v-1.2c0-16,13-29.1,29.1-29.1c8,0,15.3,3.3,20.5,8.5
				C230.2,61,233.4,67.7,233.7,75.2L233.7,75.2z"/>
		</g>
	</g>
	<path class="st7" d="M424.1,348.6l-26.4-20.6c-1.5-1.2-3.6-1.2-5.1,0l-26.4,20.6c-2.7,2.1-6.7,0.2-6.7-3.3v-148
		c0-2.3,1.9-4.1,4.1-4.1h63c2.3,0,4.1,1.9,4.1,4.1v148C430.8,348.7,426.8,350.7,424.1,348.6L424.1,348.6z"/>
	<path class="st3" d="M497.1,140.1c0,13-14.1,23.1-18.8,34.4c-4.9,11.7-2.2,28.8-11,37.6c-8.8,8.8-25.9,6.2-37.7,11
		c-11.3,4.7-21.4,18.8-34.4,18.8s-23.1-14.1-34.4-18.8c-11.7-4.9-28.8-2.2-37.7-11c-8.8-8.8-6.2-25.9-11-37.6
		c-4.7-11.3-18.8-21.4-18.8-34.4c0-13,14.1-23.1,18.8-34.4c4.9-11.7,2.2-28.8,11-37.6c8.8-8.8,25.9-6.2,37.7-11
		c11.3-4.7,21.4-18.8,34.4-18.8s23.1,14.1,34.4,18.8c11.7,4.9,28.8,2.2,37.7,11c8.8,8.8,6.2,25.9,11,37.6
		C483,117,497.1,127.1,497.1,140.1z"/>
	<path class="st0" d="M396.9,89.7l16.4,24.4c0.3,0.4,0.7,0.7,1.1,0.8l28.3,8c1.4,0.4,1.9,2.1,1,3.2l-18.2,23.1
		c-0.3,0.4-0.5,0.9-0.4,1.3l1.1,29.4c0.1,1.4-1.4,2.5-2.7,2l-27.6-10.2c-0.5-0.2-1-0.2-1.4,0l-27.6,10.2c-1.4,0.5-2.8-0.5-2.7-2
		l1.1-29.4c0-0.5-0.1-1-0.4-1.3l-18.2-23.1c-0.9-1.1-0.3-2.8,1-3.2l28.3-8c0.5-0.1,0.9-0.4,1.1-0.8l16.4-24.4
		C394.3,88.5,396.1,88.5,396.9,89.7L396.9,89.7z"/>
</g>
</svg>
