<svg id="Capa_1" enable-background="new 0 0 513.693 513.693" height="512" viewBox="0 0 513.693 513.693" width="512"
    xmlns="http://www.w3.org/2000/svg">
    <g>
        <path
            d="m488.226 78.993h-29.73c-10.491 0-19.027 8.535-19.027 19.026v2.121h-85.605v-2.12c0-10.491-8.536-19.026-19.027-19.026h-29.73c-10.491 0-19.027 8.535-19.027 19.026v115.22c0 10.491 8.536 19.027 19.027 19.027h29.73c10.491 0 19.027-8.536 19.027-19.027v-2.121h1.268v100.067c0 5.993 1.27 11.793 3.774 17.237l8.697 18.907v68.938c0 4.143 3.358 7.5 7.5 7.5s7.5-3.357 7.5-7.5v-70.58c0-1.082-.234-2.151-.687-3.135l-9.384-20.399c-1.593-3.464-2.401-7.153-2.401-10.968v-9.761h53.07v9.761c0 3.813-.808 7.504-2.401 10.968l-9.384 20.399c-.453.983-.687 2.053-.687 3.135v138.942c0 7.755-6.309 14.063-14.063 14.063s-14.063-6.309-14.063-14.063v-36.4c0-4.143-3.358-7.5-7.5-7.5s-7.5 3.357-7.5 7.5v36.399c0 16.025 13.038 29.063 29.063 29.063 16.026 0 29.063-13.038 29.063-29.063v-137.3l8.698-18.908c2.504-5.445 3.774-11.244 3.774-17.236v-100.067h1.268v2.121c0 10.491 8.536 19.026 19.027 19.026h29.73c10.491 0 19.027-8.535 19.027-19.026v-115.219c0-10.492-8.535-19.027-19.027-19.027zm-149.362 134.246c0 2.221-1.807 4.027-4.027 4.027h-29.73c-2.22 0-4.027-1.807-4.027-4.027v-115.219c0-2.22 1.807-4.026 4.027-4.026h29.73c2.22 0 4.027 1.807 4.027 4.026zm31.268 73.186v-23.365h53.07v23.365zm53.069-38.365h-53.07v-36.941h53.07zm69.052-34.821c0 2.22-1.807 4.026-4.027 4.026h-29.73c-2.22 0-4.027-1.807-4.027-4.026v-61.491c0-4.143-3.358-7.5-7.5-7.5s-7.5 3.357-7.5 7.5v44.37h-85.605v-80.978h85.605v4.645c0 4.143 3.358 7.5 7.5 7.5s7.5-3.357 7.5-7.5v-21.765c0-2.22 1.807-4.026 4.027-4.026h29.73c2.22 0 4.027 1.807 4.027 4.026z" />
        <path
            d="m340.252 498.693h-316.766c-1.128 0-2.045-.918-2.045-2.046v-370.057h95.514c9.649 0 17.499-7.85 17.499-17.498v-94.092h232.842c1.128 0 2.045.918 2.045 2.046v49.165c0 4.143 3.358 7.5 7.5 7.5s7.5-3.357 7.5-7.5v-49.165c-.001-9.4-7.647-17.046-17.046-17.046h-241.765c-4.553 0-8.833 1.773-12.053 4.992l-102.044 102.045c-3.22 3.22-4.993 7.5-4.993 12.053v377.558c0 9.399 7.646 17.046 17.045 17.046h316.767c4.142 0 7.5-3.357 7.5-7.5s-3.358-7.501-7.5-7.501zm-220.8-478.462v88.861c0 1.377-1.121 2.498-2.499 2.498h-88.86z" />
        <path
            d="m74.716 193.044h11.917c4.142 0 7.5-3.357 7.5-7.5s-3.358-7.5-7.5-7.5h-11.917c-4.142 0-7.5 3.357-7.5 7.5s3.358 7.5 7.5 7.5z" />
        <path
            d="m257.235 193.044c4.142 0 7.5-3.357 7.5-7.5s-3.358-7.5-7.5-7.5h-136.105c-4.142 0-7.5 3.357-7.5 7.5s3.358 7.5 7.5 7.5z" />
        <path
            d="m270.356 233.866h-195.64c-4.142 0-7.5 3.357-7.5 7.5s3.358 7.5 7.5 7.5h195.64c4.142 0 7.5-3.357 7.5-7.5s-3.358-7.5-7.5-7.5z" />
        <path
            d="m325.21 289.688h-250.494c-4.142 0-7.5 3.357-7.5 7.5s3.358 7.5 7.5 7.5h250.494c4.142 0 7.5-3.357 7.5-7.5s-3.358-7.5-7.5-7.5z" />
        <path
            d="m104.114 363.995c4.142 0 7.5-3.357 7.5-7.5s-3.358-7.5-7.5-7.5h-31.489c-6.787 0-12.308 5.521-12.308 12.308v53.105c0 6.787 5.521 12.309 12.308 12.309h254.01c6.787 0 12.308-5.521 12.308-12.309v-53.105c0-6.786-5.521-12.308-12.308-12.308h-190.559c-4.142 0-7.5 3.357-7.5 7.5s3.358 7.5 7.5 7.5h187.866v47.722h-248.625v-47.722z" />
    </g>
</svg>