<svg xmlns="http://www.w3.org/2000/svg" id="Layer_1" data-name="Layer 1" viewBox="0 0 512 512" width="512" height="512">
    <path d="M254.235,211H241.516a6,6,0,1,0,0,12h12.719a6,6,0,0,0,0-12Z" />
    <path d="M168.468,211h-12.72a6,6,0,0,0,0,12h12.72a6,6,0,0,0,0-12Z" />
    <path d="M82.7,211H69.981a6,6,0,1,0,0,12H82.7a6,6,0,0,0,0-12Z" />
    <path d="M172,186h68a6,6,0,0,0,6-6V112a6,6,0,0,0-6-6H172a6,6,0,0,0-6,6v68A6,6,0,0,0,172,186Zm6-68h55v56H178Z" />
    <path d="M211.852,126h-12.72a6,6,0,0,0,0,12h12.72a6,6,0,0,0,0-12Z" />
    <path d="M85,186h68a6,6,0,0,0,6-6V112a6,6,0,0,0-6-6H85a6,6,0,0,0-6,6v68A6,6,0,0,0,85,186Zm6-68h56v56H91Z" />
    <path d="M125.084,126H112.365a6,6,0,0,0,0,12h12.719a6,6,0,0,0,0-12Z" />
    <path
        d="M103.474,329a25.344,25.344,0,1,0,25.343,25.344A25.373,25.373,0,0,0,103.474,329Zm0,38.688a13.344,13.344,0,1,1,13.343-13.344A13.359,13.359,0,0,1,103.474,367.69Z" />
    <path
        d="M408.952,329A25.344,25.344,0,1,0,434.3,354.346,25.374,25.374,0,0,0,408.952,329Zm0,38.688A13.344,13.344,0,1,1,422.3,354.346,13.36,13.36,0,0,1,408.952,367.69Z" />
    <path
        d="M478.879,216.76l-13.922-2.02a4.462,4.462,0,0,1-2.948-1.749l-62.057-82.606a5.994,5.994,0,0,0-4.8-2.385H307.181A6.139,6.139,0,0,0,301,133.978V259H288V197.281A6.448,6.448,0,0,0,281.768,191H213.983A6.233,6.233,0,0,0,208,197.281V259h-6V197.281A6.247,6.247,0,0,0,196,191H128.216A6.433,6.433,0,0,0,122,197.281V259h-6V197.281c0-3.313-2.454-6.281-5.768-6.281H42.449A6.644,6.644,0,0,0,36,197.281V259H16a5.947,5.947,0,0,0-6,5.937v67.72A26.35,26.35,0,0,0,36.191,359h16.2a51.284,51.284,0,0,0,102.144,0h203.35A51.286,51.286,0,0,0,460,359h15.806A26.072,26.072,0,0,0,502,332.983V243.475A27.143,27.143,0,0,0,478.879,216.76ZM220,203h56v56H220Zm-86,0h56v56H134Zm-86,0h56v56H48Zm55.473,190.638a39.294,39.294,0,1,1,39.294-39.294A39.338,39.338,0,0,1,103.473,393.638Zm305.47,0a39.294,39.294,0,1,1,39.293-39.294A39.338,39.338,0,0,1,408.943,393.64ZM490,332.983A14.06,14.06,0,0,1,475.808,347H459.725a51.285,51.285,0,0,0-101.563,0H154.254a51.287,51.287,0,0,0-101.522,0H36.191A14.338,14.338,0,0,1,22,332.657V294H490ZM490,282H22V271H307.181A5.9,5.9,0,0,0,313,264.937V140h79l61,81v21.776A16.445,16.445,0,0,0,469.311,259H490Zm0-35H469.311A4.439,4.439,0,0,1,465,242.776V226.91l12.023,1.725A15.2,15.2,0,0,1,490,243.476Z" />
    <path
        d="M391.1,157.842A6.059,6.059,0,0,0,386.038,155H332.42a6.572,6.572,0,0,0-6.42,6.23v51.216c0,3.314,3.106,5.554,6.42,5.554h86.16a5.734,5.734,0,0,0,5.065-8.883ZM338,206V167h44.741l24.918,39Z" />
    <path d="M352,323h4.3a6,6,0,1,0,0-12H352a6,6,0,0,0,0,12Z" />
    <path d="M255,323h76a6,6,0,0,0,0-12H255a6,6,0,0,0,0,12Z" />
</svg>