<?xml version="1.0" encoding="utf-8"?>
<!-- Generator: Adobe Illustrator 24.0.1, SVG Export Plug-In . SVG Version: 6.00 Build 0)  -->
<svg version="1.1" id="Layer_1" xmlns="http://www.w3.org/2000/svg" xmlns:xlink="http://www.w3.org/1999/xlink" x="0px" y="0px"
	 viewBox="0 0 512 512" style="enable-background:new 0 0 512 512;" xml:space="preserve">
<style type="text/css">
	.st0{fill:#002164;}
	.st1{fill:#D5042B;}
</style>
<path class="st0" d="M468.3,0H43.6C28.4,0,16,12.4,16,27.6v456.7c0,15.2,12.4,27.7,27.6,27.7h424.7c15.3,0,27.7-12.4,27.7-27.7V27.6
	C496,12.4,483.6,0,468.3,0z M468.3,497H43.6c-7,0-12.6-5.7-12.6-12.7V87.7h120.7c4.1,0,7.5-3.4,7.5-7.5c0-4.1-3.4-7.5-7.5-7.5H31
	V27.6c0-7,5.7-12.6,12.6-12.6h424.7c7,0,12.7,5.7,12.7,12.6v45.1H186.9c-4.1,0-7.5,3.4-7.5,7.5c0,4.1,3.4,7.5,7.5,7.5H481v396.6
	C481,491.3,475.3,497,468.3,497z"/>
<path class="st1" d="M192.3,276.1c0.2,0.3,0.5,0.5,0.8,0.7c2.7,2.5,5.6,4.9,8.7,7.1c16.2,11.6,35.2,17.7,55,17.7
	c23.2,0,45.4-8.6,62.4-23.6c0.4-0.3,0.8-0.6,1.1-1c4.9-4.4,9.3-9.4,13.3-14.8c14.7-20.5,20.6-45.5,16.5-70.4
	c-4.1-24.9-17.6-46.7-38.1-61.4c-16.2-11.6-35.2-17.7-55-17.7c-30.4,0-59.1,14.7-76.8,39.4c-14.7,20.5-20.6,45.5-16.5,70.4
	C167.1,243.3,177.1,261.9,192.3,276.1z M210.5,271.7c-1.5-1.1-3-2.2-4.4-3.4c6.5-20.8,28.5-26.8,39.6-28.5c3.3,0.9,6.8,1.4,10.4,1.4
	h0.3c3.5,0,7-0.5,10.5-1.5c20.2,3,34.6,13.9,39.5,29.5c-13.9,11.1-31.4,17.4-49.6,17.4C240.1,286.6,224.1,281.5,210.5,271.7z
	 M244,194.3c4.5,3.2,10.4,4.5,19,4.5h18.6v5c0,6.7-4,13.3-10.7,17.8c-4.5,3-9.8,4.7-14.8,4.6c-2.5,0-5-0.4-7.4-1.2
	c-0.1,0-0.3-0.1-0.4-0.1c-9.8-3.2-17.7-12-17.7-21.1v-4.1C236.1,199.4,240.6,197.6,244,194.3z M230.8,184.7
	c0.8-14.8,13.3-22.5,25.7-22.5c7,0,13.3,2.5,17.8,7c3.6,3.6,5.9,8.6,6.9,14.6H263c-10.5,0-11.2-1.7-13.2-6.2c-1.3-3-4.4-4.8-7.7-4.4
	c-3.3,0.4-5.9,2.8-6.5,6C234.9,182.8,233.6,184.3,230.8,184.7z M192.3,160.9c14.9-20.7,39.1-33.1,64.6-33.1
	c16.7,0,32.7,5.2,46.3,14.9c17.2,12.4,28.6,30.7,32.1,51.6s-1.5,42-13.8,59.2c-1.1,1.5-2.2,3-3.4,4.4c-6.2-13-17.7-23-32.6-28.7
	c7.2-7,11.3-16,11.3-25.3v-12.5c0,0,0,0,0,0c0.2-13.4-3.9-24.6-11.7-32.6c-7.3-7.4-17.4-11.5-28.5-11.5c-19.8,0-40.8,13.6-40.8,38.9
	v17.7c0,9.5,4.4,18.5,11.3,25.3c-14.9,5.5-26.2,15-32.4,27.6c-8.4-10.5-14-23-16.2-36.6C175,199.1,179.9,178.1,192.3,160.9z"/>
<path class="st1" d="M75.3,34.1h-0.2c-4.1,0-7.5,3.4-7.5,7.5s3.4,7.5,7.5,7.5h0.2c4.1,0,7.5-3.4,7.5-7.5S79.4,34.1,75.3,34.1z"/>
<path class="st1" d="M111.5,34.1h-0.2c-4.1,0-7.5,3.4-7.5,7.5s3.4,7.5,7.5,7.5h0.2c4.1,0,7.5-3.4,7.5-7.5S115.7,34.1,111.5,34.1z"/>
<path class="st1" d="M147.8,34.3h-0.2c-4.1,0-7.5,3.4-7.5,7.5c0,4.1,3.4,7.5,7.5,7.5h0.2c4.1,0,7.5-3.4,7.5-7.5
	C155.3,37.6,151.9,34.3,147.8,34.3z"/>
<path class="st0" d="M214.7,51.3h141.2c4.1,0,7.5-3.4,7.5-7.5c0-4.1-3.4-7.5-7.5-7.5H214.7c-4.1,0-7.5,3.4-7.5,7.5
	C207.2,48,210.5,51.3,214.7,51.3z"/>
<path class="st0" d="M367.6,329.6H141.6c-9.7,0-17.6,7.9-17.6,17.6v17.9c0,9.7,7.9,17.6,17.6,17.6h225.9c9.7,0,17.6-7.9,17.6-17.6
	v-17.9C385.2,337.5,377.3,329.6,367.6,329.6z M370.2,365.1c0,1.4-1.2,2.6-2.6,2.6H141.6c-1.4,0-2.6-1.2-2.6-2.6v-17.9
	c0-1.4,1.2-2.6,2.6-2.6h225.9c1.4,0,2.6,1.2,2.6,2.6V365.1z"/>
<path class="st1" d="M364.1,405.5h-226c-9.7,0-17.6,7.9-17.6,17.6V441c0,9.7,7.9,17.6,17.6,17.6h226c9.7,0,17.6-7.9,17.6-17.6v-17.9
	C381.8,413.4,373.9,405.5,364.1,405.5z M366.8,441c0,1.4-1.2,2.6-2.6,2.6h-226c-1.4,0-2.6-1.2-2.6-2.6v-17.9c0-1.4,1.2-2.6,2.6-2.6
	h226c1.4,0,2.6,1.2,2.6,2.6V441z"/>
</svg>
