<svg id="Capa_1" enable-background="new 0 0 512 512" height="512" viewBox="0 0 512 512" width="512"
    xmlns="http://www.w3.org/2000/svg">
    <g>
        <path
            d="m437.233 322.645h-160.89l-25.421-46.765c8.366-2.854 15.522-8.344 20.485-15.835 4.056-6.121 6.314-13.07 6.66-20.218 33.427 5.474 64.59 22.406 87.372 48.714 11.899 16.553 38.706 16.049 49.534-1.283 4.452-6.72 6.022-14.772 4.418-22.672l-14.343-70.669 12.434-2.524c14.129-2.564 24.009-17.476 20.863-31.487l-11.06-54.498c-2.929-14.433-17.055-23.791-31.487-20.863l-12.434 2.524-12.764-62.893c-1.603-7.9-6.187-14.703-12.907-19.155-16.741-11.765-41.654-1.691-46.115 18.129-16.29 50.294-58.595 88.07-110.405 98.587l-64.361 13.062c-6.992 1.419-13.012 5.475-16.952 11.423-3.941 5.947-5.329 13.073-3.91 20.064l13.539 66.71c2.418 11.912 12.462 20.361 24.011 21.305l17.256 31.744h-23.203c-20.933 0-37.964 17.03-37.964 37.964 0 12.9-10.495 23.395-23.395 23.395h-.675c-20.933 0-37.964 17.03-37.964 37.964v1.335c0 19.013 14.05 34.804 32.313 37.541.974 3.722 2.744 7.278 5.317 10.397l55.657 67.464c5.188 6.289 12.839 9.896 20.992 9.896h30.669c4.023 0 7.284-3.261 7.284-7.284s-3.261-7.284-7.284-7.284h-30.669c-3.788 0-7.343-1.676-9.754-4.598l-55.658-67.465c-.188-.228-.359-.465-.529-.703h24.877c1.984 2.156 4.821 3.515 7.982 3.515 5.997 0 10.859-4.862 10.859-10.859s-4.862-10.859-10.859-10.859c-3.219 0-6.102 1.409-8.091 3.634h-24.859c.195-.28.399-.555.619-.822l55.658-67.465c2.41-2.922 5.966-4.598 9.754-4.598h275.401c6.973 0 12.645 5.672 12.645 12.644v20.452c0 4.023 3.261 7.284 7.284 7.284s7.284-3.261 7.284-7.284v-20.452c-.001-15.005-12.208-27.212-27.214-27.212zm-230.001 0-38.272-70.407 47.311-9.602 43.491 80.009zm52.031-70.646c-3.629 5.477-9.095 9.28-15.455 10.792l-12.54-23.069c10.767-1.726 21.586-2.207 32.268-1.536-.062 4.88-1.513 9.648-4.273 13.813zm139.434-153.176c6.56-1.328 12.981 2.923 14.313 9.483l11.06 54.498c1.43 6.368-3.062 13.147-9.483 14.312l-12.434 2.524-15.89-78.293zm-111.936-7.61 5.612 27.652c1.788 9.325 16.286 6.31 14.277-2.898l-7.809-38.478c11.562-14.714 20.659-31.519 26.596-49.849 3.075-16.716 27.537-17.406 30.886-.566l48.792 240.409c3.478 16.821-19.318 25.711-28.663 11.521-12.594-14.542-27.524-26.467-43.921-35.511l-20.07-98.893c-.8-3.943-4.642-6.49-8.587-5.69-3.943.8-6.49 4.645-5.69 8.587l17.877 88.083c-13.9-5.734-28.573-9.527-43.578-11.228-10.678-1.31-21.643-1.295-32.516-.391l-18.761-92.439c25.011-8.024 47.446-21.971 65.555-40.309zm-142.996 138.885-13.539-66.71c-1.43-6.367 3.061-13.146 9.483-14.312l64.357-13.061c.004-.001 3.055-.62 3.059-.621l18.369 90.505c-1.135.266-6.571 1.274-7.589 1.54l-59.827 12.142c-6.558 1.33-12.981-2.922-14.313-9.483zm-2.924 102.442-55.658 67.465c-2.356 2.856-4.017 6.084-5.032 9.465-10.321-2.433-18.029-11.714-18.029-22.767v-1.335c0-12.9 10.495-23.395 23.395-23.395h.675c20.933 0 37.964-17.03 37.964-37.964 0-12.9 10.495-23.395 23.395-23.395h31.122l11.976 22.032h-28.818c-8.151-.001-15.802 3.605-20.99 9.894z" />
        <path
            d="m457.162 396.288c-4.023 0-7.284 3.261-7.284 7.284v81.215c0 6.973-5.672 12.645-12.645 12.645h-211.039c-4.023 0-7.284 3.261-7.284 7.284s3.261 7.284 7.284 7.284h211.039c15.005 0 27.213-12.208 27.213-27.213v-81.215c0-4.022-3.261-7.284-7.284-7.284z" />
        <path
            d="m246.074 453.67 5.083-13.346h34.263l5.029 13.325c3.265 8.924 17.083 3.621 13.63-5.143l-27.332-72.426c-.026-.067-.052-.134-.079-.2-1.386-3.369-4.634-5.544-8.276-5.544-.002 0-.006 0-.009 0-3.645.003-6.893 2.185-8.274 5.559-.023.055-.045.111-.066.166l-27.583 72.423c-1.432 3.76.455 7.968 4.214 9.4 3.76 1.433 7.967-.455 9.4-4.214zm22.293-58.534 11.555 30.619h-23.217z" />
        <path
            d="m323.455 369.249c-4.023 0-7.284 3.261-7.284 7.284v73.396c0 3.549 2.558 6.581 6.055 7.18.521.089 18.635.151 26.992.104 4.023-.023 7.266-3.302 7.243-7.325-.022-4.009-3.279-7.243-7.283-7.243-.014 0-.028 0-.042 0-6.459.036-13.417.061-18.398.062v-66.174c.001-4.023-3.26-7.284-7.283-7.284z" />
        <path
            d="m407.86 384.488c4.023 0 7.284-3.261 7.284-7.284s-3.261-7.284-7.284-7.284h-30.67c-4.023 0-7.284 3.261-7.284 7.284v72.787c0 4.023 3.261 7.284 7.284 7.284h30.67c4.023 0 7.284-3.261 7.284-7.284s-3.261-7.284-7.284-7.284h-23.386v-21.825h21.124c4.023 0 7.284-3.261 7.284-7.284s-3.261-7.284-7.284-7.284h-21.124v-21.825h23.386z" />
        <path
            d="m194.248 442.707c-7.828 0-15.38-3.176-20.201-8.496-2.701-2.981-7.308-3.208-10.289-.506s-3.208 7.308-.506 10.289c7.536 8.316 19.124 13.282 30.996 13.282 14.325 0 26.81-9.425 29.042-21.924 1.694-9.485-2.708-21.913-20.143-28.344-9.33-3.441-17.994-7.196-20.317-8.216-5.508-4.287-2.229-12.489 4.47-14.129 11.389-3.431 21.744 4.843 21.967 5.024 3.079 2.561 7.653 2.156 10.233-.914 2.588-3.079 2.19-7.674-.889-10.263-.662-.555-16.418-13.548-35.513-7.796-9.426 2.839-16.09 10.24-17.393 19.312-1.215 8.467 2.453 16.611 9.573 21.252 1.932 1.078 10.229 4.654 22.827 9.398 7.755 2.861 11.707 7.276 10.843 12.115-.87 4.874-6.607 9.916-14.7 9.916z" />
    </g>
</svg>