<?xml version="1.0" encoding="utf-8"?>
<!-- Generator: Adobe Illustrator 21.1.0, SVG Export Plug-In . SVG Version: 6.00 Build 0)  -->
<svg version="1.1" id="Layer_1" xmlns="http://www.w3.org/2000/svg" xmlns:xlink="http://www.w3.org/1999/xlink" x="0px" y="0px"
	 viewBox="0 0 512 512" style="enable-background:new 0 0 512 512;" xml:space="preserve">
<style type="text/css">
	.st0{fill:#002164;}
	.st1{fill:#D5042B;}
</style>
<g>
	<g>
		<g>
			<path class="st0" d="M10.7,234.7h192c5.9,0,10.7-4.8,10.7-10.7s-4.8-10.7-10.7-10.7h-192C4.8,213.3,0,218.1,0,224
				S4.8,234.7,10.7,234.7z"/>
			<path class="st0" d="M501.3,320H10.7C4.8,320,0,324.8,0,330.7s4.8,10.7,10.7,10.7h490.7c5.9,0,10.7-4.8,10.7-10.7
				C512,324.8,507.2,320,501.3,320z"/>
			<path class="st0" d="M330.7,426.7h-320c-5.9,0-10.7,4.8-10.7,10.7c0,5.9,4.8,10.7,10.7,10.7h320c5.9,0,10.7-4.8,10.7-10.7
				C341.3,431.4,336.6,426.7,330.7,426.7z"/>
			<path class="st0" d="M10.7,128h192c5.9,0,10.7-4.8,10.7-10.7s-4.8-10.7-10.7-10.7h-192c-5.9,0-10.7,4.8-10.7,10.7
				C0,123.2,4.8,128,10.7,128z"/>
			<path class="st1" d="M501.3,64H266.7c-5.9,0-10.7,4.8-10.7,10.7v170.7c0,5.9,4.8,10.7,10.7,10.7h234.7c5.9,0,10.7-4.8,10.7-10.7
				V74.7C512,68.8,507.2,64,501.3,64z M490.7,234.7H281.8l48.9-48.9l35.1,35.1c4.2,4.2,10.9,4.2,15.1,0c4.2-4.2,4.2-10.9,0-15.1
				l-3.1-3.1l48.9-48.9l64,64V234.7z M490.7,187.6l-56.5-56.5c-4.2-4.2-10.9-4.2-15.1,0l-56.5,56.5l-24.5-24.5
				c-4.2-4.2-10.9-4.2-15.1,0l-45.8,45.8V85.3h213.3L490.7,187.6L490.7,187.6z"/>
			<path class="st0" d="M362.7,149.3c11.8,0,21.3-9.6,21.3-21.3s-9.6-21.3-21.3-21.3s-21.3,9.6-21.3,21.3S350.9,149.3,362.7,149.3z
				 M362.7,128l10.7,0L362.7,128C362.7,128,362.7,128,362.7,128z"/>
		</g>
	</g>
</g>
</svg>
