<svg
																					xmlns="http://www.w3.org/2000/svg" width="80" height="80" viewBox="0 0 80 80">
																					<metadata>
																						<?xpacket begin="﻿" id="W5M0MpCehiHzreSzNTczkc9d"?>
																						<x:xmpmeta
																							xmlns:x="adobe:ns:meta/" x:xmptk="Adobe XMP Core 5.6-c138 79.159824, 2016/09/14-01:09:01        ">
																							<rdf:RDF
																								xmlns:rdf="http://www.w3.org/1999/02/22-rdf-syntax-ns#">
																								<rdf:Description rdf:about=""/>
																							</rdf:RDF>
																						</x:xmpmeta>
																						<?xpacket end="w"?>
																					</metadata>
																					<defs>
																						<style>
														  .cls-1 {
														    fill: #b7beca;
														    fill-rule: evenodd;
														  }
														</style>
																					</defs>
																					<path class="cls-1" d="M64.793,50.039c0,1.62-.015,3.241.01,4.861a0.868,0.868,0,0,1-.5.912c-1.281.652-2.541,1.347-3.836,1.97a0.856,0.856,0,0,0-.6.874C59.593,67.334,55.551,73.649,47.7,77.295a20.346,20.346,0,0,1-28.58-18.926,0.818,0.818,0,0,0-.541-0.856c-1.31-.682-2.589-1.421-3.884-2.131a0.91,0.91,0,0,1-.508-0.915c0.022-2.66-.015-5.322.019-7.982a18.905,18.905,0,0,1,1.848-8.721A13.7,13.7,0,0,1,22.231,31.8a31.18,31.18,0,0,1,10.431-2.887,2.046,2.046,0,0,1,1.033.157,14.456,14.456,0,0,0,12.255-.018,2.281,2.281,0,0,1,1.152-.134,32.162,32.162,0,0,1,7.569,1.7A17.688,17.688,0,0,1,60,33.509a12.66,12.66,0,0,1,4.416,8.45c0.315,2.674.357,5.38,0.52,8.071ZM39.528,41.491a17.155,17.155,0,1,0,17.114,17.29A17.16,17.16,0,0,0,39.528,41.491ZM39.5,27.069A13.407,13.407,0,1,1,52.907,13.69,13.412,13.412,0,0,1,39.5,27.069Z"/>
																				</svg>