<?xml version="1.0" encoding="utf-8"?>
<!-- Generator: Adobe Illustrator 21.1.0, SVG Export Plug-In . SVG Version: 6.00 Build 0)  -->
<svg version="1.1" id="Layer_1" xmlns="http://www.w3.org/2000/svg" xmlns:xlink="http://www.w3.org/1999/xlink" x="0px" y="0px"
	 viewBox="0 0 591 591" style="enable-background:new 0 0 591 591;" xml:space="preserve">
<style type="text/css">
	.st0{fill:#CADDED;}
	.st1{fill:#8DA6B7;}
	.st2{fill:#4398D1;}
	.st3{fill:#3E8CC7;}
	.st4{fill:#5EB3D1;}
	.st5{fill:#FFFFFF;}
	.st6{fill:#C2D9F9;}
</style>
<g id="surface1">
	<path class="st0" d="M93.7,501.2L6.9,276c-8.7-22.6,2.6-48,25.2-56.7L441.6,61.6c22.6-8.7,48,2.6,56.7,25.2l86.8,225.2
		c8.7,22.6-2.6,48-25.2,56.7L150.4,526.4C127.8,535.1,102.4,523.8,93.7,501.2z"/>
	<path class="st1" d="M529.6,167.9l-491,190.3L71.3,443l491-190.2L529.6,167.9z"/>
	<path class="st2" d="M4,343.8V102.5c0-24.2,19.6-43.9,43.9-43.9h438.8c24.2,0,43.9,19.6,43.9,43.9v241.3
		c0,24.2-19.6,43.9-43.9,43.9H47.9C23.7,387.7,4,368.1,4,343.8z"/>
	<path class="st3" d="M486.7,58.6h-46.6L111,387.7h375.7c24.2,0,43.9-19.6,43.9-43.9V102.5C530.6,78.3,510.9,58.6,486.7,58.6z"/>
	<path class="st4" d="M47.9,234.1h43.9v21.9H47.9V234.1z"/>
	<path class="st4" d="M47.9,299.9h43.9v21.9H47.9V299.9z"/>
	<path class="st4" d="M245.3,299.9h43.9v21.9h-43.9V299.9z"/>
	<path class="st4" d="M113.7,234.1h43.9v21.9h-43.9V234.1z"/>
	<path class="st4" d="M179.5,234.1h43.9v21.9h-43.9V234.1z"/>
	<path class="st4" d="M245.3,234.1h43.9v21.9h-43.9V234.1z"/>
	<path class="st4" d="M453.8,102.5h21.9v32.9h-21.9V102.5z"/>
	<path class="st4" d="M409.9,102.5h21.9v32.9h-21.9V102.5z"/>
	<path class="st4" d="M366,102.5h21.9v32.9H366V102.5z"/>
	<path class="st4" d="M322.1,102.5h21.9v32.9h-21.9V102.5z"/>
	<path class="st5" d="M47.9,172.7V120c0-9.7,7.9-17.6,17.6-17.6h52.7c9.7,0,17.5,7.9,17.5,17.6v52.7c0,9.7-7.9,17.6-17.5,17.6H65.4
		C55.7,190.2,47.9,182.4,47.9,172.7z"/>
	<path class="st6" d="M47.9,135.4h32.9v21.9H47.9V135.4z"/>
	<path class="st6" d="M102.7,135.4h32.9v21.9h-32.9V135.4z"/>
</g>
</svg>
