<?xml version="1.0" encoding="utf-8"?>
<!-- Generator: Adobe Illustrator 21.1.0, SVG Export Plug-In . SVG Version: 6.00 Build 0)  -->
<svg version="1.1" id="Layer_1" xmlns="http://www.w3.org/2000/svg" xmlns:xlink="http://www.w3.org/1999/xlink" x="0px" y="0px"
	 viewBox="0 0 755.1 709.7" style="enable-background:new 0 0 755.1 709.7;" xml:space="preserve">
<style type="text/css">
	.st0{fill:#EBF0F2;}
	.st1{fill:#E4EBED;}
	.st2{fill:#ADB3BA;}
	.st3{fill:#66C6B9;}
	.st4{fill:#E8EAE9;}
	.st5{fill:#344A5E;}
	.st6{fill:#415A6B;}
	.st7{fill:#CED6E0;}
	.st8{fill:#2A3F4F;}
	.st9{fill:#FFD15C;}
	.st10{fill:#F7B64C;}
	.st11{fill:#8AD7F8;}
	.st12{fill:#F3F3F3;}
	.st13{fill:#FFFFFF;}
	.st14{fill:#F3705A;}
	.st15{fill:#F05540;}
</style>
<g>
	<path class="st0" d="M43.9,255.1c-9.5,31.9-14.7,65.6-14.7,100.6c0,191.3,154.1,346.8,345,348.8L259.6,571.9l263.9-101.2
		l117.9,113.9c53.3-61.3,85.6-141.3,85.6-228.8c0-27.7-3.2-54.5-9.4-80.3c-76.4,44.4-192.1,72.7-321.5,72.7
		C247.9,348.1,117.7,311.1,43.9,255.1z"/>
	<path class="st0" d="M259.6,571.9l114.6,132.7c1.3,0,2.6,0,3.9,0c105.1,0,199.4-46.6,263.3-120L523.5,470.7L259.6,571.9z"/>
	<path class="st1" d="M378.1,6.8c-157.7,0-291,104.5-334.2,248.3c73.8,55.9,204,93.1,352.3,93.1c129.5,0,245.1-28.3,321.5-72.7
		C681.5,121.5,543.2,6.8,378.1,6.8z"/>
</g>
<title>Asset 1</title>
<g>
	<polygon class="st2" points="369.8,506.7 343.5,403.9 347.4,402.4 373.8,505.9 	"/>
	<polygon class="st2" points="271,506.7 267,505.9 283,395.1 286.9,396 	"/>
	<polygon class="st2" points="391.3,506.7 364.2,403.9 368.2,402.4 395.3,505.9 	"/>
	<polygon class="st2" points="292.5,506.7 288.6,505.9 303.7,395.1 307.6,396 	"/>
</g>
<path class="st3" d="M266.2,392c0,0.9,14.3,12,39.1,16.7c24.7,4.8,86.1-4.8,97.2-12.7c11.1-7.9,0-49.5-8.8-56.5
	c-8.8-7.1-16-4-25.5-19.2c-8.8-15.1-66.2-26.2-83.6-16.7C267,313.1,243.2,348.1,266.2,392z"/>
<path class="st4" d="M298.8,481.2c0,0,0.9-9.5,0.9-16.7c0-7.2,19.2-13.6,19.2-13.6s1.6,28.7,3.2,34.3c1.6,5.6,1.6,5.6,1.6,5.6
	S303.7,499.5,298.8,481.2z"/>
<path class="st5" d="M298.8,478.1c0,0,1.6,6.3,7.9,8.8c6.3,1.6,13.6-5.6,14.3-7.2c0,0,1.6,11.1,7.2,15.1c5.6,4,13.6,13.6,13.6,13.6
	s-5.6,6.3-15.1,5.6c-9.5-0.9-23.1-9.5-25.5-13.6C298.8,496.4,294.9,492.3,298.8,478.1z"/>
<path class="st6" d="M378.6,505.2l-1.6,2.5v3.2l9.5,2.5v-1.6c0,0,4.8-0.9,8.8,2.5c4,3.2,7.9,6.3,13.6,6.3c4.8,0,11.1-0.9,12-4
	C422.4,514,392.1,505.2,378.6,505.2z"/>
<path class="st5" d="M377.7,507.5c0,0-2.5-12,2.5-17.6c0,0-0.9,2.5,1.6,3.2c1.6,0.9,5.6-1.6,12-4.8c6.3-3.2,12,0,12,0
	s6.3,11.1,8.8,13.6c3.2,2.5,17.6,8.8,21.5,8.8c3.9,0,0.9,11.1-8.8,10.4c-9.5-0.9-23.1-3.2-28.7-7.9
	C392.1,508.3,377.7,507.5,377.7,507.5z"/>
<path class="st7" d="M561,529.8H429.5c-4,0-7.2-1.6-9.5-4.8c-2.5-2.5-3.2-6.3-3.2-10.4l16.7-110l77.3,1.6l60.6,103.5
	c2.5,4,2.5,8.8,0,12.7C569.8,527.5,565.7,529.8,561,529.8z M436.7,408.7l-16,106.7c0,2.5,0,5.6,2.5,7.2c1.6,2.5,4,3.2,7.2,3.2h131.5
	c3.2,0,6.3-1.6,7.9-4.8s1.6-6.3,0-8.8l-59.7-101.9L436.7,408.7z"/>
<ellipse class="st5" cx="272.6" cy="302" rx="9.5" ry="14.3"/>
<path class="st8" d="M269.4,384.9c0,0,12.7,17.6,20.8,19.2c0,0-4.8,12.7,0,30.3c4.8,17.6,9.5,35,9.5,35s6.3-0.9,11.1-1.6
	c4.8-0.9,12.7-4.8,12.7-10.4s0-19.9,0-29.4c0-9.5-0.9-15.1,0.9-19.2c1.6-3.2-0.9-6.3,6.3-7.9c7.2-1.6,31.9-1.6,31.9-1.6l35,4.8
	c0,0-7.2,45.4-7.9,50.2c0,0,3.2-0.9,8.8,2.5c5.6,3.2,14.3,5.6,14.3,5.6s12.7-26.2,15.1-34.3c2.5-7.9,12-32.7,13.6-40.7
	c2.5-7.9,2.5-21.5-12-27.1c-14.3-5.6-27.8-5.6-27.8-5.6l-114.8-6.3L269.4,384.9z"/>
<g>
	<path class="st9" d="M306,239.9c0,0,2.5,7.2,3.2,9.5c0.9,2.5,4,19.2,4,19.2l19.2,4l5.6-12.7c0,0,3.2-1.6,4-8.8
		c0.9-7.2,0.9-13.6,0.9-19.2c0-5.6-1.6-14.3-1.6-14.3s-1.6-7.9-4-11.1c-2.5-3.2-33.5,4-35,10.4C300.4,223.1,305.3,237.4,306,239.9
		L306,239.9z"/>
	<path class="st9" d="M311.7,261.3c-0.9-4.8-1.6-9.5-2.5-11.1s-1.6-5.6-2.5-7.9c0.9,1.6,0.9,3.2,1.6,5.6
		C309.2,251.8,310.8,256.6,311.7,261.3z"/>
</g>
<path class="st10" d="M332.3,272.4l4.8-11.1c0,0-5.6,4-12.7,1.6c-7.2-2.5-15.1-12-15.1-12S318,267,332.3,272.4z"/>
<path class="st11" d="M324.4,266.1h2.5l16-1.6l24.7,86.1c0,0-17.6,17.6-33.5,18.3c-16,0.9-42.2-8.8-47-11.1c-4-2.5,19.2-94,19.2-94
	L324.4,266.1z"/>
<g>
	<path class="st4" d="M326.8,275.8l2.5,2.5c0,0,1.6,5.6,2.5,7.2c0,1.6,13.6,94,13.6,94l-7.9,11.1l-10.4-8.8c0,0-7.9-81.3-6.3-88.4
		c0.9-7.2,3.2-14.3,3.2-14.3L326.8,275.8z"/>
	<path class="st4" d="M321.2,267.7l3.2-0.9h2.5l5.6,2.5c0,0-3.2,6.3-2.5,9.5c-2.5-0.9-4-0.9-6.3,0.9c0,0-1.6-7.2-4-8.8
		C316.4,269.3,321.2,267.7,321.2,267.7z"/>
</g>
<path class="st5" d="M304.5,238.3c0,0-4.8,0.9-12,2.5c-7.2,1.6-22.3,3.2-22.3,3.2s4,6.3,3.2,16c0,10.4,5.6,19.2,5.6,25.5
	c0,6.3-10.4,64.6-16.7,77.3c-6.3,12.7-10.4,18.3-11.1,29.4c-1.6,11.1-4.8,27.8,0,31s11.1-12,19.9-24.7c8.8-12.7,33.5-60.6,35.9-74.1
	C309.2,309.9,304.5,238.3,304.5,238.3z"/>
<path class="st2" d="M284.6,328.2l4.8,2.5c0,0,5.6,1.6,3.2-17.6c0,0-4.8,1.6-6.3,3.2C284.6,317.9,284.6,328.2,284.6,328.2z"/>
<g>
	<path class="st6" d="M312.4,268.5v12.7c0,8.8-6.3,43-6.3,43s0.9-18.3-1.6-23.9c-1.6-5.6-11.1-27.8-11.1-27.8l6.3-4l-4.8-3.2
		l8.8-26.2c0,0,0.9,0,0.9,0.9v0.9l0,0c0,0,2.5,7.2,3.2,9.5C309.2,251.8,312.4,265.4,312.4,268.5z"/>
	<path class="st6" d="M312.4,280.5v0.9c0,8.8-6.3,43-6.3,43s0.9-18.3-1.6-23.9c-1.6-5.6-11.1-27.8-11.1-27.8l6.3-4l-4.8-3.2
		l8.8-26.2c0.9,0.9,1.6,1.6,1.6,3.2c0.9,1.6,0.9,3.2,1.6,5.6c1.6,4.8,2.5,8.8,3.2,13.6l0,0C312.4,267.7,312.4,274,312.4,280.5z"/>
</g>
<g>
	<path class="st9" d="M287.7,315.6c0,0,6.3,0.9,6.3,0c0-1.6,0.9-2.5,2.5-4c1.6-0.9,3.2-0.9,4.8-0.9c2.5,0,7.2,0,7.9,1.6
		c1.6,1.6,0,4-2.5,3.2c-2.5,0-4,0-4.8,0.9c-0.9,0.9-0.9,0.9-0.9,0.9s5.6,1.6,7.9,0.9c2.5-0.9,7.2-0.9,9.5-0.9c2.5,0.9,4.8,1.6,4,3.2
		c0,0,1.6,0.9,0.9,2.5c-0.9,1.6-4.8,3.2-9.5,3.2c-5.6,0-13.6,1.6-18.3,0.9c-4.8,0-12-1.6-18.3-2.5c-6.3,0-6.3,0-6.3,0L287.7,315.6z"
		/>
	<path class="st9" d="M309.2,235.8c1.6,4,1.6,7.9,0,8.8c-2.5,0.9-4.8-1.6-7.2-5.6c-1.6-4-1.6-7.9,0-8.8
		C304.5,229.5,306.9,231.9,309.2,235.8z"/>
</g>
<path class="st6" d="M400.9,309.9c0,5.6-1.6,9.5-1.6,9.5l-12,1.6c0,0-0.9-16-15.1-19.2c-0.9-5.6-1.6-10.4-1.6-13.6
	c0-12.7,10.4-39.1,10.4-39.1s4.8,3.2,4,8.8c-0.9,5.6,3.2,7.9,3.2,11.1s-0.9,4,0,7.2C389.7,278.9,401.6,304.3,400.9,309.9z"/>
<path class="st5" d="M400.9,354.6c0,0-14.3,1.6-19.9,2.5c-6.3,0.9-9.5,0.9-12-1.6c-3.2-2.5-16.7-30.3-16.7-30.3s-4.8-22.3-5.6-43
	c0-13.6-3.2-28.7-4.8-37.5c0-2.5,0-4.8,0-7.2c3.2,0.9,12,3.2,18.3,4.8c7.9,2.5,21.5,5.6,21.5,5.6s-10.4,26.2-10.4,39.1
	s7.9,56.5,11.1,59.7C386.5,351.3,400.9,354.6,400.9,354.6z"/>
<path class="st7" d="M371.4,319.4c0,0-5.6-0.9-3.2-18.3c0,0,3.2-1.6,7.2,0.9c4,2.5,7.2,9.5,5.6,12.7
	C379.3,317.9,372.9,319.4,371.4,319.4z"/>
<path class="st6" d="M361.8,345.8c-0.9-0.9-11.1-14.3-16-31.9c-3.2-12-5.6-37.5-7.2-54.2c0.9-1.6,1.6-3.2,2.5-7.2
	c0-3.2,0.9-5.6,0.9-8.8l11.1,19.9l-2.5,4.8l7.2,0.9c0,0-4,31.9-3.2,40.7C355.5,317.9,361.8,344.2,361.8,345.8z"/>
<g>
	<path class="st9" d="M371.4,300.4l-3.2,0.9c0,0-4,0-6.3-0.9s-7.2-3.2-9.5-1.6c-2.5,0.9-7.2,9.5-7.2,9.5l19.2,10.4
		c0,0,2.5-0.9,3.2-1.6c0.9-0.9,4.8,1.6,10.4,0c6.3-0.9,6.3-0.9,6.3-0.9s-3.2-7.9-4.8-11.1C377.7,302,373.8,301.1,371.4,300.4z"/>
	<path class="st9" d="M463.8,208.7l6.3,4.8v1.6l-13.6,35c0,0-4-4.8-7.2-5.6c-3.2-0.9-8.8,4.8-12.7,4c-4-0.9-5.6-2.5-6.3-4
		c-0.9-2.5-7.2-2.5-4-5.6c0,0-2.5,0.9-2.5-1.6c0-2.5-2.5-3.2-2.5-3.2s-7.2,1.6-6.3-2.5c0.9-4,2.5-8.8,2.5-8.8s-0.9-0.9-2.5-1.6
		c-1.6-0.9-7.9-8.8-7.2-16c0.9-7.2,28.7-15.1,39.8-14.3C458.2,192.8,463.8,208.7,463.8,208.7z"/>
</g>
<path class="st4" d="M433.5,449.4c0,0,7.9,19.2,15.1,23.1c7.2,4,9.5,7.9,9.5,7.9l-31,13.6c0,0,0-11.1-4-19.2
	c-4-8.8-13.6-17.6-13.6-17.6L433.5,449.4z"/>
<path class="st5" d="M428.7,502c0,0-9.5,5.6-16,7.2c-6.3,1.6-13.6,4-13.6,8.8c0,4.8,7.9,7.2,16,7.2c7.9,0,21.5-2.5,25.5-7.2
	c4-4.8,10.4-9.5,10.4-9.5l3.2,3.2c0,0,16-7.9,17.6-12.7c2.5-4.8,0.9-4.8,0.9-4.8l-4-5.6L428.7,502z"/>
<path class="st6" d="M425.6,488.4c0,0,4.8-4.8,13.6-4.8c8.8,0,16.7-6.3,16.7-6.3s6.3,1.6,12.7,10.4c0,0-10.4,4.8-16.7,9.5
	c-6.3,5.6-9.5,7.9-15.1,9.5c-6.3,2.5-33.5,3.2-37.5,11.1c0,0-0.9-3.2,6.3-6.3c7.2-4,15.1-6.3,16.7-10.4
	C424.7,495.6,425.6,488.4,425.6,488.4z"/>
<path class="st5" d="M403.2,372.9c0,0-31.9,4-38.2,8.8c-6.3,4.8-7.2,14.3-5.6,19.9c1.6,4.8,53.3,65.3,58.1,67.8c0,0,4-5.6,10.4-9.5
	c6.3-4,7.9-9.5,7.9-9.5s-21.5-25.5-27.8-34.3c-6.3-8.8-8.8-9.5-8.8-9.5l31.9-16.7L403.2,372.9z"/>
<path class="st2" d="M541.9,520.3H419.2c-3.2,0-6.3-1.6-8.8-4c-2.5-2.5-3.2-6.3-2.5-9.5l15.1-102.8l72.5,1.6l56.5,96.5
	c2.5,4,2.5,7.9,0,12C549.9,517.8,545.8,520.3,541.9,520.3z M426.3,408l-15.1,99.6c0,2.5,0,4.8,1.6,6.3c1.6,1.6,4,3.2,6.3,3.2h122.7
	c3.2,0,5.6-1.6,7.2-4c1.6-2.5,1.6-5.6,0-8.8l-55.8-94.9L426.3,408z"/>
<path class="st6" d="M342.7,466.1c0,0,1.6,4.8,11.1,6.3c8.8,1.6,19.9,7.9,19.9,7.9s23.1-43.8,25.5-52.6c2.5-8.8,4-21.5,4-21.5
	s26.2-3.2,52.6-1.6c26.2,1.6,63.7-13.6,67.8-22.3c4-8.8,6.3-27.8,6.3-27.8l-82.9,6.3c0,0-3.2,5.6-10.4,6.3c-7.9,0.9-39.8,1.6-47,4.8
	c-7.2,2.5-14.3,3.2-17.6,16.7C369.1,402.4,354.6,438.3,342.7,466.1z"/>
<path class="st7" d="M470.1,215.2c0,0-14.3,13.6-17.6,35l12.7,10.4l15.1-34.3L470.1,215.2z"/>
<path class="st5" d="M529.1,336.2l-9.5,45.4c0,0-73.2-4.8-78.2-13.6c-4.8-8.8,1.6-46.1,4-54.9c2.5-7.9,10.4-27.8,15.1-49.5
	c4.8-21.6,19.9-39.1,19.9-39.1l4.8,0.9c0,0,13.6,7.2,18.3,10.4c4.8,3.2,16,16.7,18.3,23.1C522.8,266.1,529.1,336.2,529.1,336.2z"/>
<path class="st6" d="M476.6,219.1c0,0-5.6,3.2-10.4,19.9c-5.6,16.7-9.5,36.6-12,43.8c-2.5,7.2-8.8,30.3-8.8,30.3
	s11.1-27.8,14.3-39.1c2.5-11.1,7.9-37.5,25.5-48.6L476.6,219.1z"/>
<path class="st3" d="M413.6,408c0,0,10.4-8.8,17.6-18.3c7.2-9.5,28.7-37.5,48.6-45.4s74.1-19.2,74.1-19.2s-8.8,35-10.4,49.5
	c-1.6,14.3-11.1,39.1-39.8,41.4C475,417.5,413.6,408,413.6,408z"/>
<path class="st6" d="M470.1,213.6c-2.5,2.5-12,4-14.3,0.9c-2.5-4-10.4-6.3-13.6-3.2c-3.2,4-0.9,9.5-0.9,9.5l-4,1.6
	c0,0-0.9-2.5-2.5-4c-1.6-2.5-7.2-3.2-7.2-6.3c0-3.2-3.2-8.8-7.9-9.5c-4.8-0.9-11.1,2.5-11.1,2.5s-5.6-1.6-4-6.3
	c1.6-4.8,12.7-23.1,27.1-27.8c14.3-3.2,30.3,7.2,34.3,16C469.4,195.2,470.1,213.6,470.1,213.6z"/>
<path class="st10" d="M443.9,246.2L443.9,246.2c2.5-0.9,4-2.5,5.6-1.6c0.9,0,1.6,0.9,2.5,0.9c2.5-10.4,0.9-22.3,0.9-22.3
	C452.7,232.6,443.9,246.2,443.9,246.2z"/>
<path class="st12" d="M368.2,301.1c0,0,6.3-0.9,8.8,2.5c2.5,3.2,2.5,13.6-5.6,16h16.7c0,0,1.6-9.5-3.2-14.3
	C380.2,300.4,375.4,299.5,368.2,301.1z"/>
<path class="st6" d="M389.7,282.8v26.2c-1.6,0.9-3.2,1.6-4,3.2c-2.5-4-5.6-9.5-12.7-11.1c-0.9-5.6-1.6-9.5-1.6-12.7
	c0-1.6,0-3.2,0-4.8h18.3L389.7,282.8L389.7,282.8z"/>
<path class="st9" d="M416.8,326.7c0,0-3.2-0.9-7.2-0.9c-4,0-7.2,1.6-10.4,0c-2.5-1.6-3.2-2.5-5.6-1.6c-1.6,0.9-2.5,1.6-3.2,1.6
	c-0.9,0-1.6,0.9-1.6,0c-0.9-0.9-2.5-1.6-2.5-2.5c0,0-1.6-1.6-0.9-2.5c0,0-0.9-1.6-0.9-2.5c0,0-3.2-0.9-1.6-4
	c1.6-3.2,5.6-4.8,7.2-6.3c2.5-1.6,4-2.5,5.6-1.6c2.5,0.9,9.5,4.8,11.1,4.8c1.6,0.9,23.1,0.9,23.1,0.9l-0.9,14.3L416.8,326.7
	L416.8,326.7z"/>
<path class="st12" d="M426.3,309.9h-7.9c0,0-3.2,12.7-1.6,20.8l14.3,2.5L426.3,309.9z"/>
<path class="st6" d="M467,282.8c0,0-4-23.1,1.6-34.3c5.6-11.1,22.3-11.1,29.4-4c7.1,7.1,12.7,23.9,12,34.3
	c-0.9,10.4-7.2,20.8-7.2,28.7c0,7.9-2.5,11.1-5.6,14.3c-2.5,3.2-7.2,9.5-10.4,11.1c-3.2,0.9-63,4.8-62.1,4s-2.5-20.8-1.6-27.1
	c0,0,19.9-0.9,23.1-0.9c3.2,0.9,4.8,0,7.2-1.6c2.5-0.9,2.5-1.6,4-0.9c1.6,0.9,4.8,0.9,6.3,0s3.2-3.2,3.2-3.2s-2.5-10.4-0.9-12.7
	C467.8,288.4,467,282.8,467,282.8z"/>
<g>
	<path class="st13" d="M339.5,267l-4.8,12l-7.9-12.7c8.8-2.5,12.7-7.2,12.7-7.2C339.5,261.3,339.5,263.8,339.5,267z"/>
	<path class="st13" d="M324.4,266.1c0,0-3.2,2.5-4.8,5.6c-1.6,3.2-3.2,5.6-3.2,5.6l-4-7.9c-0.9-7.2-1.6-13.6-3.2-20.8
		C309.2,250.2,317.1,263.8,324.4,266.1z"/>
</g>
<path class="st6" d="M305.3,238.3h1.6c0,0-3.2-4.8-1.6-7.9c1.6-3.2-3.2-12.7,2.5-11.1c5.6,1.6,19.2-3.2,23.1-7.2c4-4,5.6-4,7.2-2.5
	s3.2,7.9,3.2,7.9s-1.6-6.3-3.2-10.4c-1.6-4,1.6-7.9-12-12c-13.6-4-25.5,1.6-29.4,12c-4,10.4,0.9,20.8,4,23.9
	C302.9,233.5,305.3,238.3,305.3,238.3z"/>
<path class="st12" d="M277.3,312.4l14.3,0.9c0,0-4.8,2.5-4.8,9.5c0,7.1,1.6,7.2,1.6,7.2l-23.9-4
	C265.4,326.7,275.8,312.4,277.3,312.4z"/>
<path class="st6" d="M287.7,312.4c-8.8,4-12,7.2-13.6,16.7l-40.7-2.5c0,0,0.9-16.7,1.6-21.5c0.9-4.8,4-12.7,8.8-17.6
	c4-4.8,12.7-16.7,13.6-19.2c0.9-2.5,3.2-4.8,4-6.3c0.9-1.6,2.5-7.2,3.2-12c0.9-5.6,5.6-6.3,5.6-6.3s4,6.3,3.2,16
	c0,10.4,5.6,19.2,5.6,25.5c0,1.6-0.9,4.8-0.9,9.5l0,0l-6.3,14.3l2.5,0.9L287.7,312.4z"/>
<g>
	<rect x="303.7" y="339.5" class="st14" width="12.7" height="162.5"/>
	<path class="st14" d="M424,337.9H196.9c-3.2,0-5.6-2.5-5.6-5.6l0,0c0-3.2,2.5-5.6,5.6-5.6H424c3.2,0,5.6,2.5,5.6,5.6l0,0
		C429.6,335.4,427.2,337.9,424,337.9z"/>
</g>
<path class="st15" d="M424,337.9c-74.1,5.6-149.8,4.8-227.1,0H424z"/>
<path class="st14" d="M377,512.4H243.2c0-5.6,4.8-10.4,10.4-10.4h113.2C372.2,502,377,506.7,377,512.4z"/>
<path class="st4" d="M364.2,504.3l-16,5.6L337,495.6c0,0,6.3-6.3,9.5-12.7c1.6-3.2,4-7.2,5.6-10.4h0.9c7.2,1.6,16,5.6,18.3,7.9
	C369.1,484.4,363.4,496.4,364.2,504.3z"/>
<path class="st5" d="M299.7,515.5h-5.6c0,0-2.5,3.2-1.6,4s17.6,7.2,28.7,9.5c10.4,2.5,24.7-1.6,27.1-4v4h15.9c2.5,0,4-1.6,4-4v-5.6
	l-5.6-4L299.7,515.5L299.7,515.5z"/>
<path class="st6" d="M337.9,494.1c0,0,4,0,6.3,4c2.5,4,6.3,6.3,9.5,7.2s10.4-2.5,11.1-4.8c0,0,3.2,13.6,2.5,19.2c0,0-12.7,0-21.5,4
	c-9.5,3.2-12.7,5.6-23.1,3.2c-10.4-2.5-27.1-8.8-28.7-11.1c0,0,7.2-0.9,14.3-1.6c7.2-0.9,14.3-8.8,19.2-12.7
	C332.3,496.4,337.9,494.1,337.9,494.1z"/>
<path class="st7" d="M367.5,282.8h-75.7c-2.5,0-4,1.6-4,4l5.6,39.8H365l5.6-39.8C371.4,285.3,369.1,282.8,367.5,282.8z"/>
<ellipse class="st2" cx="330" cy="305.2" rx="4" ry="2.5"/>
</svg>
