<?xml version="1.0" encoding="utf-8"?>
<!-- Generator: Adobe Illustrator 21.1.0, SVG Export Plug-In . SVG Version: 6.00 Build 0)  -->
<svg version="1.1" id="Layer_1" xmlns="http://www.w3.org/2000/svg" xmlns:xlink="http://www.w3.org/1999/xlink" x="0px" y="0px"
	 viewBox="0 0 755.1 709.7" style="enable-background:new 0 0 755.1 709.7;" xml:space="preserve">
<style type="text/css">
	.st0{fill:#EBF0F2;}
	.st1{fill:#DBE2E5;}
	.st2{display:none;}
	.st3{display:inline;}
	.st4{fill:#F2BF91;}
	.st5{fill:#67A2BF;}
	.st6{fill:#ECEDED;}
	.st7{fill:#FFFFFF;}
	.st8{fill:#76BA36;}
	.st9{fill:#FF473B;}
	.st10{fill:#FFC999;}
	.st11{fill:#FFF88C;}
	.st12{fill:#E0B186;}
	.st13{opacity:0.2;fill:#FFFFFF;enable-background:new    ;}
	.st14{fill:#007BAE;}
	.st15{fill:#DE4726;}
</style>
<g>
	<path class="st0" d="M56.9,261c-9.2,30.7-14.2,63.2-14.2,97c0,184.4,148.5,334.1,332.5,336.1L264.7,566.2l254.2-97.5l113.6,109.8
		c51.4-59,82.5-136.2,82.5-220.5c0-26.7-3.1-52.5-9-77.4c-73.6,42.8-185.1,70-309.8,70C253.4,350.6,128,314.9,56.9,261z"/>
	<path class="st0" d="M250.8,548.1L375.1,694c1.3,0,2.5,0,3.8,0c101.3,0,192.1-44.9,253.7-115.6L505,450.6L250.8,548.1z"/>
	<path class="st1" d="M378.9,21.7c-152,0-280.4,100.7-322,239.2c71.1,53.9,196.6,89.7,339.4,89.7c124.8,0,236.2-27.2,309.8-70
		C671.2,132.2,538,21.7,378.9,21.7z"/>
</g>
<g id="Layer_2" class="st2">
	<g id="OBJECTS" class="st3">
		<path class="st4" d="M278.6,336.8l-43.7,42.7l-32.2,85.9l51.9-3c0,0,11.8-0.9,17-8.9C277,445.2,278.6,336.8,278.6,336.8z"/>
		<path class="st5" d="M264,223.6h259c1.3,0,2.5,1.2,2.5,2.5V556c0,1.3-1.2,2.5-2.5,2.5H264c-1.3,0-2.5-1.2-2.5-2.5V226
			C261.6,224.6,262.6,223.6,264,223.6z"/>
		<rect x="281.6" y="235.8" class="st6" width="231.1" height="305.6"/>
		<polyline class="st4" points="208.8,449.6 174.6,532.3 233.3,532.3 259.3,461.5 209.4,448.1 		"/>
		<rect x="278.6" y="240.6" class="st7" width="229.6" height="300.7"/>
		<rect x="343.3" y="223.6" class="st6" width="100.2" height="24.5"/>
		<rect x="334.7" y="291.5" class="st6" width="155" height="34.9"/>
		<rect x="292.1" y="291.5" class="st6" width="34.9" height="34.9"/>
		<rect x="334.7" y="334.3" class="st6" width="155" height="34.9"/>
		<rect x="292.1" y="334.3" class="st6" width="34.9" height="34.9"/>
		<rect x="334.7" y="377.2" class="st6" width="155" height="34.9"/>
		<rect x="292.1" y="377.2" class="st6" width="34.9" height="34.9"/>
		<rect x="334.7" y="420" class="st6" width="155" height="34.9"/>
		<rect x="292.1" y="420" class="st6" width="34.9" height="34.9"/>
		<rect x="334.7" y="462.8" class="st6" width="155" height="34.9"/>
		<rect x="292.1" y="462.8" class="st6" width="34.9" height="34.9"/>
		<polygon class="st8" points="322.3,301.9 319.5,299 307,311.6 299.5,304.1 296.6,306.9 304.1,314.4 304.1,314.4 307,317.3 
			307,317.3 307,317.3 309.9,314.4 309.9,314.4 		"/>
		<polygon class="st8" points="322.3,346.7 319.5,343.9 307,356.4 299.5,348.9 296.6,351.8 304.1,359.3 304.1,359.3 307,362.2 
			307,362.2 307,362.2 309.9,359.3 309.9,359.3 		"/>
		<polygon class="st8" points="322.3,388.3 319.5,385.4 307,397.9 299.5,390.4 296.6,393.3 304.1,400.8 304.1,400.8 307,403.7 
			307,403.7 307,403.7 309.9,400.8 309.9,400.8 		"/>
		<polygon class="st9" points="316.5,440.8 313.1,437.4 319.4,431.1 316.5,428.2 310.2,434.6 304,428.2 301.1,431.1 307.3,437.4 
			304,440.8 301.1,443.6 301.1,443.6 304,446.5 304,446.5 304,446.5 306.9,443.6 306.9,443.6 310.2,440.3 313.6,443.6 313.6,443.6 
			316.4,446.5 316.5,446.5 316.5,446.5 319.4,443.6 319.4,443.6 		"/>
		<polygon class="st9" points="316.5,483.6 313.1,480.3 319.4,473.9 316.5,471 310.2,477.4 304,471 301.1,473.9 307.3,480.3 
			304,483.6 301.1,486.5 301.1,486.5 304,489.3 304,489.3 304,489.3 306.9,486.5 306.9,486.5 310.2,483.1 313.6,486.5 313.6,486.5 
			316.4,489.3 316.5,489.3 316.5,489.3 319.4,486.5 319.4,486.5 		"/>
		<path class="st10" d="M261.6,428.2c0,0,3.7-6.6,17.2-33.7c13.4-27.1,0-32.4,0-32.4l-36.2,43l-38.8,57
			C203.7,462.1,261.6,473.9,261.6,428.2z"/>
		<polygon class="st10" points="230.1,462.1 203.7,462.1 174.6,532.3 201,532.3 		"/>
		<path class="st8" d="M213.1,645.8c-28.8-12.1-74.3-53.4-74.3-53.4L188,479h71.2C259.3,479,221.2,630.2,213.1,645.8z"/>
		<polygon class="st11" points="260.6,469.2 197.5,469.2 194.1,479 257.1,479 		"/>
		<path class="st10" d="M405.6,396.5l71.1,26.8l39.4,82.3l-51.9-3c0,0-11.8-0.9-17-8.9c-3.9-6.2-21.6-52.2-32-77.3
			c0,0-11-5.6-12.7-10.2C400.7,401.2,405.6,396.5,405.6,396.5z"/>
		<path class="st6" d="M392.9,274.8c-9.2,0-16.9-6.8-18-15.9h-31.4v-15.6l37.3-0.3c6.9-6.2,17.3-6.3,24.4-0.1l38.6-0.3v16.3h-32.6
			C409.8,268,402.2,274.8,392.9,274.8z M348.1,254.2h31.3v2.3c0,7.5,6.1,13.6,13.6,13.6c7.5,0,13.6-6.1,13.6-13.6v-2.3h32.4v-6.8
			l-35.8,0.3l-0.7-0.7c-5.3-5.2-13.8-5.2-19,0.1l0,0l-0.7,0.7l-34.5,0.3L348.1,254.2z"/>
		<polygon class="st6" points="508.2,268.6 480.3,268.6 480.3,240.6 		"/>
		<polygon class="st12" points="415.3,416.4 452.6,429.7 467.2,462.8 430.1,465.1 		"/>
		<polygon class="st9" points="560.9,439.2 557.5,458.9 393.4,429.8 382.3,421.3 375.8,416.4 383.6,414.1 397,410.2 397,410.2 		"/>
		<polygon class="st13" points="560.1,445.2 558.5,452.9 393.4,423.9 393.7,415.8 		"/>
		<path class="st10" d="M461.4,505.6l-16.4-8.1l-39.4-75.7c0,0,14.4-5.3,25.5,12.3l15.9,23.9l9.9,2.3l6.3-18.2l14.3,26.8
			L461.4,505.6z"/>
		<polygon class="st10" points="456.5,500.6 460.9,512.3 518.8,510.8 511.5,495.7 		"/>
		<path class="st8" d="M530.9,519.2h-71.1c0,0,40.8,134.5,46.1,145.2c5.5,0,51-20.6,69.9-36C573.3,619.1,530.9,519.2,530.9,519.2z"
			/>
		<polygon class="st11" points="458.4,509.5 521.6,509.5 525,519.2 461.9,519.2 		"/>
		<polygon class="st10" points="397,410.2 393.4,429.8 382.3,421.3 383.6,414.1 		"/>
	</g>
</g>
<g id="_x35_cgvO0.tif">
	<g>
		<path class="st7" d="M347.4,232.1c-8.7,3.5-16.6,6.1-23.9,9.8c-28.4,14.6-49,36.4-61.2,66c-1,2.5-2.6,4.8-4.5,6.7
			c-12.5,13.1-22.1,27.5-23.9,46.2c-2.5,25.2,5.5,46.5,23.9,64c1.6,1.5,2.9,3.4,4,5.5c4.6,8.2,5.2,17,4.8,26.2
			c-1.1,23-12,40.9-29.7,54.8c-4.4,3.4-9.3,6-13.9,9c0,0.5,0.1,1.1,0.1,1.6c16.2,0.5,32.6,2,48.7,1.5c20.7-0.5,39.4-7.4,55-21.8
			c1-1,3.5-0.8,5-0.3c31.9,12.4,64.1,13.2,96,0.5c34.1-13.6,58-38.2,72.1-72.1c0.7-1.5,1.5-3,2.7-4.1c33.4-29.7,34-80.3,1.4-110.7
			c-2.2-2-4-4.6-5-7.4c-11.6-27.8-30.5-49.1-57-63.4c-8.6-4.6-17.7-8-26.7-12c0.4-0.5,1-1.5,1.8-2.2c12.8-12.8,25.8-25.6,38.6-38.5
			c4.2-4.2,7.6-8.3,15.4-7.8c10.4,0.7,18.7-10.5,17.6-20.5c-1.2-11.7-10.5-18.8-22.6-17.5c-9.8,1.1-16.9,11-16,21.7
			c0.1,1.8-0.5,4.2-1.8,5.5c-17.5,17.7-35.2,35.2-52.6,52.9c-2.6,2.6-5,3.3-8.5,2.9c-4.2-0.4-8.6-0.5-12.8,0
			c-3.5,0.4-5.9-0.4-8.5-2.9c-17.5-17.7-35.2-35.2-52.6-52.9c-1.2-1.2-2-3.7-1.8-5.5c1.4-13.4-9-23.5-22.4-21.5
			c-10.2,1.5-17.7,11.9-16.1,22c1.6,10,11.9,17.5,21.7,16.2c1.8-0.3,4.4,0.7,5.7,2c9.8,9.5,19.5,19.4,29.3,28.9
			C335.4,220.8,341.3,226.4,347.4,232.1z"/>
		<path class="st14" d="M347.4,232.1c-6.1-5.9-12-11.3-17.7-16.9c-9.8-9.7-19.4-19.5-29.3-28.9c-1.4-1.4-4-2.3-5.7-2
			c-9.7,1.4-20-6.1-21.7-16.2c-1.6-10.1,5.9-20.5,16.1-22c13.4-1.9,23.7,8.2,22.4,21.5c-0.1,1.8,0.5,4.2,1.8,5.5
			c17.5,17.7,35.2,35.2,52.6,52.9c2.6,2.6,4.9,3.3,8.5,2.9c4.2-0.4,8.6-0.4,12.8,0c3.5,0.4,5.9-0.4,8.5-2.9
			c17.5-17.7,35.2-35.2,52.6-52.9c1.2-1.2,2-3.7,1.8-5.5c-1.1-10.6,6.1-20.6,16-21.7c12.1-1.2,21.3,5.9,22.6,17.5
			c1.1,10-7.2,21.1-17.6,20.5c-7.8-0.5-11.2,3.7-15.4,7.8c-13,12.8-25.8,25.6-38.6,38.5c-0.7,0.7-1.2,1.6-1.8,2.2
			c9,4,18.3,7.4,26.7,12c26.5,14.3,45.4,35.5,57,63.4c1.1,2.7,2.9,5.3,5,7.4c32.6,30.5,32,81-1.4,110.7c-1.2,1.1-2.2,2.6-2.7,4.1
			c-14.2,34-38,58.5-72.1,72.1c-31.9,12.8-64.1,11.9-96-0.5c-1.5-0.5-4.1-0.7-5,0.3c-15.5,14.3-34.4,21.1-55,21.8
			c-16.2,0.4-32.5-1-48.7-1.5c0-0.5-0.1-1.1-0.1-1.6c4.6-3,9.7-5.6,13.9-9c17.7-14,28.6-31.8,29.7-54.8c0.4-9.1-0.1-18-4.8-26.2
			c-1.1-1.9-2.3-4-4-5.5c-18.4-17.5-26.2-38.7-23.9-64c1.8-18.7,11.2-33.1,23.9-46.2c1.9-1.9,3.5-4.2,4.5-6.7
			c12.3-29.6,32.9-51.5,61.2-66C330.8,238.2,338.7,235.8,347.4,232.1z M380.3,434.7L380.3,434.7c12,0.1,24.1,0.1,36.1,0
			c12,0,24.1-0.3,36.1-0.1c29.9,0.3,55.4-18.4,63.3-47.2c6.8-24.4,0.7-45.8-16.5-63.7c-12.8-13.4-29.5-19.2-48-19.1
			c-20.6,0.1-41.2,0.1-61.8,0.1c-26.7,0-53.5-0.4-80.2-0.1c-29,0.3-50.2,13.8-61.6,40.8c-9,21.1-6.3,41.7,6.3,60.7
			c11.9,18,29.3,27.7,50.7,28.4C329.8,435.3,355,434.7,380.3,434.7z"/>
		<path class="st7" d="M380.3,434.7c-25.2,0-50.5,0.7-75.5-0.1c-21.4-0.7-38.9-10.5-50.7-28.4c-12.5-19-15.3-39.5-6.3-60.7
			c11.5-26.9,32.6-40.4,61.6-40.8c26.7-0.3,53.5,0.1,80.2,0.1c20.6,0,41.2,0,61.8-0.1c18.7-0.1,35.2,5.7,48,19.1
			c17.2,17.9,23.3,39.4,16.5,63.7c-8,28.8-33.5,47.6-63.3,47.2c-12-0.1-24.1,0.1-36.1,0.1C404.4,434.7,392.3,434.7,380.3,434.7
			L380.3,434.7z M319,389.9c12.3-0.1,20.6-8.6,20.7-20.9c0-10-9.7-19.6-19.8-19.6c-11.6,0-20.6,9.3-20.6,21.1
			C299.3,380.9,308.5,389.9,319,389.9z M441.8,389.9c10.5,0.3,20-8.6,20.3-18.8c0.3-11.7-8.6-21.5-19.6-21.5
			c-10.8-0.1-20.6,9-20.9,19.1C421.3,380.6,429.8,389.4,441.8,389.9z"/>
		<path class="st15" d="M319,389.9c-10.5,0.1-19.8-9-19.8-19.4c0-12,9-21.1,20.6-21.1c10.1,0,19.9,9.7,19.8,19.6
			C339.8,381.3,331.3,389.7,319,389.9z"/>
		<path class="st15" d="M441.8,389.9c-12.1-0.3-20.6-9.1-20.3-21.3c0.3-10.1,10.1-19.2,20.9-19.1c11,0.1,20,9.8,19.6,21.5
			C461.8,381.3,452.2,390.1,441.8,389.9z"/>
	</g>
</g>
</svg>
