<svg id="Capa_1" enable-background="new 0 0 512 512" height="512" viewBox="0 0 512 512" width="512"
    xmlns="http://www.w3.org/2000/svg">
    <g>
        <path
            d="m131.173 283.065c0 16.155 13.143 29.297 29.297 29.297s29.297-13.143 29.297-29.297-13.143-29.297-29.297-29.297-29.297 13.143-29.297 29.297zm43.595 0c0 7.884-6.414 14.297-14.297 14.297s-14.297-6.414-14.297-14.297 6.414-14.297 14.297-14.297 14.297 6.414 14.297 14.297z" />
        <path
            d="m484.294 69.724c-8.788-13.029-26.536-16.479-39.565-7.691-8.279 5.585-12.819 14.812-12.552 24.47l-65.442 24.803-69.85-103.557c-5.424-8.038-16.349-10.176-24.404-4.743-16.656 11.239-31.483 23.102-46.268 43.143-2.459 3.333-1.75 8.029 1.583 10.488s8.029 1.751 10.488-1.583c13.49-18.284 27.066-29.143 42.586-39.612 1.16-.785 2.812-.442 3.58.696 1.683 2.496 163.958 243.08 172.497 255.739.813 1.204.462 2.798-.696 3.58-20.493 13.824-40.804 23.864-69.271 27.962-.007.001-.013.001-.02.002-95.724 13.777-179.283-60.957-179.283-155.09 0-22.072 4.773-44.376 13.804-64.501 1.696-3.779.007-8.217-3.772-9.913-3.777-1.694-8.217-.007-9.913 3.772-9.89 22.041-15.118 46.469-15.118 70.642 0 15.811 2.171 31.39 6.394 46.387l-35.707 29.617c-.959-.046-1.923-.071-2.893-.071-30.193 0-55.212 22.657-58.198 52.702l-15.622 157.231h-24.693c-21.579 0-39.134 17.556-39.134 39.134v19.074c0 10.805 8.791 19.595 19.595 19.595h236.102c10.805 0 19.595-8.791 19.595-19.595v-19.074c0-21.579-17.556-39.134-39.134-39.134h-24.693l-4.272-42.996c-.41-4.122-4.083-7.131-8.205-6.722-4.122.41-7.131 4.083-6.722 8.205l4.124 41.513h-117.49l15.475-155.748c2.219-22.339 20.822-39.186 43.271-39.186 22.502 0 41.094 17.26 43.271 39.186.523 5.26 1.048 10.549 1.583 15.931 0 .001 0 .002.001.003l6.306 63.472c.409 4.121 4.076 7.129 8.205 6.722 4.122-.41 7.131-4.083 6.722-8.205l-5.812-58.503 33.366-17.985c37.909 31.845 87.23 45.259 135.005 38.38.008-.001.015-.002.022-.003 29.997-4.323 52.349-14.753 75.5-30.37 8.03-5.418 10.182-16.339 4.743-24.403l-67.681-100.343 47.512-51.385c8.715 3.805 18.99 3.194 27.39-2.472h.001c13.059-8.809 16.498-26.506 7.689-39.564zm-201.177 403.607v19.074c0 2.534-2.062 4.595-4.595 4.595h-236.102c-2.534 0-4.595-2.062-4.595-4.595v-19.074c0-13.308 10.827-24.134 24.134-24.134h197.024c13.308 0 24.134 10.826 24.134 24.134zm-64.449-196.375c-2.163-21.74-16.161-40.553-36.633-48.619l22.123-18.351c8.376 21.664 21.398 42.066 38.281 59.15l-23.3 12.559c-.013-.131-.484-4.866-.471-4.739zm174.416-126.586c-13.615-20.185-10.565-15.663-17.732-26.288l61.218-23.202c.152.241.308.48.468.717.16.238.324.473.492.706zm75.131-53.517c-4.78 3.225-11.087 3.109-15.819-.532-7.252-5.626-6.906-16.71.721-21.853 6.169-4.162 14.56-2.556 18.741 3.644 4.173 6.185 2.545 14.568-3.643 18.741z" />
    </g>
</svg>