<?xml version="1.0" encoding="utf-8"?>
<!-- Generator: Adobe Illustrator 23.1.0, SVG Export Plug-In . SVG Version: 6.00 Build 0)  -->
<svg version="1.1" id="Layer_1" xmlns="http://www.w3.org/2000/svg" xmlns:xlink="http://www.w3.org/1999/xlink" x="0px" y="0px"
	 viewBox="0 0 1050 800" style="enable-background:new 0 0 1050 800;" xml:space="preserve">
<style type="text/css">
	.st0{fill:#D5042B;}
	.st1{fill:#002164;}
	.st2{fill-rule:evenodd;clip-rule:evenodd;fill:#002164;}
	.st3{fill-rule:evenodd;clip-rule:evenodd;fill:#FFFFFF;}
</style>
<g>
	<circle class="st0" cx="504.6" cy="245.1" r="238.5"/>
	<circle id="Ellipse_1_copy" class="st1" cx="491.3" cy="243.4" r="196.2"/>
	<path class="st2" d="M783.6,513.7c-26.3-27.8-57-30.6-88.8-31.7c-32.9-1.1-66.1-1.4-98.4-7c-60.6-10.5-102.3-65.8-94.6-124.2
		c22.3,32.3,55.4,30.9,87.3,32.3c24.9,1.1,49.9-0.4,74.7,1.4C734.3,389.5,779.5,437,783.6,513.7z"/>
	<path class="st3" d="M466.1,375.9c-1.1-33.8-2.1-67.2-3.2-100.6c-0.5-14.2-0.8-28.3-1.5-42.5c-0.5-11.5,2.2-21.7,9-31.1
		c7.4-10,9.8-22.1,10.4-34.4c0.5-11.7,0.2-23.4,0.3-35.1c0-3.7-1.6-5.8-5.4-5.8c-4,0-5.1,2.4-5.1,6c0,11.5,0.1,23.1-0.2,34.6
		c-0.1,2.2-1.3,5.2-3,6.4c-3.2,2.2-6.7-0.9-6.8-5.6c-0.1-11.1,0-22.2,0-33.3c0-1.4,0.4-3.1-0.2-4.1c-1-1.6-2.7-3.8-4.1-3.8
		s-3.7,2.2-4,3.7c-0.7,3.3-0.3,6.7-0.3,10.1c0,9.1,0.1,18.2,0,27.3c-0.1,5-3.9,7.9-7.3,5.5c-1.5-1.1-2.5-3.8-2.6-5.8
		c-0.2-11.4-0.2-22.8-0.1-34.2c0-3.7-0.5-6.9-5.1-6.9c-3.8,0-5.4,1.8-5.2,6.8c0.4,14.9,0.2,29.9,1.8,44.7c0.8,7.7,4.9,15,7.9,22.3
		c1.6,3.8,1.5,4.6-2.6,4.6c-13,0.1-25.9,0-38.9,0.1c-3.7,0-5.2-1.6-5.2-5.3c0-27.6,0-55.1,0-82.7c0-5,3.1-5.1,6.7-5.1
		c57.1,0,114.2,0,171.3,0c3.8,0,7.5,0.1,11.3,0c3.6-0.1,5.2,1.4,5.2,5.2c0,27.6-0.1,55.1,0,82.7c0,3.7-1.5,5.3-5.2,5.2
		c-11-0.1-22-0.1-33,0c-3.7,0-4.2-1.3-3.3-4.8c4.6-17.7,4.6-35.4-1.5-52.7c-1.9-5.3-4.6-10.3-8.2-14.7c-7.1-8.8-16.6-8.5-24,0.1
		c-7.5,8.7-10.3,19.4-11.8,30.5c-1.9,13.8-1.1,27.4,3.5,40.5c1.9,5.1,4.5,10,7.6,14.6c4.8,7.2,7.9,15,7.7,23.7
		c-1.3,44-2.8,88-4.3,132c-0.1,0.6-0.1,1.1-0.3,1.7L466.1,375.9L466.1,375.9z"/>
</g>
<path id="TexQue" class="st2" d="M113.4,754V563.8h56v-46H4.2v46h55.6V754H113.4z M319,666.8c0-25.4-1.1-44-3.4-55.6
	c-2.3-11.7-8.2-20.4-17.9-26.3c-9.6-5.8-25.4-8.8-47.4-8.8c-22.2,0-38.5,3.1-48.8,9.3c-10.3,6.2-16.9,15.3-19.9,27.5
	c-3,12.1-4.5,30.1-4.5,53.9c0,24.3,1.5,42.4,4.5,54.3c2.7,11.5,10.3,21.3,20.8,26.8c10.9,6,28.1,8.9,51.7,8.9
	c10.5,0,21.3-0.5,32.4-1.5c9.1-0.7,18.1-2,27-3.9v-36.4c-22,1.8-37.9,2.8-47.7,2.7c-13,0-22.1-0.8-27.3-2.4
	c-5.2-1.6-8.4-4.7-9.8-9.4c-1.4-4.7-2.1-13.2-2.1-25.6H319L319,666.8L319,666.8z M249.7,614.3c6.6,0,11.4,0.7,14.4,2.2
	c3,1.5,5,4.7,6.2,9.6c1.1,4.9,1.7,13.2,1.7,24.9h-45.3c0-11.4,0.5-19.6,1.5-24.5c1-4.9,3.1-8.2,6.2-9.8
	C237.5,615.1,242.6,614.3,249.7,614.3L249.7,614.3L249.7,614.3z M497.5,754l-50.1-89.3l48.1-85.8h-51.2l-26.4,51.8h-2.4l-26.4-51.8
	h-53.9l48.4,86.2L333.4,754h51.5l27.8-54.9h2.7l28.2,54.9L497.5,754L497.5,754z M649.3,793.5H706v-1.7L672.3,741
	c9.2-7.6,15-19,17.7-34.3s4-38.9,3.9-70.7c0-35.9-1.5-61.6-4.6-77.1c-3.1-15.5-10.7-26.6-22.8-33.5c-12.1-6.9-32.4-10.3-60.8-10.3
	s-48.6,3.4-60.8,10.3c-12.1,6.9-19.7,18-22.7,33.5s-4.5,41.1-4.5,77.1c0,35.9,1.5,61.6,4.5,77.1s10.5,26.6,22.7,33.5
	c12.1,6.9,32.4,10.3,60.8,10.3c6.8,0,13.5-0.3,20.3-1L649.3,793.5z M605.7,713.2c-12.1,0-20.3-1.3-24.5-3.8c-4.2-2.5-6.9-8.5-8.1-18
	c-1.1-9.5-1.7-28-1.7-55.5c0-27.5,0.6-46,1.7-55.5c1.1-9.5,3.8-15.5,8.1-18s12.4-3.8,24.5-3.8c12.4,0,20.6,1.3,24.7,3.8
	s6.8,8.5,8.1,18c1.3,9.5,1.9,28,1.9,55.5s-0.6,46-1.9,55.5c-1.3,9.5-3.9,15.5-8.1,18S618.1,713.2,605.7,713.2L605.7,713.2z
	 M824.4,754h47V578.9h-49.8v90.6c0,13-0.5,22.5-1.4,28.5s-2.9,10.1-6,12.5c-3.1,2.4-8.1,3.6-14.9,3.6s-11.6-0.7-14.2-2.2
	c-2.6-1.5-4.4-5-5.3-10.5c-0.9-5.5-1.4-15.1-1.4-28.8v-93.7h-49.8v112.3c0,16,1.1,28.6,3.4,37.8c2.3,9.2,6.8,16.1,13.6,20.8
	c6.7,4.7,16.6,7,29.7,7c22.7,0,37.7-7.9,45-23.7h2.7L824.4,754z M1045.8,666.8c0-25.4-1.1-44-3.4-55.6c-2.3-11.7-8.2-20.4-17.8-26.3
	c-9.6-5.8-25.4-8.8-47.4-8.8c-22.2,0-38.5,3.1-48.8,9.3s-16.9,15.3-19.9,27.5c-3,12.1-4.5,30.1-4.5,53.9c0,24.3,1.5,42.4,4.5,54.3
	c2.7,11.5,10.3,21.3,20.8,26.8c10.9,6,28.1,8.9,51.7,8.9c10.5,0,21.3-0.5,32.4-1.5c9.1-0.7,18.1-2,27-3.9v-36.4
	c-22,1.8-37.9,2.8-47.7,2.7c-13,0-22.1-0.8-27.3-2.4c-5.1-1.6-8.4-4.7-9.8-9.4c-1.4-4.7-2.1-13.2-2.1-25.6h92.4L1045.8,666.8
	L1045.8,666.8z M976.5,614.3c6.6,0,11.4,0.7,14.4,2.2c3,1.5,5,4.7,6.2,9.6c1.1,4.9,1.7,13.2,1.7,24.9h-45.3
	c0-11.4,0.5-19.6,1.5-24.5c1-4.9,3.1-8.2,6.2-9.8C964.3,615.1,969.4,614.3,976.5,614.3L976.5,614.3L976.5,614.3z"/>
</svg>
