<?xml version="1.0" encoding="utf-8"?>
<!-- Generator: Adobe Illustrator 21.1.0, SVG Export Plug-In . SVG Version: 6.00 Build 0)  -->
<svg version="1.1" id="Capa_1" xmlns="http://www.w3.org/2000/svg" xmlns:xlink="http://www.w3.org/1999/xlink" x="0px" y="0px"
	 viewBox="0 0 512 512" style="enable-background:new 0 0 512 512;" xml:space="preserve">
<style type="text/css">
	.st0{fill:#FF6838;}
	.st1{fill:#AE4E32;}
	.st2{fill:#005C83;}
	.st3{fill:#00263F;}
</style>
<path class="st0" d="M422,306.7c0-8.7-0.9-17.2-2.1-25.6l38.9-22.4l-61.1-105.8l-38.8,22.4c-13.3-10.7-28.3-19.3-44.4-25.6v-44.8
	H192.3v44.8c-16.2,6.3-31.1,14.9-44.4,25.6l-38.8-22.4L48,258.7l38.9,22.4c-1.3,8.4-2.1,16.9-2.1,25.6s0.9,17.2,2.1,25.6L48,354.8
	l61.1,105.8l38.8-22.4c13.3,10.7,28.3,19.3,44.4,25.6v44.8h122.2v-44.8c16.2-6.3,31.1-14.9,44.4-25.6l38.8,22.4l61.1-105.8
	l-38.9-22.4C421.2,324,422,315.5,422,306.7z M253.4,380.3c-40.6,0-73.6-32.9-73.6-73.6s32.9-73.6,73.6-73.6s73.6,33,73.6,73.6
	S294,380.3,253.4,380.3z"/>
<path class="st1" d="M422,306.7c0-8.7-0.9-17.2-2.1-25.6l38.9-22.4l-61.1-105.8l-38.8,22.4c-13.3-10.7-28.3-19.3-44.4-25.6v-44.8
	h-61.2v128.3c0,0,0,0,0.1,0c40.6,0,73.6,33,73.6,73.6s-33,73.6-73.6,73.6c0,0,0,0-0.1,0v128.3h61.2v-44.8
	c16.2-6.3,31.1-14.9,44.4-25.6l38.8,22.4l61.1-105.8l-38.9-22.4C421.2,324,422,315.5,422,306.7z"/>
<path class="st2" d="M189.5,160.3c6.9,5.4,14.7,9.7,22.8,13.3v194.2c11.7,7.9,25.9,12.5,41.1,12.5c15.2,0,29.3-4.6,41.1-12.5V173.6
	c8.1-3.6,15.9-7.9,22.8-13.3c19.5-17.5,32-42.7,32-71c0-39-23.4-72.4-56.8-87.4v69.7l-39,29.5l-39-29.5V2
	c-33.4,15-56.8,48.4-56.8,87.4C157.5,117.7,170,142.8,189.5,160.3z"/>
<path class="st3" d="M292.4,2v69.7l-39,29.5l0,0l-0.1,279.2c0,0,0,0,0.1,0c15.2,0,29.3-4.6,41.1-12.5V173.6
	c8.1-3.6,15.9-7.9,22.8-13.3c19.5-17.5,32-42.7,32-71C349.2,50.4,325.8,17,292.4,2z"/>
</svg>
