<?xml version="1.0" encoding="iso-8859-1"?>
<!-- Generator: Adobe Illustrator 19.0.0, SVG Export Plug-In . SVG Version: 6.00 Build 0)  -->
<svg version="1.1" id="Layer_1" xmlns="http://www.w3.org/2000/svg" xmlns:xlink="http://www.w3.org/1999/xlink" x="0px" y="0px"
	 viewBox="0 0 511.328 511.328" style="enable-background:new 0 0 511.328 511.328;" xml:space="preserve">
<path d="M420.688,388.68V127.192c0-6.256-5.12-11.368-11.368-11.368H45.592c-6.256,0-11.368,5.12-11.368,11.368V388.68
	C34.224,388.68,421.648,388.68,420.688,388.68z"/>
<rect x="48.4" y="130.04" style="fill:#FFFFFF;" width="358.048" height="244.432"/>
<rect y="388.68" style="fill:#CFDCE5;" width="454.768" height="7.112"/>
<polygon style="fill:#AAC1CE;" points="432.104,410 22.816,410 0.072,395.792 454.84,395.792 "/>
<g style="opacity:0.7;">
	<path style="fill:#FFFFFF;" d="M265.608,388.68h-76.456c0.728,3.984,4.28,7.112,8.736,7.112h58.984
		C261.328,395.792,264.888,392.672,265.608,388.68z"/>
</g>
<rect x="264.24" y="153.976" width="12.896" height="190.448"/>
<polygon style="fill:#CFDCE5;" points="155.984,296.288 264.272,344.432 264.272,153.976 155.984,202.112 "/>
<rect x="103.104" y="202.704" style="fill:#25B6D2;" width="52.88" height="92.992"/>
<polygon points="103.104,279.632 86.72,272.752 86.72,225.656 103.104,218.776 "/>
<polygon points="155.984,350.528 125.472,350.528 115.152,295.368 145.672,295.368 "/>
<polygon style="fill:#45C7D8;" points="103.104,230.92 103.104,202.704 131.312,202.704 "/>
<polygon points="145.672,295.368 146.536,299.992 118.008,310.64 115.152,295.368 "/>
<circle style="fill:#FFFFFF;" cx="442.88" cy="314.44" r="66.432"/>
<path style="fill:#CECECE;" d="M442.888,382.872c-37.736,0-68.44-30.696-68.44-68.432S405.152,246,442.888,246
	s68.44,30.696,68.44,68.44S480.624,382.872,442.888,382.872z M442.888,250.008c-35.528,0-64.44,28.904-64.44,64.44
	c0,35.52,28.904,64.432,64.44,64.432s64.44-28.904,64.44-64.432C507.328,278.912,478.424,250.008,442.888,250.008z"/>
<path style="fill:#E04F5F;" d="M439.696,350.872v-8.928c-5.8-0.176-11.592-1.832-14.904-4.048l2.488-8.648
	c3.584,2.12,8.744,4.048,14.36,4.048c5.8,0,9.76-2.848,9.76-7.272c0-4.144-3.224-6.816-10.032-9.296
	c-9.672-3.496-15.928-7.912-15.928-16.48c0-7.912,5.52-13.984,14.824-15.64v-9.024h7.544v8.56c5.8,0.176,9.76,1.56,12.704,3.04
	l-2.488,8.456c-2.208-1-6.256-3.12-12.512-3.12c-6.448,0-8.752,3.312-8.752,6.44c0,3.776,3.32,5.888,11.144,9.016
	c10.304,3.864,14.912,8.832,14.912,17.032c0,7.824-5.44,14.728-15.552,16.384v9.48H439.696z"/>
<circle style="fill:#32BEA6;" cx="442.88" cy="152.68" r="51.352"/>
<path style="fill:#FFFFFF;" d="M460.136,174.96c-2.632,1.6-7.104,3.192-12.208,3.192c-7.264,0-13.816-2.872-18.048-8.224
	c-2.552-2.952-4.304-6.944-5.024-11.896h-5.112v-4.872h4.472c0-0.4,0-0.88,0-1.28c0-0.96,0.08-2,0.16-2.872h-4.624v-4.952h5.344
	c0.96-4.872,3.12-9.016,5.992-12.056c4.304-4.792,10.136-7.504,17.24-7.504c4.792,0,8.784,1.192,11.416,2.472l-1.992,7.424
	c-2.08-1.12-5.352-2.16-8.944-2.16c-3.992,0-7.504,1.44-10.144,4.392c-1.672,1.76-2.864,4.392-3.504,7.424h20.912V149H434.2
	c-0.16,0.88-0.16,1.832-0.16,2.792c0,0.48,0,0.88,0,1.36h22.032v4.872h-21.16c0.56,3.432,1.76,5.984,3.432,7.824
	c2.72,2.96,6.544,4.312,10.704,4.312c3.912,0,7.584-1.352,9.424-2.392L460.136,174.96z"/>
<circle style="fill:#E04F5F;" cx="346.48" cy="221.544" r="32.784"/>
<path style="fill:#FFFFFF;" d="M343.92,238.736v-8.096h-7.56v-2.96h7.56v-3.296h-7.56v-2.96h6.056l-8.04-14.2h6.448l4.072,8.768
	c0.864,1.792,1.408,3.296,2.032,4.848h0.104c0.576-1.456,1.208-3.152,2.032-4.944l4.216-8.672h6.296l-8.48,14.2h6.008v2.96h-7.608
	v3.296h7.608v2.96h-7.608v8.096L343.92,238.736L343.92,238.736z"/>
<g>
</g>
<g>
</g>
<g>
</g>
<g>
</g>
<g>
</g>
<g>
</g>
<g>
</g>
<g>
</g>
<g>
</g>
<g>
</g>
<g>
</g>
<g>
</g>
<g>
</g>
<g>
</g>
<g>
</g>
</svg>
