<?xml version="1.0" encoding="utf-8"?>
<!-- Generator: Adobe Illustrator 21.1.0, SVG Export Plug-In . SVG Version: 6.00 Build 0)  -->
<svg version="1.1" id="Layer_1" xmlns="http://www.w3.org/2000/svg" xmlns:xlink="http://www.w3.org/1999/xlink" x="0px" y="0px"
	 viewBox="0 0 479 479" style="enable-background:new 0 0 479 479;" xml:space="preserve">
<style type="text/css">
	.st0{fill:#F9D1B4;}
	.st1{fill:#1360FE;}
	.st2{fill:#FFFFFF;}
	.st3{fill:#FCE8DB;}
	.st4{fill:#CADDED;}
	.st5{fill:#2C3B42;}
</style>
<path class="st0" d="M333.8,398l70.1-33.1c15.5-7.8,34.3-2.1,42.8,13L304.3,470c-19.1,8.8-40.5,11.2-61.1,6.9l-98.3-27.6
	c-9-2.5-18.7-1.5-27,3l-20.5,11l2.8-100.2l0.8,0c29.4-20.9,67.9-23.6,99.9-7l5.9,3c9.2,4.8,19.3,7.4,29.7,7.7l57.8,1.6
	C312.3,368.9,328.2,380.7,333.8,398z"/>
<path class="st1" d="M353,222.2c0,59.6-48.3,107.8-107.8,107.8s-107.8-48.3-107.8-107.8s48.3-107.8,107.8-107.8S353,162.6,353,222.2
	z"/>
<path class="st2" d="M245.2,213.5c-10,0-18.1-8.1-18.1-18.1c0-10,8.1-18.1,18.1-18.1c10,0,18.1,8.1,18.1,18.1c0,4.4,3.6,8,8,8
	s8-3.6,8-8c0-16.1-11.3-30.1-27.1-33.4v-7.3c0-4.4-3.6-8-8-8s-8,3.6-8,8v7.8c-16.5,4.5-27.1,20.5-24.8,37.4
	c2.3,16.9,16.7,29.6,33.8,29.6c9.9-0.1,18.1,7.9,18.3,17.8c0.2,9.9-7.7,18.2-17.6,18.5c-0.9-0.2-1.8-0.2-2.7-0.1
	c-9.2-1-16.1-8.8-16.1-18c0-4.4-3.6-8-8-8c-4.4,0-8,3.6-8,8c-0.1,15.4,10.3,28.9,25.1,32.9v8c0,4.4,3.6,8,8,8s8-3.6,8-8V281
	c17.1-3.6,28.7-19.5,26.9-36.9C277.3,226.8,262.7,213.5,245.2,213.5z"/>
<path class="st3" d="M335.9,420.5h-0.2l-94.9-2.6c-4.4-0.1-7.9-3.8-7.8-8.2c0.1-4.4,3.8-7.9,8.2-7.8l86,2.4c-0.3-1.3-0.6-2.6-1-3.8
	c-4.6-14-17.5-23.6-32.3-24.1l-57.8-1.6c-11.6-0.3-22.9-3.3-33.2-8.6l-5.9-3c-29.3-15.3-64.7-12.8-91.6,6.4
	c-3.6,2.6-8.6,1.7-11.1-1.9s-1.7-8.6,1.9-11.1c31.8-22.7,73.6-25.6,108.2-7.6l5.9,3c8.1,4.2,17.1,6.5,26.2,6.8l57.8,1.6
	c13.5,0.4,26.3,6.1,35.6,15.9c9.3,9.8,14.3,22.9,13.9,36.4C343.8,417.1,340.3,420.5,335.9,420.5L335.9,420.5z"/>
<g>
	<path class="st4" d="M245.2,91.9c-4.4,0-8-3.6-8-8V8c0-4.4,3.6-8,8-8s8,3.6,8,8v75.9C253.2,88.3,249.6,91.9,245.2,91.9z"/>
	<path class="st4" d="M305.1,91.9c-4.4,0-8-3.6-8-8V47.9c0-4.4,3.6-8,8-8s8,3.6,8,8v35.9C313.1,88.3,309.5,91.9,305.1,91.9z"/>
	<path class="st4" d="M185.3,91.9c-4.4,0-8-3.6-8-8V47.9c0-4.4,3.6-8,8-8s8,3.6,8,8v35.9C193.3,88.3,189.7,91.9,185.3,91.9z"/>
</g>
<path class="st5" d="M97.3,463.3L97,474.6l-63.3-1.7l3.8-139l63.3,1.7l-0.8,27.5L97.3,463.3z"/>
</svg>
