<?xml version="1.0" encoding="utf-8"?>
<!-- Generator: Adobe Illustrator 21.1.0, SVG Export Plug-In . SVG Version: 6.00 Build 0)  -->
<svg version="1.1" id="OBJECTS" xmlns="http://www.w3.org/2000/svg" xmlns:xlink="http://www.w3.org/1999/xlink" x="0px" y="0px"
	 viewBox="0 0 500 500" style="enable-background:new 0 0 500 500;" xml:space="preserve">
<style type="text/css">
	.st0{fill:#F2F6FF;}
	.st1{opacity:0.41;fill:#EDF2FF;}
	.st2{fill:#7CBF8F;}
	.st3{fill:#7DBC82;}
	.st4{fill:#E3E7EF;}
	.st5{fill:#DCE0E5;}
	.st6{fill:#FFFFFF;}
	.st7{fill:#E8F2FC;}
	.st8{fill:#FF9933;}
	.st9{fill:#4286E8;}
	.st10{fill:#648BB2;}
	.st11{fill:#47739E;}
	.st12{fill:#40454C;}
	.st13{fill:#F95858;}
	.st14{fill:#E54848;}
	.st15{fill:#FFE2DC;}
	.st16{fill:#FF4751;}
	.st17{fill:#CC3241;}
	.st18{fill:#F9BAAF;}
	.st19{fill:#FFB19E;}
	.st20{fill:#13448C;}
	.st21{fill:#1B55AA;}
	.st22{fill:#1D54B5;}
	.st23{fill:#E4EDF7;}
	.st24{fill:#83AAE2;}
	.st25{fill:#EAE8E8;}
	.st26{opacity:0.41;fill:#13448C;}
	.st27{fill-rule:evenodd;clip-rule:evenodd;fill:#FFE2DC;}
	.st28{fill-rule:evenodd;clip-rule:evenodd;fill:#FFB19E;}
	.st29{fill-rule:evenodd;clip-rule:evenodd;fill:#40454C;}
	.st30{fill-rule:evenodd;clip-rule:evenodd;fill:#FFCFC7;}
	.st31{fill:url(#SVGID_1_);}
	.st32{fill:none;stroke:#8296BE;stroke-width:0.5;stroke-miterlimit:10;}
	.st33{fill:none;stroke:#8296BE;stroke-width:0.5;stroke-miterlimit:10;stroke-dasharray:6.0934,6.0934;}
	.st34{fill:url(#SVGID_2_);}
	.st35{fill:#EDF7FF;}
	.st36{fill:#F5F9FF;}
	.st37{fill:url(#SVGID_3_);}
	.st38{fill:url(#SVGID_4_);}
</style>
<g>
	<g>
		<g>
			<g>
				<path class="st0" d="M453.6,447.7c28,0,45-28.7,28.5-49.1c-0.3-0.4-0.7-0.9-1.1-1.3c-10.1-11.4-25.4-15.5-38.9-21.9
					c-3.7-1.8-7.5-3.8-10.1-7.1c-3.6-4.6-4.5-11.1-3.8-17c3.1-24.8,30.2-40.1,34.6-64.7c3.3-18.6-8.1-37.5-23.5-47.4
					c-15.4-9.9-34.1-12.3-52.1-13.1c-18.1-0.8-36.4-0.1-53.9-4.5c-4.6-1.2-9.4-2.8-12.6-6.6c-3.6-4.2-4.3-10.4-3.8-16
					c1.5-15.2,36.1-67.3,18.8-84.5c-6.8-6.8-16.1-10.4-25.4-9.5c-9.3,0.9-18,5.2-26.1,10c-17.2,10.1-77.3,77.4-98.9,87.5
					c-21.2,10-45.6,7-68.9,6.6c-23.3-0.5-49.1,3-64.3,21.4c-5.4,6.5-9.1,15.3-7.3,23.8c1.1,5.3,4.3,9.8,7.9,13.7
					c8.2,8.8,18.8,15,26.5,24.2s11.8,24,4.5,33.7c-2.8,3.8-6.9,6.2-10.9,8.4C50.3,347,25.1,360,15.3,384.7
					c-5,12.6-4.9,26.5-1.2,39.5c3.9,13.8,17.8,23.5,33.6,23.5H453.6z"/>
			</g>
			<path class="st1" d="M481,397.3c-10.1-11.4-25.4-15.5-38.9-21.9c-3.7-1.8-7.5-3.8-10.1-7.1c-3.6-4.6-4.5-11.1-3.8-17
				c3.1-24.8,30.2-40.1,34.6-64.7c3.3-18.6-8.1-37.5-23.5-47.4c-15.4-9.9-34.1-12.3-52.1-13.1c-18.1-0.8-36.4-0.1-53.9-4.5
				c-4.6-1.2-9.4-2.8-12.6-6.6c-3.6-4.2-4.3-10.4-3.8-16c1.5-15.2,36.1-67.3,18.8-84.5c-5.9-5.9-13.7-9.4-21.7-9.6
				c10.9,3,18.9,9.2,13.1,22c-13.4,29.6-138.2,128-50.6,137.7c87.7,9.7-57.6,87.7,8.6,93.1c50.5,4.1-53.1,63.2-104.8,90h273.3
				c28,0,45-28.7,28.5-49.1C481.8,398.2,481.4,397.8,481,397.3z"/>
		</g>
		<g>
			<g>
				<g>
					<path class="st2" d="M53.4,414.1c0,0-3.3-3.1-1.1-14.9c2.2-11.8,7.9-23,5.1-35.8c-2.8-12.8-24.5-44.9-24.6-47
						c-0.1-2.1-6.7,37.4,4.5,53c11.2,15.6,12.6,21,12.1,29.2c-0.5,8.2,0.1,14.8,1.3,16.7L53.4,414.1z"/>
					<path class="st2" d="M51.3,390.4c-1.3,5.2-2.1,18.4,0,21.5c0.2,0.3,0.5,0.1,0.8-0.4c-0.6-2.2-1.1-6,0.1-12.3
						c2.2-11.8,7.9-23,5.1-35.8c-2.8-12.8-24.5-44.9-24.6-47c0,0,3.3,26.8,14.3,45.2C55,374.8,52.6,385.2,51.3,390.4z"/>
				</g>
				<g>
					<path class="st3" d="M57.3,413.2c0,0-6.4-15.9,4.4-29.7C72.6,369.7,89.9,352,90.2,345c0,0,4.4,33.3-9.6,42.8
						c-14.1,9.4-24,10.9-21.5,25.5L57.3,413.2z"/>
					<path class="st3" d="M72.5,381c-15.7,11.4-17,24.6-14.5,30.7c0.2,0.5,0.5,0.8,1,0.9c-2.1-14,7.7-15.6,21.6-24.9
						c14.1-9.4,9.6-42.8,9.6-42.8S88.2,369.6,72.5,381z"/>
				</g>
				<g>
					<path class="st3" d="M46.8,413.6c0,0,2-8.4,1-17.5c-1.1-9.1-10.6-14.2-19.5-23.9c-4.6-5-5.9-31.1-3.1-33.6c0,0-15.7,19-13.3,33
						c2.4,13.9,28,23,30.4,29.7c2.4,6.7,2.2,12.4,2.2,12.4L46.8,413.6z"/>
					<g>
						<path class="st3" d="M19.9,346.1c-5.2,14.1,0.1,31.1,17.4,41.6c12.7,7.8,8.6,24,8.6,24l2.1-6.4c0.2-2.8,0.2-6-0.2-9.3
							c-1.1-9.1-10.6-14.2-19.5-23.9c-4.4-4.8-5.8-29.3-3.4-33.2C24.2,339.9,22.2,342.5,19.9,346.1z"/>
						<path class="st3" d="M24.9,339c0.2-0.2,0.3-0.4,0.3-0.4C25.1,338.7,25,338.8,24.9,339z"/>
					</g>
				</g>
				<g>
					<path class="st3" d="M60.6,412.5c0,0,3.7-13.7,12.8-15.5c9.1-1.8,19.5-15.3,20.1-17.9C93.5,379.1,92,404.5,60.6,412.5z"/>
					<path class="st3" d="M72.9,401.6c-5.6,2.8-7.9,6.5-8.7,9.9c27.9-9,29.4-32.4,29.4-32.4c-0.1,0.5-0.6,1.5-1.4,2.7
						C89.4,386.6,82.7,396.6,72.9,401.6z"/>
				</g>
			</g>
			<path class="st4" d="M80.3,407.5H32.7l5.7,35.5c0.4,2.7,2.8,4.7,5.5,4.7h25.3c2.7,0,5.1-2,5.5-4.7L80.3,407.5z"/>
			<polygon class="st5" points="79.4,413.4 80.3,407.5 32.7,407.5 33.7,413.4 			"/>
			<path class="st5" d="M68.8,407.5l-5.7,35.5c-0.4,2.7-2.8,4.7-5.5,4.7h11.5c2.7,0,5.1-2,5.5-4.7l5.7-35.5H68.8z"/>
		</g>
		<g>
			<g>
				<rect x="257.8" y="366.8" class="st6" width="9.9" height="81"/>
				<rect x="263.8" y="366.8" class="st7" width="3.9" height="81"/>
				<path class="st6" d="M291.2,441.2H237c-1.8,0-3.3,1.5-3.3,3.3l0,0c0,1.8,1.5,3.3,3.3,3.3h54.2c1.8,0,3.3-1.5,3.3-3.3l0,0
					C294.5,442.7,293,441.2,291.2,441.2z"/>
				<path class="st7" d="M291.2,441.2H237c-1.2,0-2.3,0.7-2.8,1.6h46.9c1.8,0,3.3,1.5,3.3,3.3c0,0.6-0.2,1.2-0.5,1.7h7.3
					c1.8,0,3.3-1.5,3.3-3.3C294.5,442.7,293,441.2,291.2,441.2z"/>
				<rect x="257.8" y="366.8" class="st7" width="9.9" height="7.2"/>
				<path class="st8" d="M319,253.8c-1.4-0.6-2.9-1-4.6-1h-55.8c-5.4,0-10.1,3.9-11.2,9.2L230,353.5c-0.3,1.5-0.3,2.9,0,4.3
					c0,0,0,0.1,0,0.1h-15.5c-2.6,0-4.6,2.1-4.6,4.6c0,2.6,2.1,4.6,4.6,4.6h50.1V367H297c5.4,0,10.1-3.9,11.2-9.2l17.5-91.4
					C326.6,261,323.7,255.9,319,253.8z"/>
				<path class="st7" d="M325.6,266.4l-17.5,91.4c-1,5.4-5.7,9.2-11.2,9.2h-32.3v0.1h-50.1c-2.6,0-4.6-2.1-4.6-4.6
					c0-2.6,2.1-4.6,4.6-4.6h15.5c0,0,0-0.1,0-0.1c0.1,0,0.3,0,0.4,0h55.8c7.5,0,13.9-5.3,15.3-12.7l17.4-91.2
					C323.7,255.9,326.6,261,325.6,266.4z"/>
				<path class="st6" d="M301.7,344.5l-0.1,0.5c-1.4,7.4-7.9,12.7-15.3,12.7h-55.8c-0.1,0-0.3,0-0.4,0c0,0,0,0.1,0,0.1h-15.5
					c-2.3,0-4.2,1.7-4.6,3.9v-12.5c0,0,0-0.1,0-0.1c-0.4-2.5,1.7-4.6,4.2-4.6H301.7z"/>
				<path class="st6" d="M319,253.8l-17.4,91.2c-1.4,7.4-7.9,12.7-15.3,12.7h-55.8c-0.1,0-0.3,0-0.4,0c-0.3-1.4-0.3-2.8,0-4.3
					l17.5-91.4c1-5.4,5.7-9.2,11.2-9.2h55.8C316.1,252.9,317.6,253.2,319,253.8z"/>
			</g>
			<g>
				<path class="st9" d="M186.8,231.9H91.9c-2.2,0-3.9,2-3.6,4.1l8.1,55.8c0.3,1.8,1.8,3.1,3.6,3.1H195c2.2,0,3.9-2,3.6-4.1
					l-8.1-55.8C190.2,233.3,188.6,231.9,186.8,231.9z"/>
				<g>
					<path class="st10" d="M143.8,274.5h-12.1h-5.9c-1.6,0-2.7,1.4-2.5,2.9l5.4,37.4c0,0.1,0,0.2,0,0.4l0.2,1.5
						c0.2,1.2,1.3,2.2,2.5,2.2h5.8h11.9L143.8,274.5z"/>
					<path class="st11" d="M170,316.2c0-1.4-1.2-2.5-2.6-2.5h-13.6c-2,0-3.7-1.5-4-3.5l-4-29.1h2.4c1.6,0,2.7-1.4,2.5-2.9l-0.2-1.5
						c-0.2-1.3-1.3-2.2-2.5-2.2l-4.7,0c-2.2,0-3.8,1.9-3.5,4l5,37c0.2,1.8,1.8,3.2,3.7,3.2l19,0C168.9,318.8,170,317.7,170,316.2
						L170,316.2z"/>
				</g>
				<g>
					<circle class="st9" cx="158.6" cy="286.9" r="1.7"/>
					<circle class="st9" cx="167.3" cy="286.9" r="1.7"/>
					<circle class="st9" cx="175" cy="286.9" r="1.7"/>
				</g>
			</g>
			<g>
				<path class="st12" d="M283.7,255c-1.1-8.1-12.9-4.3-8.4-11.8c4.1-7-0.7-10-6.3-11.1c-7.2-1.4-3.1-4.2-6.6-10.9
					c-4.5-8.5-11.3-6-11.3-6s-8.6-4.7-17.4,2.7c-9.3,7.8-7.2,14.7-2.3,24.2c2.5,4.8-0.6,9.1-2.8,17.9c-2.6,10.6,10.4,31.8,38.3,17.5
					C277.7,271.8,284.2,259.3,283.7,255z"/>
				<path class="st13" d="M245.1,257.2c0,0-4.3,0.5-8.6,4.8c-2.9,2.9-17.2,31.3-17.2,31.3L206.1,253l-9.6,0.7c0,0,10.9,64.9,19.3,65
					c8,0.1,33.4-41.9,33.4-41.9L245.1,257.2z"/>
				<path class="st13" d="M272.4,274.3l8.4,31.6l-49.9,4.1l0.2,9c0,0,57.6,0.3,68.4,0.1c7.2-0.1-6.4-57.3-15.1-63.8
					c-6.9-5.2-25.8-3.8-25.8-3.8l-13.5,5.7c0,0-15.7,15.5-6.3,30.1c7.4,11.5-2,33.9-2,33.9l31.9,1.9l28.5,0.3L272.4,274.3z"/>
				<path class="st14" d="M240.5,309.2l1.8-0.3c1.7-7.5,2-17.7-1.9-22.6c-7.7-9.7,0.2-23.9,4.7-29h0c-0.7,0.7-15.4,15.8-6.3,30.1
					C243.2,294.2,242.1,303.1,240.5,309.2z"/>
				<path class="st15" d="M231,312c-5.3,0.2-10.9,2.1-13.6,5.2c-0.6,0.7-0.1,1.8,0.8,1.8h12.8L231,312z"/>
				<g>
					<path class="st15" d="M258.6,240.9v10.7l-9.6,10.9l-0.1-0.1l-2.6-5.6v-6c-4.8-0.7-9-4.3-10.1-9.4L235,234c0,0,7.1-0.8,12.8-6.5
						c0,0,1.7,3.1,4.1,5.5c1.8,1.8,4.2,2.2,5.2,3.2C258.3,237.5,258.8,239.1,258.6,240.9z"/>
					<path class="st16" d="M256,231.7c0,0-0.4-4.5-2.1-8.3c-2-4.4-4.7-9.6-10.4-9.6c0,0,13.9-2.2,16.2,17.1L256,231.7z"/>
					<g>
						
							<ellipse transform="matrix(0.9942 -0.1073 0.1073 0.9942 -23.781 29.0572)" class="st16" cx="258.1" cy="235.5" rx="6.3" ry="6.8"/>
						<path class="st17" d="M260,241.6c-3.3,0.4-6.3-2.3-6.7-5.8c-0.4-3.3,1.7-6.3,4.6-7c-0.2,0-0.3,0-0.5,0
							c-3.4,0.4-5.9,3.7-5.5,7.4c0.4,3.7,3.5,6.4,6.9,6.1c1.1-0.1,2-0.5,2.8-1.1C261.1,241.3,260.6,241.5,260,241.6z"/>
						
							<ellipse transform="matrix(0.9942 -0.1073 0.1073 0.9942 -23.7599 29.1454)" class="st17" cx="258.9" cy="235.3" rx="3" ry="3.3"/>
					</g>
					<path class="st18" d="M255.5,246.3c-0.4,0.5-2.7,3.4-4.5,4.9c-0.7,0.6-1.1,1.5-1.1,2.5l-0.8,8.7l-2.6-5.6v-6l0.1-0.1
						C246.5,250.8,252.5,249.9,255.5,246.3z"/>
					<g>
						<path class="st16" d="M251.4,245.8l-0.1-0.6c3.5-0.6,6-5.3,6.1-5.3l0.5,0.3C257.8,240.4,255.2,245.2,251.4,245.8z"/>
						<path class="st16" d="M252,245.5c-0.1-0.6-0.9-0.9-1.9-0.7c-1,0.2-1.7,0.8-1.6,1.4c0.1,0.6,0.9,0.9,1.9,0.7
							C251.4,246.7,252.1,246.1,252,245.5z"/>
					</g>
				</g>
				<path class="st15" d="M205.4,253.3c0,0,1.4-11.2,0.1-11.6c-1.2-0.4-2.5,4.4-2.5,4.4s-5.2-10.1-8.7-9c-3.5,1.1,3,16.6,3,16.6
					L205.4,253.3z"/>
				<path class="st14" d="M240.5,309.1l39.3-3.3c1.3-0.1,2.3-1.4,2-2.7c-1.5-7.4-5.7-28.4-5.9-27.8c-0.3,0.8,4,24.8-1.1,27.2
					C271.4,304.2,240.5,309.1,240.5,309.1z"/>
				<g>
					<g>
						<path class="st19" d="M267.2,425.4c-0.3,0.1-0.6,0.2-0.7,0.5c-2.5,3.5-4.7,4.3-9.1,4.9c-0.3,0-0.5,0.1-0.8,0.3
							c0.3-0.5,1.8-2.9,0.8-5.1c-1.1-2.4-2.5-4.2-2.5-4.2l6.4-3.8C261.2,418,265.2,422.6,267.2,425.4z"/>
						<path class="st20" d="M272,433.6c-1.1,1.1-19.4,11.1-23.8,13.6c-0.5,0.3-1.6,0.9-1.8,0.3c-0.3-0.9,7.6-16.2,11-16.6
							c4.4-0.6,6.6-1.4,9.1-4.9c0.5-0.7,1.6-0.7,2.1,0C270.3,428.6,272.9,432.7,272,433.6z"/>
					</g>
					<path class="st21" d="M237,321.2c0,0-44.4,20.6-45.6,34.9c-1,12.7,64.4,70.8,64.4,70.8l10.4-4.3l-35.8-57.8
						c0,0,38-18.7,47.2-41.2L237,321.2z"/>
				</g>
				<g>
					<g>
						<path class="st19" d="M241,437.4c-0.3-0.1-0.6-0.1-0.9,0.1c-3.9,1.8-6.2,1.4-10.3-0.2c-0.2-0.1-0.5-0.2-0.9-0.2
							c0.5-0.3,3-1.7,3.2-4c0.2-2.7-0.1-4.9-0.1-4.9l7.5-0.2C239.4,428,240.7,433.9,241,437.4z"/>
						<path class="st20" d="M241.2,447.4c-1.5,0.4-23.1,0.2-28.1,0.2c-0.6,0-1.1-0.5-1-1.1c0.2-0.9,14.5-10.4,17.7-9.2
							c4.1,1.6,6.5,2,10.3,0.2c0.8-0.4,1.8,0.2,1.8,1.1C242.2,441.7,242.4,447,241.2,447.4z"/>
					</g>
					<g>
						<path class="st22" d="M297,323.3c0,0,3.7,25.2-18.8,31.5c-17.8,5-36.8,7.6-36.8,7.6l1.4,71.4h-11.9c0,0-21.8-76.3-18.7-82
							c3.5-6.5,31.2-26.1,43-29.6L297,323.3z"/>
					</g>
				</g>
			</g>
			<g>
				<g>
					<polygon class="st6" points="94.6,447.8 89.7,447.8 110.3,323.7 115.3,323.7 					"/>
					<polygon class="st6" points="299.1,447.8 304.4,447.8 278.8,322.3 273.5,322.3 					"/>
				</g>
				<g>
					<polygon class="st23" points="114,330.6 115.3,323.7 110.3,323.7 109,330.6 					"/>
					<polygon class="st23" points="280.5,330.6 278.8,322.3 273.5,322.3 275.2,330.6 					"/>
				</g>
				<path class="st6" d="M308.9,318.9H85.1c-1.4,0-2.5,1.1-2.5,2.5l0,0c0,1.4,1.1,2.5,2.5,2.5h223.8c1.4,0,2.5-1.1,2.5-2.5l0,0
					C311.4,320,310.3,318.9,308.9,318.9z"/>
			</g>
		</g>
		<g>
			<g>
				<g>
					<g>
						<path class="st6" d="M200.9,182.6h-31.8c-0.5,0-1,0.5-0.9,1l0.2,0.9c0.1,0.4,0.4,0.7,0.9,0.7h31.8c0.5,0,1-0.5,0.9-1l-0.2-0.9
							C201.8,183,201.4,182.6,200.9,182.6z"/>
					</g>
					<g>
						<path class="st6" d="M202,191.1h-31.8c-0.5,0-1,0.5-0.9,1l0.2,0.9c0.1,0.4,0.4,0.7,0.9,0.7h31.8c0.5,0,1-0.5,0.9-1l-0.2-0.9
							C202.8,191.4,202.5,191.1,202,191.1z"/>
					</g>
					<g>
						<path class="st6" d="M194.4,200.2l-14.7,0c-0.5,0-1,0.5-0.9,1l0.2,0.9c0.1,0.4,0.4,0.7,0.9,0.7l14.7,0c0.5,0,1-0.5,0.9-1
							l-0.2-0.9C195.2,200.6,194.9,200.2,194.4,200.2z"/>
					</g>
				</g>
			</g>
			<g>
				<path class="st24" d="M443.4,154.8l7.3-32.1c0.4-1.5-0.5-2.6-2-2.6l-51.8,0.6c-1.8,0-3.9,1.6-4.4,3.5l-6.4,28.2l-3.9,16
					c-0.2,0.8,0.8,1.1,1.6,0.4l10.5-9.9l44.7-0.5C440.8,158.3,442.9,156.7,443.4,154.8z"/>
				<g>
					<g>
						<path class="st6" d="M434.1,130.5h-28.5c-0.5,0-1,0.4-1.2,0.9l-0.2,0.8c-0.1,0.4,0.1,0.7,0.5,0.7h28.5c0.5,0,1-0.4,1.2-0.9
							l0.2-0.8C434.7,130.8,434.5,130.5,434.1,130.5z"/>
					</g>
					<g>
						<path class="st6" d="M432,138.1h-28.5c-0.5,0-1,0.4-1.2,0.9l-0.2,0.8c-0.1,0.4,0.1,0.7,0.5,0.7h28.5c0.5,0,1-0.4,1.2-0.9
							l0.2-0.8C432.6,138.4,432.4,138.1,432,138.1z"/>
					</g>
					<g>
						<path class="st6" d="M422,146.3l-13.2,0c-0.5,0-1,0.4-1.2,0.9l-0.2,0.8c-0.1,0.4,0.1,0.7,0.5,0.7l13.2,0c0.5,0,1-0.4,1.2-0.9
							l0.2-0.8C422.6,146.6,422.4,146.3,422,146.3z"/>
					</g>
				</g>
			</g>
			<g>
				<g>
					<g>
						<path class="st6" d="M133.6,177h-31.8c-0.5,0-1,0.5-0.9,1l0.2,0.9c0.1,0.4,0.4,0.7,0.9,0.7h31.8c0.5,0,1-0.5,0.9-1l-0.2-0.9
							C134.4,177.4,134,177,133.6,177z"/>
					</g>
					<g>
						<path class="st6" d="M134.6,185.5h-31.8c-0.5,0-1,0.5-0.9,1l0.2,0.9c0.1,0.4,0.4,0.7,0.9,0.7h31.8c0.5,0,1-0.5,0.9-1l-0.2-0.9
							C135.4,185.8,135.1,185.5,134.6,185.5z"/>
					</g>
				</g>
			</g>
		</g>
		<g>
			<g>
				<g>
					<path class="st22" d="M393.5,276.4l-0.2,6.4l-3.8,148.3h-15.3l-13.6-127c0,0,0,0,0,0l-17.2,42.8l11.8,84.2l-5.7,0l-9.4,0.1
						c0,0-28-84-27.4-89.4c0.6-5.4,21.6-64.8,21.6-64.8L393.5,276.4z"/>
					<polygon class="st25" points="395,184.7 366.3,180.7 365.6,180.6 351.8,180.7 351.7,180.7 335.3,184.8 335.3,277.3 395,277.3 
											"/>
					<path class="st15" d="M444.3,202.6c0,0,2.1-13.1,3.6-13.1c1.5-0.1,1.4,5.7,1.4,5.7s9.1-9.7,12.8-7.3c3.6,2.4-8.8,17.8-8.8,17.8
						L444.3,202.6z"/>
					<path class="st9" d="M351.8,180.8l1.6,102.1h-21.5l-1.5-27.9l-28.6-0.5c-3,0.1-5.2-2.7-4.3-5.6l14.2-49.5
						c1.7-5.8,6.3-10.2,12.1-11.7l27.9-7L351.8,180.8z"/>
					<path class="st9" d="M454.2,206.1L426.5,263c-1.8,3.2-6.3,3.3-8.2,0.2l-21.7-35.9l-1.1,55.6h-23l-6.4-102.1l0.1,0l29.2,4
						c5.5,0.8,10.3,4.3,12.7,9.4l14.8,30.5c0.4,0.7,1.4,0.9,1.9,0.2l18.8-22.5L454.2,206.1z"/>
					<polygon class="st9" points="330.2,255.2 358.3,255.2 358.6,240.8 330.5,240.4 					"/>
					<path class="st15" d="M358.5,251.2c7.9-0.3,16.4-3.1,20.3-7.8c0.9-1,0.1-2.6-1.2-2.6h-19.2L358.5,251.2z"/>
					<path class="st26" d="M358.5,240.7c0,0-38.1,2.8-37.8,2l6.6-22.8l0.1,0.3l0.6,15.9C328.1,238.4,356.5,240.1,358.5,240.7z"/>
					<g>
						<path class="st20" d="M341.9,431.1c-3.3,6.8-19,10.2-19,10.2s-1.1,2,0.7,4.5c1.8,2.5,18.3,1,20.4,0.5c2.1-0.5,3.5-2.1,3.5-2.1
							s1.4,1.5,2.2,1.9c0.8,0.4,5-0.5,5-0.5c1-2.7,0-13-0.3-14.6L341.9,431.1z"/>
					</g>
					<g>
						<path class="st20" d="M388.1,431.1c3.3,6.8,19,10.2,19,10.2s1.1,2-0.7,4.5c-1.8,2.5-18.3,1-20.4,0.5c-2.1-0.5-3.5-2.1-3.5-2.1
							s-1.4,1.5-2.2,1.9c-0.8,0.4-5-0.5-5-0.5c-1-2.7,0-13,0.3-14.6L388.1,431.1z"/>
					</g>
				</g>
				<g>
					<g>
						<path class="st27" d="M366.2,180.8c-2.1,1.7-7.1,5.2-7.1,5.2s-5.1-3.5-7.2-5.2l0-12.2h14.4V180.8z"/>
						<path class="st28" d="M366.2,168.7v5.1c-4.2,3.5-10.2,3.5-14.4,0.1v-5.2H366.2z"/>
						<path class="st29" d="M346,159.9l25.9,0l3.9-8.1c7.1-3,1.8-20.1,1.8-20.1c0.4,4.1-10.7,4.3-15.1,3.6c-4.4-0.7-7.4,1.1-7.4,1.1
							s-14-3-13.2,16.6C342,156,345.4,157.6,346,159.9z"/>
						<g>
							<path class="st27" d="M371.9,151.8v8.1c0,3.5-1.4,6.8-3.9,9.2c-0.4,0.4-0.8,0.8-1.3,1.2c-4.4,4.1-11.2,4.1-15.5,0L350,169
								c-2.5-2.4-4-5.7-4-9.1v-6.2c0,0,3.7-2.5,8.9-8.7C354.9,145.1,360.6,150.5,371.9,151.8z"/>
							<path class="st30" d="M366.2,170.7v3.1c-4.2,3.5-10.2,3.5-14.4,0.1v-3.1C356,174.1,362,174.1,366.2,170.7z"/>
						</g>
					</g>
				</g>
			</g>
			<g>
				<path class="st20" d="M381.7,198.6h-50.2c-2.7,0-4.9,2.4-4.8,5.2l1.3,32.3c0.1,2.6,2.3,4.7,4.9,4.7h47.4c2.6,0,4.8-2.1,4.9-4.7
					l1.3-32.3C386.6,201,384.5,198.6,381.7,198.6z"/>
				<circle class="st9" cx="356.2" cy="220.6" r="5.7"/>
			</g>
		</g>
	</g>
</g>
<g>
	<linearGradient id="SVGID_1_" gradientUnits="userSpaceOnUse" x1="204.4118" y1="185.0621" x2="240.3002" y2="185.0621">
		<stop  offset="5.376340e-03" style="stop-color:#FFCE0C"/>
		<stop  offset="0.3389" style="stop-color:#FFC90B"/>
		<stop  offset="0.9731" style="stop-color:#FFC50B"/>
	</linearGradient>
	<circle class="st31" cx="222.4" cy="185.1" r="17.9"/>
	<path id="XMLID_81_" class="st6" d="M226.1,188.4c-0.7-0.2-1.6,0.1-1.9,0.8c-0.2,0.4-0.2,0.9-0.6,1.1c-0.3,0.1-0.6,0-0.9-0.2
		c-1.4-0.8-4.1-6.2-3.9-7.7c0-0.3,0.1-0.7,0.4-0.8c0.4-0.2,0.8,0.1,1.3,0.2c0.7,0.2,1.5-0.4,1.8-1.1c0.3-0.7,0.3-1.5,0.2-2.2
		c-0.1-0.9-0.4-1.8-0.9-2.5c-1.7-1.9-4.1,0-5.1,1.6c-0.6,1-1,2.2-1.1,3.4c-0.4,2.5,4.2,11.6,6.5,12.8c1.1,0.6,2.2,1,3.4,1.1
		c1.9,0.2,4.9-0.7,4.4-3.1c-0.2-0.9-0.8-1.6-1.4-2.2C227.5,189,226.9,188.5,226.1,188.4z"/>
</g>
<g>
	<g>
		<g>
			<path class="st32" d="M247.9,67.2c-1-0.1-2-0.1-3-0.1"/>
			<path class="st33" d="M238.8,67c-85.9-0.2-157.9,62.2-165.4,144"/>
			<path class="st32" d="M73.1,214c-0.1,1-0.1,2-0.2,3"/>
		</g>
	</g>
	<g>
		
			<linearGradient id="SVGID_2_" gradientUnits="userSpaceOnUse" x1="220.7768" y1="68.3712" x2="273.4365" y2="68.3712" gradientTransform="matrix(0.9762 0.2167 -0.2167 0.9762 22.9907 -44.578)">
			<stop  offset="0" style="stop-color:#C6D6F6"/>
			<stop  offset="0.7964" style="stop-color:#CDE0F5"/>
			<stop  offset="1" style="stop-color:#D0E4F5"/>
		</linearGradient>
		<polygon class="st34" points="229,59.4 219.8,87.4 278.6,65.7 278,63.8 		"/>
		<polygon class="st35" points="223.5,41.6 278,63.8 231.5,67.7 		"/>
		<polygon class="st36" points="242.3,102.7 278.6,65.7 234.3,76.6 		"/>
	</g>
</g>
<g>
	<linearGradient id="SVGID_3_" gradientUnits="userSpaceOnUse" x1="119.5145" y1="199.3099" x2="155.4082" y2="199.3099">
		<stop  offset="0" style="stop-color:#8FA925"/>
		<stop  offset="0.306" style="stop-color:#8CA526"/>
		<stop  offset="0.6148" style="stop-color:#829929"/>
		<stop  offset="0.9239" style="stop-color:#71852F"/>
		<stop  offset="0.9946" style="stop-color:#6C7F30"/>
	</linearGradient>
	<circle class="st37" cx="137.5" cy="199.3" r="17.9"/>
	<g>
		<g>
			<path id="XMLID_146_" class="st6" d="M127.8,198.9h4.9c0-1.5,0.3-2.9,0.7-4.2c-1.2-0.3-2.4-0.8-3.5-1.5
				C128.6,194.8,127.8,196.8,127.8,198.9z"/>
			<path id="XMLID_145_" class="st6" d="M132.7,199.7h-4.9c0.1,2.1,0.9,4.1,2.1,5.7c1.1-0.6,2.3-1.1,3.5-1.5
				C133,202.6,132.7,201.1,132.7,199.7z"/>
			<path id="XMLID_144_" class="st6" d="M137.1,199.7h-3.7c0,1.4,0.3,2.7,0.7,4c1-0.2,2-0.3,3-0.4V199.7z"/>
			<path id="XMLID_143_" class="st6" d="M137.1,198.9v-3.7c-1,0-2-0.1-3-0.4c-0.4,1.3-0.6,2.7-0.7,4H137.1z"/>
			<path id="XMLID_142_" class="st6" d="M137.1,204.1c-0.9,0-1.8,0.1-2.8,0.3c0.6,1.7,1.5,3.2,2.8,4.6V204.1z"/>
			<path id="XMLID_141_" class="st6" d="M140.8,194.9c-1,0.2-2,0.3-3,0.4v3.7h3.7C141.5,197.6,141.2,196.2,140.8,194.9z"/>
			<path id="XMLID_140_" class="st6" d="M137.8,194.5c0.9,0,1.8-0.1,2.7-0.3c-0.6-1.7-1.5-3.2-2.7-4.6V194.5L137.8,194.5z"/>
			<path id="XMLID_139_" class="st6" d="M137.1,194.5v-4.9c-1.2,1.4-2.1,2.9-2.8,4.6C135.2,194.4,136.2,194.5,137.1,194.5z"/>
			<path id="XMLID_138_" class="st6" d="M133.6,194c0.6-1.6,1.4-3,2.4-4.3c-2.2,0.3-4.2,1.4-5.7,3
				C131.4,193.3,132.5,193.7,133.6,194z"/>
			<path id="XMLID_137_" class="st6" d="M133.6,204.6c-1.1,0.3-2.2,0.7-3.3,1.3c1.5,1.6,3.5,2.7,5.7,3
				C135,207.6,134.2,206.1,133.6,204.6z"/>
			<path id="XMLID_136_" class="st6" d="M137.8,204.1v4.9c1.2-1.4,2.1-2.9,2.7-4.6C139.7,204.2,138.7,204.1,137.8,204.1z"/>
			<path id="XMLID_135_" class="st6" d="M141.3,204.6c-0.6,1.5-1.4,3-2.4,4.3c2.2-0.3,4.3-1.4,5.7-3
				C143.5,205.3,142.4,204.9,141.3,204.6z"/>
			<path id="XMLID_134_" class="st6" d="M141.3,194c1.1-0.3,2.2-0.7,3.3-1.3c-1.5-1.6-3.5-2.7-5.7-3
				C139.9,191,140.7,192.5,141.3,194z"/>
			<path id="XMLID_133_" class="st6" d="M137.8,199.7v3.7c1,0,2,0.1,3,0.4c0.4-1.3,0.6-2.7,0.7-4L137.8,199.7L137.8,199.7z"/>
			<path id="XMLID_132_" class="st6" d="M147.2,199.7h-4.9c0,1.4-0.3,2.8-0.7,4.2c1.2,0.3,2.4,0.8,3.5,1.5
				C146.3,203.8,147.1,201.8,147.2,199.7z"/>
			<path id="XMLID_131_" class="st6" d="M142.2,198.9h4.9c-0.1-2.1-0.8-4.1-2.1-5.7c-1.1,0.6-2.3,1.1-3.5,1.5
				C141.9,196.1,142.2,197.5,142.2,198.9z"/>
		</g>
	</g>
</g>
<g>
	<linearGradient id="SVGID_4_" gradientUnits="userSpaceOnUse" x1="243.1636" y1="134.5399" x2="290.7494" y2="134.5399">
		<stop  offset="2.000000e-08" style="stop-color:#D0E4F5"/>
		<stop  offset="0.2036" style="stop-color:#CDE0F5"/>
		<stop  offset="1" style="stop-color:#C6D6F6"/>
	</linearGradient>
	<path class="st38" d="M287.7,146.2c-5.3,9.6-16.8,14.3-27.4,11.2c-13.8-4.1-20.7-19.1-15.3-32c5.1-12.1,19-17.8,31.1-12.7
		C289.1,118,294.7,133.6,287.7,146.2z"/>
	<g>
		<g>
			<polygon class="st6" points="280,131.1 260.3,122.9 267.6,133.1 			"/>
			<polygon class="st6" points="266.3,136 257.3,123.3 251.6,137 276,147.2 281.7,133.6 			"/>
		</g>
	</g>
</g>
</svg>
