<?xml version="1.0" encoding="utf-8"?>
<!-- Generator: Adobe Illustrator 21.1.0, SVG Export Plug-In . SVG Version: 6.00 Build 0)  -->
<svg version="1.1" id="OBJECTS" xmlns="http://www.w3.org/2000/svg" xmlns:xlink="http://www.w3.org/1999/xlink" x="0px" y="0px"
	 viewBox="0 0 500 500" style="enable-background:new 0 0 500 500;" xml:space="preserve">
<style type="text/css">
	.st0{fill:#FFFFFF;stroke:#4FBDC6;stroke-width:0.6608;stroke-linecap:round;stroke-linejoin:round;stroke-miterlimit:10;}
	.st1{fill:none;stroke:#C6C6C6;stroke-miterlimit:10;}
	.st2{fill:none;stroke:#8C9093;stroke-width:0.5;stroke-miterlimit:10;}
	.st3{font-family:'TrashHand';}
	.st4{font-size:50.1074px;}
	.st5{fill:#C6C6C6;}
	.st6{font-size:11.3221px;}
	.st7{fill:none;stroke:#C6C6C6;stroke-linecap:round;stroke-linejoin:round;stroke-miterlimit:10;}
	.st8{fill:none;stroke:#C6C6C6;stroke-width:0.5393;stroke-linecap:round;stroke-linejoin:round;stroke-miterlimit:10;}
	.st9{fill:none;stroke:#C6C6C6;stroke-width:0.5706;stroke-linecap:round;stroke-linejoin:round;stroke-miterlimit:10;}
	.st10{fill:none;stroke:#C6C6C6;stroke-width:0.9387;stroke-linecap:round;stroke-linejoin:round;stroke-miterlimit:10;}
	.st11{fill:none;stroke:#C6C6C6;stroke-width:0.25;stroke-linecap:round;stroke-linejoin:round;stroke-miterlimit:10;}
	.st12{fill:none;stroke:#A8ABAD;stroke-width:0.5;stroke-linecap:round;stroke-linejoin:round;stroke-miterlimit:10;}
	.st13{clip-path:url(#SVGID_2_);}
	.st14{opacity:0.5;fill:url(#SVGID_3_);}
	.st15{fill:#029FBD;}
	.st16{fill:#03AAD1;}
	.st17{opacity:0.2;fill:#4FBDC6;}
	.st18{fill:#8C9093;}
	.st19{opacity:0.18;fill:#85DCE8;}
	.st20{opacity:0.5;fill:url(#SVGID_4_);}
	.st21{opacity:0.5;fill:url(#SVGID_5_);}
	.st22{fill:#ABAFB2;}
	.st23{fill:#047E8E;}
	
		.st24{opacity:0.2;clip-path:url(#SVGID_2_);fill:#FFFFFF;stroke:#4FBDC6;stroke-width:0.6608;stroke-linecap:round;stroke-linejoin:round;stroke-miterlimit:10;}
	.st25{fill:#FFFFFF;stroke:#9CD1D3;stroke-width:0.6608;stroke-linecap:round;stroke-linejoin:round;stroke-miterlimit:10;}
	.st26{fill:#FFBB02;}
	.st27{fill:#0EC6E5;}
	.st28{opacity:0.26;fill:#A8A8A8;}
	.st29{fill:none;stroke:#FFFFFF;stroke-width:0.5598;stroke-linecap:round;stroke-linejoin:round;stroke-miterlimit:10;}
	.st30{fill:#D9EDE3;}
	.st31{fill:#8CDDE5;}
	.st32{fill:#ADD8C6;}
	.st33{opacity:0.35;fill:url(#SVGID_6_);}
	.st34{fill:#FFCE55;}
	.st35{fill:#FFCE6C;}
	.st36{fill:#FFDD92;}
	.st37{fill:#EFE8D8;}
	.st38{fill:#DBCEBF;}
	.st39{fill:#EE6F2C;}
	.st40{fill:#BA5723;}
	.st41{fill:none;stroke:#B5A596;stroke-width:0.6192;stroke-miterlimit:10;}
	.st42{fill:#DBCBAD;}
	.st43{fill:#F0BC02;}
	.st44{fill:#E59A03;}
	.st45{fill:#895502;}
	.st46{fill:#42180D;}
	.st47{fill:none;stroke:#7DEFE9;stroke-width:0.6913;stroke-linecap:round;stroke-linejoin:round;stroke-miterlimit:10;}
	.st48{opacity:0.75;fill:#15CCBE;}
	.st49{fill:none;stroke:#6CEFE8;stroke-width:0.6913;stroke-linecap:round;stroke-linejoin:round;stroke-miterlimit:10;}
	.st50{fill:#EFBCB4;}
	.st51{fill:#020002;}
	.st52{fill:#F9C4D1;}
	.st53{fill:#090000;}
	.st54{fill:#232E60;}
	.st55{fill:#FFBC09;}
	.st56{fill:#D89A2E;}
	.st57{fill:#FFFFFF;}
	.st58{fill:#3E89CC;}
	.st59{fill:#E5F8FF;}
	.st60{fill:none;stroke:#A1D2F0;stroke-width:0.8285;stroke-linecap:round;stroke-linejoin:round;stroke-miterlimit:10;}
	.st61{fill:#F4B5C7;}
	.st62{fill:#F8CBC2;}
	.st63{fill:#E588A7;}
	.st64{fill:#8E5169;}
	.st65{fill:#F9AFC7;}
	.st66{fill:#072675;}
	.st67{fill:#E53C2E;}
	.st68{fill:none;stroke:#A1D2F0;stroke-width:0.8529;stroke-linecap:round;stroke-linejoin:round;stroke-miterlimit:10;}
	.st69{fill:#1B227A;}
	.st70{fill:#1B4380;}
	.st71{fill:#FFB702;}
	.st72{fill:#FADFDA;}
	.st73{opacity:0.32;fill:#F9AFC7;}
	.st74{fill:#111B56;}
	.st75{fill:#000600;}
	.st76{fill:#FABA02;}
	.st77{fill:#164584;}
	.st78{fill:#070706;}
	.st79{fill:#0A3C78;}
	.st80{opacity:0.37;}
</style>
<rect x="134.1" y="127.9" class="st0" width="247.5" height="193.9"/>
<g>
	<path class="st1" d="M247.3,169.6c9.3-2.5,15.4-1.1,24.8,0.9c4.2,0.9,8.4,2.2,12.3,4.1c15.2,7.5,23.9,25.9,20.8,42.6
		c-3.1,16.7-17.3,30.5-33.9,34c-4.2,0.9-8.5,1.1-12.7,0.5c-14.3-2.3-27.9-7.5-35.4-19.8C209.5,209.4,219,177.2,247.3,169.6z"/>
	<path class="st1" d="M247.3,169.6c9.3-2.5,15.4-1.1,24.8,0.9c4.2,0.9,8.4,2.2,12.3,4.1c15.2,7.5,23.9,25.9,20.8,42.6
		c-3.1,16.7-17.3,30.5-33.9,34c-4.2,0.9-8.5,1.1-12.7,0.5c-14.3-2.3-27.9-7.5-35.4-19.8C209.5,209.4,219,177.2,247.3,169.6z"/>
	<path class="st1" d="M308.2,146.5c1.6-0.4,2.7-0.2,4.3,0.2c0.7,0.2,1.5,0.4,2.1,0.7c2.6,1.3,4.1,4.5,3.6,7.4
		c-0.5,2.9-3,5.3-5.9,5.9c-0.7,0.2-1.5,0.2-2.2,0.1c-2.5-0.4-4.8-1.3-6.1-3.4C301.7,153.4,303.3,147.8,308.2,146.5z"/>
	<text transform="matrix(1 0 0 1 231.124 221.0063)" class="st2 st3 st4">FAQ</text>
	<text transform="matrix(1 0 0 1 308.1111 156.1217)" class="st5 st3 st6">?</text>
	<path class="st7" d="M272.7,174.7c3.7-7.3,10.3-13,18-15.6"/>
	<path class="st7" d="M286.6,157.1c3.4,0.5,6.8,0.7,10.2,0.4c-2.8,1.1-5.4,2.9-7.3,5.3"/>
	<path class="st8" d="M305.9,167.7c2-1.3,4.7-1.7,7-1c1.6,0.5,3.1,1.4,4.8,1.4c2.4,0,4.3-1.7,6.4-2.6c2.5-1.1,5.7-1,7.9,0.5
		c0.7,0.5,1.4,1.1,2.3,1.1c0.6,0,1.1-0.2,1.6-0.4c4.2-1.8,8.8-2.6,13.4-2.6"/>
	<path class="st9" d="M305.9,173.6c4.5-0.5,9.2-1,13.6-0.3c2,0.3,3.9,0.9,5.9,1.2c5.8,0.6,11.6-2,17.4-1.3c2.8,0.3,5.7,1.4,8.3,0.5"
		/>
	<path class="st9" d="M305.9,185.3c4.5-0.5,9.2-1,13.6-0.3c2,0.3,3.9,0.9,5.9,1.2c5.8,0.6,11.6-2,17.4-1.3c2.8,0.3,5.7,1.4,8.3,0.5"
		/>
	<path class="st9" d="M305.9,194c4.5-0.5,9.2-1,13.6-0.3c2,0.3,3.9,0.9,5.9,1.2c5.8,0.6,11.6-2,17.4-1.3c2.8,0.3,5.7,1.4,8.3,0.5"/>
	<path class="st1" d="M288,261.1c1.6-0.4,2.7-0.2,4.3,0.2c0.7,0.2,1.5,0.4,2.1,0.7c2.6,1.3,4.1,4.5,3.6,7.4c-0.5,2.9-3,5.3-5.9,5.9
		c-0.7,0.2-1.5,0.2-2.2,0.1c-2.5-0.4-4.8-1.3-6.1-3.4C281.5,268,283.1,262.4,288,261.1z"/>
	<text transform="matrix(1 0 0 1 287.9249 270.6756)" class="st5 st3 st6">?</text>
	<path class="st8" d="M285.7,282.2c2-1.3,4.7-1.7,7-1c1.6,0.5,3.1,1.4,4.8,1.4c2.4,0,4.3-1.7,6.4-2.6c2.5-1.1,5.7-1,7.9,0.5
		c0.7,0.5,1.4,1.1,2.3,1.1c0.6,0,1.1-0.2,1.6-0.4c4.2-1.8,8.8-2.6,13.4-2.6"/>
	<path class="st9" d="M285.7,288.1c4.5-0.5,9.2-1,13.6-0.3c2,0.3,3.9,0.9,5.9,1.2c5.8,0.6,11.6-2,17.4-1.3c2.8,0.3,5.7,1.4,8.3,0.5"
		/>
	<path class="st9" d="M285.7,299.8c4.5-0.5,9.2-1,13.6-0.3c2,0.3,3.9,0.9,5.9,1.2c5.8,0.6,11.6-2,17.4-1.3c2.8,0.3,5.7,1.4,8.3,0.5"
		/>
	<path class="st9" d="M285.7,308.6c4.5-0.5,9.2-1,13.6-0.3c2,0.3,3.9,0.9,5.9,1.2c5.8,0.6,11.6-2,17.4-1.3c2.8,0.3,5.7,1.4,8.3,0.5"
		/>
	<path class="st1" d="M161.1,151.6c1.6-0.4,2.7-0.2,4.3,0.2c0.7,0.2,1.5,0.4,2.1,0.7c2.6,1.3,4.1,4.5,3.6,7.4
		c-0.5,2.9-3,5.3-5.9,5.9c-0.7,0.2-1.5,0.2-2.2,0.1c-2.5-0.4-4.8-1.3-6.1-3.4C154.5,158.5,156.2,153,161.1,151.6z"/>
	<g>
		<text transform="matrix(1 0 0 1 160.9579 161.2396)" class="st5 st3 st6">?</text>
	</g>
	<path class="st8" d="M158.8,172.8c2-1.3,4.7-1.7,7-1c1.6,0.5,3.1,1.4,4.8,1.4c2.4,0,4.3-1.7,6.4-2.6c2.5-1.1,5.7-1,7.9,0.5
		c0.7,0.5,1.4,1.1,2.3,1.1c0.6,0,1.1-0.2,1.6-0.4c4.2-1.8,8.8-2.6,13.4-2.6"/>
	<path class="st9" d="M158.8,178.7c4.5-0.5,9.2-1,13.6-0.3c2,0.3,3.9,0.9,5.9,1.2c5.8,0.6,11.6-2,17.4-1.3c2.8,0.3,5.7,1.4,8.3,0.5"
		/>
	<path class="st9" d="M158.8,190.4c4.5-0.5,9.2-1,13.6-0.3c2,0.3,3.9,0.9,5.9,1.2c5.8,0.6,11.6-2,17.4-1.3c2.8,0.3,5.7,1.4,8.3,0.5"
		/>
	<path class="st9" d="M158.8,199.1c4.5-0.5,9.2-1,13.6-0.3c2,0.3,3.9,0.9,5.9,1.2c5.8,0.6,11.6-2,17.4-1.3c2.8,0.3,5.7,1.4,8.3,0.5"
		/>
	<path class="st1" d="M193.4,259.8c1.6-0.4,2.7-0.2,4.3,0.2c0.7,0.2,1.5,0.4,2.1,0.7c2.6,1.3,4.1,4.5,3.6,7.4s-3,5.3-5.9,5.9
		c-0.7,0.2-1.5,0.2-2.2,0.1c-2.5-0.4-4.8-1.3-6.1-3.4C186.9,266.7,188.5,261.1,193.4,259.8z"/>
	<text transform="matrix(1 0 0 1 193.3047 269.3856)" class="st5 st3 st6">?</text>
	<path class="st8" d="M191.1,281c2-1.3,4.7-1.7,7-1c1.6,0.5,3.1,1.4,4.8,1.4c2.4,0,4.3-1.7,6.4-2.6c2.5-1.1,5.7-1,7.9,0.5
		c0.7,0.5,1.4,1.1,2.3,1.1c0.6,0,1.1-0.2,1.6-0.4c4.2-1.8,8.8-2.6,13.4-2.6"/>
	<path class="st9" d="M191.1,286.8c4.5-0.5,9.2-1,13.6-0.3c2,0.3,3.9,0.9,5.9,1.2c5.8,0.6,11.6-2,17.4-1.3c2.8,0.3,5.7,1.4,8.3,0.5"
		/>
	<path class="st9" d="M191.1,298.5c4.5-0.5,9.2-1,13.6-0.3c2,0.3,3.9,0.9,5.9,1.2c5.8,0.6,11.6-2,17.4-1.3c2.8,0.3,5.7,1.4,8.3,0.5"
		/>
	<path class="st9" d="M191.1,307.3c4.5-0.5,9.2-1,13.6-0.3c2,0.3,3.9,0.9,5.9,1.2c5.8,0.6,11.6-2,17.4-1.3c2.8,0.3,5.7,1.4,8.3,0.5"
		/>
	<path class="st10" d="M289.2,237.9c6.4-1.2,12.7,1.4,16,6.6c1,1.6,1.8,3.5,1.9,5.6c0.3,4.7-2.5,9.5-5.4,13.7"/>
	<path class="st7" d="M301.6,257c0.2,3-0.4,6.1-1.9,8.8c2.2-1.4,4.4-2.9,6.7-4.3"/>
	<path class="st7" d="M234.1,237.9c-12.9,1.9-24.7,9.5-29.8,17.7"/>
	<path class="st7" d="M205.2,248c-1.6,3.1-2.6,6.5-2.9,10c1.9-0.6,3.8-1.1,5.7-1.7"/>
	<path class="st7" d="M229,184.4c3.9-4.1,5.9-10,4.9-15.6c-1-5.6-5.2-10.6-10.7-12c-5.5-1.5-11.9,1-14.6,5.9
		c-0.5,0.9-0.7,2.4,0.2,2.8c0.4,0.2,0.9,0.1,1.3-0.1c2.4-1.1,3-4.5,1.7-6.8c-1.3-2.3-3.8-3.6-6.3-4.4c-6.2-1.9-20.4-0.3-26,2.9"/>
	<path class="st7" d="M182.6,152.4c-2.3,2-4.3,3.7-6.5,6.7c2.4-0.1,5,0.7,7.2,1.5"/>
	<g>
		<path class="st5" d="M335.3,212c-2.9-4.7-10.1-3.4-11.4,1.9c0,0.1,0,0.1,0,0.1c0,0.1,0,0.2,0.1,0.2c1.3,0.5,2.5,0.9,3.8,1.4
			c0.1,0,0.2,0,0.2-0.1c0,0,0,0,0-0.1c0.3-0.7,0.8-1.3,1.6-1.5c1.2-0.3,1.9,0.7,1.6,1.8c-0.4,1.7-2.2,2.3-3.6,1.6
			c-0.1-0.1-0.2,0-0.3,0.1c0,0,0,0,0,0c-0.5,1.1-1.1,2.1-1.6,3.2c-0.4,0.8-1.1,1.7-1.2,2.6c0,0.1,0,0.2,0.1,0.2c1.1,0.6,2.7,0.7,4,1
			c0,0.1,0,0.1,0,0.2c-0.1,0.2,0.3,0.3,0.3,0.1c0.3-1,0.5-2.3,1.3-3c0.7-0.6,1.6-0.5,2.5-0.8c1.1-0.3,2-0.9,2.6-1.9
			C336.7,217,336.6,214.1,335.3,212z M331.6,220.9c-0.6,0.1-1.3,0.1-1.8,0.5c-0.6,0.6-0.8,1.9-1.1,2.8c-0.8-0.2-1.5-0.3-2.3-0.5
			c-0.5-0.1-0.9,0-1.1-0.5c-0.2-0.5,0-0.7,0.3-1.2c0.7-1.4,1.4-2.8,2.1-4.2c1.9,0.9,4.2-0.5,4-2.7c-0.1-1-0.8-1.6-1.8-1.5
			c-1,0.1-1.7,0.8-2.1,1.7c-1.2-0.4-2.3-0.9-3.5-1.3c0.7-2.7,3-4.7,5.9-4.6c3,0.1,5.4,2.4,5.8,5.4
			C336.3,217.9,334.6,220.3,331.6,220.9z"/>
		<path class="st5" d="M327.8,229.6l0.1-3.4c0-0.1-0.1-0.1-0.1-0.2c-1-0.4-2-0.6-3-0.6c-0.2,0-0.2,0.4,0,0.3c0.6,0,2.5-0.1,2.8,0.7
			c0.1,0.3,0,1,0,1.3c0,0.5,0,1,0,1.4c-0.9-0.3-1.9-0.6-2.8-0.9c-0.2-0.1-0.5-0.1-0.6-0.2c-0.3-0.2-0.1-0.4,0-0.7
			c0.2-0.5,0.6-1,1-1.4c0.2-0.2-0.1-0.4-0.2-0.2c-0.6,0.7-1.1,1.5-1.5,2.3c0,0.1,0,0.2,0.1,0.2c1.4,0.4,2.8,0.9,4.2,1.3
			C327.7,229.8,327.8,229.7,327.8,229.6z"/>
		<path class="st5" d="M345.6,213c-1.7-0.2-3.4-0.5-5-0.9c-0.1,0-0.2,0-0.2,0.1c-0.8,2.5-1.6,5-2.3,7.5c-0.3,1.2-0.7,2.5-0.9,3.7
			c-0.1,0.4-0.1,0.7-0.2,1.1c0,0.4-0.1,0.7-0.1,1.1c-0.1,0.3-0.1,0.6,0.1,0.9c0,0,0,0,0,0c-0.1,0-0.1,0-0.2,0.1c0,0,0,0,0,0
			c0,0.1,0,0.2,0.2,0.2c0,0,0,0,0,0c0.1,0,0.1-0.1,0.1-0.1l0.3,0.1c0.9,0.2,1.7,0.6,2.6,0.9c0.1,0.1,0.2-0.1,0.2-0.2
			c0.1,0,0.1-0.1,0.2-0.1c1.8-4.7,3.6-9.5,5.3-14.3C345.8,213.1,345.7,213,345.6,213z M344.3,216.3c-0.5,1.4-1,2.8-1.5,4.2
			c-0.6,1.5-1.1,3-1.7,4.5c-0.2,0.6-0.4,1.7-1,2c-0.6,0.3-1.8-0.4-2.4-0.6c-0.1,0-0.2,0.1-0.2,0.1l-0.2-0.1c0.2-3.3,1-6.1,1.9-9.1
			c0.2-0.7,0.4-1.5,0.7-2.2c0.2-0.7,0.3-1.6,0.7-2.2c0.5-0.8,1-0.4,1.8-0.3c0.7,0.2,1.5,0.2,2.3,0.4c0.7,0.2,0.7,0.1,0.5,1
			C344.9,214.9,344.6,215.6,344.3,216.3z"/>
		<path class="st5" d="M339.5,230.6c0-0.1-0.1-0.1-0.1-0.2c-1-0.3-2-0.6-3.1-0.7c-0.1,0-0.2,0.1-0.1,0.2c-0.1,0-0.2,0-0.2,0.1
			c-0.3,0.9-0.7,1.8-1.2,2.6c0,0.1,0,0.2,0.1,0.2c1.2,0.6,2.4,1,3.7,1.3c0.1,0,0.2,0,0.2-0.1C339.1,233,339.4,231.8,339.5,230.6z
			 M335.1,232.8c0.4-0.7,0.8-1.5,1-2.3c0,0,0.1,0.1,0.1,0.1c0.1,0.2,0.4-0.1,0.2-0.2c-0.1-0.1-0.1-0.1-0.1-0.2
			c0.5,0.1,1,0.1,1.5,0.2c0.2,0.1,0.5,0.1,0.7,0.2c0.4,0.1,0.5,0.1,0.5,0.6c0,0.9-0.4,1.9-0.7,2.7
			C337.3,233.7,336.2,233.3,335.1,232.8z"/>
		<path class="st5" d="M337.7,233.1c-0.5-0.2-1-0.4-1.5-0.6c-0.2-0.1-0.4,0.2-0.2,0.3c0.5,0.2,1,0.4,1.5,0.6
			C337.7,233.5,337.9,233.2,337.7,233.1z"/>
		<path class="st5" d="M338.5,232.6l-1.6-0.4c-0.3-0.1-0.4,0.2-0.1,0.3l1.6,0.4L338.5,232.6z"/>
		<path class="st5" d="M339.2,218.9l-0.7,2.5l0.3,0.1l0.7-2.5C339.6,218.7,339.3,218.6,339.2,218.9z"/>
		<path class="st5" d="M340.4,218.6c-0.2,0.6-0.4,1.2-0.7,1.8c-0.1,0.2,0.3,0.3,0.3,0.1c0.2-0.6,0.4-1.2,0.7-1.8
			C340.8,218.5,340.5,218.4,340.4,218.6z"/>
		<path class="st5" d="M329.6,213.1c-0.7-0.1-1.4,0.1-1.8,0.6c-0.1,0.2,0.1,0.4,0.2,0.2c0.4-0.4,0.9-0.6,1.5-0.5
			C329.7,213.5,329.8,213.2,329.6,213.1z"/>
		<path class="st5" d="M330.5,212.6c-0.7-0.4-1.5-0.4-2.3,0c-0.2,0.1,0,0.4,0.2,0.3c0.6-0.3,1.3-0.3,1.9,0
			C330.5,213,330.7,212.7,330.5,212.6z"/>
		<path class="st5" d="M335.3,215c-0.1-0.2-0.4-0.1-0.3,0.1c0.3,0.8,0.2,1.7-0.2,2.5c-0.1,0.2,0.2,0.4,0.3,0.2
			C335.5,216.9,335.6,216,335.3,215z"/>
		<path class="st5" d="M334.5,215.8c0-0.2-0.4-0.1-0.3,0.1c0.1,0.7-0.1,1.4-0.5,1.9c-0.1,0.2,0.1,0.4,0.2,0.2
			C334.4,217.5,334.6,216.7,334.5,215.8z"/>
		<path class="st5" d="M326.2,228.3c-0.5-0.3-0.9-0.4-1.5-0.5c-0.2,0-0.2,0.3,0,0.3c0.5,0.1,0.9,0.2,1.3,0.4
			C326.3,228.7,326.4,228.4,326.2,228.3z"/>
		<path class="st5" d="M327,227.8c-0.5-0.3-1.1-0.5-1.7-0.6c-0.2,0-0.3,0.3-0.1,0.3c0.6,0.1,1.1,0.3,1.6,0.6
			C327,228.2,327.2,227.9,327,227.8z"/>
	</g>
	<g>
		<path class="st5" d="M210.8,239.8c-1.1-0.4-2.2-0.6-3.4-0.7c-0.1,0-0.2,0.2-0.1,0.3c0.3,0.3,0.6,0.5,1,0.6c-1.1,0-2.2,0-3.3,0.1
			c0.1-6.1,0.1-12.3,0.2-18.2c0-0.2-0.2-0.2-0.3-0.2c0-0.1,0-0.2-0.1-0.2c-1.7-0.1-3.5-0.1-5.2,0.1c-0.1,0-0.2,0.1-0.2,0.2
			c0,0-0.1,0.1-0.1,0.1c0.5,6.1,0.7,12.2,0.6,18.3c-0.5,0-1.1,0-1.6,0c0,0,0,0,0-0.1c0.2-4.4,0.2-8.9,0-13.3c0-0.2-0.3-0.2-0.3,0
			c0,0,0,0.1,0,0.1c0,0,0,0,0,0c-1.3-0.1-2.6-0.2-3.9-0.1c-0.1,0-0.1,0.1-0.1,0.1c0,0-0.1,0.1-0.1,0.2l0,13.1h0.3l0-13
			c1.3,0,2.6,0,3.9,0.1c0,0,0,0,0,0c0.2,4.3,0.2,8.6,0,12.9c0,0,0,0.1,0,0.1c-1.9,0-3.7,0-5.6,0c-0.1-2.6,0-5.1,0.1-7.7
			c0-0.2-0.3-0.2-0.3,0c-1.3,0-2.4,0-3.7,0c-0.1,0,0,0.2,0,0.3v7.3c0,0-0.1,0-0.1,0c-0.4,0-0.9,0-1.3,0c0,0,0,0,0,0
			c0.1-1.5,0-3-0.1-4.5c0,0,0,0,0,0c0-0.1,0-0.2-0.2-0.2c-1.3-0.1-2.6-0.2-4-0.2c0,0-0.1,0-0.1,0c-0.1,0-0.2,0-0.2,0.2
			c-0.1,1.6-0.1,3.1-0.2,4.7c-0.3,0-0.5,0-0.8,0c0-0.6,0.1-1.3,0.1-1.9c0-0.3,0.1-0.5-0.1-0.7c-0.3-0.3-1.3-0.2-1.7-0.3
			c-0.8-0.1-1.6-0.2-2.4-0.3c-0.1,0-0.2,0.1-0.2,0.2c0.1,0.9,0,1.8-0.2,2.7c0,0.1,0,0.1,0.1,0.2c-0.4,0-0.8,0-1.2,0
			c-0.2-8.5-0.1-17,0.3-25.5c0.1,0.2,0.2,0.4,0.4,0.6c0.1,0.1,0.3,0,0.3-0.2l-0.6-3c0-0.2-0.3-0.1-0.3,0c-0.4,1-0.7,2-1.1,3
			c0,0.2,0.2,0.3,0.3,0.2c0.3-0.3,0.5-0.6,0.7-0.9c-0.4,8.6-0.5,17.2-0.3,25.8c-0.6,0-1.2,0-1.7-0.1c-0.2,0-0.2,0.3,0,0.3
			c0.6,0,1.2,0,1.7,0.1c0,0.6,0,1.2,0,1.8c0,0.2,0.3,0.2,0.3,0c0-0.6,0-1.2,0-1.8c1.8,0.1,3.5,0.1,5.3,0.1c0.1,0,0.1,0,0.2,0
			c3.6,0.1,7.1,0.1,10.7,0.1c0.1,0,0.1,0,0.2,0c5.3,0,10.6,0,15.9-0.1c-0.3,0.3-0.6,0.7-0.9,1c-0.1,0.1,0,0.4,0.2,0.3
			c1-0.6,2-1.1,3.1-1.5C211,240,211,239.8,210.8,239.8z M181.5,239c0,0.3,0,0.7-0.1,1c-1.3,0-2.5-0.1-3.8-0.1c0,0,0,0,0-0.1
			c0.1-0.6,0.2-1.3,0.2-1.9c0-0.6-0.1-0.7,0.5-0.7c0.4,0,0.8,0.1,1.1,0.1c0.5,0.1,2,0,2.1,0.5C181.7,238.2,181.6,238.7,181.5,239z
			 M186.9,240.1c-1.3,0-2.7,0-4-0.1c0.1-1.5,0.1-3,0.2-4.6c1.3,0,2.5,0.1,3.8,0.2C187,237.1,187,238.6,186.9,240.1
			C186.9,240,186.9,240,186.9,240.1z M192.3,240.1c-1.2,0-2.2,0-3.4,0c0,0,0.2,0,0.2,0v-7.3c0.9-0.1,2.3-0.1,3.5,0
			C192.4,235.2,192.2,237.6,192.3,240.1z M204.7,240c-1.5,0-2.9,0-4.4,0c0.1-6.1-0.1-12.2-0.6-18.3c1.7-0.2,3.4-0.2,5.1-0.1
			c0,0,0.1,0,0.1,0c0,0,0,0.1,0,0.1C204.9,227.8,204.8,234,204.7,240z M208,239.5c0.2,0,0.4,0.1,0.6,0.1c0,0.1,0,0.2,0.1,0.2
			c0,0,0,0,0.1,0c0,0,0,0,0,0c-0.1,0-0.1,0-0.2-0.1c0,0-0.1,0-0.1,0C208.4,239.7,208.2,239.6,208,239.5z M208.5,240.8
			c0.3-0.3,0.4-0.5,0.9-0.4c0,0,0,0,0,0C209.1,240.5,208.8,240.6,208.5,240.8z"/>
		<path class="st5" d="M204.1,222.6v2.5h0.6v-2.5C204.7,222.3,204.1,222.3,204.1,222.6z"/>
		<path class="st5" d="M203.2,223.2v3.1h0.6v-3.1C203.8,222.9,203.2,222.9,203.2,223.2z"/>
		<path class="st5" d="M194.7,237.5c-0.1,0.7-0.2,1.4-0.2,2.1c0,0.2,0.3,0.2,0.3,0c0-0.7,0-1.3,0.1-2
			C195.1,237.4,194.8,237.3,194.7,237.5z"/>
		<path class="st5" d="M195.4,236.8c0,0.8-0.1,1.5-0.2,2.3c0,0.2,0.3,0.3,0.3,0.1c0.1-0.8,0.2-1.6,0.2-2.4
			C195.7,236.6,195.4,236.6,195.4,236.8z"/>
		<path class="st5" d="M191.2,235.1v1.8h0.3v-1.8C191.5,234.8,191.2,234.8,191.2,235.1z"/>
		<path class="st5" d="M190.3,234.2v1.8h0.3v-1.8C190.6,233.9,190.3,233.9,190.3,234.2z"/>
		<path class="st5" d="M183.5,237.3v2.1h0.3v-2.1C183.8,237,183.5,237,183.5,237.3z"/>
		<path class="st5" d="M184.2,236.2c-0.1,0.7-0.1,1.4-0.1,2.2c0,0.2,0.3,0.2,0.3,0c0-0.7,0-1.5,0.1-2.2
			C184.6,236,184.3,236,184.2,236.2z"/>
	</g>
	<path class="st11" d="M175.5,226.7c9-2.1,17-8.4,21.2-16.7"/>
	<path class="st11" d="M195.6,210.8c0.5-0.3,0.9-0.6,1.2-1.1c0.1,0.5,0.2,1,0.4,1.5"/>
	<path class="st12" d="M233.5,193.2c1.5-0.7,3.2-1.1,4.9-1"/>
	<path class="st12" d="M233.8,194.3c0.5-0.5,1.3-0.6,2-0.4"/>
	<path class="st12" d="M251.7,188.5c0.5-0.2,1.1-0.1,1.5,0.3c0.4,0.4,0.5,1,0.2,1.5"/>
	<path class="st12" d="M239.2,209.3c1.4,0.2,2.8,0,4.2-0.4"/>
	<path class="st12" d="M236,215c0,1.4,0,2.9,0,4.3"/>
	<path class="st12" d="M236,220.5c-0.2,0.9-0.2,1.8-0.2,2.7"/>
	<path class="st12" d="M258.7,196.9c0.5-1.4,1-2.9,1.5-4.3"/>
	<path class="st12" d="M259.9,195.3c-0.3,0.9-0.6,1.8-0.9,2.7"/>
	<path class="st12" d="M263.9,211.8c0.3,0.9,0.6,1.9,0.9,2.9"/>
	<path class="st12" d="M265.3,212.8c0.2,0.9,0.4,1.9,0.7,2.8"/>
	<path class="st12" d="M276.9,195.9c-0.9,0.4-1.7,1.3-2.1,2.2"/>
	<path class="st12" d="M275.8,197.7c-0.5,0.6-0.8,1.4-0.9,2.2"/>
	<path class="st12" d="M278.5,205.7c0.7-0.1,1.4,0.1,1.9,0.6c0.5,0.5,0.8,1.1,0.9,1.8"/>
	<path class="st12" d="M280,207.4c0.3,0,0.4,0.4,0.5,0.6c0.1,0.3,0.1,0.6,0.2,0.9"/>
	<path class="st12" d="M283.1,218.1c0.2,0.8,0.6,1.6,1,2.3"/>
	<path class="st12" d="M284.7,220.9c0.2,0.4,0.4,0.8,0.6,1.2"/>
	<path class="st12" d="M285.6,221.3c0.2,0.4,0.4,0.8,0.6,1.2"/>
	<g>
		<path class="st5" d="M260.9,142.3c-0.4-1.7-0.7-3.4-0.8-5.1c0-0.1-0.1-0.1-0.1-0.1c0,0-0.1,0-0.1,0c-4.4-0.2-8.8,2.1-11.1,5.9
			c-2.5,4-2.2,9.3,0.3,13.2c-0.6,1.3-1.1,2.7-1.4,4.2c0,0.1,0,0.2,0.2,0.2c1.8,0,3.6-0.4,5.4-0.7c1-0.2,2-0.4,3.1-0.5
			c0.3-0.1,1.7-0.1,1.9-0.5c0.4-0.7-1.1-2.2-1.4-2.8c-1-1.7-2-3.5-2.4-5.5c0-0.1-0.2-0.1-0.3,0c-0.7,1-1.4,1.9-2.1,2.9
			c-1.2-2.7-0.9-6.1,1-8.4c0.8-1,1.9-1.7,3-2.2c0.7-0.3,1.4-0.5,2.2-0.5c0.7-0.1,1.7,0.2,2.3,0.1c0,0,0,0,0,0
			c-0.2,0.1-0.1,0.4,0.1,0.3c0,0,0.1,0,0.1,0c0,0,0.1-0.1,0.1-0.1c0,0,0,0,0,0c0,0,0,0,0-0.1c0,0,0,0,0,0
			C261,142.4,261,142.4,260.9,142.3z M256.8,142.3c-1.5,0.4-2.9,1.3-3.9,2.5c-2.1,2.5-2.4,6-1,8.8c0.1,0.1,0.2,0.1,0.3,0
			c0.1,0,0.2,0,0.2,0c0.6-0.9,1.3-1.8,1.9-2.7c0.3,1.4,0.9,2.8,1.6,4c0.4,0.7,0.8,1.4,1.3,2.1c0.1,0.1,0.7,1,0.7,1.1
			c-0.1,0.5-1.3,0.6-1.7,0.6c-1.9,0.3-3.7,0.7-5.6,1c-0.6,0.1-1.3,0.3-1.9,0.2c-0.7,0-0.7,0-0.6-0.7c0.2-1.1,0.7-2.2,1.2-3.2
			c0,0,0-0.1,0-0.1c0,0,0-0.1,0-0.1c-2.5-3.8-2.7-9-0.3-12.9c2.3-3.7,6.5-5.8,10.8-5.7c0.1,1.6,0.4,3.2,0.7,4.8
			C259.4,141.7,257.9,142,256.8,142.3z"/>
		<path class="st5" d="M270.2,143.7c0.9-1,1.5-2.1,1.9-3.3c0-0.1-0.1-0.2-0.2-0.2c-3.1-0.3-6.1-0.6-9.2-0.8c-0.1,0-0.2,0.1-0.2,0.2
			l1.3,3.6c0.4,1.2,1.1,2.5,1,3.8c0,0.1,0.1,0.2,0.2,0.1c0.8-0.5,1.6-1.1,2.3-1.8c1.8,1.7,1.9,4.8,0.8,6.9c-1.2,2.1-3.5,3.2-5.8,3
			c-0.1,0-0.1,0-0.1,0.1c-0.1,0-0.2,0.1-0.2,0.2c0.4,1.6,0.8,3.1,1.1,4.7c0.1,0.4,0.1,1.3,0.7,1.2c0,0,0.1,0,0.1-0.1c0,0,0,0,0.1,0
			c3.9-0.4,7.4-3,8.7-6.7C274.2,150.8,273,146.4,270.2,143.7z M272.6,154.1c-1.2,3.7-4.7,6.4-8.5,6.8c0,0,0,0,0,0
			c-0.1-0.1-0.2-0.1-0.3,0.1c0.1-0.7-0.4-1.9-0.6-2.6c-0.2-0.9-0.5-1.9-0.7-2.8c2.6,0.2,5.1-1.2,6.2-3.5c1-2.2,0.8-5.4-1.1-7
			c-0.1-0.1-0.2,0-0.3,0.1c0,0,0,0,0,0c-0.4,0.3-0.7,0.7-1.1,1c-0.2,0.2-0.5,0.4-0.7,0.6c-0.2,0-0.2-0.1-0.1-0.3
			c-0.1-0.1-0.1-0.6-0.1-0.7c-0.1-0.5-0.3-0.9-0.5-1.3c-0.3-0.9-0.6-1.8-1-2.6c-0.1-0.4-0.3-0.8-0.4-1.2c-0.2-0.7-0.2-0.6,0.5-0.7
			c1.8-0.1,3.8,0.3,5.6,0.5c0.5,0,2.1-0.1,2.3,0.4c0.2,0.6-1.5,2.5-1.8,2.8c0,0,0,0,0,0.1c-0.1,0.1-0.1,0.2,0,0.2
			C272.6,146.4,273.8,150.4,272.6,154.1z"/>
		<path class="st5" d="M249.5,154.6c-0.5-0.6-0.8-1.2-1.1-1.8c-0.1-0.2-0.4-0.1-0.3,0.1c0.3,0.7,0.7,1.4,1.2,2
			C249.4,155,249.6,154.8,249.5,154.6z"/>
		<path class="st5" d="M249.7,153.7c-0.4-0.6-0.6-1.3-0.7-2.1c0-0.2-0.3-0.2-0.3,0c0.1,0.8,0.3,1.5,0.7,2.2
			C249.6,154,249.8,153.8,249.7,153.7z"/>
		<path class="st5" d="M269.3,152.5c-0.3,0.8-0.9,1.4-1.8,1.7c-0.2,0.1-0.1,0.4,0.1,0.3c0.9-0.3,1.7-1,2-1.9
			C269.7,152.4,269.4,152.3,269.3,152.5z"/>
		<path class="st5" d="M270.1,152.5c-0.1,0.6-0.4,1-0.9,1.4c-0.2,0.1,0,0.4,0.2,0.3c0.5-0.4,0.9-0.9,1-1.6
			C270.5,152.4,270.2,152.3,270.1,152.5z"/>
		<path class="st5" d="M269.6,140.4c-0.8,0.1-1.6,0.1-2.4,0c-0.2,0-0.2,0.3,0,0.3c0.8,0.1,1.6,0.1,2.4,0
			C269.8,140.8,269.8,140.4,269.6,140.4z"/>
		<path class="st5" d="M269.9,141.3c-0.5-0.1-1.1-0.2-1.6-0.3c-0.2,0-0.3,0.3-0.1,0.3c0.5,0.1,1.1,0.2,1.6,0.3
			C270,141.6,270.1,141.3,269.9,141.3z"/>
		<path class="st5" d="M258.9,141.1c-0.8-0.3-1.7-0.2-2.4,0.3c-0.2,0.1,0,0.4,0.2,0.3c0.7-0.4,1.4-0.5,2.1-0.2
			C259,141.5,259.1,141.2,258.9,141.1z"/>
		<path class="st5" d="M259.1,140.4c-0.6-0.3-1.2-0.3-1.8-0.1c-0.2,0.1,0,0.4,0.2,0.3c0.5-0.2,1-0.2,1.5,0.1
			C259.1,140.8,259.3,140.5,259.1,140.4z"/>
	</g>
	<g>
		<path class="st5" d="M279.6,289.1c-0.5-2.8-2.6-5.1-5.4-5.9c-0.6-0.2-1.3-0.3-2-0.3c-1,0-1.1,0.2-1.5-0.7
			c-0.7-1.5-1.1-2.9-2.3-4.1c-2-2.1-5.2-3.1-8-1.9c-1.3,0.6-2.2,1.6-2.8,2.9c-0.2,0.6-0.4,1.1-0.4,1.8c0,0.3,0.3,1.7,0.2,1.7
			c0,0-1.6,0.1-1.8,0.2c-0.4,0.2-0.8,0.5-1.1,0.9c-0.8,1.1-0.7,2.4,0,3.5c0.1,0.2,0.5,0,0.3-0.2c-1.4-2.1,0.5-4.7,3-3.8
			c0.1,0,0.3-0.1,0.2-0.2c-1.5-3.8,2-7.2,5.8-6.7c3.7,0.5,6,3.7,6.8,7.1c0,0.1,0.1,0.1,0.2,0.1c2.4-0.4,4.8,0.3,6.5,2
			c1.4,1.4,2.4,4.1,1.9,6.1c0,0.6-0.3,1-0.9,1.2c-0.3,0.6-0.8,0.8-1.4,0.7c-0.5,0.1-1.1,0-1.6,0c-1.1,0-2.3,0.1-3.4,0.1
			c-2.2,0.1-4.4,0.1-6.5,0.2c-4.1,0.1-8.3,0.5-12.4,0.3c-2-0.1-4.7-0.9-4.6-3.4c0.1-3.1,3.6-3.9,6-3c0.2,0.1,0.3-0.3,0.1-0.4
			c-2.4-0.9-5.6-0.3-6.4,2.5c-0.7,2.4,1.1,4,3.3,4.5c1.4,0.3,2.9,0.2,4.3,0.1c2.3-0.1,4.6-0.1,6.9-0.2c4.5-0.1,8.9-0.3,13.4-0.4
			c1.1,0,2.4,0.2,3.2-0.9C279.9,291.9,279.8,290.3,279.6,289.1z"/>
		<path class="st5" d="M277,285.8c-0.5-0.9-1.5-1.4-2.5-1.4c-0.2,0-0.2,0.4,0,0.4c0.9,0,1.7,0.4,2.2,1.2
			C276.8,286.2,277.2,286,277,285.8z"/>
		<path class="st5" d="M275.2,285.4c-0.2,0-0.3,0.3-0.1,0.4c0.7,0.1,1.3,0.7,1.4,1.4c0,0.2,0.4,0.1,0.4-0.1
			C276.8,286.3,276.1,285.6,275.2,285.4z"/>
		<path class="st5" d="M250.8,292.3c-0.8-0.4-1.2-1.2-1-2c0.1-0.2-0.3-0.3-0.4-0.1c-0.2,1,0.3,2,1.2,2.4
			C250.9,292.8,251.1,292.5,250.8,292.3z"/>
		<path class="st5" d="M251.2,291.3c-0.3-0.6-0.3-1.4,0-2c0.1-0.2-0.2-0.4-0.3-0.2c-0.4,0.8-0.3,1.6,0,2.4
			C251,291.7,251.3,291.5,251.2,291.3z"/>
		<path class="st5" d="M272.5,292.3c-0.7,0.1-1.4,0.1-2,0.2c-0.2,0-0.2,0.4,0,0.4c0.7-0.1,1.4-0.1,2-0.2
			C272.7,292.7,272.7,292.3,272.5,292.3z"/>
		<path class="st5" d="M260.5,277.9c-0.9,0.1-1.5,0.7-1.6,1.5c0,0.2,0.3,0.2,0.4,0c0.1-0.6,0.6-1.1,1.3-1.2
			C260.8,278.2,260.8,277.9,260.5,277.9z"/>
		<path class="st5" d="M262.4,277.7c-0.8,0.3-1.5,0.8-2.2,1.4c-0.2,0.2,0.1,0.4,0.3,0.3c0.6-0.6,1.2-1,2-1.3
			C262.7,277.9,262.6,277.6,262.4,277.7z"/>
	</g>
</g>
<g>
	<defs>
		<rect id="SVGID_1_" width="500" height="452.6"/>
	</defs>
	<clipPath id="SVGID_2_">
		<use xlink:href="#SVGID_1_"  style="overflow:visible;"/>
	</clipPath>
	<g class="st13">
		<g>
			<linearGradient id="SVGID_3_" gradientUnits="userSpaceOnUse" x1="108.3221" y1="123.3389" x2="108.3221" y2="327.4001">
				<stop  offset="0" style="stop-color:#FFF5D1;stop-opacity:0.8"/>
				<stop  offset="2.401763e-02" style="stop-color:#FFF5D3;stop-opacity:0.7808"/>
				<stop  offset="0.3875" style="stop-color:#FFFBEB;stop-opacity:0.49"/>
				<stop  offset="0.7225" style="stop-color:#FFFEFA;stop-opacity:0.222"/>
				<stop  offset="1" style="stop-color:#FFFFFF;stop-opacity:0"/>
			</linearGradient>
			<polygon class="st14" points="118,127.6 88.7,127.6 -110.6,353.1 327.3,353.1 			"/>
			<path class="st15" d="M126.8,111.4c-0.5,1.7-1.4,4.4-2.7,7.5c-1.4,3-3.2,6.4-5.5,9.6c-3.9,0.3-7.8,0.5-11.7,0.5
				c-1.1,0-2.3,0-3.4,0c-5,0-10.1-0.2-15.1-0.6c-4.7-6.3-7.3-13.6-8.3-17c-0.2-0.9,0.2-1.8,1-2.2c14.3-6.8,20.5-32.8,20.5-32.8h3.9
				c0,0,6.2,26,20.5,32.8C126.6,109.6,127,110.5,126.8,111.4z"/>
			<path class="st16" d="M126.8,111.4c-0.5,1.7-1.4,4.4-2.7,7.5c-1.4,3-3.2,6.4-5.5,9.6c-3.9,0.3-7.8,0.5-11.7,0.5
				c-1.1,0-2.3,0-3.4,0c-5,0-10.1-0.2-15.1-0.6c-4.7-6.3-7.3-13.6-8.3-17C80,111.4,109.1,115.2,126.8,111.4z"/>
			<g>
				<rect x="102.9" y="-5.8" class="st17" width="1" height="69"/>
			</g>
			<rect x="101.5" y="61.5" class="st18" width="3.9" height="14.9"/>
			<rect x="103.7" y="61.5" class="st18" width="1.6" height="14.9"/>
			<path class="st19" d="M126.8,111.4c-0.5,1.7-1.4,4.4-2.7,7.5c-1.4,3-3.2,6.4-5.5,9.6c-3.9,0.3-7.8,0.5-11.7,0.5
				c3.2-6.1,3.7-12.4,3.6-15.9c0-1.5-0.4-3-1.3-4.2c-5.9-8.7-5.9-28.1-5.8-32.3h2c0,0,6.2,26,20.5,32.8
				C126.6,109.6,127,110.5,126.8,111.4z"/>
		</g>
		<g>
			<rect x="397.6" y="-54.9" class="st17" width="1" height="154.8"/>
			<linearGradient id="SVGID_4_" gradientUnits="userSpaceOnUse" x1="403.1008" y1="137.4722" x2="403.1008" y2="341.5334">
				<stop  offset="0" style="stop-color:#FFF5D1;stop-opacity:0.8"/>
				<stop  offset="2.401763e-02" style="stop-color:#FFF5D3;stop-opacity:0.7808"/>
				<stop  offset="0.3875" style="stop-color:#FFFBEB;stop-opacity:0.49"/>
				<stop  offset="0.7225" style="stop-color:#FFFEFA;stop-opacity:0.222"/>
				<stop  offset="1" style="stop-color:#FFFFFF;stop-opacity:0"/>
			</linearGradient>
			<polygon class="st20" points="424.7,141.8 371.5,141.8 184.1,367.3 622.1,367.3 			"/>
			<path class="st15" d="M429.1,122.7c-0.3,2.7-1.2,7.6-2.1,11.9c-0.8,4.3-1.6,7.9-1.6,7.9c-3.4,0.5-6.9,0.8-10.4,1.1
				c-5.6,0.5-11.3,0.7-17,0.7c-9.1,0-18.3-0.6-27.3-1.8c0,0-3.1-14.5-3.7-19.9c-0.6-5.4,7.5-9.9,7.5-9.9h47.2
				C421.6,112.8,429.7,117.3,429.1,122.7z"/>
			<path class="st15" d="M421.6,112.8c-3.5,0.4-6.9,0.7-10.4,0.9c-4.4,0.3-8.8,0.4-13.2,0.4c-7.9,0-15.7-0.4-23.6-1.4
				c0,0,16.6-8.3,19.2-10c2.6-1.7,2.1-6.9,2.1-6.9h4.7c0,0-0.5,5.3,2.1,6.9c1.3,0.8,6.1,3.3,10.6,5.6
				C417.5,110.7,421.6,112.8,421.6,112.8z"/>
			<path class="st16" d="M429.1,122.7c-0.3,2.7-1.2,7.6-2.1,11.9c-0.8,4.3-1.6,7.9-1.6,7.9c-9.1,1.2-18.2,1.8-27.3,1.8
				s-18.3-0.6-27.3-1.8c0,0-3.1-14.5-3.7-19.9l0,0C387.4,127.9,408.7,127.9,429.1,122.7L429.1,122.7z"/>
			<path class="st19" d="M421.6,112.8c0,0-4.1-2.1-8.6-4.4c-4.5-2.3-9.3-4.8-10.6-5.6c-2.6-1.7-2.1-6.9-2.1-6.9h-1.7
				c-0.1,1.2-0.7,6,0,7.5c0.7,1.6,9,7.7,12.5,10.4c0,0,6.7,5.5,6,11.4c-0.7,5.9-2.2,18.6-2.2,18.6c3.5-0.3,6.9-0.7,10.4-1.1
				c0,0,0.8-3.6,1.6-7.9c0.9-4.3,1.8-9.3,2.1-12C429.7,117.3,421.6,112.8,421.6,112.8z"/>
		</g>
		<g>
			<g>
				<rect x="244.6" y="-65.5" class="st17" width="1" height="119.4"/>
			</g>
			<linearGradient id="SVGID_5_" gradientUnits="userSpaceOnUse" x1="250" y1="92.8848" x2="250" y2="296.946">
				<stop  offset="0" style="stop-color:#FFF5D1;stop-opacity:0.8"/>
				<stop  offset="2.401763e-02" style="stop-color:#FFF5D3;stop-opacity:0.7808"/>
				<stop  offset="0.3875" style="stop-color:#FFFBEB;stop-opacity:0.49"/>
				<stop  offset="0.7225" style="stop-color:#FFFEFA;stop-opacity:0.222"/>
				<stop  offset="1" style="stop-color:#FFFFFF;stop-opacity:0"/>
			</linearGradient>
			<polygon class="st21" points="288.6,97.2 201.5,97.2 31,322.7 469,322.7 			"/>
			<rect x="243.1" y="52.2" class="st18" width="3.9" height="14.9"/>
			<rect x="243.1" y="52.2" class="st22" width="1.6" height="14.9"/>
			<path class="st16" d="M289.8,92.4l-1.2,4.8h-87.1l-1.1-4.6l-0.1-0.2c41.4-4,42.9-25.3,42.9-25.3h3.7
				C246.9,67.1,248.4,88.4,289.8,92.4z"/>
			<path class="st15" d="M200.4,92.4c0,0,59.2-4.2,89.4,0l-1.2,4.8h-87.1L200.4,92.4z"/>
			<ellipse class="st23" cx="245.1" cy="97.2" rx="43.5" ry="2.4"/>
			<path class="st19" d="M245.4,67.1c0,0-1.3,21.2-18.4,24.6c-10.5,2.1-20.4,1.6-26.5,0.9l-0.1-0.2c41.4-4,42.9-25.3,42.9-25.3
				H245.4z"/>
		</g>
	</g>
	<line class="st24" x1="0" y1="420.8" x2="509" y2="420.8"/>
	<g class="st13">
		<rect x="-71.9" y="297.9" class="st25" width="143.8" height="5.7"/>
		<rect x="-51" y="303.6" class="st25" width="59.5" height="126"/>
		
			<rect x="8.5" y="303.6" transform="matrix(-1 -1.224647e-16 1.224647e-16 -1 74.0916 733.2216)" class="st25" width="57" height="126"/>
		
			<rect x="24.7" y="293.9" transform="matrix(-1.836970e-16 1 -1 -1.836970e-16 356.4619 281.8702)" class="st26" width="25.1" height="50.5"/>
		
			<rect x="24.7" y="325" transform="matrix(-1.836970e-16 1 -1 -1.836970e-16 387.5693 312.9777)" class="st27" width="25.1" height="50.5"/>
		
			<rect x="8.4" y="372.5" transform="matrix(-1.836970e-16 1 -1 -1.836970e-16 435.0141 360.4225)" class="st27" width="57.8" height="50.5"/>
		<path class="st28" d="M12,426.6h-1v-57.8h1V426.6z M65.6,366.3h-57v-1h57V366.3z M12,362.8h-1v-25.1h1V362.8z M65.6,335.2h-57v-1
			h57V335.2z M12,331.7h-1v-25.1h1V331.7z"/>
		<rect x="28" y="309.8" class="st29" width="18.7" height="4.4"/>
		<rect x="28" y="340.7" class="st29" width="18.7" height="4.4"/>
		<rect x="28" y="372.7" class="st29" width="18.7" height="4.4"/>
	</g>
	<g class="st13">
		<path class="st27" d="M19.2,258.3h18.2v7.4H19.2c-2,0-3.7-1.7-3.7-3.7l0,0C15.5,260,17.1,258.3,19.2,258.3z"/>
		
			<rect x="33.6" y="259.3" transform="matrix(-1 -1.224647e-16 1.224647e-16 -1 79.0493 523.9853)" class="st30" width="11.9" height="5.3"/>
		<path class="st31" d="M46.9,258.3v1H34.8c-0.7,0-1.2,0.6-1.2,1.3v2.8c0,0.7,0.6,1.3,1.2,1.3h12.1v1H34.6c-1.2,0-2.1-1-2.1-2.3
			v-2.9c0-1.2,1-2.3,2.1-2.3H46.9z"/>
		<g>
			<g>
				<polygon class="st32" points="37.4,261 45.5,260.7 45.5,261.2 				"/>
			</g>
			<g>
				<polygon class="st32" points="35.9,262.1 45.5,261.8 45.5,262.3 				"/>
			</g>
			<g>
				<polygon class="st32" points="37.4,263.4 45.5,263.2 45.5,263.7 				"/>
			</g>
		</g>
		<linearGradient id="SVGID_6_" gradientUnits="userSpaceOnUse" x1="17.0377" y1="261.9926" x2="31.4628" y2="261.9926">
			<stop  offset="0.2135" style="stop-color:#1B8393"/>
			<stop  offset="1" style="stop-color:#3990AB"/>
		</linearGradient>
		<path class="st33" d="M28.4,264.1H18.3c-0.7,0-1.3-0.6-1.3-1.3v-1.8c0-0.7,0.6-1.3,1.3-1.3h10.1V264.1z M31.5,259.8h-1.4v4.3h1.4
			V259.8z M29.4,259.8h-0.5v4.3h0.5V259.8z"/>
	</g>
	<g class="st13">
		<g>
			<rect x="8" y="276.6" class="st26" width="13.3" height="21"/>
			
				<rect x="21.4" y="276.6" transform="matrix(-1 -1.224647e-16 1.224647e-16 -1 73.1591 574.2224)" class="st34" width="30.4" height="21"/>
		</g>
		<g>
			<polygon class="st35" points="20.4,280 5.6,280 6.2,274.9 20.4,274.9 			"/>
			<polygon class="st36" points="20.4,280 54.2,280 53.6,274.9 20.4,274.9 			"/>
		</g>
		<path class="st29" d="M42.6,286.4H30.7c-1.3,0-2.3-1-2.3-2.3l0,0c0-1.3,1-2.3,2.3-2.3h11.9c1.3,0,2.3,1,2.3,2.3l0,0
			C44.9,285.4,43.9,286.4,42.6,286.4z"/>
	</g>
	<g class="st13">
		<rect x="25.5" y="266.8" class="st37" width="23" height="6.9"/>
		
			<rect x="11.1" y="266.8" transform="matrix(-1 -1.224647e-16 1.224647e-16 -1 36.5409 540.5269)" class="st38" width="14.4" height="6.9"/>
		<path class="st39" d="M23.7,265.6v1.7h22.7c0.9,0,1.6,0.7,1.6,1.6v2.8c0,0.9-0.7,1.6-1.6,1.6H23.7v1.7h23.5c1.5,0,2.7-1.2,2.7-2.7
			v-4c0-1.5-1.2-2.7-2.7-2.7H23.7z"/>
		<rect x="9.7" y="265.6" class="st40" width="14" height="1.7"/>
		<rect x="9.7" y="273.2" class="st40" width="14" height="1.7"/>
		<g>
			<line class="st41" x1="11.1" y1="268.7" x2="25.5" y2="268.7"/>
			<line class="st41" x1="11.1" y1="270.7" x2="25.5" y2="270.7"/>
			<line class="st41" x1="11.1" y1="272.2" x2="25.5" y2="272.2"/>
		</g>
		<g>
			<g>
				<polygon class="st42" points="43.7,268.7 25.5,269 25.5,268.4 				"/>
			</g>
			<g>
				<polygon class="st42" points="45.5,270.7 25.5,271 25.5,270.3 				"/>
			</g>
			<g>
				<polygon class="st42" points="43.7,272.2 25.5,272.6 25.5,271.9 				"/>
			</g>
		</g>
	</g>
</g>
<g>
	<path class="st43" d="M428,393.3l4.5,31.1c0,0,3.6,4.9,17.2,4.9c13.6,0,17.2-4.9,17.2-4.9l4.5-31.1H428z"/>
	<path class="st44" d="M449.8,410.2c8,0,15.1-1,19.7-2.6l2-13.9h-43.4l2,13.9C434.7,409.2,441.8,410.2,449.8,410.2z"/>
	<path class="st43" d="M474.6,400.5c0,3.6-11.1,6.6-24.8,6.6c-13.7,0-24.8-2.9-24.8-6.6l-1.2-9.9h52L474.6,400.5z"/>
	<ellipse class="st44" cx="449.8" cy="390.6" rx="26" ry="6.9"/>
	<ellipse class="st45" cx="449.8" cy="390.5" rx="23.2" ry="5.2"/>
	<path class="st46" d="M427.6,392c3-2.1,11.8-3.6,22.2-3.6c10.4,0,19.2,1.5,22.2,3.6c0.7-0.5,1.1-1,1.1-1.6c0-2.9-10.4-5.2-23.2-5.2
		c-12.8,0-23.2,2.3-23.2,5.2C426.6,391,426.9,391.5,427.6,392z"/>
	<g>
		<path class="st16" d="M468.1,349.2c1.7-6-0.4-10.8-2.6-16.2c-2.2-5.4-2.6-11.1-1.7-16.8c1.1-7.7,3.7-15.1,0.7-22.6
			c-2.8-7-5.4-16.3-13-19.3c-7.4-3.2-13,4.1-12.9,10.9c0.1,6.7,3.9,12.8,2,19.4c-1.4,5.4-3.3,11.9-0.5,17.1c3.4,6.4,9.7,11,7.3,18.8
			c-0.9,2.8-2.5,5.2-2.8,8c-0.4,4.3,1.8,5.3,3.7,8.7c8.1,14.3-6.8,20.1-0.9,35.8c0.2,0.4,0.6,0.7,1.1,0.7l0,0c0.5,0,0.9-0.4,1-0.9
			c1.9-17.6,14.4-11.5,14.5-25.8c0-2.7-0.8-5.3-0.5-8C464,355.1,467.1,353,468.1,349.2z"/>
		<path class="st47" d="M451.5,354.5c0,0,0.7,8,6.6,9"/>
		<path class="st47" d="M445.9,315.6c0,0,0.4,9,8,11.4"/>
		<path class="st47" d="M462.6,303.4c0,0-0.4,9.4-7.7,10.8"/>
		<path class="st47" d="M462.4,332.6c0,0,1.8,10.2-4.2,12.8"/>
		<path class="st47" d="M460.8,367c0,0,0,9.3-9.4,10.3"/>
		<path class="st47" d="M449.1,290.4c0,0,0.7,9.4,6.3,11"/>
		<path class="st47" d="M449.8,283.9c6.5,6.4,5.9,20.8,5.4,27.5c-0.4,4.9-3,16.2,0,24.4c3.2,8.7,6,18,2.4,30
			c-2.5,8.4-10.7,12.4-9,27.7"/>
		<path class="st48" d="M464.1,366.3c0,0.3,0,0.5,0,0.8c-0.1,9.3-5.5,9.9-9.8,14.2c0.5-2.5,0.6-5.6,2.3-7.6c1.8-2,4.3-2.4,6.1-4.9
			C463.4,368,463.8,367.1,464.1,366.3z M465.5,333c-2.2-5.4-2.6-11.1-1.7-16.8c0.1-0.6,0.2-1.1,0.3-1.7c-2.9,1.1-5.2,3.3-6.6,6.2
			c-4.1,8.7-0.9,14.7,2.7,21.3c2.9,5.4,1,10.4,1.6,16.1c0.3,2.4,1.3,4.2,2.1,6c-0.2-1.6-0.4-3.3-0.3-4.9c0.4-4.1,3.5-6.2,4.5-10
			C469.8,343.2,467.7,338.4,465.5,333z M450.2,378.8c-0.6-1.2-1.3-2.6-1.4-3.9c-1.9,4.9-3.9,9.9-1.7,17c0,0,0,0,0,0.1
			c0.1,0.4,0.3,0.8,0.4,1.2c0,0.1,0.1,0.2,0.1,0.2c0,0,0,0,0,0c0,0.1,0.1,0.1,0.2,0.2c0,0,0,0,0,0c0.2,0.2,0.5,0.3,0.7,0.2l0,0
			c0.2,0,0.4-0.1,0.6-0.2c0.3-0.2,0.4-0.5,0.4-0.7c0,0,0,0,0-0.1c0.3-2.6,0.8-4.7,1.5-6.4c-0.4,0.3-0.8,0.5-1.2,0.7
			C451.1,384.4,452,382.7,450.2,378.8z"/>
	</g>
	<g>
		<path class="st27" d="M487.2,346.1c-3.7-6.7-3.6-11.1-3.3-18.3c0.4-7.3-1.8-17.1-10.8-18.7c-6.7-1.2-12.2,1.5-14.7,6.8
			c-4.1,8.7-0.9,14.7,2.7,21.3c2.9,5.4,1,10.4,1.6,16.1c0.6,5.7,5.7,8.3,1.4,14.2c-1.8,2.4-4.3,2.8-6.1,4.9
			c-1.8,2.2-1.8,5.7-2.4,8.3c-1.6,6.6-8.1,5.6-8.3,12.3c0,0.5,0.4,1,0.7,1c0.3,0,0.6,0,0.9-0.4c1.5-2.7,4-2.3,6.8-3.5
			c2.1-0.9,2.7-3.5,7.7-4.1c6.5-0.8,12.4,3.5,15.7-5.3c1.2-3,0.8-5.7,1.4-8.7c0.6-4.1,3.3-6.5,5.9-9.4
			C491.1,357.3,490.5,352,487.2,346.1z"/>
		<g>
			<path class="st49" d="M464.2,325.2c0,0,4.3,7.5,10.2,8.1"/>
			<path class="st49" d="M468.6,348.6c0,0-0.3,13.6,4,16.5"/>
			<path class="st49" d="M482.7,339.5c0,0-0.5,11.7-7.8,13.7"/>
			<path class="st49" d="M476.8,373c0,0-3.7,11.2-14.4,9.4"/>
			<path class="st49" d="M475.2,314.8c0,0,3.1,8.9-1.5,13.1"/>
			<path class="st49" d="M448.2,393.2c1-3.7,6.4-5,7.9-6c17.2-11.2,23.9-32.8,15.4-69.5"/>
		</g>
		<path class="st48" d="M447.4,392.9c0,0.5,0.4,1,0.7,1c0,0,0,0,0.1,0c1.1-0.8-0.3-2,1.4-5.9C448.4,389.1,447.5,390.5,447.4,392.9z"
			/>
	</g>
	<g>
		<path class="st27" d="M448.6,376.8c-2-4.3-0.1-9.9-2.1-13.1c-2.4-4-6.5-0.9-11.2-6.4c-4-4.6-1.1-10.9-10.1-15.6
			c-2.7-1.4-5.9-0.7-7,2.4c-1.3,2.9,0.7,7.1,1.7,9.9c0.9,2.4,2,4.2,1.6,6.8c0,0,0,0.1,0,0.1c-0.5,2-1.9,3.1-1.1,5.5
			c1.5,5.8,9.8,5.3,13.9,8.9c2.9,2.6,0.3,5.6,3.2,9.5c2.9,3.8,4.3-0.3,9.4,8.8c0.2,0.3,0.6,0.4,0.9,0.3l0,0c0.2-0.1,0.4-0.4,0.3-0.6
			C447.4,383.4,451.6,383.2,448.6,376.8z"/>
		<g>
			<path class="st49" d="M421,348.7c0,0,0.5,4.5,4.8,5.9"/>
			<path class="st49" d="M423.4,361.5c0,0,4.3,4.9,9.6,3"/>
			<path class="st49" d="M439.2,361.8c0,0,3.2,5.3,0.8,7.8"/>
			<path class="st49" d="M444.2,371.8c0,0,1.9,6.6-1.4,9"/>
			<path class="st49" d="M429,351.7c0,0,2.8,6.9,0.4,9.3"/>
			<path class="st49" d="M432.9,371.4c0,0,2.5,4.2,9.5,3.8"/>
			<path class="st49" d="M437.7,380.3c0,0,0.7,4.2,7.6,5.2"/>
			<path class="st49" d="M447.4,393.6c-0.3-9-5-9.7-4.9-15c0.1-4.1,0-8.1-5-11.1c-8.6-5.2-12.2-10.6-14-22"/>
		</g>
	</g>
</g>
<g>
	<g>
		<g>
			<path class="st50" d="M78,413.7c0,0-1.6,7.2-1.1,7.9c0.9,1.6,3.3,2.9,4.8,3.8c1.7,1,3.1,2.5,4.2,4.1c-4.4-0.2-7.3-0.9-11.6-1.6
				c-1-0.2-1.7-0.3-2.5-0.9c-0.8-0.6-0.9-0.8-0.3-2.5c0.7-2,0.8-1.6,1-3.6c0.2-1.7,0.1-6.9,0.1-6.9"/>
		</g>
		<g>
			<path d="M80,424.4c1.8,1,3.7,1.9,5.6,2.6c0.5,0.2,1.1,0.4,1.4,0.8c0.4,0.4,0.6,1,0.4,1.5c-0.2,0.5-0.8,0.7-1.4,0.8
				c-0.4,0.1-0.8,0.1-1.2,0.2c-0.7,0-1.3,0-2-0.1c-2.1-0.2-4.3-0.3-6.4-0.5c-1.7-0.1-3.4-0.2-4.9-0.9c-0.2-0.1-0.4-0.2-0.6-0.4
				c-0.1-0.2-0.2-0.4-0.2-0.6c-0.1-0.7-0.1-2.9,0.5-3.4c0.2,0,0.8,0.4,1,0.5c0.5,0.3,1.2,0.4,1.8,0.5c1.2,0.2,2.4,0.3,3.6,0.2
				c0.4-0.1,0.8-0.1,1.2-0.3c0.3-0.2,0.6-0.4,0.8-0.6"/>
		</g>
	</g>
	<g>
		<g>
			<path class="st50" d="M120.1,410.9c0,0-0.6,7.4-0.1,8c1.1,1.4,3.6,2.4,5.3,3.2c1.8,0.8,3.4,2,4.7,3.5c-4.4,0.3-7.3,0.1-11.7-0.1
				c-1,0-1.7-0.1-2.6-0.6c-0.9-0.5-1-0.7-0.7-2.5c0.4-2.1,0.6-1.7,0.6-3.7c0-1.7-0.8-6.9-0.8-6.9"/>
		</g>
		<g>
			<path d="M123.5,421.3c1.9,0.7,3.9,1.4,5.9,1.9c0.5,0.1,1.1,0.3,1.5,0.6c0.4,0.3,0.8,0.9,0.6,1.4c-0.2,0.5-0.7,0.8-1.2,1
				c-0.4,0.1-0.8,0.2-1.2,0.3c-0.6,0.1-1.3,0.2-1.9,0.2c-2.1,0.1-4.3,0.2-6.4,0.4c-1.7,0.1-3.4,0.2-5-0.3c-0.2-0.1-0.4-0.1-0.6-0.3
				c-0.2-0.2-0.2-0.4-0.3-0.6c-0.2-0.7-0.4-2.8,0-3.4c0.2,0,0.8,0.3,1,0.4c0.6,0.3,1.2,0.3,1.9,0.3c1.2,0,2.4,0,3.6-0.3
				c0.4-0.1,0.8-0.3,1.1-0.5c0.3-0.2,0.5-0.4,0.7-0.7"/>
		</g>
	</g>
	<g>
		<path class="st51" d="M111.2,281c11.2,23.8,13.1,51.7,13.8,72.1c0.8,24.8-4.1,43.2-4.8,65.1l-5,0.8c-2.7-16.5-13-36.3-10.3-52.8
			c0.5-3,0.9-5.9,0.9-8.9c0.1-7-19.9-40.7-15.9-72.9"/>
	</g>
	<g>
		<path class="st52" d="M154.2,276.5c0.6,0.3,3.3,2.2,3.9,2.4c0.5,0.2,2.1-0.1,3.4,0c0.4,0,2,0.6,2.6,0.9c0.2,0.1,0.9,0.4,1.1,0.5
			c0.2,0.1,0.4,0.3,0.6,0.4c0.4,0.3,0.9,0.6,1.3,1c0.1,0.1,0.2,0.2,0.3,0.3c0,0.1,0,0.3-0.2,0.4c-0.1,0.1-0.3,0.1-0.4,0.1
			c-0.7,0.1-2.4-0.7-2.4-0.7c0,0.1,1.5,1.3,2.1,2c0.4,0.4,2,3.3,1.7,3.9c-0.3,0.7-1.2,0.8-1.8,0.6c-0.9-0.3-2.8-2.1-2.8-2.1
			s-1-0.3-2.1-0.4c-0.6-0.1-1.2-0.1-1.7-0.3c-1.1-0.5-1.6-1.9-2.5-2.8c-0.7-0.7-1.6-1-2.4-1.4c-0.9-0.4-2.5-1-2.5-1"/>
	</g>
	<g>
		<path class="st53" d="M100.9,190c1.7-1.3,4-1.4,5.9-0.6c1.9,0.8,3.5,2.3,4.5,4.1c1.4,2.3,1.8,4.6,2.2,7.2c0.5,2.5,0.2,5.7,1.4,8.1
			c0.8,1.6,2.5,2.8,2.7,4.5c0.1,1-0.3,2.1-1,2.9c-1,1.2-2.5,2.1-2.9,3.7c-0.4,1.7,0.8,3.4,1.7,4.9c1,1.5,1.9,3.5,0.9,4.9
			c-0.7,1-2.1,1.4-3.4,1.5c-3.4,0.3-6.8-0.3-9.9-1.7c-1-0.5-2-1.1-2.6-2c-0.5-0.8-0.7-1.7-0.8-2.6c-0.6-3.4-1.3-6.9-0.7-10.4
			c0.3-2.2,1.1-4.3,1.2-6.5c0-0.4,0-0.9-0.3-1.2c-0.4-0.6-1.2-0.8-1.8-1.2c-0.9-0.6-1.5-1.6-1.5-2.6c0-1.1,0.5-2.1,1.3-2.7"/>
	</g>
	<g>
		<path class="st50" d="M101.2,215.9c-0.3,2-0.6,4.3,0.5,6c1.5,2.2,4.7,3.5,7.1,4.2c-1,2.8-2.4,3.7-4.4,5.9
			c-0.6,0.7-1.3,1.3-2.1,1.7c-1.9,1-4.3,0.3-6.3-0.4c-3.5-1.2-9.5-3.6-11.6-6.1c1.8-1.1,7.4-2.2,8-3.4c0.3-0.6,0.4-1.2,0.5-1.8
			c0.4-3.4,0.8-6.8,1.2-10.2"/>
	</g>
	<g>
		<path class="st51" d="M100.8,279.7c1.6,18.2-6,61.8-8.9,78.6c-3.9,22-8.4,38.8-14.5,62.5h-5.1c-0.2-16.7-4.8-37.6,0.3-53.5
			c0.9-2.9,1.9-5.7,2.3-8.7c0.3-2.8-0.1-5.7-0.5-8.5c-2.4-16.7-7.1-28.8-5.6-42.3c0.8-7.2,3-15.8,8.5-23.7"/>
	</g>
	<g>
		<g>
			<path class="st54" d="M98.4,313c-0.5,2.9-1,5.7-1.4,8.6c-0.3,1.8-0.5,3.6-0.7,5.5c-0.1,0.7-0.4,1.7-0.2,2.5
				c0.1,0.3,0.5,0.3,0.6,0.1c0.4-0.7,0.3-1.7,0.5-2.4c0.3-1.8,0.5-3.6,0.7-5.4c0.4-2.9,0.7-5.8,0.9-8.7
				C98.9,312.8,98.4,312.8,98.4,313L98.4,313z"/>
		</g>
	</g>
	<g>
		<path class="st55" d="M105.3,224.3c9.4,2,13.5,9.4,18.6,16.5c2.6,3.7,7.4,14.2,11.4,17.8c1.7,1.5,21.2,18.4,22,19.7
			c0.3,1.4,0.2,3.2-1,4c-9.4-2.4-28.8-11.9-30.2-12.7c-5.6-3.1-24.5-25.5-24.2-31.1"/>
	</g>
	<g>
		<g>
			<path class="st55" d="M115.5,255.8c-0.3,1.7-2,5.5-2.7,7c-1.3,2.6-1.9,7.7-1.6,11.8c0.4,4.8,1.2,7.8,2.2,11.2
				c-8.5,10.5-38,2.4-38.2,1.8c-3.9-10.6,1.4-27.9,2.4-39.2c0.4-4.4,0.3-9.7,3.6-12.9c3.4-3.3,8-5,11-8.7c2.3,1.5,4.6,0.6,7.3,1.1
				c2.7,0.4,4.3-0.4,6.6-3.5c2.6,3.8,6.2,12.1,7.4,16.5C114.6,245.2,116.7,249.9,115.5,255.8z"/>
		</g>
		<g>
			<g>
				<path class="st56" d="M111,240.8c0.8,2.8,2.5,5.2,3.3,7.9c1,3.1,0.7,6.3-0.1,9.5c-0.1,0.2,0.3,0.4,0.4,0.2
					c1.2-2.5,1.5-5.2,1-7.9c-0.6-3.6-2.8-6.5-4.1-9.8C111.4,240.4,110.9,240.5,111,240.8L111,240.8z"/>
			</g>
		</g>
		<g>
			<g>
				<path class="st57" d="M101,254c1,0,1-1.5,0-1.5C100,252.5,100,254,101,254L101,254z"/>
			</g>
		</g>
		<g>
			<g>
				<path class="st57" d="M101,244.1c1,0,1-1.5,0-1.5C100,242.6,100,244.1,101,244.1L101,244.1z"/>
			</g>
		</g>
		<g>
			<g>
				<path class="st57" d="M101.6,264.2c1,0,1-1.5,0-1.5C100.6,262.7,100.6,264.2,101.6,264.2L101.6,264.2z"/>
			</g>
		</g>
		<g>
			<g>
				<path class="st57" d="M102.1,285.9c1,0,1-1.5,0-1.5C101.2,284.4,101.2,285.9,102.1,285.9L102.1,285.9z"/>
			</g>
		</g>
		<g>
			<g>
				<path class="st57" d="M101.7,274.4c1,0,1-1.5,0-1.5C100.8,273,100.8,274.4,101.7,274.4L101.7,274.4z"/>
			</g>
		</g>
		<g>
			<path class="st57" d="M93.1,223.5c1.7,2.1,3.9,3.7,6.4,4.5c-1.6,1.5-2.6,3.6-2.6,5.8c-2.5-2.2-4.4-4.9-5.6-8"/>
		</g>
		<g>
			<path class="st57" d="M102.3,222.6c0.3,2.7-0.7,4.6-2.8,5.4c1.4,1.5,2.2,3.6,2.2,5.8c2.1-2.2,3.9-5.3,3.5-9.5"/>
		</g>
	</g>
	<g>
		<g>
			<g>
				<path class="st58" d="M97.8,285.9l-31.2,10.8c-0.9,0.3-1.3,1.3-0.9,2.1l7.6,21.6c0.3,0.7,1.2,1.1,1.9,0.8l31.2-10.8
					c0.9-0.3,1.3-1.3,0.9-2.1l-7.6-21.6C99.4,286,98.6,285.6,97.8,285.9z"/>
				<polygon class="st59" points="97.7,287.7 67.8,298 75.3,319.4 105.2,309.1 				"/>
				<g>
					<line class="st60" x1="101.6" y1="308.5" x2="95.5" y2="290.2"/>
					<line class="st60" x1="98.8" y1="309.4" x2="92.6" y2="291.2"/>
					<line class="st60" x1="94.7" y1="310.9" x2="88.6" y2="292.6"/>
					<line class="st60" x1="90.7" y1="312.4" x2="84.5" y2="294.1"/>
					<line class="st60" x1="86.6" y1="313.9" x2="80.1" y2="295.6"/>
					<line class="st60" x1="82.6" y1="315.3" x2="76" y2="297.1"/>
					<line class="st60" x1="78.5" y1="316.8" x2="71.8" y2="298.6"/>
				</g>
			</g>
			<g>
				<polygon class="st55" points="105.5,301.9 102.8,302.9 99.3,292.8 102,291.8 				"/>
				<path class="st55" d="M108.5,295.1c-0.5-1.3-1.9-2-3.3-1.6l-3.1,1.1l1.7,4.8c0,0,2.5-0.9,3.1-1.1
					C108.2,297.9,109,296.5,108.5,295.1z M104.7,296.4c-0.3-0.7,0.1-1.6,0.9-1.8c0.7-0.3,1.6,0.1,1.8,0.9c0.3,0.7-0.1,1.6-0.9,1.8
					C105.8,297.6,104.9,297.2,104.7,296.4z"/>
			</g>
		</g>
		<g>
			<path class="st50" d="M83.6,306.1c0,1.5,1.4,2.4,2.4,3.5c1.3,1.6,2,3.7,2.6,5.7c0.1,0.2,0.1,0.4,0,0.6c-0.2,0.2-0.5,0.1-0.8-0.1
				c-0.4-0.3-0.7-0.7-0.9-1.1c-0.1-0.1-0.1-0.3-0.3-0.3c-0.5,0-0.3,1.3-0.3,1.5c0.1,0.6,1.3,0.8,1.8,1c0.6,0.2,0.7,0.5,0.7,0.8
				c0,0.1,0,0.3-0.1,0.3c-0.9,0.2-2.3-0.1-2.9-0.2c-0.6,0.4-1,0.4-1.5,0.4c-0.5,0-0.9-0.3-1.2-0.7c-0.3-0.3-0.6-0.7-0.9-1.1
				c-0.3-0.3-0.5-0.5-0.7-0.8c-0.1-0.3-0.2-0.6-0.2-0.9c-0.3-2.8-0.9-5.6-1.1-8.5"/>
		</g>
		<g>
			<path class="st55" d="M90.7,223.7c-7.9,1.3-15.1,3.4-18.9,10.5c-3.8,7.1-9.1,22.4-9.3,32.3c-0.2,15.2,18.1,42.8,18.1,42.8
				l3.9-1.8c0,0-5.2-30.9-9.4-37.6c-0.5-4.1,19.5-27.3,11.4-40.8"/>
		</g>
		<g>
			<g>
				<path class="st56" d="M87.4,240.7c-0.8,5-3.1,9.8-5.5,14.2c-1.9,3.6-4.4,7-5.9,10.8c-0.4,1-0.4,1.4-0.2,2.5
					c0.4,2.3,1,4.6,1.6,6.8c1.2,4.8,2.7,9.6,3.4,14.5c0,0.3,0.6,0.2,0.6-0.1c-0.3-4.6-1.7-9.2-2.9-13.6c-0.6-2.3-1.2-4.5-1.7-6.8
					c-0.4-1.7-0.3-2.4,0.5-4c3.9-7.7,9.7-15.4,10.5-24.2C87.8,240.6,87.5,240.5,87.4,240.7L87.4,240.7z"/>
			</g>
		</g>
	</g>
	<g>
		<g>
			<path class="st61" d="M159.6,282.1c1.3,0.5,3.2,1,4.6,0.4c0.2-0.1,0.1-0.4-0.1-0.4c-0.7-0.1-1.4,0.1-2.1,0.1
				c-0.8,0-1.6-0.2-2.3-0.4C159.4,281.6,159.3,282,159.6,282.1L159.6,282.1z"/>
		</g>
	</g>
	<g>
		<g>
			<path class="st62" d="M111.2,208.8c-0.3,3.4-0.8,6.4-3.5,8.8c-3.5,3.2-10.1,0.4-12.7-2.4c-2.5-2.8-4-6.3-4.6-9.9
				c-0.4-2.2-0.4-4.5,0.3-6.6c1.2-3.7,4.4-6.5,8.2-7.6c1.5-0.5,3.2-0.7,4.8-0.1c1.7,0.6,2.9,2,3.8,3.5
				C110.4,198.7,111.6,203.9,111.2,208.8z"/>
		</g>
		<g>
			<path class="st53" d="M102.8,196.1c1.6-0.7,3.5-0.3,4.8,0.8s2.2,2.7,2.7,4.3c1.5,4.3,1.4,8.9,1.2,13.4c1-5.1,0.6-10.4-0.4-15.6
				c-0.4-2.3-1-4.7-2.2-6.7c-0.7-1.2-1.8-2.3-3.1-2.6c-1.4-0.3-2.8-0.7-4.1-0.2c-0.4,0.2-0.9,1.4-1,1.8"/>
		</g>
		<g>
			<path class="st53" d="M102.8,196c-5.6-1.9-7.5,6.8-7.3,10.6c0.1,2,0.5,3.9,1,5.8c0.2,0.7,0.3,1.6,0.5,2.3
				c0.3,0.9,0.9,1.6,1.1,2.4c0.3,1,0.3,2.1-0.3,2.9c-1,1.5-3.4,1.9-3.9,3.7c-0.5,1.8,1.4,3.5,1.1,5.4c-0.2,0.9-0.9,1.6-1.7,2.1
				c-0.8,0.4-1.7,0.6-2.6,0.8c-0.9,0.2-1.8,0.3-2.6-0.1c-0.5-0.3-0.9-0.8-1.4-1.1c-1.1-0.7-2.6-0.2-4-0.4c-2-0.3-3.5-2.4-3.1-4.4
				c0.4-2,1.8-4,2.5-5.9c0.2-0.6,0.5-1.2,0.5-1.9c-0.1-1.7-1.8-2.7-2.6-4.2c-0.6-1.2-0.6-2.8,0.1-3.9c0.7-1.2,2-1.9,2.8-3.1
				c0.8-1.3,0.7-3,0.9-4.5c0.6-5.4,4-11.7,9.3-13.5c3-1,6.8-0.8,8.7,1.7"/>
		</g>
		<g>
			<path class="st63" d="M102.9,213.6c0.9,0.3,1.7,0.5,2.4,0.4c0.4,0,0.8-0.1,1.1-0.2c0.4-0.1,0.7-0.3,1-0.7c0,0.5-0.3,1-0.7,1.2
				c-0.4,0.3-0.9,0.4-1.4,0.5C104.4,214.9,103.4,214.4,102.9,213.6z"/>
		</g>
		<g>
			<g>
				<path class="st63" d="M105.8,208.5c0.1,0.3,0.3,0.5,0.5,0.7c0.3,0.3,0.6,0.5,0.3,0.9c-0.1,0.2-0.4,0.4-0.5,0.6
					c-0.1,0.1,0,0.2,0.1,0.2c0.5-0.1,1-0.7,0.9-1.2C107,209,106.1,209,105.8,208.5C105.8,208.4,105.7,208.4,105.8,208.5L105.8,208.5
					z"/>
			</g>
		</g>
		<g>
			<path class="st64" d="M109.7,205c-0.4-0.5-0.9-0.6-1.3,0.4c-0.3,0.7-0.3,2,0.6,2.1C110.4,207.8,110.3,205.9,109.7,205z"/>
			<path class="st57" d="M109.8,205.6c-0.2-0.2-0.4-0.3-0.6,0.2c-0.1,0.3-0.2,0.9,0.3,0.9C110.1,206.9,110,206,109.8,205.6z"/>
			<g>
				<g>
					<path class="st64" d="M107.2,203.1c0.3-0.5,0.9-0.9,1.5-0.9c0.6,0,0.8,0.5,1.3,0.8c0.1,0.1,0.3,0,0.3-0.2
						c-0.1-0.7-1-1.2-1.7-1.1c-0.6,0.1-1.4,0.6-1.4,1.3C107,203.1,107.1,203.1,107.2,203.1L107.2,203.1z"/>
				</g>
			</g>
		</g>
		<g>
			<path class="st64" d="M100.9,205.1c-0.4-0.5-1-0.7-1.5,0.5c-0.3,0.7-0.4,2.1,0.7,2.2C101.7,208,101.6,206,100.9,205.1z"/>
			<path class="st57" d="M101,205.7c-0.2-0.2-0.4-0.3-0.7,0.2c-0.1,0.3-0.2,0.9,0.3,1C101.4,207,101.3,206.1,101,205.7z"/>
			<g>
				<g>
					<path class="st64" d="M98.3,203.4c0.3-0.5,0.8-0.9,1.4-1c0.9-0.2,1.2,0.4,1.8,0.9c0.1,0.1,0.3,0,0.3-0.2
						c-0.4-1.7-3.6-1.6-3.6,0.2C98.2,203.4,98.3,203.5,98.3,203.4L98.3,203.4z"/>
				</g>
			</g>
		</g>
		<path class="st65" d="M102.1,210.4c0.1-0.4-0.1-0.8-0.6-1.2c-0.8-0.6-2.1-0.7-3.1-0.4c-0.4,0.1-0.8,0.4-1,0.9
			c-0.1,0.3,0,0.6,0,0.8c0.3,1,1.2,1.7,2.3,1.7C100.7,212.1,102,211.4,102.1,210.4z"/>
		<path class="st65" d="M110.9,209.8c0-0.3-0.1-0.6-0.4-0.9c-0.5-0.5-1.3-0.6-1.8-0.4c-0.3,0.1-0.5,0.3-0.6,0.7c0,0.2,0,0.4,0,0.6
			c0.2,0.8,0.7,1.4,1.4,1.3C110.1,211.2,110.9,210.6,110.9,209.8z"/>
	</g>
</g>
<g>
	<g>
		<g>
			<path class="st62" d="M158.5,359.8c-0.5-6-3-21-3.9-32.9l24-2.5c-0.5,11.1-1.2,18.6-2,30.2c-1.5,21.9-7.1,40.3-10.3,62l-0.1,0
				c0,1.3,0.1,2.2,0.3,2.6c0.8,1.8,2.7,2.9,4.4,4.1c1.7,1.3,3.2,3,4.2,4.9c-4.9-0.8-8-1.9-12.8-3.2c-1.1-0.3-1.9-0.6-2.7-1.3
				c-0.8-0.7-0.9-1,0-2.7c0.4-0.7,1.1-1.3,1.4-2c0.9-2.1-0.1-5.7-0.4-7.9c-0.4-3.2-0.8-6.4-1.1-9.5c-0.7-6.4-1.5-6.7-1.9-13.2
				c0-0.4,0-0.8-0.1-1.1C157,376.6,159.3,370.3,158.5,359.8z"/>
		</g>
		<g>
			<path class="st66" d="M169.1,421.9c1.9,1.3,3.9,2.5,5.9,3.5c0.6,0.3,1.1,0.6,1.5,1c0.4,0.5,0.6,1.2,0.2,1.7
				c-0.3,0.5-1,0.7-1.6,0.7c-0.5,0-0.9,0-1.4,0c-0.7,0-1.5-0.2-2.2-0.3c-2.4-0.4-4.7-0.9-7.1-1.3c-1.9-0.3-3.8-0.7-5.4-1.6
				c-0.2-0.1-0.4-0.3-0.6-0.5c-0.1-0.2-0.2-0.4-0.2-0.7c0-0.7,0.3-3.1,1-3.5c0.3,0,0.8,0.5,1,0.7c0.6,0.4,1.3,0.6,2,0.8
				c1.3,0.3,2.6,0.7,4,0.6c0.5,0,0.9-0.1,1.4-0.2c0.4-0.1,0.7-0.3,1-0.6"/>
		</g>
	</g>
	<g>
		<g>
			<path class="st62" d="M138.8,362c-0.5-6-6.7-19.8-7.6-31.8l26.6-4.5c-0.5,11.1-1.9,19.6-2.2,30.8c-0.6,21.9-7.4,40.4-10.6,62.2
				l-0.1,0c0,1.3,0.1,2.2,0.3,2.6c0.8,1.8,2.7,2.9,4.4,4.1c1.7,1.3,3.2,3,4.2,4.9c-4.9-0.8-8-1.9-12.8-3.2c-1.1-0.3-1.9-0.6-2.7-1.3
				c-0.8-0.7-0.9-1,0-2.7c0.4-0.7,1.1-1.3,1.4-2c0.9-2.1-0.1-5.7-0.4-7.9c-0.4-3.2-0.8-6.4-1.1-9.5c-0.7-6.4-1.5-6.7-1.9-13.2
				c0-0.4,0-0.8-0.1-1.1C135.9,378.8,139.7,372.5,138.8,362z"/>
		</g>
		<g>
			<path class="st66" d="M147.9,424.1c1.9,1.3,3.9,2.5,5.9,3.5c0.6,0.3,1.1,0.6,1.5,1c0.4,0.5,0.6,1.2,0.2,1.7
				c-0.3,0.5-1,0.7-1.6,0.7c-0.5,0-0.9,0-1.4,0c-0.7,0-1.5-0.2-2.2-0.3c-2.4-0.4-4.7-0.9-7.1-1.3c-1.9-0.3-3.8-0.7-5.4-1.6
				c-0.2-0.1-0.4-0.3-0.6-0.5c-0.1-0.2-0.2-0.4-0.2-0.7c0-0.7,0.3-3.1,1-3.5c0.3,0,0.8,0.5,1,0.7c0.6,0.4,1.3,0.6,2,0.8
				c1.3,0.3,2.6,0.7,4,0.6c0.5,0,0.9-0.1,1.4-0.2c0.4-0.1,0.7-0.3,1-0.6"/>
		</g>
	</g>
	<g>
		<path class="st67" d="M139,281.5c-7.7,10.4-10.1,17.3-10.5,29.1c-0.4,11.8,3.4,19.8,4.3,33.4c23.2,7.1,44.7,0.4,44.7,0.4
			c2.6-23.9,4.3-42.1-5.4-62.9"/>
	</g>
	<g>
		<g>
			<path class="st58" d="M182.7,315.5l-35.1,3.2c-1,0.1-1.8-0.6-1.8-1.5l-2-23c0-0.8,0.6-1.5,1.5-1.6l35.1-3.2
				c1-0.1,1.8,0.6,1.8,1.5l2,23C184.2,314.7,183.5,315.4,182.7,315.5z"/>
			<polygon class="st59" points="181.8,313.9 148.2,317 146.2,294.2 179.8,291.1 			"/>
			<g>
				<line class="st68" x1="176.5" y1="293.2" x2="178.5" y2="312.6"/>
				<line class="st68" x1="173.4" y1="293.5" x2="175.4" y2="312.9"/>
				<line class="st68" x1="168.8" y1="293.8" x2="170.8" y2="313.2"/>
				<line class="st68" x1="164.2" y1="294.2" x2="166.2" y2="313.6"/>
				<line class="st68" x1="159.6" y1="294.6" x2="161.2" y2="314.1"/>
				<line class="st68" x1="155" y1="294.9" x2="156.6" y2="314.4"/>
				<line class="st68" x1="150.5" y1="295.3" x2="151.9" y2="314.8"/>
			</g>
		</g>
		<g>
			<polygon class="st69" points="183.2,297.6 180.2,297.8 181.1,308.5 184.2,308.3 			"/>
			<g>
				<g>
					<path class="st69" d="M186.1,300.2c-0.7,0.1-3.5,0.3-3.5,0.3l0.5,5.1l3.5-0.3c1.5-0.1,2.6-1.4,2.5-2.8
						C188.9,301.1,187.6,300.1,186.1,300.2z M186.2,301.4c0.8-0.1,1.6,0.5,1.7,1.3c0.1,0.8-0.5,1.5-1.4,1.6
						c-0.8,0.1-1.6-0.5-1.7-1.3C184.7,302.1,185.3,301.4,186.2,301.4z"/>
				</g>
			</g>
		</g>
	</g>
	<g>
		<path class="st62" d="M153,302.2c1.5,3.2,3.2,6,3.7,9.5c0.3,2-0.2,4.6-0.9,6.5c-0.4,1-0.9,0.3-1.5,1.1c-0.4,0.6-0.7,1.1-1.1,1.7
			c-0.1,0.2-0.2,0.4-0.4,0.4c-0.3,0.1-0.7-0.1-0.8-0.4c-0.2-0.3-0.2-0.6-0.2-1c0-1.9-0.2-2.2-0.4-4.1c-0.1-1-0.3-2-0.8-2.9
			c-0.3-0.5-0.6-0.9-0.9-1.4c-0.6-1.1-0.6-2.5-0.3-3.7c0.2-1,0.7-2,0.6-3c-0.1-1.3-1.2-2.5-1.2-3.8"/>
	</g>
	<g>
		<path class="st62" d="M176.5,301.1c0.7,5.4-0.5,11.1-3.6,15.7c-0.2,0.4-0.7,0.8-1.1,0.5c-0.1-0.1-0.2-0.2-0.2-0.3
			c-0.9-1.5-0.7-3.3-0.4-5c0.3-1.7,0.8-3.4,0.5-5.1c-0.3,1.1-0.5,2.2-0.8,3.3c-0.3,0.1-0.6-0.1-0.8-0.3c-0.2-0.3-0.2-0.6-0.2-0.9
			c-0.1-0.9-0.1-1.9-0.2-2.8c0-0.6-0.1-1.3,0.1-1.9c0.3-1.1,1.2-1.9,1.8-2.9c0.4-0.7,0.6-1.6,0.7-2.4"/>
	</g>
	<g>
		<path class="st70" d="M156.7,223.4c5.6,0.5,11.9,3.1,15.9,6.5c8.7,7.5,10,18.8,11.5,29c1.2,7.9-0.3,16.1-2.2,23.8
			c-1,4.1-3.4,14.8-4.8,18.8c-0.9,0.9-4.4,2.3-5.9-0.9c-0.2-21.2-3.3-47.4-9.5-67.7"/>
	</g>
	<g>
		<path class="st70" d="M143.8,240.8c4.6,11.6-1.9,20.7,2.9,32.2c5.2,12.4,7.4,31.1,7.4,31.1s-2.4,2-4.7,2c-1.5-1.6-6.9-9.8-11.1-16
			c-4.2-6.1-8-12.8-9.2-20.2c-0.4-2.8-0.5-5.7-0.5-8.5c-0.1-6.3,0.1-12.7,2-18.8c3-9.2,10.4-16.8,19.5-20.1"/>
	</g>
	<g>
		<path class="st70" d="M174.3,248.6c0.3,2.6,0.4,5.2-0.1,7.8c-0.4,2-1.2,4-1.7,6c-1.3,5.4-0.4,11.2,0.5,16.7
			c0.2,1.3,0.6,2.7,0.1,3.9c-2.9,6.4-22.7,5.7-30.3,4.1c-4.6-1-1.8-1.3-3.9-5.6c-1.2-2.5-1.5-5.4-1.7-8.2c-0.4-4.1-0.7-8.2-1.1-12.3
			c-1.1-13.1,0.4-26.6,11.1-35.4c0.3-0.2,0.6-0.5,0.9-0.6c0.6-0.2,1.1,0,1.7,0.2c3.1,0.9,6.5,1.1,9.7,0.4c0.5-0.1,1.1-0.2,1.5,0
			c0.3,0.1,0.5,0.3,0.7,0.5c3.3,3.1,5.2,7.1,7.9,10.6C172.6,240.1,173.8,244.2,174.3,248.6z"/>
	</g>
	<g>
		<path class="st71" d="M158.6,205.5c0.4,2,0.3,4,0.6,6c0.3,2,1,4.1,2.6,5.3c1.1,0.8,2.5,1.2,3.9,1.2c1.4,0,2.8-0.4,4.1-0.8
			c-0.6-0.6-0.7-1.6-0.8-2.5c-0.1-3.8,0.8-7.5,0.8-11.3c0-1.9-0.3-4.8-1.2-6.4c-1-1.8-2.7-3.8-5.8-4.6"/>
	</g>
	<g>
		<path class="st62" d="M157.4,218.1c0,1.6,1.7,5.3,2.9,6.4c0,1.9-0.1,3.3-3,3.3s-7.3-1.2-9.4-4c1-2.6,2-11.2,1.6-12.5"/>
	</g>
	<g>
		<path class="st72" d="M164.7,198.9c1.9,2.1,1.5,6.9,0.8,9.5c-0.5,1.8-0.4,3.7-0.6,5.5c-0.2,1.8-0.9,3.8-2.3,4.9
			c-1.3,0.9-2.9,1.1-4.5,1c-3.7-0.3-7.1-2.3-9.2-5.4c-2.1-3-2.7-7-1.6-10.5c0.4-1.3,1-2.5,1.7-3.6c1.8-2.9,4.5-5.4,7.9-6
			c3.3-0.6,7.2,1,8.4,4.2"/>
	</g>
	<g>
		<path class="st71" d="M144,194.2c1.2-1.9,2.7-3.5,4.8-4.6c2.2-1.2,4.9-1.6,7.4-1.1c1.7,0.3,4.1,1.3,5.4,2.3c0.6,0.5,1.1,1,1.6,1.5
			l0.1-0.1c0.2,0.2,0.3,0.4,0.5,0.6c0.5,0.5,0.7,1,0.9,1.5c0.3,0.6,0.6,1.2,0.8,1.9c0.8,2.9-2.4,4.6-4.6,5.4
			c-0.8,0.3-1.6,0.6-2.5,0.9c-0.6,0.2-1.3,0.3-1.9,0.5c-1.6,0.6-2.9,1.6-3.8,3c-0.9,1.4-1.3,3.1-1.3,4.7c-0.9-1.3-1.4-2.9-1.4-4.4
			c-0.6,2.2-0.9,4.6-0.8,6.9c0.1,1.1,0.1,2,0.5,3c0.1,0.3,1.2,2.9,1.6,2.8c-2.7,0.7-5.7-0.2-7.6-2
			C137.4,211.2,140.2,200.4,144,194.2z"/>
	</g>
	<g>
		<path class="st72" d="M150.2,208.7c0.2-0.1,0-0.4-0.2-0.6c-0.3-0.3-0.7-0.6-1.1-0.8c-0.4-0.2-0.9-0.2-1.3,0
			c-0.4,0.2-0.6,0.6-0.7,1.1c-0.4,1.5,0,3.2,1,4.3c0.4,0.4,1,0.8,1.6,0.8c0.6,0,1.2-0.6,1.1-1.2"/>
	</g>
	<path class="st63" d="M161.5,214.3c0.1,0.3-0.1,2-1.6,2.3c-1.2,0.3-3.4-0.6-3.2-1.8C156.9,214.3,161.4,214,161.5,214.3z"/>
	<g>
		<g>
			<path class="st63" d="M159.7,209.9c0.1,0.3,0.3,0.6,0.6,0.8c0.3,0.2,0.5,0.5,0.3,0.9c-0.1,0.3-0.4,0.4-0.6,0.7
				c-0.1,0.1,0,0.2,0.1,0.2c0.6-0.1,1.1-0.7,0.9-1.3C160.8,210.4,160,210.4,159.7,209.9C159.7,209.8,159.7,209.8,159.7,209.9
				L159.7,209.9z"/>
		</g>
	</g>
	<g>
		<path class="st69" d="M164.4,206.1c-0.3-0.5-0.9-0.7-1.4,0.4c-0.3,0.7-0.4,2,0.5,2.2C165.1,209,165,207,164.4,206.1z"/>
		<path class="st57" d="M164.5,206.8c-0.2-0.2-0.4-0.3-0.6,0.2c-0.1,0.3-0.2,0.9,0.2,1C164.8,208,164.8,207.2,164.5,206.8z"/>
		<g>
			<g>
				<path class="st69" d="M161.7,204.1c0.5-0.3,1.1-0.6,1.7-0.7c0.7-0.1,1,0.2,1.5,0.5c0.1,0.1,0.3-0.1,0.3-0.2
					c-0.4-1.5-3.1-0.7-3.6,0.3C161.5,204,161.6,204.1,161.7,204.1L161.7,204.1z"/>
			</g>
		</g>
	</g>
	<g>
		<path class="st69" d="M155.4,205.9c-0.4-0.6-1-0.7-1.5,0.4c-0.3,0.7-0.5,2.1,0.6,2.3C156.1,209,156,206.8,155.4,205.9z"/>
		<path class="st57" d="M155.5,206.6c-0.2-0.3-0.4-0.3-0.7,0.2c-0.2,0.3-0.2,0.9,0.3,1C155.8,207.9,155.8,207,155.5,206.6z"/>
		<g>
			<g>
				<path class="st69" d="M156.9,203.8c-1.4-0.6-4-0.3-4.7,1.3c-0.1,0.2,0.1,0.3,0.2,0.2c0.7-0.4,1.1-0.9,1.9-1.2
					c0.8-0.3,1.6-0.3,2.4-0.1C157,204.1,157.1,203.9,156.9,203.8L156.9,203.8z"/>
			</g>
		</g>
	</g>
	<path class="st73" d="M157.6,211.7c0.1-0.4-0.1-0.8-0.6-1.2c-0.8-0.7-2.1-0.8-3.1-0.6c-0.4,0.1-0.9,0.4-1,0.9
		c-0.1,0.3-0.1,0.6,0,0.8c0.3,1,1.2,1.8,2.3,1.8C156.1,213.4,157.4,212.7,157.6,211.7z"/>
	<path class="st73" d="M164.7,211.1c0-0.3,0-0.7-0.3-1c-0.5-0.5-1.3-0.6-1.9-0.4c-0.3,0.1-0.5,0.3-0.6,0.7c-0.1,0.2,0,0.4,0,0.7
		c0.2,0.8,0.7,1.4,1.4,1.4C163.9,212.5,164.6,211.9,164.7,211.1z"/>
	<g>
		<g>
			<path class="st74" d="M172,239.8c1.8,3.3,2.8,7,2.7,10.8c-0.1,3.5-1.5,6.6-2.5,9.9c-1.8,6-1.9,13.6-0.1,19.6
				c0.1,0.3,0.5,0.2,0.5-0.1c0-3.8-0.9-7.6-0.8-11.4c0.1-4.1,1.1-7.7,2.4-11.5c2-6,1.6-12.1-1.8-17.5
				C172.2,239.4,171.9,239.6,172,239.8L172,239.8z"/>
		</g>
	</g>
	<g>
		<g>
			<path class="st74" d="M147.2,246.1c1.1,7.6-1.1,15-0.9,22.6c0.1,3.2,0.8,6.3,1.5,9.4c0.8,3.7,1.6,7.5,2.7,11.1
				c0.1,0.3,0.6,0.2,0.5-0.1c-1.1-7.4-4-14.7-4-22.3c0-7,1.7-13.8,0.5-20.8C147.5,245.7,147.1,245.8,147.2,246.1L147.2,246.1z"/>
		</g>
	</g>
	<g>
		<path class="st57" d="M148.4,221.5c3,2.5,6.3,4.7,9.8,6.4c-1.9,2.4-2.7,4.3-3.6,7.2c-3.5-3-7.9-8.2-8.6-10.7
			c0.8-1.8,1.4-2.5,2.1-3.5"/>
	</g>
	<g>
		<path class="st57" d="M158.9,221.6c0.2,2.2,0.4,4.5-0.8,6.3c1.4,0.8,2.2,3.4,3,5.3c1.6-2.3,1.2-6.7,0.2-9.3"/>
	</g>
	<g>
		<g>
			<path class="st74" d="M159.1,231.8c1.2,7.7,1.7,15.4,1.8,23.1c0,0.1,0.2,0.1,0.2,0c0.3-7.8-0.4-15.6-1.7-23.2
				C159.4,231.5,159.1,231.6,159.1,231.8L159.1,231.8z"/>
		</g>
	</g>
	<g>
		<g>
			<path class="st74" d="M161.3,235.8c0,0.1-0.1,0.1-0.1,0.2c-0.3,0.6,0.3,1.2,0.9,0.9c0.1,0,0.1-0.1,0.2-0.1
				C163.3,236.2,161.8,234.7,161.3,235.8L161.3,235.8z"/>
		</g>
	</g>
	<g>
		<g>
			<path class="st74" d="M162.8,240.4c-0.2,0-0.3,0-0.5,0.1c-0.6,0.2-0.8,0.9-0.4,1.4c0.5,0.5,1.2,0.2,1.4-0.4
				c0.1-0.2,0.1-0.3,0.1-0.5C163.5,240.7,163.1,240.4,162.8,240.4L162.8,240.4z"/>
		</g>
	</g>
	<g>
		<g>
			<path class="st74" d="M162.6,246.6C162.6,246.7,162.6,246.7,162.6,246.6c0.1-0.1,0.3-0.3,0.4-0.5c0,0,0,0,0,0
				c0.2,0.1,0.5,0.2,0.7,0.3c-0.4-0.7-1.5-0.3-1.3,0.5c0.2,0.8,1.4,0.6,1.4-0.2c0-0.2-0.1-0.4-0.3-0.5c-0.2-0.1-0.3-0.1-0.5-0.1
				C162.8,246.2,162.6,246.5,162.6,246.6L162.6,246.6z"/>
		</g>
	</g>
	<g>
		<g>
			<path class="st74" d="M163,253.7c0.1,0.1,0.2,0.1,0.3,0.2c0.4,0.3,1-0.1,1-0.6s-0.6-0.9-1-0.6c-0.1,0.1-0.2,0.1-0.3,0.2
				C162.8,253.2,162.8,253.5,163,253.7L163,253.7z"/>
		</g>
	</g>
</g>
<g>
	<g>
		<g>
			<path class="st75" d="M314.6,309.1l-0.5,0.2c-0.4,0.1-0.9-0.1-1-0.5l-7.7-23.6c-0.1-0.4,0.1-0.9,0.5-1l0.5-0.2
				c0.4-0.1,0.9,0.1,1,0.5l7.7,23.6C315.3,308.5,315,309,314.6,309.1z"/>
			<path class="st76" d="M314.5,311.8l-0.5-0.2c-0.4-0.2-0.6-0.7-0.5-1.1l9.1-23.1c0.2-0.4,0.7-0.6,1.1-0.5l0.5,0.2
				c0.4,0.2,0.6,0.7,0.5,1.1l-9.1,23.1C315.5,311.7,315,312,314.5,311.8z"/>
			<path class="st67" d="M315.5,314.4l-0.5-0.1c-0.5-0.1-0.8-0.5-0.7-0.9l3.5-24.6c0.1-0.5,0.5-0.8,0.9-0.7l0.5,0.1
				c0.5,0.1,0.8,0.5,0.7,0.9l-3.5,24.6C316.4,314.1,315.9,314.5,315.5,314.4z"/>
			<path class="st77" d="M324.7,316.8h-19.3v-19.7c0-1.2,1-2.2,2.2-2.2h14.8c1.2,0,2.2,1,2.2,2.2V316.8z"/>
		</g>
		<rect x="327.8" y="307.1" class="st78" width="23.2" height="9.9"/>
	</g>
	<rect x="256.3" y="316.1" class="st27" width="108.7" height="9.6"/>
</g>
<g>
	<g>
		<path class="st52" d="M361.1,224.6c-8.7,8.6-14.7,20.5-20.1,32.1c-8.6-7.5-18.7-14.1-27.8-21.2l0.1,2.7
			c5.9,13.1,20.9,32.8,28.9,33.6c3.9,0,18.6-13.7,25.4-22.7"/>
	</g>
	<g>
		<path class="st67" d="M363.9,418.5l-4.1,0c0,1.9-6.7,3.6-9.6,5.5c-0.9,0.6-2.5,1.7-1.4,2.7c0.6,0.6,1.9,0.8,2.8,0.8
			c3.6-0.1,7.2,0,10.6-1.2c1.3-0.5,2.7-1.2,3.1-2.3C365.7,422.3,363.9,421.2,363.9,418.5z"/>
	</g>
	<g>
		<path class="st67" d="M409.2,421.4l-4,0c0,1.9-6.6,3.6-9.4,5.5c-0.8,0.6-2.4,1.7-1.4,2.7c0.6,0.6,1.9,0.8,2.7,0.8
			c3.5-0.1,7.1,0,10.3-1.2c1.3-0.5,2.7-1.2,3-2.3C410.9,425.2,409.1,424.1,409.2,421.4z"/>
	</g>
	<g>
		<path class="st79" d="M360.2,295.6c-5.3,26.7-5.3,39-5.9,58.7c-0.8,23.9,2.8,46.1,4.2,65.7c0,0,3,1.5,5.7,0.1
			c2.6-12,10.2-34.3,7.5-50.2c-0.5-2.9-0.9-5.7-0.9-8.6c-0.1-6.8,19.2-39.2,15.4-70.2"/>
	</g>
	<g>
		<path class="st79" d="M377.9,286.5c-1.8,17.5,6.6,59.5,9.8,75.7c4.3,21.2,15.2,57.3,16,60.7c1.4,0.9,5.6-0.1,5.6-0.1
			c0.2-16.1,4.4-39-1.3-54.3c-1-2.8-2.1-5.5-2.5-8.4c-0.3-2.7,9.2-33.6,7.6-46.6c-0.9-6.9-3.3-15.3-9.4-22.8"/>
	</g>
	<g>
		<g>
			<path class="st74" d="M406.9,305.2c-2.3,0.4-4.8,1.1-7.1,1c-1.7-0.1-2.1-0.7-2.7-2.4c-0.3-0.9-0.4-1.9-0.8-2.8
				c-0.1-0.3-0.6-0.3-0.6,0.1c-0.1,1.7,0.4,5.2,2.2,5.9c1.2,0.5,3,0,4.2-0.1c1.7-0.2,3.3-0.5,4.9-1.1
				C407.5,305.7,407.3,305.2,406.9,305.2L406.9,305.2z"/>
		</g>
	</g>
	<g>
		<g>
			<path class="st74" d="M378.9,314.1c0.3,2.8,0.5,5.6,0.9,8.4c0.2,1.7,0.4,3.4,0.7,5.1c0.1,0.8,0.1,1.8,0.5,2.5
				c0.1,0.2,0.5,0.2,0.6-0.1c0.2-0.7-0.1-1.7-0.2-2.4c-0.2-1.7-0.4-3.5-0.7-5.2c-0.4-2.8-0.8-5.6-1.3-8.3
				C379.3,313.8,378.9,313.8,378.9,314.1L378.9,314.1z"/>
		</g>
	</g>
	<g>
		<path class="st16" d="M399.6,223.1c-3-3.1-3.8-3.4-8.1-4c-3.3-0.5-11.2,0.6-14.5,0.2c-0.8-0.1-1.6-0.2-2.4-0.1
			c-1.1,0.2-2.1,0.8-3.1,1.5c-2.8,1.8-5.5,3.7-8.3,5.5c-3,2-2.7,6.2-3.1,9.4c-0.5,3.8-0.8,7.6-1.1,11.4c-0.5,7.5-0.8,15-0.8,22.4
			c-0.1,7.2,0.4,14.3,0.9,21.4c0,0.5,0.1,1,0,1.5c-0.2,0.9-0.8,1.7-1.1,2.6c-1.2,4.1,3.9,6.4,6.8,7.6c3.9,1.7,8.3,2.3,12.4,1.6
			c0.7-0.1,1.4-0.3,2.1-0.3c0.9,0,1.7,0.2,2.6,0.3c8.2,1.2,16.3-2.8,24.6-3.1c1.7-0.1,3.5,0,5-0.8c1.5-0.8,2.5-2.9,1.5-4.2
			c-0.3-0.4-0.6-0.6-0.8-1c-0.3-0.5-0.3-1.2-0.2-1.8c0.3-4.2,0.6-8.3,0.8-12.5c0.5-7.7,1-15.4,0.9-23.2c0-3.9-0.2-7.8-0.7-11.7
			c-0.4-3.5-0.2-7.2-0.2-10.8c-0.1-3.3-2.3-4.7-4.6-7"/>
	</g>
	<g>
		<path class="st52" d="M414,228.9c0,0,11.6,16.9,19.3,28.6c9.3-6.5,17.4-10.3,17.4-10.3l7.2,0.3c-9.1,11.2-18.7,23.7-28,26.6
			c-3.6,0-20.2-15.1-29.5-25.5"/>
	</g>
	<g>
		<path class="st16" d="M396.8,247.5c3.7,1.1,8.5,8.7,15,14.4c8.6-0.8,14-10.9,15.5-14.5c-2.1-3.5-11.9-19.1-16.9-22.5
			c-7.1-4.8-10.6-5.2-18.1-6.7"/>
	</g>
	<g>
		<path class="st16" d="M380.2,218.2c-3.7,0.3-18.3,3.5-20.8,5.7c-4.6,4.1-8.9,10.8-13.1,22.1c0,0,4.7,9.7,15.3,11.5
			c1.7-1.9,4-7.8,7.9-13.9"/>
	</g>
	<g>
		<path class="st61" d="M390.4,205.5c0.9,4.7,1.4,7.9,1.9,12.6c0.1,1.4-3.2,4.2-4.2,4.6c-3.7,1.4-8.6,1.2-11-2.5
			c-1-1.5-0.1-3.2,0.3-4.8c0.6-2.3,1.1-4.6,1.6-6.9"/>
	</g>
	<g>
		<g>
			<path class="st67" d="M374.9,192.2c-1.8,0.6-3.3,2-3.6,3.9c-0.1,0.9-0.1,1.7-0.1,2.6c0,0.2,0,0.5-0.1,0.7
				c-0.1,0.3-0.3,0.5-0.5,0.8c-0.4,0.7-0.4,1.5-0.4,2.3c0,0.9,0,1.9,0.3,2.8c0.3,0.9,0.9,1.7,1.8,2c0.4,0.1,0.8,0.2,1.1,0
				c0.3-0.1,0.5-0.3,0.7-0.5c0.7-0.7,1.2-1.5,1.5-2.4"/>
		</g>
		<g>
			<path class="st52" d="M372.4,205.7c0.3-2.8-0.1-5.6,0.4-8.4c0.6-3.4,2.5-6.1,5.8-7.2c3.6-1.1,7.8-0.4,10.9,1.7
				c5,3.4,5.6,10.8,2.4,16c-3.2,5.2-5.2,7.1-6.9,7.7c-3,1.2-10.5,0.3-11.7-1.4C372.3,212.5,372.2,207.2,372.4,205.7z"/>
		</g>
		<g>
			<path class="st67" d="M370.4,185.9c0-0.1,0.1-0.3,0.2-0.4c0.1-0.1,0.3-0.1,0.5-0.1c3.8,0,7.6,0.2,11.5-0.1
				c1.7-0.1,3.5-0.3,5.2-0.1c0.6,0.1,1.3,0.2,1.8,0.5c0.9,0.6,1.4,1.7,1.7,2.7c1.9-0.3,3.9,0.7,4.7,2.4c0.8,1.4,0.7,3.1,0.7,4.7
				c0,3.4,0.4,6.8-0.2,10.2c-0.1,0.9-0.4,1.7-0.9,2.4c-1,1.3-2.8,1.4-4.4,1.5c-0.2,0-0.4,0-0.5-0.1c-0.1-0.1-0.1-0.3-0.2-0.5
				c-0.1-1-0.2-2.1-0.1-3.1c0-0.5,0-1.1-0.2-1.6c-0.2-0.5-0.7-0.9-1.2-0.9c-0.3,0-0.6,0.2-0.9,0.1c-0.2-0.1-0.3-0.3-0.3-0.5
				c-1.2-2.6-0.3-6.3-0.3-6.3c-1.6,0.3-3.1,0.6-4.7,0.5c-1.6-0.1-3.2-0.3-4.8-0.6c-1.9-0.3-4.1-0.3-5.8-1.4c-1.7-1.1-2.1-3-2.2-4.9
				C370,188.9,370,187.3,370.4,185.9z"/>
		</g>
		<g>
			<g>
				<path class="st64" d="M374.9,200.4c0.4-0.5,1-0.5,1.3,0.6c0.2,0.7,0,2-0.9,2C373.7,203.1,374.1,201.2,374.9,200.4z"/>
				<path class="st57" d="M374.7,201c0.2-0.2,0.4-0.2,0.6,0.3c0.1,0.3,0,0.9-0.4,0.9C374.1,202.2,374.3,201.3,374.7,201z"/>
			</g>
			<g>
				<path class="st64" d="M383.7,201.8c0.5-0.5,1.1-0.5,1.4,0.7c0.2,0.8,0.1,2.2-1,2.2C382.4,204.7,382.9,202.6,383.7,201.8z"/>
				<path class="st57" d="M383.5,202.5c0.2-0.2,0.5-0.2,0.6,0.3c0.1,0.3,0,1-0.5,1C382.9,203.7,383.1,202.8,383.5,202.5z"/>
			</g>
			<g>
				<g>
					<path class="st64" d="M387.1,198.7c-0.9-0.2-2.4-0.4-3.2,0.3c-0.2,0.2,0,0.5,0.2,0.5c0.4,0.1,0.9-0.2,1.3-0.2
						c0.5-0.1,1-0.1,1.6,0C387.4,199.3,387.4,198.8,387.1,198.7L387.1,198.7z"/>
				</g>
			</g>
			<g>
				<g>
					<path class="st64" d="M374.5,197.5c0.4,0,0.8,0.2,1.1,0.6c0.1,0.1,0.2,0.3,0.4,0.4c0.2,0.2,0.3,0.2,0.5,0.3
						c0.2,0.1,0.4,0,0.4-0.2c0-0.3,0-0.5-0.2-0.8c-0.2-0.3-0.4-0.5-0.6-0.7c-0.5-0.3-1-0.5-1.6-0.3
						C374.1,197,374.1,197.5,374.5,197.5L374.5,197.5z"/>
				</g>
			</g>
			<g>
				<path class="st63" d="M377.6,203.8c-0.1,0.5-0.2,1-0.4,1.5c-0.2,0.4-0.3,0.9-0.3,1.2c0,0.1,0,0.1,0.3,0.2
					c0.2,0.1,0.5,0.1,0.7,0.2l1.5,0.4c-0.5,0.2-1,0.2-1.5,0.2c-0.3,0-0.5,0-0.8-0.1c-0.1,0-0.3-0.1-0.5-0.2
					c-0.2-0.1-0.3-0.3-0.4-0.5c-0.1-0.7,0.2-1.2,0.5-1.7C376.9,204.6,377.3,204.2,377.6,203.8z"/>
			</g>
		</g>
	</g>
	<g>
		<path class="st52" d="M389.3,203.9c0.3-0.3,0.6-0.6,1-0.8c0.4-0.2,0.9-0.2,1.2,0c0.3,0.2,0.5,0.5,0.6,0.8c0.4,1,0.5,2.1,0.1,3.1
			c-0.4,1-1.2,1.8-2.2,2.1c-1,0.2-2.2-0.2-2.7-1.1"/>
	</g>
	<g>
		<path class="st57" d="M391.9,214.6c-3,2.5-8,7.1-11.8,8.2c2,0.9,3.5,4.2,3.6,6.1c3.6-2.1,7.4-6.9,9.6-10.5"/>
	</g>
	<g>
		<path class="st57" d="M377.2,216.3c0.2,2,1.5,4.9,2.9,6.4c-2.6,0.1-4.1,3.8-3.8,4.1c0,0-1.3-4.6-0.5-8.8"/>
	</g>
	<g class="st80">
		<g>
			<path class="st57" d="M379.3,224.9c-1,14.6-2.1,29.2-2.8,43.8c-0.3,6.9-0.6,13.9-0.6,20.8c0,4.3-0.5,10.3,2.3,13.9
				c0.2,0.2,0.5-0.1,0.3-0.3c-2.8-4.4-2-11.2-2-16.2c0.1-6.8,0.3-13.6,0.7-20.4c0.7-13.9,1.5-27.8,2.3-41.7
				C379.4,224.8,379.3,224.8,379.3,224.9L379.3,224.9z"/>
		</g>
	</g>
	<g class="st80">
		<g>
			<path class="st57" d="M380.8,228.8c1.1,0,1.1-1.7,0-1.7C379.8,227.2,379.8,228.8,380.8,228.8L380.8,228.8z"/>
		</g>
	</g>
	<g class="st80">
		<g>
			<path class="st57" d="M380.2,242.4c1.1,0,1.1-1.7,0-1.7C379.1,240.7,379.1,242.4,380.2,242.4L380.2,242.4z"/>
		</g>
	</g>
	<g class="st80">
		<g>
			<path class="st57" d="M379.5,255.9c1.1,0,1.1-1.7,0-1.7C378.5,254.2,378.5,255.9,379.5,255.9L379.5,255.9z"/>
		</g>
	</g>
	<g class="st80">
		<g>
			<path class="st57" d="M378.9,269.4c1.1,0,1.1-1.7,0-1.7C377.8,267.8,377.8,269.4,378.9,269.4L378.9,269.4z"/>
		</g>
	</g>
	<g class="st80">
		<g>
			<path class="st57" d="M378.3,282.9c1.1,0,1.1-1.7,0-1.7C377.2,281.3,377.2,282.9,378.3,282.9L378.3,282.9z"/>
		</g>
	</g>
	<g class="st80">
		<g>
			<path class="st57" d="M378.3,296.5c1.1,0,1.1-1.7,0-1.7C377.2,294.8,377.2,296.5,378.3,296.5L378.3,296.5z"/>
		</g>
	</g>
	<g class="st80">
		<g>
			<path class="st57" d="M399.4,246.7c1.4,1.9,2.9,3.9,4.4,5.7c2.4,3,4.9,6.7,8.1,8.9c0.2,0.2,0.4-0.2,0.3-0.3
				c-2.4-3.1-5.4-5.9-7.9-9c-1.5-1.8-3-3.7-4.5-5.5C399.6,246.3,399.3,246.5,399.4,246.7L399.4,246.7z"/>
		</g>
	</g>
	<g class="st80">
		<g>
			<path class="st57" d="M361.5,236.5c-2,5.2-2.8,11.2-2.8,16.7c0,0.3,0.4,0.3,0.4,0c0.6-5.6,1.7-11.1,2.6-16.7
				C361.7,236.4,361.5,236.3,361.5,236.5L361.5,236.5z"/>
		</g>
	</g>
	<g>
		<path class="st63" d="M381.8,209.8c-0.3,1.9-2.8,2.4-4.1,2.1c-0.9-0.2-2.6-1.2-2.6-2.8L381.8,209.8z"/>
	</g>
	<g>
		<g>
			<path class="st63" d="M433,257.5c-1.3,0.8-2.7,1.4-4,2.3c-0.6,0.4-1.8,1.2-1.6,2.1c0,0.2,0.3,0.2,0.4,0.1
				c0.8-0.8,1.5-1.5,2.4-2.2c1-0.7,2-1.4,2.9-2.3C433.1,257.5,433,257.4,433,257.5L433,257.5z"/>
		</g>
	</g>
	<g>
		<path class="st52" d="M455.5,250.5c1-1.3,2.1-2.7,3.3-3.8c0.8-0.8,2-1.6,3.1-2.1c1.3-0.7,2.4-1.1,3.7-1.8c1.4-0.7,1.9-1.6,2.4-3.2
			c0.5-1.8,0.7-3.1,0.4-3.6c-1.8-0.9-5.2,2.7-5.6,2.9c-0.4,0.2-2.7,1.1-4.1,0.7c-0.2-0.5,2.2-0.7,2.5-2.1c0.1-0.4-1-0.2-1.4-0.1
			c-2.4,0.4-5.1,1-5.9,3.7c-0.2,0.7-0.2,1.5-0.4,2.3c-0.6,2.4-3.4,3.8-5.4,5.2"/>
	</g>
	<g>
		<g>
			<path class="st63" d="M341,256.9c0.7,0.7,1.4,1.4,1.9,2.2c0.5,0.8,0.9,1.6,1.4,2.4c0.1,0.2,0.4,0.1,0.4-0.2
				c-0.4-1.9-1.9-3.6-3.5-4.7C341,256.5,340.8,256.7,341,256.9L341,256.9z"/>
		</g>
	</g>
	<g>
		<path class="st52" d="M318.1,246.6c-1-1.3-3-4.7-4.2-5.8c-0.8-0.8-4-1.8-5-2.3c-1.3-0.7-2.4-1.1-3.7-1.8c-1.4-0.7-1.9-1.6-2.4-3.2
			c-0.5-1.8-0.7-3.1-0.4-3.6c1.8-0.9,5.2,2.7,5.6,2.9c0.4,0.2,2.7,1.1,4.1,0.7c0.2-0.5-2.2-0.7-2.5-2.1c-0.1-0.4,1-0.2,1.4-0.1
			c2.4,0.4,5.1,1,5.9,3.7c0.2,0.7,0.7,1.7,0.8,2.4c0.6,2.4,3.4,4.1,5.4,5.5"/>
	</g>
</g>
</svg>
