<svg xmlns="http://www.w3.org/2000/svg" width="502" height="502" viewBox="0 0 502 502">
  <metadata><?xpacket begin="﻿" id="W5M0MpCehiHzreSzNTczkc9d"?>
<x:xmpmeta xmlns:x="adobe:ns:meta/" x:xmptk="Adobe XMP Core 5.6-c138 79.159824, 2016/09/14-01:09:01        ">
   <rdf:RDF xmlns:rdf="http://www.w3.org/1999/02/22-rdf-syntax-ns#">
      <rdf:Description rdf:about=""/>
   </rdf:RDF>
</x:xmpmeta>
                                                                                                    
                                                                                                    
                                                                                                    
                                                                                                    
                                                                                                    
                                                                                                    
                                                                                                    
                                                                                                    
                                                                                                    
                                                                                                    
                                                                                                    
                                                                                                    
                                                                                                    
                                                                                                    
                                                                                                    
                                                                                                    
                                                                                                    
                                                                                                    
                                                                                                    
                                                                                                    
                           
<?xpacket end="w"?></metadata>
<defs>
    <style>
      .cls-1 {
        fill: #d5042b;
      }

      .cls-1, .cls-2 {
        fill-rule: evenodd;
      }

      .cls-2 {
        fill: #002164;
      }
    </style>
  </defs>
  <path class="cls-1" d="M242.753,259.569c-13.011-2.775-33.886,8.267-38.54-8.106-6.494-22.852-5.472-49.036,11.812-68.955,12.376-14.261,27.522-26.152,41.787-38.693,14.077-12.376,20.22-27.157,13.23-40.66-3.19-6.163-11.455-13.116-17.668-13.361-7.09-.28-16.728,4.811-21.094,10.686-4.788,6.442-5.861,16.344-6.664,24.917C224.65,135.722,219.4,140.538,210,140.755c-18.486.426-36.992,0.364-55.483,0.064-9.578-.156-15.046-5.416-15.986-15.268C133.187,69.5,169.981,16.153,224.1,6.191,287.07-5.4,343.993,23.65,358.44,74.2c12.351,43.22,6.478,82.738-28.274,114.578-8.338,7.639-16.821,15.176-25.752,22.089-11.207,8.674-18.635,18.809-18.071,33.827C286.73,255,280.6,259.5,270.8,259.558,261.557,259.609,252.309,259.569,242.753,259.569Zm16.4-26.407c7.673-24.043,12.041-29.942,30.612-45.236,9.918-8.167,19.9-16.438,28.685-25.772,28.761-30.564,25.031-87.256-8.172-111.965-29.314-21.815-62.638-26.136-96.483-12.871-32.69,12.813-43.213,41.6-47.34,74.984h31.934c3.552-9.04,6.333-17.943,10.433-26.184,9.173-18.439,25.206-24.241,44.785-23.625,19.238,0.6,33.477,8.227,41.518,26.418,11.613,26.272,4.205,55.136-19.228,75.033-12.15,10.316-24.227,20.751-35.827,31.679-10.6,9.989-12.046,22.792-9.905,37.539h28.988Z"/>
  <path class="cls-2" d="M163.081,421.7c-19.828,0-37.729.112-55.628-.024C73.963,421.426,49.971,400,49.183,366.7q-1.7-71.878-.034-143.823c0.729-33.813,23.788-55.063,57.518-55.63,15.952-.268,31.912.008,47.868-0.015,9.223-.013,16.268,4.414,14.173,13.574-1.142,4.993-8.707,11.446-13.94,12.015-15.268,1.657-30.83.357-46.259,0.822-21.492.648-32.1,11.474-32.171,32.747q-0.228,68.826,0,137.652c0.069,18.781,10.44,29.886,29.34,30.492,21.6,0.692,43.235.487,64.849,0.182,14.426-.2,20.611,6.32,20.079,20.7-0.529,14.311-.116,28.658-0.116,47.259,18.6-20.383,35.114-37.586,50.519-55.733,7.748-9.126,16.289-12.626,28.047-12.534,41.173,0.325,82.354-.045,123.53-0.347,23.436-.173,34.362-10.308,34.613-33.654,0.476-44.332.4-88.676,0.023-133.01-0.195-22.784-12.03-34-34.524-34.332-5.143-.075-11.168,1.6-15.209-0.537-5.03-2.655-10.864-8.017-11.687-12.985-0.576-3.472,6.2-11.3,10.5-11.968,49.319-7.65,78.643,19.348,77.424,61.163-1.292,44.3-.188,88.668-0.318,133.005-0.109,36.815-22.936,59.585-59.767,59.732-39.118.157-78.246-.266-117.347,0.592-6.647.146-14.8,3.877-19.483,8.668-18.718,19.132-36.452,39.237-54.318,59.191-7.129,7.964-15.238,12.538-25.883,8.807-10.99-3.853-13.547-13.09-13.531-23.583C163.1,458.169,163.081,441.184,163.081,421.7Z"/>
  <path class="cls-2" d="M301.355,320.755c0.126,29.6-20.591,50.046-50.693,50.025-28.98-.021-50.152-20.77-50.075-49.078,0.077-28.524,22.565-50.9,50.939-50.682C279.967,271.236,301.234,292.463,301.355,320.755Zm-26.547,1.111c0.34-13.1-9.663-23.348-23.084-23.656-13.084-.3-24.093,9.7-24.693,22.423-0.595,12.625,9.822,23.14,23.306,23.522C263.733,344.534,274.474,334.751,274.808,321.866Z"/>
</svg>
