<?xml version="1.0" encoding="utf-8"?>
<!-- Generator: Adobe Illustrator 21.1.0, SVG Export Plug-In . SVG Version: 6.00 Build 0)  -->
<svg version="1.1" id="Layer_1" xmlns="http://www.w3.org/2000/svg" xmlns:xlink="http://www.w3.org/1999/xlink" x="0px" y="0px"
	 viewBox="0 0 505.7 505.7" style="enable-background:new 0 0 505.7 505.7;" xml:space="preserve">
<style type="text/css">
	.st0{fill:#1260FE;}
</style>
<g>
	<g>
		<path class="st0" d="M485.8,371.9l-77.9-77.6c-17.7-17.7-46.4-17.8-64.1-0.1c0,0-0.1,0.1-0.1,0.1L299,338.9
			c-3.4,3.4-8.7,3.9-12.6,1.1c-24.4-17.1-47.3-36.3-68.3-57.4c-18.8-18.8-36.2-39.1-51.8-60.6c-2.8-3.9-2.4-9.2,1-12.6l45.7-45.7
			c17.7-17.7,17.7-46.4,0-64L135,21.7c-18-17.2-46.2-17.2-64.2,0L46.2,46.4C8.9,83.2-4.4,137.9,11.8,187.8
			c12.1,36.5,29.2,71.1,50.7,102.9c19.4,29.1,41.7,56.3,66.5,81c27,27.2,56.9,51.3,89.1,71.9c35.5,23.1,74.4,40.5,115.3,51.3
			c10.5,2.6,21.3,3.9,32.2,3.9c37.2-0.2,72.7-15.2,98.8-41.6l21.2-21.2C503.4,418.2,503.4,389.6,485.8,371.9z M466.1,417
			C466.1,417,466.1,417.1,466.1,417l0.1-0.4L445,437.9c-27.3,27.6-66.9,39-104.7,29.9c-38-10.2-74.1-26.4-107-48
			c-30.6-19.5-58.9-42.4-84.4-68.1c-23.5-23.3-44.6-49-63.1-76.5c-20.2-29.6-36.1-61.9-47.4-95.9c-13-40-2.2-83.8,27.7-113.3
			l24.7-24.7c6.9-6.9,18-6.9,24.9-0.1c0,0,0,0,0.1,0.1l77.9,77.9c6.9,6.9,6.9,18,0.1,24.9c0,0,0,0-0.1,0.1L147.9,190
			c-13.1,13-14.8,33.6-3.9,48.5c16.5,22.7,34.9,44.1,54.8,63.9c22.2,22.3,46.3,42.6,72.1,60.6c14.9,10.4,35.1,8.6,48-4.2l44.2-44.9
			c6.9-6.9,18-6.9,24.9-0.1c0,0,0,0,0.1,0.1l78,78.2C473,399,473,410.1,466.1,417z"/>
	</g>
</g>
</svg>
