<?xml version="1.0" encoding="utf-8"?>
<!-- Generator: Adobe Illustrator 21.1.0, SVG Export Plug-In . SVG Version: 6.00 Build 0)  -->
<svg version="1.1" id="Capa_1" xmlns="http://www.w3.org/2000/svg" xmlns:xlink="http://www.w3.org/1999/xlink" x="0px" y="0px"
	 viewBox="0 0 512 512" style="enable-background:new 0 0 512 512;" xml:space="preserve">
<style type="text/css">
	.st0{fill:#F5FBFC;}
	.st1{fill:#CADDED;}
	.st2{fill:#1360FE;}
</style>
<path class="st0" d="M256,512L256,512c139.7-52.3,232.3-185.7,232.3-334.9V86.7c-47.9,0-86.7-38.8-86.7-86.7H256H110.4
	c0,47.9-38.8,86.7-86.7,86.7v90.4C23.7,326.3,116.3,459.7,256,512L256,512z"/>
<path class="st1" d="M256,512L256,512c139.7-52.3,232.3-185.7,232.3-334.9V86.7c-47.9,0-86.7-38.8-86.7-86.7H256
	C256,0,256,398,256,512L256,512z"/>
<polygon class="st2" points="223.6,346.3 146.6,269.3 189.1,226.9 223.6,261.4 322.9,162.1 365.4,204.6 "/>
<polygon class="st2" points="256,313.9 256,229.1 322.9,162.1 365.4,204.6 "/>
</svg>
