<?xml version="1.0" encoding="utf-8"?>
<!-- Generator: Adobe Illustrator 21.1.0, SVG Export Plug-In . SVG Version: 6.00 Build 0)  -->
<svg version="1.1" id="Layer_1" xmlns="http://www.w3.org/2000/svg" xmlns:xlink="http://www.w3.org/1999/xlink" x="0px" y="0px"
	 viewBox="0 0 755.1 709.7" style="enable-background:new 0 0 755.1 709.7;" xml:space="preserve">
<style type="text/css">
	.st0{fill:#EBF0F2;}
	.st1{fill:#DBE2E5;}
	.st2{fill:#CFDCE5;}
	.st3{fill:#AAC1CE;}
	.st4{fill:#FFFFFF;}
	.st5{fill:#8BA0AE;}
	.st6{opacity:0.35;}
	.st7{fill:#DCE1EB;}
	.st8{fill:#B5EFFF;}
	.st9{fill:#80DBFF;}
	.st10{fill:#FAA68E;}
	.st11{fill:#D47F6C;}
	.st12{fill:#FF7045;}
	.st13{fill:#DE4726;}
	.st14{fill:#707789;}
	.st15{fill:#555A66;}
</style>
<g>
	<path class="st0" d="M51.7,258c-9.3,31.3-14.4,64.4-14.4,98.8C37.3,544.5,188.5,697,375.9,699l-104-130.2l250.4-71l115.7,83.5
		c52.4-60.1,84-138.7,84-224.5c0-27.2-3.1-53.5-9.2-78.8c-75,43.6-188.5,71.3-315.5,71.3C251.9,349.2,124.3,312.9,51.7,258z"/>
	<path class="st0" d="M213.7,508L376,699c1.3,0,2.5,0,3.8,0c103.1,0,195.7-45.7,258.4-117.7l-93.4-80.7L213.7,508z"/>
	<path class="st1" d="M379.8,14.3C225,14.3,94.3,116.9,51.9,258c72.4,54.9,200.2,91.4,345.7,91.4c127.1,0,240.5-27.7,315.5-71.3
		C677.5,126.8,541.8,14.3,379.8,14.3z"/>
</g>
<title>Asset 1</title>
<g id="Layer_1_1_">
	<path d="M203.4,435.5V212.3c0-3.8,3.3-7.2,7.2-7.2h338.3c3.8,0,7.2,3.3,7.2,7.2v223.2H203.4z"/>
	<g>
		<path class="st2" d="M556.1,435.5v28.7c0,3.8-3.3,7.2-7.2,7.2H210.6c-3.8,0-7.2-3.3-7.2-7.2v-28.7H556.1z"/>
		<rect x="304.2" y="521.9" class="st2" width="150.9" height="7.2"/>
	</g>
	<polygon class="st3" points="429.9,521.9 329.6,521.9 336.8,471.3 422.7,471.3 	"/>
	<rect x="217.8" y="219.5" class="st4" width="324" height="201.7"/>
	<polygon class="st5" points="422.7,471.3 336.8,471.3 332.8,499.6 424,480.4 	"/>
	<g>
		<circle class="st4" cx="379.7" cy="270.2" r="4.2"/>
		<rect x="377.9" y="272.5" class="st4" width="3.6" height="7.8"/>
	</g>
	<g>
		<path class="st4" d="M356.5,395.9c0.6,0.4,1.5,0.7,2.5,0.7c1.4,0,2.2-0.7,2.2-1.8c0-1-0.6-1.6-2.1-2.2c-1.8-0.6-2.9-1.5-2.9-3
			c0-1.7,1.4-3,3.5-3c1.1,0,1.9,0.2,2.4,0.6l-0.4,1.1c-0.3-0.2-1.1-0.5-2.1-0.5c-1.5,0-2.1,0.9-2.1,1.6c0,1,0.6,1.5,2.2,2.1
			c1.8,0.7,2.8,1.6,2.8,3.2c0,1.7-1.2,3.1-3.8,3.1c-1,0-2.2-0.3-2.8-0.7L356.5,395.9z"/>
		<path class="st4" d="M371.1,395.5c0,0.8,0,1.5,0.1,2.2h-1.3l-0.1-1.3l0,0c-0.4,0.6-1.2,1.4-2.6,1.4c-1.2,0-2.7-0.6-2.7-3.4v-4.6
			h1.4v4.3c0,1.4,0.5,2.5,1.8,2.5c1,0,1.6-0.6,1.8-1.3c0.1-0.2,0.2-0.5,0.2-0.7v-4.8h1.4L371.1,395.5L371.1,395.5L371.1,395.5z"/>
		<path class="st4" d="M373.4,397.6c0-0.6,0.1-1.3,0.1-2v-9.4h1.4v4.9l0,0c0.5-0.9,1.4-1.4,2.6-1.4c1.9,0,3.3,1.6,3.3,4
			c0,2.8-1.8,4.2-3.5,4.2c-1.1,0-2-0.4-2.6-1.4h-0.1l-0.1,1.3L373.4,397.6L373.4,397.6L373.4,397.6z M374.9,394.5
			c0,0.2,0,0.3,0.1,0.5c0.2,1,1.1,1.7,2.2,1.7c1.4,0,2.4-1.2,2.4-3c0-1.6-0.8-2.9-2.3-2.9c-1,0-1.8,0.6-2.2,1.8
			c0,0.2-0.1,0.3-0.1,0.6L374.9,394.5L374.9,394.5z"/>
		<path class="st4" d="M382.6,391.9c0-0.8,0-1.4-0.1-2.1h1.2l0.1,1.3h0.1c0.4-0.7,1.2-1.4,2.5-1.4c1,0,1.8,0.6,2.2,1.6l0,0
			c0.2-0.4,0.6-0.8,0.9-1c0.5-0.3,1-0.6,1.8-0.6c1,0,2.6,0.6,2.6,3.4v4.6h-1.4v-4.4c0-1.5-0.6-2.4-1.7-2.4c-0.8,0-1.4,0.6-1.7,1.3
			c-0.1,0.2-0.1,0.5-0.1,0.7v4.8h-1.4V393c0-1.2-0.6-2.2-1.6-2.2c-0.9,0-1.5,0.7-1.8,1.4c-0.1,0.2-0.1,0.5-0.1,0.7v4.7h-1.4
			L382.6,391.9L382.6,391.9z"/>
		<path class="st4" d="M397.6,387.7c0,0.5-0.3,0.9-0.9,0.9c-0.5,0-0.9-0.4-0.9-0.9c0-0.5,0.4-0.9,0.9-0.9
			C397.3,386.7,397.6,387.1,397.6,387.7z M396.1,397.6v-7.8h1.4v7.8H396.1z"/>
		<path class="st4" d="M401.6,387.6v2.2h2v1.1h-2v4.2c0,1,0.2,1.5,1,1.5c0.4,0,0.6-0.1,0.8-0.1l0.1,1c-0.2,0.1-0.7,0.2-1.3,0.2
			c-0.6,0-1.2-0.2-1.5-0.6c-0.4-0.4-0.6-1.1-0.6-2V391h-1.2v-1.1h1.2V388L401.6,387.6z"/>
	</g>
	<g class="st6">
		<polygon class="st4" points="338.6,396.1 338.6,378 356.7,378 		"/>
	</g>
</g>
<g id="Layer_2">
	<path class="st0" d="M327.2,244h105.7v149.3H327.2V244z"/>
	<path class="st7" d="M380.8,244h52.1v149.3h-52.1V244z"/>
	<path class="st8" d="M389.1,281c0,15.4-12.5,27.9-27.9,27.9c-15.4,0-27.9-12.5-27.9-27.9s12.5-27.9,27.9-27.9
		C376.6,253.1,389.1,265.6,389.1,281z"/>
	<path class="st9" d="M361.2,253.1L361.2,253.1v55.8l0,0c15.4,0,27.9-12.5,27.9-27.9S376.6,253.1,361.2,253.1z"/>
	<path class="st10" d="M373.4,275.2c0,6.7-5.4,12.1-12.1,12.1s-12.1-5.4-12.1-12.1c0-6.7,5.4-12.1,12.1-12.1
		S373.4,268.5,373.4,275.2z"/>
	<path class="st11" d="M361.2,263.1L361.2,263.1v24.2l0,0c6.7,0,12.1-5.4,12.1-12.1S367.9,263.1,361.2,263.1z"/>
	<path class="st12" d="M341.9,301.2c5,4.8,11.7,7.8,19.3,7.8c7.4,0,14.2-3,19.3-7.8c-3-7.6-10.5-13-19.3-13S345.1,293.6,341.9,301.2
		z"/>
	<path class="st13" d="M380.5,301.2c-3-7.6-10.5-13-19.3-13l0,0v20.7l0,0C368.7,308.9,375.5,306,380.5,301.2z"/>
	<path class="st14" d="M340,322.8h80.1v13.6H340V322.8z"/>
	<path class="st15" d="M380.8,322.8h39.3v13.6h-39.3V322.8z"/>
	<path class="st14" d="M340,343.5h80.1v13.6H340V343.5z"/>
	<path class="st14" d="M340,364.2h80.1v13.6H340V364.2z"/>
	<g>
		<path class="st15" d="M380.8,343.5h39.3v13.6h-39.3V343.5z"/>
		<path class="st15" d="M380.8,364.2h39.3v13.6h-39.3V364.2z"/>
	</g>
</g>
</svg>
