<?xml version="1.0" encoding="utf-8"?>
<!-- Generator: Adobe Illustrator 21.1.0, SVG Export Plug-In . SVG Version: 6.00 Build 0)  -->
<svg version="1.1" id="Layer_1" xmlns="http://www.w3.org/2000/svg" xmlns:xlink="http://www.w3.org/1999/xlink" x="0px" y="0px"
	 viewBox="0 0 755.1 709.7" style="enable-background:new 0 0 755.1 709.7;" xml:space="preserve">
<style type="text/css">
	.st0{fill:#EBF0F2;}
	.st1{fill:#DBE2E5;}
	.st2{fill:#F2BF91;}
	.st3{fill:#67A2BF;}
	.st4{fill:#ECEDED;}
	.st5{fill:#FFFFFF;}
	.st6{fill:#76BA36;}
	.st7{fill:#FF473B;}
	.st8{fill:#FFC999;}
	.st9{fill:#FFF88C;}
	.st10{fill:#E0B186;}
	.st11{opacity:0.2;fill:#FFFFFF;enable-background:new    ;}
</style>
<g>
	<path class="st0" d="M56.9,261c-9.2,30.7-14.2,63.2-14.2,97c0,184.4,148.5,334.1,332.5,336.1L264.7,566.2l254.2-97.5l113.6,109.8
		c51.4-59,82.5-136.2,82.5-220.5c0-26.7-3.1-52.5-9-77.4c-73.6,42.8-185.1,70-309.8,70C253.4,350.6,128,314.9,56.9,261z"/>
	<path class="st0" d="M250.8,548.1L375.1,694c1.3,0,2.5,0,3.8,0c101.3,0,192.1-44.9,253.7-115.6L505,450.6L250.8,548.1z"/>
	<path class="st1" d="M378.9,21.7c-152,0-280.4,100.7-322,239.2c71.1,53.9,196.6,89.7,339.4,89.7c124.8,0,236.2-27.2,309.8-70
		C671.2,132.2,538,21.7,378.9,21.7z"/>
</g>
<g id="Layer_2">
	<g id="OBJECTS">
		<path class="st2" d="M278.6,336.8l-43.7,42.7l-32.2,85.9l51.9-3c0,0,11.8-0.9,17-8.9C277,445.2,278.6,336.8,278.6,336.8z"/>
		<path class="st3" d="M264,223.6h259c1.3,0,2.5,1.2,2.5,2.5V556c0,1.3-1.2,2.5-2.5,2.5H264c-1.3,0-2.5-1.2-2.5-2.5V226
			C261.6,224.6,262.6,223.6,264,223.6z"/>
		<rect x="281.6" y="235.8" class="st4" width="231.1" height="305.6"/>
		<polyline class="st2" points="208.8,449.6 174.6,532.3 233.3,532.3 259.3,461.5 209.4,448.1 		"/>
		<rect x="278.6" y="240.6" class="st5" width="229.6" height="300.7"/>
		<rect x="343.3" y="223.6" class="st4" width="100.2" height="24.5"/>
		<rect x="334.7" y="291.5" class="st4" width="155" height="34.9"/>
		<rect x="292.1" y="291.5" class="st4" width="34.9" height="34.9"/>
		<rect x="334.7" y="334.3" class="st4" width="155" height="34.9"/>
		<rect x="292.1" y="334.3" class="st4" width="34.9" height="34.9"/>
		<rect x="334.7" y="377.2" class="st4" width="155" height="34.9"/>
		<rect x="292.1" y="377.2" class="st4" width="34.9" height="34.9"/>
		<rect x="334.7" y="420" class="st4" width="155" height="34.9"/>
		<rect x="292.1" y="420" class="st4" width="34.9" height="34.9"/>
		<rect x="334.7" y="462.8" class="st4" width="155" height="34.9"/>
		<rect x="292.1" y="462.8" class="st4" width="34.9" height="34.9"/>
		<polygon class="st6" points="322.3,301.9 319.5,299 307,311.6 299.5,304.1 296.6,306.9 304.1,314.4 304.1,314.4 307,317.3 
			307,317.3 307,317.3 309.9,314.4 309.9,314.4 		"/>
		<polygon class="st6" points="322.3,346.7 319.5,343.9 307,356.4 299.5,348.9 296.6,351.8 304.1,359.3 304.1,359.3 307,362.2 
			307,362.2 307,362.2 309.9,359.3 309.9,359.3 		"/>
		<polygon class="st6" points="322.3,388.3 319.5,385.4 307,397.9 299.5,390.4 296.6,393.3 304.1,400.8 304.1,400.8 307,403.7 
			307,403.7 307,403.7 309.9,400.8 309.9,400.8 		"/>
		<polygon class="st7" points="316.5,440.8 313.1,437.4 319.4,431.1 316.5,428.2 310.2,434.6 304,428.2 301.1,431.1 307.3,437.4 
			304,440.8 301.1,443.6 301.1,443.6 304,446.5 304,446.5 304,446.5 306.9,443.6 306.9,443.6 310.2,440.3 313.6,443.6 313.6,443.6 
			316.4,446.5 316.5,446.5 316.5,446.5 319.4,443.6 319.4,443.6 		"/>
		<polygon class="st7" points="316.5,483.6 313.1,480.3 319.4,473.9 316.5,471 310.2,477.4 304,471 301.1,473.9 307.3,480.3 
			304,483.6 301.1,486.5 301.1,486.5 304,489.3 304,489.3 304,489.3 306.9,486.5 306.9,486.5 310.2,483.1 313.6,486.5 313.6,486.5 
			316.4,489.3 316.5,489.3 316.5,489.3 319.4,486.5 319.4,486.5 		"/>
		<path class="st8" d="M261.6,428.2c0,0,3.7-6.6,17.2-33.7c13.4-27.1,0-32.4,0-32.4l-36.2,43l-38.8,57
			C203.7,462.1,261.6,473.9,261.6,428.2z"/>
		<polygon class="st8" points="230.1,462.1 203.7,462.1 174.6,532.3 201,532.3 		"/>
		<path class="st6" d="M213.1,645.8c-28.8-12.1-74.3-53.4-74.3-53.4L188,479h71.2C259.3,479,221.2,630.2,213.1,645.8z"/>
		<polygon class="st9" points="260.6,469.2 197.5,469.2 194.1,479 257.1,479 		"/>
		<path class="st8" d="M405.6,396.5l71.1,26.8l39.4,82.3l-51.9-3c0,0-11.8-0.9-17-8.9c-3.9-6.2-21.6-52.2-32-77.3
			c0,0-11-5.6-12.7-10.2C400.7,401.2,405.6,396.5,405.6,396.5z"/>
		<path class="st4" d="M392.9,274.8c-9.2,0-16.9-6.8-18-15.9h-31.4v-15.6l37.3-0.3c6.9-6.2,17.3-6.3,24.4-0.1l38.6-0.3v16.3h-32.6
			C409.8,268,402.2,274.8,392.9,274.8z M348.1,254.2h31.3v2.3c0,7.5,6.1,13.6,13.6,13.6c7.5,0,13.6-6.1,13.6-13.6v-2.3h32.4v-6.8
			l-35.8,0.3l-0.7-0.7c-5.3-5.2-13.8-5.2-19,0.1l0,0l-0.7,0.7l-34.5,0.3L348.1,254.2z"/>
		<polygon class="st4" points="508.2,268.6 480.3,268.6 480.3,240.6 		"/>
		<polygon class="st10" points="415.3,416.4 452.6,429.7 467.2,462.8 430.1,465.1 		"/>
		<polygon class="st7" points="560.9,439.2 557.5,458.9 393.4,429.8 382.3,421.3 375.8,416.4 383.6,414.1 397,410.2 397,410.2 		"/>
		<polygon class="st11" points="560.1,445.2 558.5,452.9 393.4,423.9 393.7,415.8 		"/>
		<path class="st8" d="M461.4,505.6l-16.4-8.1l-39.4-75.7c0,0,14.4-5.3,25.5,12.3l15.9,23.9l9.9,2.3l6.3-18.2l14.3,26.8L461.4,505.6
			z"/>
		<polygon class="st8" points="456.5,500.6 460.9,512.3 518.8,510.8 511.5,495.7 		"/>
		<path class="st6" d="M530.9,519.2h-71.1c0,0,40.8,134.5,46.1,145.2c5.5,0,51-20.6,69.9-36C573.3,619.1,530.9,519.2,530.9,519.2z"
			/>
		<polygon class="st9" points="458.4,509.5 521.6,509.5 525,519.2 461.9,519.2 		"/>
		<polygon class="st8" points="397,410.2 393.4,429.8 382.3,421.3 383.6,414.1 		"/>
	</g>
</g>
</svg>
