<?xml version="1.0" encoding="utf-8"?>
<!-- Generator: Adobe Illustrator 21.1.0, SVG Export Plug-In . SVG Version: 6.00 Build 0)  -->
<svg version="1.1" id="Layer_1" xmlns="http://www.w3.org/2000/svg" xmlns:xlink="http://www.w3.org/1999/xlink" x="0px" y="0px"
	 viewBox="0 0 755.1 709.7" style="enable-background:new 0 0 755.1 709.7;" xml:space="preserve">
<style type="text/css">
	.st0{fill:#EBF0F2;}
	.st1{fill:#DBE2E5;}
	.st2{fill:#B3B4B6;}
	.st3{fill:#DBDEE3;}
	.st4{fill:#55525B;}
	.st5{fill:#353744;}
	.st6{fill:#F68820;}
	.st7{fill:#FBBE18;}
	.st8{fill:#FFFFFF;}
</style>
<g>
	<path class="st0" d="M56.9,261c-9.2,30.7-14.2,63.2-14.2,97c0,184.4,148.5,334.1,332.5,336.1L264.7,566.2l254.2-97.5l113.6,109.8
		c51.4-59,82.5-136.2,82.5-220.5c0-26.7-3.1-52.5-9-77.4c-73.6,42.8-185.1,70-309.8,70C253.4,350.6,128,314.9,56.9,261z"/>
	<path class="st0" d="M250.8,548.1L375.1,694c1.3,0,2.5,0,3.8,0c101.3,0,192.1-44.9,253.7-115.6L505,450.6L250.8,548.1z"/>
	<path class="st1" d="M378.9,21.7c-152,0-280.4,100.7-322,239.2c71.1,53.9,196.6,89.7,339.4,89.7c124.8,0,236.2-27.2,309.8-70
		C671.2,132.2,538,21.7,378.9,21.7z"/>
</g>
<title>Asset 1</title>
<g>
	<g>
		<g>
			<path class="st2" d="M298.7,401.6h-45.3V291.2h45.3V401.6z"/>
		</g>
		<g>
			<path class="st3" d="M276.1,401.6h-22.6V291.2h22.6V401.6z"/>
		</g>
		<g>
			<path class="st2" d="M276.1,246c-6.3,0-11.3,5-11.3,11.3v11.3h22.6v-11.3C287.3,251,282.3,246,276.1,246z"/>
		</g>
		<g>
			<path class="st3" d="M276.1,246c-6.3,0-11.3,5-11.3,11.3v11.3h11.3V246z"/>
		</g>
		<g>
			<path class="st2" d="M253.4,469.4l20.3,30.4c1.1,1.7,3.6,1.7,4.7,0l20.3-30.4H253.4z"/>
		</g>
		<g>
			<path class="st4" d="M270.4,494.9l3.3,5c1.1,1.7,3.6,1.7,4.7,0l3.3-5H270.4z"/>
		</g>
		<g>
			<path class="st5" d="M253.4,401.6h45.3v67.9h-45.3V401.6z"/>
		</g>
		<g>
			<path class="st4" d="M253.4,401.6h22.6v67.9h-22.6V401.6z"/>
		</g>
		<g>
			<path class="st5" d="M290.3,268.6h-28.3c-4.7,0-8.5,3.8-8.5,8.5v14.2h45.3v-14.2C298.7,272.4,295,268.6,290.3,268.6z"/>
		</g>
		<g>
			<path class="st4" d="M276.1,268.6h-14.2c-4.7,0-8.5,3.8-8.5,8.5v14.2h22.6L276.1,268.6L276.1,268.6z"/>
		</g>
		<g>
			<path class="st4" d="M253.4,291.2V280h-11.3c-6.3,0-11.3,5-11.3,11.3v65c0,6.3,5,11.3,11.3,11.3c6.3,0,11.3-5,11.3-11.3
				s-5-11.3-11.3-11.3v-53.8L253.4,291.2L253.4,291.2z"/>
		</g>
	</g>
	<g>
		<path class="st6" d="M468.5,506.2H332.8c-12.5,0-22.6-10.1-22.6-22.6V268.6c0-12.5,10.1-22.6,22.6-22.6h135.7
			c12.5,0,22.6,10.1,22.6,22.6v215.1C491.1,496,481,506.2,468.5,506.2z"/>
	</g>
	<g>
		<path class="st7" d="M502.4,483.5H366.7c-12.5,0-22.6-10.1-22.6-22.6V246c0-12.5,10.1-22.6,22.6-22.6h113.1l45.3,45.3V461
			C525,473.4,514.9,483.5,502.4,483.5z"/>
	</g>
	<g>
		<path class="st6" d="M525,268.6h-22.6c-12.5,0-22.6-10.1-22.6-22.6v-22.6L525,268.6z"/>
	</g>
	<g>
		<g>
			<path class="st6" d="M417.5,296.8h67.9c3.1,0,5.7-2.5,5.7-5.7s-2.5-5.7-5.7-5.7h-67.9c-3.1,0-5.7,2.5-5.7,5.7
				S414.5,296.8,417.5,296.8z"/>
		</g>
		<g>
			<path class="st6" d="M383.6,325.1h101.8c3.1,0,5.7-2.5,5.7-5.7c0-3.2-2.5-5.7-5.7-5.7H383.6c-3.1,0-5.7,2.5-5.7,5.7
				C377.9,322.6,380.4,325.1,383.6,325.1z"/>
		</g>
		<g>
			<path class="st6" d="M383.6,353.5h101.8c3.1,0,5.7-2.5,5.7-5.7c0-3.2-2.5-5.7-5.7-5.7H383.6c-3.1,0-5.7,2.5-5.7,5.7
				C377.9,351,380.4,353.5,383.6,353.5z"/>
		</g>
		<g>
			<path class="st6" d="M383.6,381.7h101.8c3.1,0,5.7-2.5,5.7-5.7c0-3.1-2.5-5.7-5.7-5.7H383.6c-3.1,0-5.7,2.5-5.7,5.7
				C377.9,379.2,380.4,381.7,383.6,381.7z"/>
		</g>
		<g>
			<path class="st6" d="M383.6,410h101.8c3.1,0,5.7-2.5,5.7-5.7c0-3.1-2.5-5.7-5.7-5.7H383.6c-3.1,0-5.7,2.5-5.7,5.7
				C377.9,407.5,380.4,410,383.6,410z"/>
		</g>
		<g>
			<path class="st6" d="M383.6,438.2h48.1c3.1,0,5.7-2.5,5.7-5.7c0-3.2-2.5-5.7-5.7-5.7h-48.1c-3.1,0-5.7,2.5-5.7,5.7
				C377.9,435.7,380.4,438.2,383.6,438.2z"/>
		</g>
	</g>
	<g>
		<circle class="st4" cx="514.2" cy="420.2" r="39.6"/>
	</g>
</g>
<g>
	<g>
		<path class="st8" d="M537.8,417.5L523.9,405c-1.7-1.5-4.3-1.4-5.8,0.3c-1.5,1.7-1.4,4.3,0.3,5.8l5.8,5.3h-25.1
			c-2.4,0-4.2,1.8-4.2,4.2c0,2.4,1.8,4.2,4.2,4.2h25.1l-5.8,5.3c-1.7,1.5-1.8,4.2-0.3,5.8c0.8,1,1.9,1.4,3.1,1.4
			c1,0,1.9-0.4,2.8-1.1l13.9-12.5c0.8-0.8,1.4-1.9,1.4-3.1S538.8,418.4,537.8,417.5z"/>
	</g>
</g>
</svg>
