<?xml version="1.0" encoding="utf-8"?>
<!-- Generator: Adobe Illustrator 21.1.0, SVG Export Plug-In . SVG Version: 6.00 Build 0)  -->
<svg version="1.1" id="Layer_1" xmlns="http://www.w3.org/2000/svg" xmlns:xlink="http://www.w3.org/1999/xlink" x="0px" y="0px"
	 viewBox="0 0 755.1 709.7" style="enable-background:new 0 0 755.1 709.7;" xml:space="preserve">
<style type="text/css">
	.st0{fill:#EBF0F2;}
	.st1{fill:#DBE2E5;}
	.st2{fill:#7ACAA6;}
	.st3{fill:#57BE92;}
	.st4{fill:#C59191;}
	.st5{fill:#FFFFFF;}
	.st6{fill:#FFCEBF;}
	.st7{fill:#8795DE;}
	.st8{fill:#FFB09E;}
	.st9{fill:#7A6D79;}
	.st10{fill:#685E68;}
	.st11{fill:#B98080;}
	.st12{fill:#EFEDEF;}
	.st13{fill:#E5E1E5;}
	.st14{fill:#C9BFC8;}
</style>
<g>
	<path class="st0" d="M53.7,258c-9.3,31.3-14.4,64.4-14.4,98.8C39.3,544.5,190.5,697,377.9,699l-104-130.2l250.4-71l115.7,83.5
		c52.4-60.1,84-138.7,84-224.5c0-27.2-3.1-53.5-9.2-78.8c-75,43.6-188.5,71.3-315.5,71.3C253.9,349.2,126.3,312.9,53.7,258z"/>
	<path class="st0" d="M215.7,508L378,699c1.3,0,2.5,0,3.8,0c103.1,0,195.7-45.7,258.4-117.7l-93.4-80.7L215.7,508z"/>
	<path class="st1" d="M381.8,14.3C227,14.3,96.3,116.9,53.9,258c72.4,54.9,200.2,91.4,345.7,91.4c127.1,0,240.5-27.7,315.5-71.3
		C679.5,126.8,543.8,14.3,381.8,14.3z"/>
</g>
<title>Asset 1</title>
<g>
	<g>
		<g>
			<path class="st2" d="M203.1,232.4c0-31.8,26-57.6,58-57.2c31,0.4,56,25.8,56.3,56.7c0.1,17.3-7.5,32.8-19.5,43.4
				c-1.3,1.1-1.1,3.1,0.4,4l10.8,6.4c1.7,1,1,3.7-1,3.7h-48.8C228.2,289,203.1,263.6,203.1,232.4L203.1,232.4z"/>
		</g>
	</g>
	<path class="st3" d="M309,285.8l-10.8-6.4c-1.4-0.8-1.7-2.8-0.4-4c12.2-10.6,19.8-26.5,19.5-44c-0.4-30.4-25-55.3-55.5-56.2
		c-4.2-0.1-8.5,0.3-12.6,1c26.2,5.1,46.3,28.2,46.4,55.7c0.1,13.3-4.4,25.6-12,35.4c-4.5,5.9-3.1,14.4,3.4,18.3l0.3,0.1
		c1.7,1,1,3.7-1,3.7h21.5C310,289.5,310.7,286.8,309,285.8L309,285.8z"/>
	<g>
		<g>
			<path class="st4" d="M481.4,382.6H351.8c-32.4,0-50.1-37.8-29.4-62.7l1.1-1.4c9.1-11,14.1-24.8,14.1-39.1v-25
				c0-43.9,35.5-79.4,79.4-79.4s79.4,35.5,79.4,79.4v25.9c0,14.4,5.1,28.3,14.4,39.3C531.7,344.7,514,382.6,481.4,382.6z"/>
			<path class="st5" d="M549.6,446.9v85.7H283.8v-85c0-19.2,11.6-36.6,29.3-44.1l42.9-18.7l14.4-6.2c10.9-4.8,18.1-15.6,18.1-27.6
				v-5.5h56.5v5.2c0,12,7.2,22.9,18.3,27.6l58,24.9C538.5,410.8,549.6,427.9,549.6,446.9L549.6,446.9z"/>
			<path class="st6" d="M355.9,405.1c14.7,4.4,36.2,9.1,62.5,8.6c24.6-0.4,44.9-5.2,59-9.8l6.9-16.7l-21.4-9.2
				c-11-4.7-18.3-15.6-18.3-27.6v-5.2h-56.5v5.5c0,11.9-7.1,22.8-18.1,27.6l-17.3,7.5L355.9,405.1z"/>
			<g>
				<path class="st7" d="M521.2,403.1l-43.7-18.8l0,0v148.1h72.2v-85.7C549.6,427.9,538.5,410.8,521.2,403.1L521.2,403.1z"/>
				<path class="st7" d="M355.9,384.7v147.7h-72.2v-85c0-19.2,11.6-36.6,29.3-44.1L355.9,384.7z"/>
			</g>
		</g>
		<g>
			<path class="st8" d="M436.3,376.4c6.5,0,12.7-1.3,18.3-3.7c-6.1-5.5-9.6-13.6-9.6-22.1v-5.2h-56.5v5.5c0,4.4-1,8.5-2.7,12.3
				c8.5,8.2,20.1,13.2,32.8,13.2L436.3,376.4L436.3,376.4z"/>
			<path class="st6" d="M473.1,260.5v46.7c0,26.3-21.4,47.7-47.7,47.7h-17.5c-26.3,0-47.7-21.4-47.7-47.7v-46.7
				c0-17.1,13.9-31,31-31h50.9C459.2,229.5,473.1,243.4,473.1,260.5L473.1,260.5z"/>
			<path class="st9" d="M473.1,284.7v0.1c-1.7,5.9-6.2,17.1-17.1,25.6c-5.1,4-10.9,6.8-17.3,8.5c-2.8,0.7-4.7,3.7-3.8,6.7
				c0.6,2.4,2.8,4,5.2,4c0.4,0,0.8,0,1.4-0.1c7.8-2,14.9-5.5,21.1-10.3c4.2-3.3,7.8-6.9,10.6-10.6c0-0.4,0-0.8,0-1.3L473.1,284.7
				L473.1,284.7z"/>
			<path class="st10" d="M432.8,333.8h-12.6c-5.8,0-10.5-4.7-10.5-10.5c0-5.8,4.7-10.5,10.5-10.5h12.6c5.8,0,10.5,4.7,10.5,10.5
				C443.1,329.3,438.4,333.8,432.8,333.8z"/>
			<g>
				<path class="st11" d="M428,217.1c1.3-15.3,15.8-25.3,29.9-30.6c23.1,13.9,38.6,39.2,38.6,68.1v5.5c-1.3,0.3-2.5,0.6-3.8,0.7
					c-7.6,1.1-14.3,0.7-18.7,0C444.9,256.8,426.5,235.5,428,217.1z"/>
				<path class="st4" d="M417.1,175.2c18,0,34.4,5.9,47.7,16c-6.7,11.5-21.8,34.4-50.4,51.2c-21.2,12.6-41.2,16.7-53.5,18.3h-23.2
					v-6.1C337.7,210.7,373.2,175.2,417.1,175.2z"/>
			</g>
		</g>
	</g>
	<path class="st12" d="M505.6,532.5H333.2l-9.5-89.8c-0.7-6.4,4.4-11.9,10.8-11.9h170.2c6.4,0,11.5,5.5,10.8,11.9L505.6,532.5z"/>
	<path class="st13" d="M504.5,430.9H483c6.4,0,11.5,5.5,10.8,11.9l-9.5,89.8h21.5l9.5-89.8C515.8,436.4,510.9,430.9,504.5,430.9z"/>
	<g>
		<path class="st14" d="M557.8,538H205.7c-3.3,0-5.4-2.4-5.4-5.4c0-3,2.4-5.4,5.4-5.4h352c3,0,5.4,2.4,5.4,5.4
			C563.1,535.6,560.7,538,557.8,538z"/>
	</g>
	<circle class="st14" cx="419.5" cy="481.7" r="15.1"/>
	<g>
		<circle class="st5" cx="238.6" cy="232.4" r="5.4"/>
		<circle class="st5" cx="260.3" cy="232.4" r="5.4"/>
		<circle class="st5" cx="281.8" cy="232.4" r="5.4"/>
	</g>
</g>
</svg>
