<?xml version="1.0" encoding="utf-8"?>
<!-- Generator: Adobe Illustrator 21.1.0, SVG Export Plug-In . SVG Version: 6.00 Build 0)  -->
<svg version="1.1" id="Capa_1" xmlns="http://www.w3.org/2000/svg" xmlns:xlink="http://www.w3.org/1999/xlink" x="0px" y="0px"
	 viewBox="0 0 512 512" style="enable-background:new 0 0 512 512;" xml:space="preserve">
<style type="text/css">
	.st0{fill:#1360FE;}
	.st1{fill:#0068FF;}
	.st2{fill:#2C3B42;}
	.st3{fill:#FFFFFF;}
	.st4{fill:#FFCEBF;}
	.st5{fill:#FFB09E;}
	.st6{fill:#7A6D79;}
	.st7{fill:#685E68;}
	.st8{fill:#F5FBFC;}
	.st9{fill:#C9BFC8;}
</style>
<g>
	<g>
		<g>
			<path class="st0" d="M3.8,80.7C3.8,35.7,40.6-0.6,85.6,0c43.7,0.6,79.2,36.4,79.5,80.1c0.2,24.5-10.6,46.4-27.6,61.3
				c-1.8,1.6-1.5,4.4,0.5,5.7l15.2,9c2.5,1.5,1.4,5.2-1.4,5.2l-68.8,0C39.1,160.5,3.8,124.7,3.8,80.7L3.8,80.7z"/>
		</g>
	</g>
	<path class="st1" d="M153.2,156.1l-15.2-9c-2-1.2-2.3-4.1-0.5-5.6c17.3-15,28.1-37.3,27.7-62.1C164.4,36.5,129.7,1.3,86.9,0
		c-6.1-0.2-12,0.3-17.7,1.4c37,7.1,65.3,39.8,65.5,78.7c0.1,18.8-6.2,36.2-17,50c-6.5,8.3-4.4,20.4,4.7,25.8l0.3,0.2
		c2.4,1.4,1.4,5.1-1.3,5.2l30.4,0C154.6,161.3,155.6,157.5,153.2,156.1L153.2,156.1z"/>
	<g>
		<g>
			<path class="st2" d="M396.8,292.8h-183c-45.7,0-70.7-53.3-41.5-88.4l1.6-2c12.9-15.5,19.9-35,19.9-55.1V112
				c0-61.8,50.1-112,112-112s112,50.1,112,112v36.5c0,20.3,7.2,40,20.3,55.6C467.6,239.1,442.7,292.8,396.8,292.8z"/>
			<path class="st3" d="M493,383.4v121H117.6V384.3c0-27.2,16.3-51.7,41.3-62.3l60.6-26.3l20.4-8.9c15.5-6.7,25.5-22,25.5-38.9v-7.8
				h79.7v7.4c0,16.9,10.1,32.3,25.7,39l81.9,35.1C477.2,332.5,493,356.7,493,383.4L493,383.4z"/>
			<path class="st4" d="M219.6,324.6c20.7,6.2,51.1,12.8,88.2,12.1c34.8-0.6,63.4-7.4,83.3-13.7l9.9-23.5l-30.1-12.9
				c-15.6-6.7-25.7-22-25.7-39v-7.4h-79.7v7.8c0,16.9-10,32.1-25.5,38.9l-24.4,10.6L219.6,324.6z"/>
			<g>
				<path class="st0" d="M452.8,321.7l-61.7-26.5l0,0v209.2H493v-121C493,356.7,477.2,332.5,452.8,321.7L452.8,321.7z"/>
				<path class="st0" d="M219.6,295.8v208.6H117.7v-120c0-27.2,16.3-51.7,41.3-62.3L219.6,295.8z"/>
			</g>
		</g>
		<g>
			<path class="st5" d="M332.9,283.9c9.2,0,17.9-1.8,25.9-5.2c-8.5-7.9-13.6-19.1-13.6-31.2v-7.4h-79.7v7.8c0,6.1-1.3,12-3.7,17.3
				c12.1,11.5,28.4,18.6,46.4,18.6L332.9,283.9L332.9,283.9z"/>
			<path class="st4" d="M385,120.3v65.9c0,37.1-30.1,67.2-67.2,67.2h-24.8c-37.1,0-67.2-30.1-67.2-67.2v-65.9
				c0-24.2,19.6-43.7,43.7-43.7h71.8C365.4,76.5,385,96.1,385,120.3L385,120.3z"/>
			<path class="st6" d="M385,154.6c0,0.1-0.1,0.2-0.1,0.3c-2.4,8.4-8.8,24.3-24.2,36.1c-7.2,5.5-15.4,9.5-24.3,11.9
				c-4.1,1.1-6.5,5.2-5.4,9.3c0.9,3.4,4,5.7,7.4,5.7c0.6,0,1.3-0.1,1.9-0.3c11-2.9,21-7.8,29.8-14.6c6.1-4.7,11-9.9,15-15.1
				c0-0.6,0-1.2,0-1.8L385,154.6L385,154.6z"/>
			<path class="st7" d="M327.9,223.9h-17.8c-8.1,0-14.7-6.6-14.7-14.7s6.6-14.7,14.7-14.7h17.8c8.1,0,14.7,6.6,14.7,14.7
				C342.6,217.4,336.1,223.9,327.9,223.9z"/>
			<g>
				<path class="st2" d="M321.2,59.1c1.7-21.5,22.3-35.8,42.1-43.2c32.6,19.6,54.5,55.3,54.5,96.1v7.7c-1.8,0.4-3.6,0.7-5.4,1
					c-10.9,1.6-20.1,0.9-26.5,0C345.2,115.2,319.1,85.1,321.2,59.1z"/>
				<path class="st2" d="M305.8,0c25.3,0,48.6,8.4,67.4,22.5c-9.4,16.3-30.8,48.4-71.1,72.3c-29.9,17.7-58.1,23.6-75.4,25.9h-32.8
					V112C193.8,50.1,244,0,305.8,0z"/>
			</g>
		</g>
	</g>
	<path class="st8" d="M431,504.4H187.3l-13.4-126.8c-1-9,6.1-16.8,15.1-16.8h240.3c9,0,16.1,7.8,15.1,16.8L431,504.4z"/>
	<path class="st8" d="M429.3,360.8h-30.4c9,0,16.1,7.8,15.1,16.8l-13.4,126.8H431l13.4-126.8C445.4,368.6,438.3,360.8,429.3,360.8z"
		/>
	<g>
		<path class="st9" d="M504.5,512H7.5c-4.1,0-7.5-3.4-7.5-7.5s3.4-7.5,7.5-7.5h497c4.1,0,7.5,3.4,7.5,7.5S508.6,512,504.5,512z"/>
	</g>
	<circle class="st2" cx="309.1" cy="432.6" r="21.3"/>
	<g>
		<circle class="st3" cx="54" cy="80.7" r="7.6"/>
		<circle class="st3" cx="84.5" cy="80.7" r="7.6"/>
		<circle class="st3" cx="114.9" cy="80.7" r="7.6"/>
	</g>
</g>
</svg>
