<svg id="Flat" height="512" viewBox="0 0 512 512" width="512" xmlns="http://www.w3.org/2000/svg"><rect fill="#e6e6e6" height="32" rx="16" width="232" x="24" y="456"/><rect fill="#ccc" height="32" rx="16" width="232" x="224" y="456"/><path d="m162.71774 437.65522 27.25926-184a16 16 0 0 1 15.82726-13.65522h263.65074a16 16 0 0 1 15.82726 18.34478l-27.25926 184a16 16 0 0 1 -15.82726 13.65522h-263.65074a16 16 0 0 1 -15.82726-18.34478z" fill="#e6e6e6"/><path d="m162.71774 437.65522 27.25926-184a16 16 0 0 1 15.82726-13.65522h234.19253a16 16 0 0 1 15.82726 18.34478l-27.25926 184a16 16 0 0 1 -15.82726 13.65522h-234.19253a16 16 0 0 1 -15.82726-18.34478z" fill="#3ea7ff"/><path d="m24 24h352v384h-352z" fill="#65dcff"/><path d="m24 24h352v64h-352z" fill="#3ea7ff"/><circle cx="56" cy="56" fill="#eb352f" r="8"/><circle cx="88" cy="56" fill="#f2e368" r="8"/><circle cx="120" cy="56" fill="#a0cc00" r="8"/><g fill="#57c1ff"><path d="m112 192h-48a8.00039 8.00039 0 0 1 -8-8v-48a8.00039 8.00039 0 0 1 8-8h48a8.00039 8.00039 0 0 1 8 8v48a8.00039 8.00039 0 0 1 -8 8zm-40-16h32v-32h-32z"/><path d="m112 288h-48a8.00039 8.00039 0 0 1 -8-8v-48a8.00039 8.00039 0 0 1 8-8h48a8.00039 8.00039 0 0 1 8 8v48a8.00039 8.00039 0 0 1 -8 8zm-40-16h32v-32h-32z"/><path d="m112 384h-48a8.00039 8.00039 0 0 1 -8-8v-48a8.00039 8.00039 0 0 1 8-8h48a8.00039 8.00039 0 0 1 8 8v48a8.00039 8.00039 0 0 1 -8 8zm-40-16h32v-32h-32z"/><path d="m152 136h32v16h-32z"/><path d="m200 136h120v16h-120z"/><path d="m136 168h32v16h-32z"/><path d="m184 168h88v16h-88z"/><path d="m152 232h32v16h-32z"/><path d="m200 232h120v16h-120z"/><path d="m136 264h32v16h-32z"/><path d="m184 264h88v16h-88z"/><path d="m152 328h32v16h-32z"/><path d="m200 328h120v16h-120z"/><path d="m136 360h32v16h-32z"/><path d="m184 360h88v16h-88z"/></g><path d="m79.716 131.999h56.569v16.001h-56.569z" fill="#808080" transform="matrix(.707 -.707 .707 .707 -67.362 117.373)"/><path d="m79.716 227.999h56.569v16.001h-56.569z" fill="#808080" transform="matrix(.707 -.707 .707 .707 -135.245 145.49)"/><path d="m79.716 323.999h56.569v16.001h-56.569z" fill="#808080" transform="matrix(.707 -.707 .707 .707 -203.127 173.608)"/><path d="m344 88h32v320h-32z" fill="#a0eaff"/><path d="m344 144h32v48h-32z" fill="#57c1ff"/></svg>